<svg width="57" height="76" viewBox="0 0 57 76" fill="none" xmlns="http://www.w3.org/2000/svg">
<path d="M1.74639 50.1619C1.74639 50.1619 0.651897 52.1835 0.568165 53.4454C0.484433 54.7074 1.32773 64.9825 3.17581 67.2552C5.02389 69.5279 10.6698 75.5087 27.3384 75.6762C44.007 75.8437 52.5117 68.2659 53.4388 66.7528C54.3658 65.2396 55.544 58.1643 55.6278 52.6081C55.7115 47.0519 26.0764 50.9215 26.0764 50.9215L1.74639 50.1619V50.1619Z" fill="#FBB75A"/>
<path d="M27.0039 63.6302C41.8244 64.0489 55.5445 54.958 55.5445 54.958L55.1258 59.5034C55.1258 59.5034 43.846 68.1757 27.2551 67.757C10.6643 67.3383 1.071 59.5034 1.071 59.5034L0.652344 55.5441C0.652344 55.5441 14.0434 63.2594 27.0039 63.6302V63.6302Z" fill="#F2A05B"/>
<path d="M28.8597 28.2653C22.5439 28.2952 3.51885 29.7785 1.58106 37.8646C-0.35673 45.9507 -0.105535 53.5284 0.235372 54.1982C0.570299 54.8741 1.32388 53.7078 3.10019 54.3657C5.37291 55.209 5.20545 61.3513 9.33223 62.4458C13.459 63.5403 13.5427 57.9004 18.2556 58.2353C22.9685 58.5702 20.7795 64.892 27.0116 64.9697C33.4111 65.0535 31.0367 58.7138 35.5163 58.1516C39.9481 57.5894 37.6216 64.4673 43.7699 63.5403C49.9182 62.6133 49.2065 53.8633 52.3524 52.9363C54.7387 52.2365 54.5354 54.581 55.6658 54.4793C56.5928 54.3956 56.228 41.5667 55.3847 38.7079C54.5414 35.849 46.6227 28.1816 28.8597 28.2653V28.2653Z" fill="url(#paint0_radial_47_24955)"/>
<path d="M9.70384 46.3283C5.22419 44.4384 3.77683 42.6501 3.05315 41.741C2.55076 41.107 1.79119 40.8558 1.36655 41.3642C0.947896 41.8666 1.15722 42.4168 1.61775 42.9611C2.07827 43.5113 4.14166 46.6632 9.44667 48.3917C14.1117 49.9108 17.1918 50.1201 18.3701 50.162C19.6799 50.2099 20.2241 48.5651 18.4957 48.3498C16.516 48.1046 14.5902 48.3917 9.70384 46.3283V46.3283ZM23.1607 48.9539C22.0124 48.924 21.5878 49.5699 21.5878 50.0783C21.5878 50.6943 22.1201 51.0352 23.0471 51.089C23.9741 51.1429 24.5064 50.5268 24.5064 50.1082C24.5124 49.6835 24.2552 48.9778 23.1607 48.9539V48.9539Z" fill="#FDFFFF"/>
<path d="M5.03269 52.9417C4.50638 53.456 4.72767 54.0541 4.97887 54.3651C5.39154 54.8735 6.13317 54.9572 6.51594 54.6582C6.95254 54.3232 6.89872 53.7012 6.6236 53.2886C6.27073 52.7503 5.55303 52.4273 5.03269 52.9417V52.9417ZM6.50398 55.1546C5.7803 55.5613 6.10326 56.4644 6.49202 57.206C7.32335 58.7849 7.58651 60.0708 8.54345 60.7048C9.51234 61.3447 10.7085 60.9022 10.5949 60.2383C10.4154 59.1797 9.76354 59.9811 9.20134 58.6414C8.96809 58.0852 8.48962 57.194 7.9334 55.9919C7.61043 55.2862 7.23364 54.7419 6.50398 55.1546V55.1546ZM23.358 59.4189C22.6463 59.9273 23.0769 61.2132 23.974 62.2239C24.8711 63.2347 26.1331 64.0481 27.5087 63.6832C28.5733 63.4021 28.4895 62.2239 27.7599 61.889C27.0302 61.5541 26.163 61.7514 25.3735 60.7108C24.9907 60.2024 24.4525 58.6354 23.358 59.4189ZM40.2598 58.3125C39.5541 58.8328 40.218 59.9153 40.6546 60.6629C41.0912 61.4105 42.5325 62.8459 43.3758 61.9967C43.9919 61.3746 42.8316 60.6211 42.2873 59.8077C41.8806 59.1916 41.1988 57.6127 40.2598 58.3125V58.3125ZM39.0457 56.3627C38.5792 56.7036 38.651 57.2419 38.8184 57.5409C39.0457 57.9357 39.7754 58.1031 40.194 57.7383C40.6007 57.3854 40.3615 56.8113 40.1402 56.5302C39.9189 56.2491 39.3567 56.1354 39.0457 56.3627Z" fill="#FCE9CA"/>
<path d="M41.6724 23.5117C41.6724 23.5117 37.0493 29.8872 37.3423 31.1552C37.5696 32.154 38.6461 33.2245 40.9488 33.38C43.2514 33.5355 44.6928 32.465 45.0217 31.4482C45.4643 30.0966 44.0229 25.7904 43.5026 24.9351C42.7669 23.721 42.1031 23.5475 41.6724 23.5117ZM51.2298 29.2652L46.2597 36.2269C46.2597 36.2269 46.4093 37.752 47.9045 38.4099C49.4655 39.0917 52.6533 39.1336 53.5683 37.7999C54.609 36.2867 54.1604 33.6851 53.6341 32.1121C53.2274 30.88 52.3662 29.1336 51.2298 29.2652V29.2652ZM42.8148 37.13L38.0062 44.5164C38.0062 44.5164 37.9524 46.3465 40.1234 46.8549C41.8459 47.2556 45.0097 47.2735 46.188 46.2628C47.3662 45.252 47.2705 43.2185 46.2538 41.0834C45.1413 38.7628 43.4906 36.5798 42.8148 37.13V37.13ZM30.8411 38.9422L24.5433 46.5618C24.5433 46.5618 24.4177 48.0331 25.9727 48.7508C27.9703 49.6778 31.0445 49.63 32.6055 48.7927C33.9751 48.057 34.1844 45.7245 33.688 44.2652C33.2813 43.075 32.7191 42.0642 32.5098 41.514C32.3005 40.9697 31.5947 39.2771 30.8411 38.9422V38.9422ZM17.2826 36.3705L11.9178 44.7496C11.9178 44.7496 12.0852 46.7053 14.1307 47.1061C15.895 47.4529 18.8017 47.6563 19.8125 46.3884C20.8232 45.1204 20.8651 41.9027 19.8962 39.63C18.9273 37.3633 18.084 36.6695 17.2826 36.3705V36.3705ZM9.13668 28.4698L8.41898 28.2126L3.63431 35.7724C3.63431 35.7724 3.49676 37.1061 4.60919 37.8178C5.66182 38.4937 9.01109 38.8286 10.8173 37.9434C12.6295 37.0583 12.4979 34.0918 11.236 31.5439C10.0697 29.1815 9.13668 28.4698 9.13668 28.4698V28.4698ZM17.9166 22.8896L13.2694 30.91C13.2694 30.91 13.4728 31.9506 15.0757 32.4052C16.6486 32.8537 18.706 32.77 19.7586 31.9566C20.8173 31.1432 21.0984 29.3549 20.6139 27.2796C20.285 25.8621 19.011 23.2963 17.9166 22.8896Z" fill="#EE5B4A"/>
<path d="M13.3261 39.2953C12.3273 41.4484 10.9278 44.6421 12.5246 45.6948C14.1215 46.7474 16.484 45.0608 17.3213 41.9029C18.1586 38.745 18.2902 37.1661 17.4887 36.4903C16.6933 35.8264 14.6299 36.4783 13.3261 39.2953ZM7.90744 27.9676C6.77108 28.0393 5.46726 29.7977 4.81535 31.5262C4.16344 33.2546 3.40387 35.4017 3.67899 36.0955C3.95411 36.7893 5.82611 37.6326 6.62754 36.1613C7.42898 34.69 7.26749 32.7223 7.44692 31.7175C7.7639 29.9472 9.13352 28.4759 9.13352 28.4759C9.13352 28.4759 8.66701 27.9197 7.90744 27.9676ZM16.9146 22.5429C16.1012 22.5908 15.3297 22.9317 14.6359 25.2044C14.2591 26.4484 13.1945 27.8898 13.0928 29.2475C12.9912 30.6111 13.2962 30.964 13.2962 30.964C13.2962 30.964 15.2459 31.3407 16.0055 29.8216C16.7352 28.3683 16.5079 26.885 16.7531 26.1972C16.9983 25.5035 18.1167 22.9855 18.1167 22.9855C18.1167 22.9855 17.6263 22.5071 16.9146 22.5429V22.5429Z" fill="#FD6F42"/>
<path d="M41.4723 23.469C40.617 23.4271 39.367 24.4857 38.5716 26.3757C37.7701 28.2656 37.2857 30.317 37.3216 30.9211C37.3575 31.5252 40.5153 31.5969 41.6278 29.7728C42.3275 28.6245 42.2917 25.5443 42.2139 24.8027C42.1421 24.0551 42.3634 23.5108 41.4723 23.469V23.469ZM50.9639 29.2405C50.2282 29.3601 48.4938 29.7847 47.0943 32.8051C46.2211 34.689 45.9579 36.5012 46.5919 36.7644C47.2258 37.0275 48.9543 37.2907 49.7438 36.3038C50.5332 35.317 51.4064 32.6316 51.6038 31.2919C51.7952 29.9642 51.9268 29.085 50.9639 29.2405V29.2405ZM38.1828 45.0239C39.1278 45.8851 40.928 45.0718 41.574 44.3062C42.5608 43.128 43.3861 40.6639 43.428 38.9414C43.4579 37.6914 43.745 36.9857 42.6505 37.0455C42.2737 37.0694 41.239 37.2548 40.0429 39.0251C39.0919 40.4246 38.5476 41.5311 38.2307 42.9007C37.9615 44.0371 37.9077 44.7727 38.1828 45.0239ZM29.5943 38.5168C28.9843 38.4928 27.824 38.8517 26.6278 40.8313C25.4257 42.811 24.0621 46.0107 24.6482 46.9976C25.2403 47.9844 26.6876 48.0921 28.1649 47.482C29.6362 46.872 30.647 44.7428 30.7307 43.8816C30.8144 43.0203 31.3826 39.3361 30.8982 38.9773C30.4137 38.6244 30.1206 38.5407 29.5943 38.5168V38.5168Z" fill="#FF6E45"/>
<path d="M52.3759 15.4126C52.3759 23.7439 39.0626 31.1303 28.6858 31.1303C18.3091 31.1303 5.10938 23.2954 5.10938 14.9641C5.10938 6.63275 18.1237 0 28.4945 0C38.8652 0 52.3759 7.08131 52.3759 15.4126Z" fill="url(#paint1_radial_47_24955)"/>
<path d="M33.5323 18.457C33.7416 18.1639 37.683 18.4929 38.0358 18.5826C38.2033 18.6244 38.1614 33.6543 37.9521 33.7799C37.7727 33.8875 37.0669 34.5394 35.7212 34.5394C34.3756 34.5394 33.616 34.0789 33.3648 33.9055C33.1136 33.738 33.3229 18.75 33.5323 18.457V18.457Z" fill="#FEA8A8"/>
<path d="M26.2957 22.1646C26.1342 22.3022 26.0864 36.8177 26.212 36.9433C26.3376 37.0689 27.1809 37.8284 28.8196 37.7866C30.4644 37.7447 31.2179 37.1526 31.3435 37.027C31.4691 36.9014 31.4273 22.1646 31.3017 22.0809C31.1761 21.9912 26.5469 21.9493 26.2957 22.1646V22.1646Z" fill="#EC7FAE"/>
<path d="M19.2192 19.0496C19.0159 19.1692 19.0099 33.912 19.0937 34.0376C19.1774 34.1631 20.3975 34.5878 21.5338 34.5878C22.6702 34.5878 23.7647 34.3366 23.8903 34.211C24.0159 34.0854 23.9321 19.223 23.8066 19.0556C23.681 18.8881 19.4286 18.924 19.2192 19.0496V19.0496Z" fill="#93C7EE"/>
<path d="M28.8615 8.81641C29.1127 8.81641 29.4536 10.7961 29.9141 11.9324C30.3746 13.0688 32.1031 15.8917 31.4272 18.3319C30.6916 21.0054 26.523 21.5257 25.6198 18.0389C24.9859 15.5987 27.133 13.0688 27.6832 11.9324C28.06 11.1489 28.688 8.81641 28.8615 8.81641V8.81641Z" fill="url(#paint2_radial_47_24955)"/>
<path d="M35.6352 5.74219C35.6352 5.74219 35.0132 8.57711 34.2477 9.78523C33.1532 11.5137 32.4594 13.8761 33.3207 15.8079C34.4152 18.2481 38.7991 18.1225 38.8769 13.9539C38.9187 11.7649 37.9618 10.6046 37.28 9.36658C36.8135 8.52328 35.9283 5.82592 35.6352 5.74219V5.74219Z" fill="url(#paint3_radial_47_24955)"/>
<path d="M21.7015 6.20801C21.7015 6.20801 20.5652 9.03096 19.8475 10.0836C19.1298 11.1362 17.8558 13.6183 18.5855 15.5979C19.4707 17.9962 23.3881 18.2833 24.1417 15.1374C24.6441 13.0321 23.5496 11.4353 22.796 9.7068C22.3235 8.61828 21.7015 6.20801 21.7015 6.20801V6.20801Z" fill="url(#paint4_radial_47_24955)"/>
<defs>
<radialGradient id="paint0_radial_47_24955" cx="0" cy="0" r="1" gradientUnits="userSpaceOnUse" gradientTransform="translate(29.0607 37.3592) rotate(91.1173) scale(27.383 59.611)">
<stop offset="0.445" stop-color="#FEEAC9"/>
<stop offset="0.565" stop-color="#FEE7C2"/>
<stop offset="0.741" stop-color="#FEDEAE"/>
<stop offset="0.952" stop-color="#FFCF8D"/>
<stop offset="1" stop-color="#FFCB85"/>
</radialGradient>
<radialGradient id="paint1_radial_47_24955" cx="0" cy="0" r="1" gradientUnits="userSpaceOnUse" gradientTransform="translate(28.7462 15.5643) scale(23.3396 14.3702)">
<stop offset="0.034" stop-color="#FFE265" stop-opacity="0.7"/>
<stop offset="0.112" stop-color="#FFE575" stop-opacity="0.643"/>
<stop offset="0.417" stop-color="#FFF0B0" stop-opacity="0.422"/>
<stop offset="0.677" stop-color="#FFF8DB" stop-opacity="0.234"/>
<stop offset="0.88" stop-color="#FFFDF5" stop-opacity="0.087"/>
<stop offset="1" stop-color="white" stop-opacity="0"/>
</radialGradient>
<radialGradient id="paint2_radial_47_24955" cx="0" cy="0" r="1" gradientUnits="userSpaceOnUse" gradientTransform="translate(28.819 21.363) scale(11.6196 11.6196)">
<stop offset="0.17" stop-color="#FF9616"/>
<stop offset="0.654" stop-color="#FFD429"/>
</radialGradient>
<radialGradient id="paint3_radial_47_24955" cx="0" cy="0" r="1" gradientUnits="userSpaceOnUse" gradientTransform="translate(36.1747 18.2822) scale(11.3899 11.3899)">
<stop offset="0.17" stop-color="#FF9616"/>
<stop offset="0.654" stop-color="#FFD429"/>
</radialGradient>
<radialGradient id="paint4_radial_47_24955" cx="0" cy="0" r="1" gradientUnits="userSpaceOnUse" gradientTransform="translate(21.5891 18.2785) scale(11.2757 11.2757)">
<stop offset="0.17" stop-color="#FF9616"/>
<stop offset="0.654" stop-color="#FFD429"/>
</radialGradient>
</defs>
</svg>
