<svg width="31" height="25" viewBox="0 0 31 25" fill="none" xmlns="http://www.w3.org/2000/svg">
<path d="M15.4018 23.4989C21.4767 23.4989 26.4013 18.5743 26.4013 12.4995C26.4013 6.42463 21.4767 1.5 15.4018 1.5C9.32697 1.5 4.40234 6.42463 4.40234 12.4995C4.40234 18.5743 9.32697 23.4989 15.4018 23.4989Z" fill="#DAE3EA"/>
<path d="M15.3551 5.04997C11.0553 5.04997 7.50546 8.34981 7.35547 12.4996V12.2496C7.35547 7.99983 10.9553 4.5 15.3551 4.5C19.7549 4.5 23.3547 7.94983 23.3547 12.2496V12.4996C23.2047 8.34981 19.7049 5.04997 15.3551 5.04997Z" fill="#ACB8BF"/>
<path d="M15.3551 19.9496C19.6549 19.9496 23.2047 16.6498 23.3547 12.5V12.75C23.3547 16.9998 19.7549 20.4996 15.3551 20.4996C10.9553 20.4996 7.35547 17.0498 7.35547 12.75V12.5C7.55546 16.6498 11.0553 19.9496 15.3551 19.9496Z" fill="white"/>
<path d="M0.754402 0.201388C0.854397 -0.24859 1.10438 0.201388 1.10438 0.201388C1.10438 0.201388 1.20438 5.05116 1.70436 5.10115C2.25433 5.20115 1.85435 0.101393 2.50432 0.00139748C3.10429 -0.0985977 2.75431 5.20115 3.30428 5.15115C3.85425 5.10115 3.95425 0.201388 3.95425 0.201388C3.95425 0.201388 4.20424 -0.24859 4.30423 0.201388C5.75416 5.95111 4.60422 8.301 4.60422 8.301C4.60422 8.301 4.40423 8.80097 3.90425 8.80097C3.85425 8.80097 3.90425 22.4503 3.90425 24.3002C3.90425 25.2002 1.15438 25.1502 1.15438 24.3002C1.15438 22.4503 1.20438 8.80097 1.15438 8.80097C0.654406 8.80097 0.454416 8.301 0.454416 8.301C0.454416 8.301 -0.745526 5.95111 0.754402 0.201388ZM26.8032 0.00139748C27.4031 0.00139748 30.003 1.85131 30.003 8.75098C30.003 10.9509 28.8031 10.9509 28.8031 12.3508V24.6502C28.8031 24.6502 27.5031 25.5002 26.5032 24.5502V0.201388C26.5032 0.201388 26.5032 0.00139748 26.8032 0.00139748Z" fill="#ACB8BF"/>
</svg>
