<svg width="20" height="20" viewBox="0 0 20 20" fill="none" xmlns="http://www.w3.org/2000/svg">
<path fill-rule="evenodd" clip-rule="evenodd" d="M8.31 0.25H11.69C11.907 0.25 12.096 0.25 12.274 0.278C12.6207 0.333543 12.9496 0.469462 13.2344 0.674881C13.5192 0.880301 13.7519 1.14952 13.914 1.461C13.998 1.621 14.057 1.8 14.126 2.005L14.237 2.34C14.3136 2.61216 14.4802 2.85032 14.7096 3.0156C14.9389 3.18088 15.2176 3.26351 15.5 3.25H18.5C18.6989 3.25 18.8897 3.32902 19.0303 3.46967C19.171 3.61032 19.25 3.80109 19.25 4C19.25 4.19891 19.171 4.38968 19.0303 4.53033C18.8897 4.67098 18.6989 4.75 18.5 4.75H1.5C1.30109 4.75 1.11032 4.67098 0.96967 4.53033C0.829018 4.38968 0.75 4.19891 0.75 4C0.75 3.80109 0.829018 3.61032 0.96967 3.46967C1.11032 3.32902 1.30109 3.25 1.5 3.25H4.59C4.8571 3.24359 5.11513 3.15177 5.32623 2.988C5.53733 2.82423 5.6904 2.59713 5.763 2.34L5.875 2.005C5.943 1.8 6.002 1.621 6.085 1.461C6.24719 1.1494 6.48009 0.880102 6.76505 0.674675C7.05001 0.469248 7.37911 0.333397 7.726 0.278C7.904 0.25 8.093 0.25 8.309 0.25H8.31ZM7.008 3.25C7.07822 3.11249 7.13675 2.96932 7.183 2.822L7.283 2.522C7.374 2.249 7.395 2.194 7.416 2.154C7.46998 2.05001 7.54758 1.96011 7.64257 1.89152C7.73757 1.82292 7.84731 1.77754 7.963 1.759C8.09336 1.74799 8.22427 1.74498 8.355 1.75H11.645C11.933 1.75 11.993 1.752 12.037 1.76C12.1526 1.77843 12.2623 1.82366 12.3573 1.89208C12.4522 1.9605 12.5299 2.05019 12.584 2.154C12.605 2.194 12.626 2.249 12.717 2.523L12.817 2.823L12.856 2.935C12.895 3.045 12.941 3.149 12.992 3.25H7.008Z" fill="black"/>
<path d="M3.91468 6.45017C3.90142 6.25165 3.80985 6.06654 3.6601 5.93554C3.51035 5.80455 3.3147 5.73841 3.11618 5.75167C2.91767 5.76493 2.73255 5.85651 2.60156 6.00626C2.47057 6.156 2.40442 6.35166 2.41769 6.55017L2.88168 13.5022C2.96668 14.7842 3.03568 15.8202 3.19768 16.6342C3.36668 17.4792 3.65268 18.1852 4.24468 18.7382C4.83568 19.2922 5.55968 19.5312 6.41469 19.6422C7.23669 19.7502 8.27468 19.7502 9.56068 19.7502H10.4397C11.7247 19.7502 12.7637 19.7502 13.5857 19.6422C14.4397 19.5312 15.1637 19.2922 15.7557 18.7382C16.3467 18.1852 16.6327 17.4782 16.8017 16.6342C16.9637 15.8212 17.0317 14.7842 17.1177 13.5022L17.5817 6.55017C17.5949 6.35166 17.5288 6.156 17.3978 6.00626C17.2668 5.85651 17.0817 5.76493 16.8832 5.75167C16.6847 5.73841 16.489 5.80455 16.3393 5.93554C16.1895 6.06654 16.0979 6.25165 16.0847 6.45017L15.6247 13.3502C15.5347 14.6972 15.4707 15.6352 15.3307 16.3402C15.1937 17.0252 15.0037 17.3872 14.7307 17.6432C14.4567 17.8992 14.0827 18.0652 13.3907 18.1552C12.6777 18.2482 11.7377 18.2502 10.3867 18.2502H9.61268C8.26268 18.2502 7.32269 18.2482 6.60869 18.1552C5.91669 18.0652 5.54269 17.8992 5.26869 17.6432C4.99569 17.3872 4.80569 17.0252 4.66869 16.3412C4.52869 15.6352 4.46468 14.6972 4.37468 13.3492L3.91468 6.45017Z" fill="black"/>
<path d="M7.42474 8.25374C7.62258 8.23391 7.82019 8.29346 7.97415 8.41928C8.1281 8.54511 8.22579 8.72691 8.24574 8.92474L8.74574 13.9247C8.76039 14.1198 8.69823 14.3129 8.57252 14.4628C8.44682 14.6127 8.26752 14.7076 8.07287 14.7271C7.87822 14.7467 7.68363 14.6894 7.5306 14.5676C7.37757 14.4457 7.27822 14.2688 7.25374 14.0747L6.75374 9.07474C6.73391 8.8769 6.79346 8.67929 6.91928 8.52533C7.04511 8.37138 7.22691 8.27369 7.42474 8.25374ZM12.5747 8.25374C12.7724 8.2737 12.954 8.37125 13.0798 8.52498C13.2056 8.67871 13.2653 8.87606 13.2457 9.07374L12.7457 14.0737C12.7209 14.2675 12.6216 14.4439 12.4687 14.5655C12.3159 14.687 12.1216 14.7442 11.9273 14.7248C11.7329 14.7054 11.5538 14.6109 11.4281 14.4615C11.3023 14.3121 11.2397 14.1195 11.2537 13.9247L11.7537 8.92474C11.7737 8.72711 11.8712 8.54546 12.025 8.41966C12.1787 8.29387 12.3771 8.2342 12.5747 8.25374Z" fill="black"/>
</svg>
