<svg width="360" height="259" viewBox="0 0 360 259" fill="none" xmlns="http://www.w3.org/2000/svg">
<path d="M320.137 77.8395L315.543 101.849L312.586 98.7356L307.556 102.61L303.711 97.4562L295.09 104.221L287.722 90.9242L279.505 96.1197L276.245 91.2712L265.81 97.6167L262.671 90.3596L269.986 52.126L309.202 60.8646L320.137 77.8395Z" fill="#EBEBEB"/>
<path d="M309.202 60.8652L320.136 77.8401L306.533 74.8098L309.202 60.8652Z" fill="#DBDBDB"/>
<path d="M314.563 106.646L307.829 141.87L255.005 130.101L261.691 95.1621L264.83 102.414L275.27 96.0686L278.525 100.917L286.747 95.7267L294.11 109.024L302.736 102.259L306.576 107.408L311.611 103.538L314.563 106.646Z" fill="#EBEBEB"/>
<path d="M238.958 102.517L185.126 106.112L180.85 31.541L220.824 28.8682L235.498 42.1549L238.958 102.517Z" fill="#EBEBEB"/>
<path d="M220.824 28.8682L235.498 42.1549L221.635 43.0821L220.824 28.8682Z" fill="#DBDBDB"/>
<path d="M205.92 79.0467L205.709 77.3632C205.167 73.8771 206.05 69.9765 208.858 65.8999C211.392 62.2739 212.765 59.6839 212.611 56.7416C212.439 53.4264 210.399 51.3337 206.602 51.4995C204.432 51.6211 202.348 52.4521 200.626 53.8823L198.97 49.8781C200.89 48.1946 204.25 46.9514 207.442 46.7701C214.368 46.3557 217.738 50.7795 218.002 55.716C218.232 60.1345 216.111 63.4549 213.413 67.3347C210.936 70.8727 210.125 73.789 210.475 77.0887L210.624 78.7774L205.92 79.0467ZM205.066 88.2205C204.941 85.817 206.357 84.0351 208.464 83.9107C210.571 83.7864 212.107 85.3819 212.232 87.7906C212.347 90.0646 211.056 91.8983 208.829 92.033C206.703 92.1625 205.167 90.4945 205.047 88.2205H205.066Z" fill="#DBDBDB"/>
<path d="M71.2709 66.3608L65.8565 63.7139L65.1029 65.501C64.9916 65.7564 64.818 65.9742 64.6007 66.1312C64.3833 66.2882 64.1305 66.3783 63.8693 66.3919C63.5718 66.4025 63.2752 66.4336 62.9813 66.4852C62.7234 66.5265 62.4599 66.4915 62.2189 66.3838C61.978 66.2762 61.7687 66.0999 61.6133 65.8739L60.5525 64.2733L55.7189 68.0133L56.7797 69.6139C56.9273 69.8449 57.0141 70.1147 57.031 70.3947C57.0479 70.6747 56.9942 70.9544 56.8757 71.2041C56.7388 71.489 56.6155 71.7812 56.5061 72.0796C56.411 72.3427 56.2513 72.5728 56.0441 72.7453C55.8369 72.9178 55.5901 73.0261 55.3301 73.0586L53.5205 73.2502L54.1013 79.6372L55.9205 79.4403C56.1814 79.4179 56.443 79.4725 56.6773 79.5985C56.9116 79.7244 57.1096 79.9169 57.2501 80.1552C57.3269 80.2899 57.4085 80.4194 57.4949 80.5489C57.5813 80.6784 57.6677 80.8027 57.7589 80.927C57.9245 81.1445 58.0311 81.4073 58.0667 81.6862C58.1023 81.9651 58.0655 82.2492 57.9605 82.5069L57.2021 84.3095L62.6213 86.9617L63.3749 85.1642C63.4872 84.9091 63.6619 84.6918 63.8801 84.5357C64.0983 84.3796 64.3518 84.2907 64.6133 84.2785C64.9075 84.2654 65.2008 84.2342 65.4917 84.1852C65.7496 84.1439 66.0131 84.1789 66.2541 84.2866C66.495 84.3942 66.7043 84.5705 66.8597 84.7965L67.9205 86.3971L72.7589 82.6571L71.6981 81.0565C71.546 80.8276 71.4564 80.5573 71.4394 80.2762C71.4225 79.9951 71.4788 79.7145 71.6021 79.4662C71.7358 79.183 71.856 78.8925 71.9621 78.596C72.0544 78.331 72.2134 78.099 72.4211 77.926C72.6288 77.7531 72.8771 77.6461 73.1381 77.617L74.9573 77.4201L74.3717 71.0332L72.5525 71.2249C72.2932 71.2494 72.0327 71.1962 71.7998 71.0709C71.5668 70.9457 71.3705 70.7534 71.2325 70.5152C71.1509 70.3805 71.0693 70.251 70.9829 70.1215C70.8965 69.992 70.8101 69.8625 70.7189 69.7434C70.5544 69.5232 70.4487 69.2588 70.4131 68.9785C70.3776 68.6983 70.4136 68.4129 70.5173 68.1531L71.2709 66.3608ZM68.1989 72.2712C68.7602 73.1165 69.0766 74.1225 69.1081 75.1619C69.1396 76.2013 68.8848 77.2274 68.3759 78.1105C67.8669 78.9936 67.1268 79.6939 66.249 80.123C65.3711 80.5521 64.3952 80.6906 63.4444 80.5211C62.4936 80.3515 61.6108 79.8815 60.9076 79.1705C60.2044 78.4594 59.7124 77.5393 59.4938 76.5265C59.2751 75.5136 59.3398 74.4536 59.6795 73.4804C60.0191 72.5072 60.6186 71.6646 61.4021 71.0591C62.4524 70.2474 63.7585 69.9191 65.0331 70.1464C66.3077 70.3737 67.4464 71.138 68.1989 72.2712Z" fill="#EBEBEB"/>
<path d="M316.023 151.105L312.413 153.354L313.052 154.545C313.147 154.716 313.195 154.913 313.189 155.112C313.183 155.312 313.123 155.505 313.018 155.669C312.908 155.856 312.802 156.047 312.706 156.249C312.627 156.428 312.503 156.578 312.347 156.683C312.191 156.788 312.011 156.842 311.828 156.84H310.561V161.341H311.837C312.021 161.339 312.201 161.393 312.357 161.498C312.512 161.602 312.637 161.753 312.716 161.932C312.812 162.134 312.917 162.325 313.028 162.512C313.133 162.676 313.192 162.869 313.198 163.069C313.204 163.268 313.157 163.465 313.061 163.636L312.423 164.827L316.033 167.075L316.676 165.879C316.769 165.709 316.904 165.571 317.066 165.479C317.228 165.388 317.41 165.347 317.593 165.361H318.207C318.389 165.347 318.571 165.389 318.733 165.48C318.895 165.571 319.03 165.71 319.124 165.879L319.767 167.081L323.372 164.832L322.733 163.636C322.643 163.464 322.598 163.268 322.605 163.071C322.612 162.873 322.669 162.681 322.772 162.517C322.882 162.331 322.988 162.134 323.084 161.937C323.163 161.758 323.287 161.608 323.443 161.503C323.599 161.398 323.779 161.344 323.962 161.346H325.239V156.845H323.953C323.769 156.847 323.589 156.793 323.433 156.688C323.278 156.584 323.153 156.433 323.074 156.254C322.978 156.058 322.873 155.861 322.762 155.674C322.66 155.51 322.602 155.318 322.595 155.121C322.588 154.923 322.633 154.727 322.724 154.555L323.362 153.359L319.757 151.111L319.114 152.292C319.021 152.461 318.886 152.6 318.724 152.691C318.562 152.783 318.38 152.824 318.197 152.81H317.89H317.583C317.4 152.823 317.217 152.782 317.055 152.69C316.892 152.599 316.756 152.461 316.661 152.292L316.023 151.105ZM317.89 155.405C318.567 155.404 319.228 155.619 319.791 156.024C320.353 156.429 320.792 157.005 321.051 157.679C321.311 158.353 321.379 159.095 321.247 159.811C321.115 160.527 320.79 161.185 320.312 161.701C319.833 162.217 319.224 162.568 318.56 162.711C317.897 162.853 317.21 162.779 316.585 162.499C315.96 162.22 315.426 161.746 315.051 161.139C314.676 160.532 314.476 159.818 314.477 159.088C314.477 158.604 314.565 158.124 314.736 157.677C314.907 157.229 315.158 156.823 315.475 156.48C315.792 156.138 316.169 155.866 316.583 155.681C316.997 155.495 317.442 155.4 317.89 155.4V155.405Z" fill="#EBEBEB"/>
<path d="M82.2247 47.2206L78.9175 49.9557L79.6807 51.0486C79.7945 51.2044 79.8645 51.3921 79.8824 51.5895C79.9002 51.787 79.8652 51.9858 79.7815 52.1623C79.6896 52.364 79.6095 52.5716 79.5415 52.7839C79.4823 52.971 79.3759 53.1366 79.2343 53.2619C79.0927 53.3873 78.9214 53.4675 78.7399 53.4936L77.4727 53.6697L78.0103 58.1297L79.2775 57.9536C79.4619 57.9258 79.6499 57.9549 79.8197 58.0373C79.9896 58.1198 80.1344 58.2524 80.2375 58.4198C80.353 58.6 80.478 58.7729 80.6119 58.9378C80.7355 59.0845 80.8175 59.2665 80.8482 59.4621C80.8788 59.6577 80.8568 59.8587 80.7847 60.0411L80.3047 61.3154L84.1447 63.0403L84.6247 61.7661C84.6961 61.5833 84.8135 61.4257 84.9637 61.3113C85.1139 61.1968 85.2907 61.1301 85.4743 61.1186L85.7815 61.0823L86.0839 61.0305C86.2615 60.9944 86.4449 61.0115 86.6142 61.08C86.7834 61.1485 86.932 61.2657 87.0439 61.419L87.8263 62.5223L91.1335 59.7873L90.3607 58.6943C90.249 58.5364 90.1805 58.348 90.1627 58.1504C90.1448 57.9527 90.1785 57.7536 90.2599 57.5754C90.3508 57.3752 90.431 57.1693 90.4999 56.959C90.559 56.7719 90.6654 56.6064 90.807 56.481C90.9486 56.3556 91.1199 56.2754 91.3015 56.2494L92.5687 56.0732L92.0311 51.6133L90.7639 51.7894C90.5799 51.8177 90.3922 51.7894 90.2224 51.7079C90.0526 51.6263 89.9076 51.4948 89.8039 51.3284C89.6839 51.1419 89.5591 50.9658 89.4247 50.8104C89.3128 50.6604 89.2405 50.4808 89.2151 50.2904C89.1898 50.0999 89.2124 49.9055 89.2807 49.7277L89.7607 48.4535L85.9207 46.7285L85.4407 48.0028C85.3683 48.1849 85.2506 48.3418 85.1006 48.4561C84.9507 48.5704 84.7743 48.6376 84.5911 48.6503L84.2839 48.6814L84.0007 48.6917C83.823 48.7279 83.6396 48.7107 83.4704 48.6423C83.3011 48.5738 83.1525 48.4565 83.0407 48.3032L82.2247 47.2206ZM84.5911 51.2248C85.2597 51.132 85.9388 51.255 86.5427 51.5783C87.1466 51.9016 87.6483 52.4106 87.9844 53.0412C88.3206 53.6718 88.4761 54.3958 88.4315 55.1217C88.3868 55.8476 88.144 56.5429 87.7335 57.1201C87.3231 57.6972 86.7634 58.1302 86.1252 58.3645C85.487 58.5987 84.7988 58.6238 84.1474 58.4365C83.496 58.2491 82.9106 57.8578 82.465 57.3118C82.0195 56.7659 81.7337 56.0898 81.6439 55.3688C81.5839 54.8876 81.6126 54.3984 81.7285 53.9293C81.8443 53.4602 82.045 53.0204 82.3189 52.6353C82.5928 52.2502 82.9345 51.9273 83.3245 51.6852C83.7144 51.4431 84.1449 51.2867 84.5911 51.2248Z" fill="#EBEBEB"/>
<path d="M57.5142 164.092C57.6945 159.084 57.6304 154.07 57.3222 149.07C56.6354 138.744 55.1762 128.496 52.959 118.425C51.7398 112.758 50.2422 107.184 48.6774 101.616C48.6294 101.445 48.3798 101.491 48.423 101.667C53.2566 121.3 57.2214 141.553 56.9478 161.963C56.871 167.661 56.2566 173.281 55.7574 178.958C55.7574 179.108 55.9734 179.171 56.007 179.015C57.0006 174.141 57.327 169.054 57.5142 164.092Z" fill="#EBEBEB"/>
<path d="M48.423 101.652C48.423 101.652 41.1078 121.699 42.7446 126.392C44.3814 131.085 47.7606 132.09 47.7606 132.09C47.7606 132.09 43.2822 138.99 46.4118 145.46C49.5414 151.929 56.4918 151.624 56.9718 158.959C56.9574 158.995 57.3414 128.324 48.423 101.652Z" fill="#EBEBEB"/>
<path d="M56.1602 146.33C56.172 146.297 56.172 146.26 56.1602 146.227C55.2001 132.541 52.8204 119.014 49.0658 105.9C49.0658 105.864 48.9938 105.875 49.0034 105.9C50.453 111.771 51.733 117.666 52.8434 123.585C51.8599 122.58 50.6585 121.856 49.349 121.482C49.349 121.482 49.3106 121.513 49.349 121.523C50.7246 122.067 51.9615 122.955 52.9586 124.113C53.1698 125.279 53.381 126.439 53.5778 127.605C51.941 125.631 49.6754 124.652 47.405 123.72C47.3998 123.722 47.3955 123.726 47.3924 123.731C47.3893 123.736 47.3877 123.742 47.3877 123.748C47.3877 123.754 47.3893 123.76 47.3924 123.765C47.3955 123.77 47.3998 123.774 47.405 123.777C49.7714 124.813 52.1234 126.149 53.7266 128.351C54.2834 131.676 54.773 135.014 55.1954 138.363C54.0135 137.027 52.4979 136.09 50.8322 135.665C50.7794 135.665 50.7506 135.732 50.8034 135.748C52.5145 136.291 54.0421 137.36 55.2002 138.824H55.229C55.373 139.999 55.5106 141.178 55.6418 142.362C54.7275 141.527 53.6953 140.856 52.5842 140.373C52.5554 140.373 52.5362 140.41 52.5842 140.42C53.718 140.95 54.7563 141.692 55.6514 142.611C55.6514 142.611 55.6754 142.611 55.6898 142.611C55.8098 143.735 55.9298 144.859 56.0354 145.983C54.3871 143.833 52.248 142.183 49.829 141.197C49.8188 141.197 49.809 141.201 49.8018 141.209C49.7946 141.217 49.7906 141.227 49.7906 141.238C49.7906 141.249 49.7946 141.26 49.8018 141.268C49.809 141.275 49.8188 141.28 49.829 141.28C52.2177 142.416 54.3159 144.16 55.9442 146.361C55.9621 146.386 55.9863 146.403 56.0137 146.413C56.041 146.422 56.0703 146.422 56.0978 146.413C56.2562 148.138 56.4002 149.863 56.5154 151.593C56.5154 151.619 56.5538 151.619 56.5538 151.593C56.429 149.856 56.2978 148.102 56.1602 146.33Z" fill="white"/>
<path d="M50.2801 119.508C48.9553 118.618 47.4419 118.108 45.8833 118.026C45.8757 118.026 45.8683 118.03 45.8629 118.035C45.8575 118.041 45.8545 118.049 45.8545 118.057C45.8545 118.066 45.8575 118.074 45.8629 118.079C45.8683 118.085 45.8757 118.089 45.8833 118.089C47.3901 118.397 48.8525 118.919 50.2321 119.643C50.2897 119.658 50.3329 119.549 50.2801 119.508Z" fill="white"/>
<path d="M51.168 140.73C50.1498 140.099 49.0286 139.686 47.8656 139.513C47.8272 139.513 47.8224 139.57 47.8656 139.58C49.0012 139.826 50.0997 140.241 51.1296 140.813C51.1728 140.839 51.2112 140.756 51.168 140.73Z" fill="white"/>
<path d="M76.7528 126.739C73.6582 129.048 70.816 131.727 68.2808 134.727C65.6662 137.903 63.6495 141.597 62.3432 145.605C59.563 153.954 58.068 162.738 57.9176 171.608C57.8243 176.521 58.2609 181.428 59.2184 186.231C59.2262 186.266 59.2461 186.297 59.274 186.316C59.3019 186.336 59.3357 186.343 59.3684 186.336C59.4011 186.33 59.4302 186.31 59.4496 186.28C59.4691 186.251 59.4773 186.215 59.4728 186.18C58.2813 177.703 58.3267 169.078 59.6072 160.616C60.8648 152.328 62.8376 143.305 67.724 136.566C70.3832 132.893 73.7 130.008 76.9784 127.024C77.1512 126.858 76.9304 126.604 76.7528 126.739Z" fill="#EBEBEB"/>
<path d="M58.9922 165.631C60.7537 162.556 62.8238 159.7 65.165 157.115C68.8274 153.163 71.909 150.355 72.389 147.744C72.869 145.134 68.7218 143.207 68.7218 143.207C68.7218 143.207 73.7858 144.191 75.173 141.896C76.5602 139.601 77.2274 126.31 77.2274 126.31C77.2274 126.31 68.0114 133.411 63.7154 143.367C59.4194 153.323 58.9922 165.631 58.9922 165.631Z" fill="#EBEBEB"/>
<path d="M73.92 138.778C73.3131 138.68 72.698 138.658 72.0864 138.71C72.0144 138.71 72.0192 138.845 72.0864 138.85C72.6912 138.85 73.3008 138.819 73.9056 138.85C73.9125 138.848 73.9188 138.844 73.9237 138.839C73.9287 138.833 73.9321 138.826 73.9336 138.819C73.9351 138.811 73.9346 138.803 73.9322 138.796C73.9298 138.789 73.9256 138.782 73.92 138.778Z" fill="white"/>
<path d="M67.3016 151.671C66.3284 151.692 65.3664 151.899 64.46 152.282C64.46 152.282 64.46 152.334 64.46 152.329C65.42 152.085 66.3464 151.987 67.2968 151.811C67.3092 151.805 67.3198 151.795 67.3274 151.783C67.335 151.771 67.3393 151.757 67.3398 151.742C67.3403 151.728 67.337 151.713 67.3302 151.701C67.3235 151.688 67.3135 151.678 67.3016 151.671Z" fill="white"/>
<path d="M65.3138 147.216C64.9098 147.213 64.5063 147.251 64.109 147.33C64.1017 147.333 64.0953 147.338 64.0909 147.345C64.0864 147.352 64.084 147.36 64.084 147.369C64.084 147.377 64.0864 147.386 64.0909 147.393C64.0953 147.399 64.1017 147.405 64.109 147.408C64.5114 147.433 64.915 147.414 65.3138 147.351C65.3304 147.351 65.3462 147.344 65.3579 147.331C65.3696 147.318 65.3762 147.301 65.3762 147.283C65.3762 147.266 65.3696 147.248 65.3579 147.236C65.3462 147.223 65.3304 147.216 65.3138 147.216Z" fill="white"/>
<path d="M31.9737 140.839C34.9733 141.937 37.8477 143.398 40.5417 145.196C43.3369 147.113 45.7609 149.597 47.6793 152.51C51.7156 158.573 54.806 165.308 56.8281 172.448C57.9558 176.401 58.6518 180.483 58.9017 184.61C58.8964 184.637 58.8828 184.661 58.8632 184.678C58.8435 184.696 58.819 184.705 58.7937 184.705C58.7684 184.705 58.7438 184.696 58.7242 184.678C58.7045 184.661 58.6909 184.637 58.6857 184.61C57.8384 177.454 55.9563 170.485 53.1081 163.958C50.3097 157.561 46.7817 150.754 41.3865 146.517C38.4489 144.212 35.1465 142.699 31.8537 141.104C31.6809 141.041 31.8009 140.777 31.9737 140.839Z" fill="#EBEBEB"/>
<path d="M54.6772 167.884C52.5919 165.836 50.3046 164.042 47.8564 162.533C44.0452 160.248 40.9492 158.746 40.0036 156.752C39.058 154.758 42.0004 152.168 42.0004 152.168C42.0004 152.168 38.1124 154.24 36.4996 152.712C34.8868 151.183 31.498 140.616 31.498 140.616C31.498 140.616 40.4788 144.061 46.0804 151.049C51.682 158.037 54.6772 167.884 54.6772 167.884Z" fill="#EBEBEB"/>
<path d="M47.2225 158.156C46.3395 158.089 45.453 158.207 44.6113 158.503C44.6113 158.503 44.6113 158.549 44.6113 158.544C45.47 158.385 46.3375 158.288 47.2081 158.254C47.2705 158.254 47.2849 158.161 47.2225 158.156Z" fill="white"/>
<path d="M39.3893 147.07C38.9865 147.035 38.5811 147.059 38.1845 147.143C38.1413 147.143 38.1557 147.226 38.1845 147.221C38.5829 147.174 38.9717 147.19 39.3653 147.179C39.3775 147.18 39.3895 147.176 39.3993 147.168C39.409 147.16 39.4159 147.148 39.4188 147.136C39.4216 147.123 39.4202 147.109 39.4148 147.097C39.4094 147.085 39.4004 147.076 39.3893 147.07Z" fill="white"/>
<path d="M66.2597 197.969H45.9893L48.8789 175.12L49.6181 169.262H62.6309L63.3701 175.12L66.2597 197.969Z" fill="#DBDBDB"/>
<path d="M63.3701 175.12H48.8789L49.6181 169.262H62.6309L63.3701 175.12Z" fill="#C7C7C7"/>
<path d="M64.4887 167.231H47.7559V172.194H64.4887V167.231Z" fill="#DBDBDB"/>
<path d="M33.1006 197.969L69.5854 197.845L106.07 197.798L179.04 197.71L252.009 197.798L288.494 197.845L324.979 197.969L288.494 198.098L252.009 198.14L179.04 198.228L106.07 198.14L69.5854 198.093L33.1006 197.969Z" fill="#263238"/>
<path d="M180 236.576C256.014 236.576 317.636 229.289 317.636 220.3C317.636 211.311 256.014 204.024 180 204.024C103.987 204.024 42.3652 211.311 42.3652 220.3C42.3652 229.289 103.987 236.576 180 236.576Z" fill="#EBEBEB"/>
<path d="M147.96 217.607C146.842 218.016 114.773 218.125 113.544 217.306C113.064 216.995 112.79 211.955 112.584 205.853C112.541 204.537 112.507 203.175 112.478 201.797L109.92 183.336L131.362 183.186L133.382 201.652L133.301 205.713C133.301 205.713 145.598 211.593 146.856 212.66C148.114 213.727 149.078 217.197 147.96 217.607Z" fill="#EB9481"/>
<path d="M147.96 217.607C146.842 218.016 114.773 218.125 113.544 217.306C112.978 216.923 112.671 209.562 112.498 201.797L133.359 201.652L133.277 205.713C133.277 205.713 145.575 211.593 146.832 212.66C148.09 213.727 149.079 217.198 147.96 217.607Z" fill="white"/>
<path d="M147.96 217.607C146.842 218.016 114.773 218.125 113.544 217.307C113.064 216.996 112.79 211.956 112.584 205.854L133.258 205.714C133.258 205.714 145.555 211.593 146.813 212.66C148.07 213.727 149.078 217.198 147.96 217.607Z" fill="#A6A6A6"/>
<path d="M147.494 216.224C142.118 216.1 120.422 216.157 115.099 216.478C115.056 216.478 115.056 216.509 115.099 216.514C120.427 216.758 142.123 216.514 147.494 216.317C147.609 216.312 147.609 216.224 147.494 216.224Z" fill="#263238"/>
<path d="M144.763 211.422C144.165 211.408 143.571 211.527 143.018 211.773C142.466 212.019 141.966 212.387 141.552 212.852C140.796 213.682 140.37 214.796 140.361 215.96C140.361 215.996 140.419 215.996 140.424 215.96C140.602 214.814 141.119 213.761 141.898 212.958C142.676 212.155 143.675 211.645 144.744 211.505C144.754 211.508 144.765 211.506 144.774 211.5C144.783 211.494 144.789 211.485 144.792 211.474C144.794 211.463 144.793 211.451 144.787 211.442C144.782 211.432 144.773 211.425 144.763 211.422Z" fill="#263238"/>
<path d="M135.36 206.284C133.21 206.258 130.718 207.087 129.384 208.993C129.336 209.065 129.432 209.143 129.494 209.107C131.373 208.037 133.352 207.186 135.398 206.569C135.43 206.559 135.457 206.538 135.475 206.508C135.493 206.479 135.501 206.443 135.496 206.408C135.491 206.373 135.475 206.341 135.45 206.318C135.425 206.295 135.393 206.283 135.36 206.284Z" fill="#263238"/>
<path d="M137.03 206.973C134.875 206.973 132.384 207.781 131.054 209.682C131.002 209.76 131.098 209.837 131.165 209.801C133.041 208.727 135.019 207.874 137.064 207.258C137.095 207.248 137.122 207.227 137.14 207.198C137.158 207.169 137.166 207.134 137.162 207.099C137.158 207.065 137.142 207.033 137.118 207.01C137.094 206.986 137.063 206.973 137.03 206.973Z" fill="#263238"/>
<path d="M138.691 207.666C136.541 207.666 134.05 208.469 132.715 210.375C132.667 210.448 132.763 210.525 132.826 210.489C134.704 209.419 136.684 208.568 138.73 207.951C138.761 207.942 138.789 207.92 138.807 207.89C138.824 207.861 138.832 207.825 138.827 207.79C138.822 207.755 138.806 207.723 138.781 207.7C138.756 207.677 138.724 207.665 138.691 207.666Z" fill="#263238"/>
<path d="M140.357 208.361C138.202 208.335 135.711 209.164 134.381 211.07C134.328 211.143 134.429 211.22 134.491 211.184C136.37 210.113 138.349 209.262 140.395 208.646C140.427 208.637 140.454 208.615 140.472 208.585C140.49 208.556 140.498 208.52 140.493 208.485C140.488 208.45 140.472 208.418 140.447 208.395C140.422 208.372 140.39 208.36 140.357 208.361Z" fill="#263238"/>
<path d="M116.452 210.961C114.052 210.961 114.052 215.027 116.452 215.012C118.852 214.996 118.872 210.945 116.452 210.961Z" fill="#263238"/>
<path d="M137.669 200.078C136.579 199.104 135.206 200.078 134.539 201.077C133.429 202.844 132.767 204.895 132.619 207.024C132.619 207.071 132.653 207.091 132.686 207.091C132.695 207.135 132.713 207.176 132.739 207.211C132.766 207.245 132.799 207.273 132.837 207.291C132.875 207.308 132.917 207.316 132.958 207.313C133 207.31 133.04 207.296 133.075 207.273C134.602 206.128 136.368 205.102 137.525 203.481C138.182 202.538 138.72 200.984 137.669 200.078ZM135.048 205.019C134.309 205.605 133.546 206.148 132.826 206.765C133.21 205.605 133.541 204.434 134.03 203.315C134.257 202.779 134.516 202.259 134.808 201.761C135.288 200.989 137.381 199.042 137.602 201.564C137.726 202.947 135.926 204.325 135.048 205.019Z" fill="#263238"/>
<path d="M127.262 207.905C129.134 208.206 131.069 207.625 132.907 207.309C132.947 207.298 132.984 207.277 133.015 207.248C133.046 207.218 133.07 207.181 133.086 207.14C133.101 207.099 133.107 207.054 133.104 207.01C133.1 206.965 133.087 206.923 133.066 206.885C133.073 206.879 133.078 206.871 133.082 206.863C133.086 206.854 133.088 206.845 133.088 206.835C133.088 206.826 133.086 206.817 133.082 206.808C133.078 206.799 133.073 206.792 133.066 206.786C131.589 205.365 129.791 204.387 127.853 203.953C126.72 203.72 125.117 204.056 124.973 205.574C124.8 207.004 126.168 207.719 127.262 207.905ZM125.957 206.589C124.517 204.6 127.267 204.429 128.093 204.636C128.629 204.781 129.155 204.965 129.667 205.186C130.717 205.655 131.744 206.183 132.744 206.765C131.832 206.864 130.934 207.04 130.027 207.175C128.942 207.33 126.763 207.682 125.957 206.589Z" fill="#263238"/>
<path d="M78.3936 98.0059C78.3936 98.0059 103.291 143.714 103.958 146.926C104.981 151.857 110.4 200.554 110.4 200.554L136.32 200.036C136.32 200.036 131.856 157.099 127.627 142.953C124.584 132.764 102.61 98.9693 102.61 98.9693L78.3936 98.0059Z" fill="#37474F"/>
<path d="M133.963 195.768C130.243 195.737 117.058 195.576 112.104 196.074C112.066 196.074 112.071 196.146 112.104 196.151C113.808 196.416 130.239 196.006 133.959 195.877C133.966 195.88 133.975 195.881 133.983 195.88C133.991 195.879 133.999 195.876 134.006 195.871C134.013 195.866 134.018 195.859 134.022 195.851C134.027 195.844 134.029 195.835 134.029 195.826C134.03 195.817 134.028 195.808 134.025 195.8C134.021 195.792 134.016 195.785 134.01 195.779C134.003 195.773 133.996 195.77 133.988 195.768C133.98 195.766 133.971 195.766 133.963 195.768Z" fill="#263238"/>
<path d="M82.642 102.202C84.274 104.963 86.002 107.667 87.6628 110.407C89.3236 113.147 90.994 115.887 92.6404 118.622C95.9236 124.148 99.1236 129.709 102.24 135.307C103.761 137.902 105.063 140.639 106.128 143.486C107.101 146.334 107.832 149.271 108.312 152.261C108.821 155.261 109.157 158.291 109.469 161.321C109.789 164.543 110.124 167.767 110.472 170.992C111.154 177.591 111.837 184.191 112.522 190.79C112.604 191.598 112.685 192.406 112.762 193.22C112.762 193.339 112.575 193.359 112.56 193.22C111.797 186.667 111.164 180.088 110.472 173.536C110.127 170.265 109.783 166.997 109.44 163.73C109.119 160.689 108.812 157.643 108.375 154.623C107.974 151.642 107.364 148.699 106.551 145.817C105.655 142.834 104.454 139.967 102.97 137.27C99.97 131.681 96.7924 126.19 93.6148 120.694C90.4372 115.198 87.1732 109.656 83.8228 104.227C83.41 103.559 82.9924 102.891 82.5604 102.233C82.5268 102.197 82.6132 102.15 82.642 102.202Z" fill="#263238"/>
<path d="M86.5536 220.301C85.3728 220.223 54.8736 206.89 54.0288 205.626C53.9912 205.551 53.9745 205.467 53.9808 205.382C53.9808 204.248 56.0976 200.29 57.864 195.09C57.9744 194.758 58.7616 193.214 59.8512 191.137C62.88 185.444 68.16 175.639 68.16 175.639L88.0944 184.186L78.552 199.596L77.0688 203.326C77.0688 203.326 86.424 213.763 87.2112 215.24C87.9984 216.716 87.7296 220.373 86.5536 220.301Z" fill="#EB9481"/>
<path d="M86.5536 220.3C85.3728 220.222 54.8736 206.889 54.0288 205.625C53.9912 205.551 53.9745 205.466 53.9808 205.382C53.9808 204.247 56.0976 200.29 57.864 195.089C57.9744 194.758 58.7616 193.214 59.8512 191.137L78.5712 199.596L77.088 203.325C77.088 203.325 86.4432 213.763 87.2304 215.239C88.0176 216.716 87.7296 220.373 86.5536 220.3Z" fill="white"/>
<path d="M86.5538 220.301C85.373 220.223 54.8738 206.89 54.029 205.626C53.7026 205.144 55.0658 200.653 57.869 195.09L77.069 203.331C77.069 203.331 86.4242 213.759 87.2162 215.245C88.0082 216.732 87.7298 220.373 86.5538 220.301Z" fill="#A6A6A6"/>
<path d="M86.6015 218.83C81.6623 216.54 61.5311 207.807 56.4863 205.952C56.4431 205.952 56.4335 205.952 56.4863 205.983C61.3391 208.366 81.5327 216.923 86.5823 218.933C86.6783 218.959 86.7071 218.876 86.6015 218.83Z" fill="#263238"/>
<path d="M85.7374 213.272C85.1897 213.012 84.598 212.878 83.9998 212.878C83.4016 212.878 82.8099 213.012 82.2622 213.272C81.2775 213.737 80.4969 214.594 80.083 215.665C80.083 215.696 80.1262 215.722 80.1406 215.691C80.7065 214.698 81.5554 213.929 82.5601 213.5C83.5648 213.072 84.6712 213.006 85.7134 213.313C85.7215 213.311 85.7284 213.305 85.7329 213.297C85.7373 213.29 85.7389 213.281 85.7374 213.272Z" fill="#263238"/>
<path d="M78.8109 204.704C76.8285 203.808 74.2269 203.569 72.3309 204.797C72.2589 204.844 72.3309 204.952 72.3933 204.947C74.5068 204.716 76.6372 204.728 78.7484 204.984C78.7809 204.987 78.8136 204.978 78.8403 204.958C78.867 204.938 78.886 204.908 78.8937 204.873C78.9013 204.839 78.8971 204.803 78.8819 204.772C78.8666 204.741 78.8414 204.716 78.8109 204.704Z" fill="#263238"/>
<path d="M80.1116 206.019C78.1292 205.123 75.5276 204.885 73.6316 206.113C73.5596 206.159 73.6316 206.268 73.694 206.263C75.8075 206.029 77.9382 206.041 80.0492 206.299C80.0817 206.303 80.1144 206.294 80.1411 206.273C80.1678 206.253 80.1868 206.223 80.1944 206.189C80.2021 206.154 80.1979 206.118 80.1827 206.087C80.1674 206.056 80.1422 206.032 80.1116 206.019Z" fill="#263238"/>
<path d="M81.4176 207.335C79.4304 206.439 76.8288 206.2 74.9376 207.428C74.8608 207.475 74.9376 207.583 74.9952 207.578C77.1087 207.344 79.2393 207.356 81.3504 207.614C81.3835 207.62 81.4176 207.613 81.4458 207.593C81.474 207.573 81.4943 207.543 81.5027 207.508C81.5111 207.473 81.5071 207.435 81.4913 207.403C81.4756 207.371 81.4493 207.347 81.4176 207.335Z" fill="#263238"/>
<path d="M82.7184 208.651C80.7312 207.755 78.1344 207.516 76.2384 208.739C76.1616 208.791 76.2384 208.899 76.296 208.894C78.4094 208.66 80.5401 208.672 82.6512 208.931C82.6843 208.937 82.7183 208.929 82.7465 208.909C82.7747 208.889 82.795 208.859 82.8035 208.824C82.8119 208.789 82.8079 208.752 82.7921 208.72C82.7763 208.688 82.75 208.663 82.7184 208.651Z" fill="#263238"/>
<path d="M59.6545 201.383C57.4129 200.419 56.0209 204.185 58.2721 205.149C60.5233 206.112 61.9201 202.346 59.6545 201.383Z" fill="#263238"/>
<path d="M83.1073 199.887C82.4305 198.545 80.8321 198.876 79.8577 199.545C78.2163 200.731 76.8922 202.362 76.0177 204.274C76.0138 204.282 76.0118 204.292 76.0117 204.301C76.0116 204.31 76.0135 204.32 76.0172 204.328C76.0209 204.337 76.0263 204.344 76.033 204.35C76.0398 204.356 76.0477 204.36 76.0561 204.362C76.0561 204.533 76.1617 204.735 76.3489 204.694C78.1681 204.243 80.1601 204.01 81.7921 202.974C82.7281 202.373 83.7457 201.156 83.1073 199.887ZM78.9553 203.404C78.0673 203.647 77.1745 203.844 76.2961 204.124C77.0227 203.179 77.7933 202.275 78.6049 201.415C79.0045 201.004 79.4294 200.623 79.8769 200.275C80.5729 199.757 83.2033 198.799 82.5313 201.228C82.1617 202.57 80.0161 203.114 78.9553 203.404Z" fill="#263238"/>
<path d="M70.7373 202.927C72.3693 203.963 74.3613 204.206 76.1757 204.662C76.3629 204.709 76.4877 204.507 76.4733 204.33C76.4823 204.329 76.4909 204.326 76.4983 204.32C76.5057 204.314 76.5116 204.307 76.5154 204.298C76.5193 204.289 76.521 204.279 76.5203 204.27C76.5197 204.26 76.5167 204.25 76.5117 204.242C75.6386 202.327 74.3144 200.692 72.6717 199.503C71.7117 198.829 70.1037 198.493 69.4221 199.829C68.7405 201.165 69.7821 202.321 70.7373 202.927ZM69.9885 201.176C69.3213 198.746 71.9469 199.71 72.6429 200.233C73.0898 200.582 73.5133 200.964 73.9101 201.378C74.7202 202.24 75.4892 203.146 76.2141 204.092C75.3357 203.812 74.4429 203.61 73.5549 203.367C72.4797 203.056 70.3533 202.538 69.9885 201.176Z" fill="#263238"/>
<path d="M80.1023 198.737L57.7871 189.014C57.7871 189.014 85.4543 145.113 85.6559 141.845C85.8383 138.954 73.6847 113.769 73.2095 106.429C72.6911 98.5036 76.2239 92.3757 80.1119 88.5684L103.128 99.1304C103.128 99.1304 100.699 103.321 96.8879 105.657C96.8879 105.657 108.691 134.769 108.019 143.72C107.347 152.671 80.1023 198.737 80.1023 198.737Z" fill="#37474F"/>
<path d="M81.091 194.157C77.8654 192.66 78.811 193.038 75.5662 191.567C73.9822 190.852 63.5662 186.175 61.963 185.786C61.9294 185.786 61.9054 185.838 61.939 185.859C63.3262 186.776 73.8286 191.256 75.427 191.94C78.6958 193.328 77.7694 192.893 81.0526 194.24C81.0575 194.247 81.064 194.253 81.0715 194.256C81.079 194.26 81.0872 194.261 81.0953 194.26C81.1035 194.26 81.1113 194.257 81.1181 194.252C81.1248 194.247 81.1303 194.24 81.134 194.232C81.1376 194.224 81.1394 194.215 81.139 194.206C81.1386 194.198 81.1362 194.189 81.1319 194.182C81.1276 194.174 81.1216 194.168 81.1144 194.164C81.1073 194.159 81.0992 194.157 81.091 194.157Z" fill="#263238"/>
<path d="M100.661 105.123C98.2649 105.726 95.9205 106.548 93.6531 107.579C93.644 107.582 93.6356 107.587 93.6283 107.594C93.6211 107.601 93.6152 107.61 93.611 107.619C93.6067 107.628 93.6042 107.639 93.6037 107.649C93.6031 107.659 93.6044 107.67 93.6075 107.68C93.6107 107.69 93.6156 107.699 93.622 107.707C93.6284 107.714 93.6362 107.721 93.6449 107.725C93.6536 107.73 93.663 107.733 93.6727 107.733C93.6823 107.734 93.692 107.732 93.7011 107.729C96.0531 106.988 98.4435 106.294 100.757 105.419C100.935 105.351 100.844 105.082 100.661 105.123Z" fill="#263238"/>
<path d="M97.9201 104.118C97.6965 104.547 97.4992 104.992 97.3297 105.449C97.1641 105.796 97.0614 106.174 97.0273 106.563C97.0273 106.641 97.1233 106.656 97.1665 106.609C97.4074 106.299 97.6017 105.949 97.7425 105.573C97.9393 105.164 98.1409 104.76 98.3281 104.341C98.4577 104.035 98.0689 103.838 97.9201 104.118Z" fill="#263238"/>
<path d="M98.2081 101.767C98.3521 101.384 98.4913 101.006 98.6401 100.622C98.7889 100.239 98.9761 99.8452 99.1201 99.4412C99.1201 99.379 99.2353 99.4412 99.2113 99.4878C99.0673 99.8711 98.9761 100.275 98.8657 100.669C98.7553 101.063 98.6305 101.456 98.5105 101.85C98.2849 102.58 98.0305 103.305 97.7185 104.015C98.0962 104.035 98.4734 103.965 98.8225 103.808C99.1792 103.562 99.4533 103.199 99.6049 102.772C99.8065 102.347 99.9937 101.912 100.2 101.487C100.454 101.028 100.668 100.544 100.839 100.042C100.839 99.9799 100.954 100.042 100.93 100.089C100.617 101.15 100.207 102.176 99.7057 103.15C99.4897 103.528 99.3217 103.927 98.9281 104.072C98.5021 104.201 98.0562 104.234 97.6177 104.171C97.5601 104.171 97.4929 104.171 97.5121 104.077C97.7087 103.295 97.941 102.524 98.2081 101.767Z" fill="#263238"/>
<path d="M97.2285 106.604C98.0493 108.474 98.7693 110.339 99.5325 112.204C100.296 114.069 100.973 115.871 101.659 117.726C103.032 121.466 104.261 125.278 105.341 129.122C105.873 131.028 106.368 132.95 106.809 134.887C107.296 136.818 107.652 138.785 107.875 140.772C108.068 142.755 107.905 144.76 107.395 146.677C106.866 148.572 106.186 150.414 105.365 152.183C104.861 153.302 104.693 153.152 104.933 152.587C105.619 150.981 107.419 146.117 107.289 142.03C107.184 140.074 106.905 138.133 106.454 136.234C106.035 134.276 105.563 132.333 105.038 130.407C104.016 126.604 102.801 122.88 101.553 119.161C100.853 117.089 100.113 115.017 99.3934 112.945C98.6734 110.873 97.9533 108.966 97.1469 106.677C97.1229 106.584 97.2045 106.547 97.2285 106.604Z" fill="#263238"/>
<path d="M80.2893 100.425C80.6877 100.264 81.2493 100.528 81.6525 100.601C82.1747 100.697 82.7023 100.754 83.2317 100.772C83.7555 100.792 84.2799 100.773 84.8013 100.715C85.3264 100.7 85.8409 100.553 86.3037 100.285C87.063 99.6881 87.7139 98.9453 88.2237 98.0938C88.8313 97.2238 89.3329 96.2733 89.7165 95.2656C89.7165 95.2034 89.8173 95.2656 89.7981 95.307C89.6301 95.882 89.5053 96.4621 89.3181 97.0268C89.1112 97.5572 88.8639 98.0683 88.5789 98.5548C88.1168 99.5338 87.4333 100.371 86.5917 100.989C85.6653 101.559 84.4749 101.507 83.4429 101.461C82.8444 101.423 82.2492 101.338 81.6621 101.207C81.2397 101.109 80.5293 101.036 80.2605 100.637C80.2479 100.622 80.2385 100.604 80.233 100.584C80.2276 100.565 80.2262 100.544 80.2289 100.524C80.2317 100.504 80.2385 100.484 80.2489 100.467C80.2594 100.45 80.2732 100.436 80.2893 100.425Z" fill="#263238"/>
<path d="M64.1563 184.408C67.8235 178.413 71.4235 172.37 74.9563 166.278C78.4891 160.187 81.9739 154.048 85.4107 147.863C86.2315 146.387 87.1771 144.916 87.7051 143.279C88.2811 141.502 87.9547 139.777 87.4363 138.037C86.4575 134.862 85.3132 131.749 84.0091 128.713C82.7227 125.652 81.3355 122.642 79.9723 119.622C78.6091 116.602 77.1835 113.618 76.1323 110.469C75.1723 107.459 74.7835 104.341 75.5323 101.223C76.2811 98.1043 77.8939 95.3485 79.5787 92.7534C80.0203 92.0696 80.4763 91.391 80.9227 90.6814C80.9563 90.6296 81.0283 90.6814 80.9947 90.7435C79.1371 93.4475 77.3275 96.312 76.2379 99.4874C75.6811 101.053 75.3696 102.707 75.3163 104.382C75.3073 106.083 75.552 107.775 76.0411 109.392C76.9435 112.541 78.3691 115.519 79.6987 118.482C81.0283 121.445 82.4491 124.512 83.7595 127.563C85.1114 130.634 86.3131 133.779 87.3595 136.985C87.8059 138.41 88.3195 139.902 88.2811 141.43C88.2475 143.103 87.5084 144.61 86.7404 146.019C83.3804 152.158 79.9387 158.223 76.4347 164.253C72.9307 170.282 69.3259 176.312 65.6779 182.279L64.2955 184.533C64.2235 184.626 64.0987 184.517 64.1563 184.408Z" fill="#263238"/>
<path d="M104.405 71.2095C106.484 76.1305 116.981 82.9111 121.896 83.6415C125.429 84.1595 136.172 84.346 139.853 83.7399C144.173 83.0251 140.871 70.4636 138.322 70.7899C131.314 71.6705 125.362 72.6547 123.49 72.6547C121.205 72.6547 108.845 68.376 107.357 67.7699C103.709 66.304 103.229 68.4174 104.405 71.2095Z" fill="#EB9481"/>
<path d="M104.472 72.5203C107.102 76.7213 115.843 83.59 115.843 83.59L117.057 80.6892L121.075 71.0958C121.075 71.0958 113.045 68.3763 107.76 67.1331C107.138 66.9804 106.505 66.8833 105.869 66.843C102.494 66.6462 102.201 68.8943 104.472 72.5203Z" fill="#EAE7FF"/>
<path d="M104.472 72.52C107.102 76.7209 115.843 83.5896 115.843 83.5896L117.057 80.6888C113.798 76.6018 108.763 70.4117 105.869 66.853C102.494 66.6458 102.201 68.894 104.472 72.52Z" fill="#263238"/>
<path d="M114.269 81.6419C114.936 79.8755 117.903 72.7634 118.642 71.2819C118.69 71.1783 118.767 71.1886 118.723 71.2819C117.437 74.8187 115.972 78.2772 114.336 81.6419C114.317 81.704 114.24 81.6833 114.269 81.6419Z" fill="#263238"/>
<path d="M137.035 70.9193C141.298 70.3185 146.573 69.2876 151.042 71.3337C151.543 71.5462 151.965 71.9349 152.237 72.4371C154.253 73.3177 154.474 74.6075 154.474 74.6075C156.12 76.0475 156.178 77.4047 156.178 77.4047C156.178 77.4047 158.539 78.4407 158.179 80.1087C157.786 81.9527 154.55 80.1087 152.198 80.2589C146.798 80.6215 139.238 82.7608 137.678 83.0302L137.035 70.9193Z" fill="#EB9481"/>
<path d="M146.294 76.3485C147.873 76.232 149.457 76.232 151.036 76.3485C152.756 76.5813 154.457 76.9536 156.124 77.4622C156.135 77.4663 156.147 77.4657 156.157 77.4603C156.168 77.455 156.176 77.4454 156.18 77.4337C156.183 77.4221 156.183 77.4092 156.178 77.3981C156.173 77.3869 156.164 77.3783 156.153 77.3742C153.02 76.0476 149.61 75.675 146.294 76.2967C146.217 76.2864 146.217 76.3537 146.294 76.3485Z" fill="#263238"/>
<path d="M145.291 70.9661C147.926 71.1112 149.573 71.567 152.222 72.4269V72.3958C149.304 71.0801 148.109 70.9558 145.277 70.8418C145.186 70.8832 145.19 70.9661 145.291 70.9661Z" fill="#263238"/>
<path d="M145.719 81.1396C145.032 81.4867 145.2 81.8752 146.511 82.2016C147.821 82.5279 153.269 82.6263 153.077 84.6776C152.885 86.7289 145.2 86.4699 143.055 85.7447C140.909 85.0195 137.679 83.0303 137.679 83.0303C139.2 82.7558 142.772 81.7146 145.719 81.1396Z" fill="#EB9481"/>
<path d="M110.112 79.0522C110.079 79.9379 110.002 80.8392 109.887 81.7354C109.887 81.6991 109.887 81.6681 109.92 81.637C110.079 81.1708 110.237 80.6942 110.429 80.2436C110.429 80.2436 110.477 80.2436 110.472 80.2436C110.38 80.7374 110.242 81.2198 110.06 81.6836C109.973 81.9063 109.892 82.1239 109.8 82.3415C109.743 82.7403 109.676 83.134 109.604 83.5277C109.46 84.2684 108.812 87.4178 108.644 87.9514C108.615 88.0602 108.49 88.0343 108.5 87.91C108.533 87.3298 109.076 84.0509 109.186 83.3049C109.4 81.8647 109.687 80.4381 110.045 79.0314C110.069 79.0055 110.117 79.0263 110.112 79.0522Z" fill="#263238"/>
<path d="M105.12 102.606C103.838 103.316 102.187 104.419 94.7469 102.839C94.2669 102.736 93.8157 102.611 93.3453 102.461C86.3709 100.203 77.9853 91.35 77.5293 90.7233C77.5293 90.7233 88.6125 71.3345 102.787 65.2377C104.539 64.4866 107.438 65.937 109.027 67.7448C109.598 68.3923 110.841 73.1527 110.366 77.0066C109.891 80.8605 106.396 101.897 105.12 102.606Z" fill="#EAE7FF"/>
<path d="M104.122 76.8301C104.175 77.6494 104.069 78.4717 103.81 79.244C103.749 78.4244 103.855 77.6004 104.122 76.8301Z" fill="white"/>
<path d="M99.2879 90.0342C99.3184 90.4419 99.3055 90.8521 99.2495 91.2567C99.2033 91.6643 99.1114 92.0643 98.9759 92.4481C98.9428 92.0387 98.9557 91.6265 99.0143 91.2204C99.0633 90.8151 99.1551 90.4171 99.2879 90.0342Z" fill="white"/>
<path d="M91.0755 80.0518C91.1295 80.8728 91.0232 81.6969 90.7635 82.4708C90.7032 81.6496 90.8096 80.824 91.0755 80.0518Z" fill="white"/>
<path d="M107.285 89.3604C107.316 89.7698 107.303 90.1817 107.247 90.588C107.2 90.9956 107.108 91.3957 106.973 91.7794C106.94 91.37 106.953 90.9578 107.011 90.5518C107.06 90.1446 107.152 89.7448 107.285 89.3604Z" fill="white"/>
<path d="M96.7393 78.3425C97.1169 78.3078 97.497 78.32 97.8721 78.3788C98.2499 78.4305 98.6206 78.5313 98.9761 78.6792C98.2168 78.7381 97.4546 78.6233 96.7393 78.3425Z" fill="white"/>
<path d="M87.418 87.8788C88.1772 87.821 88.9392 87.9357 89.6548 88.2155C88.8953 88.2812 88.1318 88.1662 87.418 87.8788Z" fill="white"/>
<path d="M98.4004 98.2025C99.1596 98.1437 99.9218 98.2584 100.637 98.5392C99.8778 98.6039 99.1144 98.489 98.4004 98.2025Z" fill="white"/>
<path d="M84.542 94.452C85.3012 94.3943 86.0632 94.509 86.7788 94.7887C86.0194 94.8534 85.256 94.7385 84.542 94.452Z" fill="white"/>
<path d="M104.05 67.5477C104.809 67.49 105.571 67.6047 106.287 67.8845C105.527 67.9422 104.765 67.8275 104.05 67.5477Z" fill="white"/>
<path d="M101.337 70.8525C101.095 71.1673 100.817 71.4491 100.512 71.6917C100.214 71.9399 99.8924 72.1519 99.5518 72.3237C99.7928 72.0109 100.067 71.7293 100.368 71.4845C100.668 71.2353 100.993 71.0234 101.337 70.8525Z" fill="white"/>
<path d="M86.558 80.2441C86.3123 80.5562 86.0336 80.8361 85.7276 81.0781C85.4332 81.331 85.1107 81.5433 84.7676 81.7101C85.0145 81.3993 85.2931 81.1196 85.598 80.8761C85.8931 80.6243 86.2154 80.4121 86.558 80.2441Z" fill="white"/>
<path d="M105.014 84.4805C104.768 84.7942 104.49 85.0758 104.184 85.3196C103.889 85.5715 103.566 85.7837 103.224 85.9516C103.469 85.6379 103.748 85.3563 104.054 85.1124C104.351 84.8631 104.673 84.6511 105.014 84.4805Z" fill="white"/>
<path d="M93.0629 92.6035C92.8173 92.9172 92.5386 93.1988 92.2325 93.4427C91.9369 93.6937 91.6146 93.9059 91.2725 94.0746C91.518 93.7609 91.7967 93.4793 92.1029 93.2355C92.3996 92.9862 92.7217 92.7742 93.0629 92.6035Z" fill="white"/>
<path d="M109.593 73.3857C109.348 73.6994 109.069 73.9811 108.763 74.2249C108.465 74.4731 108.143 74.6851 107.803 74.8569C108.048 74.5432 108.327 74.2615 108.633 74.0177C108.929 73.7666 109.251 73.5545 109.593 73.3857Z" fill="white"/>
<path d="M109.344 82.7974C109.053 82.5324 108.792 82.2316 108.566 81.9012C108.332 81.583 108.136 81.235 107.98 80.8652C108.272 81.1271 108.533 81.4263 108.758 81.7562C108.987 82.0795 109.184 82.4286 109.344 82.7974Z" fill="white"/>
<path d="M82.704 89.2827C82.4133 89.0177 82.1524 88.717 81.9264 88.3866C81.6954 88.0664 81.4989 87.7188 81.3408 87.3506C81.6315 87.6156 81.8925 87.9163 82.1184 88.2467C82.3511 88.5657 82.5477 88.9135 82.704 89.2827Z" fill="white"/>
<path d="M106.104 96.9953C105.813 96.7335 105.552 96.4343 105.327 96.1044C105.097 95.7834 104.9 95.4359 104.741 95.0684C105.032 95.3333 105.293 95.6341 105.519 95.9645C105.75 96.2824 105.947 96.6283 106.104 96.9953Z" fill="white"/>
<path d="M94.3778 75.007C94.0873 74.7439 93.8263 74.4448 93.6002 74.1161C93.3712 73.7944 93.1749 73.4471 93.0146 73.0801C93.3064 73.3419 93.5675 73.6411 93.7922 73.971C94.0213 74.2927 94.2176 74.6401 94.3778 75.007Z" fill="white"/>
<path d="M94.5839 101.388C94.2932 101.123 94.0322 100.822 93.8063 100.492C93.576 100.171 93.3796 99.8238 93.2207 99.4561C93.5124 99.7179 93.7735 100.017 93.9983 100.347C94.2293 100.669 94.4257 101.018 94.5839 101.388Z" fill="white"/>
<path d="M96.5762 85.8276C96.2882 85.5612 96.029 85.2606 95.8034 84.9315C95.569 84.6138 95.3723 84.2658 95.2178 83.8955C95.507 84.1606 95.7663 84.4614 95.9906 84.7916C96.2239 85.1101 96.4206 85.458 96.5762 85.8276Z" fill="white"/>
<path d="M106.431 72.9086C104.621 72.546 102.922 68.5108 102.706 65.7965C102.706 65.61 103.551 64.1337 104.516 62.2845C105.101 61.1604 105.72 59.8913 106.215 58.6895C106.316 58.4461 106.906 59.2697 106.906 59.2697L108.192 60.3057L112.44 63.8229C111.429 65.1329 110.57 66.5715 109.882 68.1068C109.814 68.2731 109.763 68.4468 109.728 68.6248C109.727 68.6541 109.727 68.6835 109.728 68.7128C109.464 69.7385 108.173 73.2557 106.431 72.9086Z" fill="#EB9481"/>
<path d="M109.728 68.6503C109.726 68.6797 109.726 68.7091 109.728 68.7384C109.476 68.6586 109.23 68.5564 108.994 68.4328C104.343 66.0811 106.392 59.3574 106.392 59.3574L108.216 60.3313L112.464 63.8485C111.453 65.1584 110.593 66.5971 109.906 68.1323C109.83 68.2977 109.77 68.4713 109.728 68.6503Z" fill="#263238"/>
<path d="M117.321 49.5107C117.321 49.5107 119.448 50.9663 119.457 53.5563C119.467 56.1463 118.497 58.6793 118.296 58.7726C118.094 58.8658 117.321 49.5107 117.321 49.5107Z" fill="#263238"/>
<path d="M106.771 50.8579C105.494 53.5774 105.561 62.1503 107.155 64.357C109.469 67.5582 113.923 68.6616 116.616 65.4966C119.222 62.43 118.953 51.2619 117.096 49.1796C114.393 46.1027 108.662 46.833 106.771 50.8579Z" fill="#EB9481"/>
<path d="M113.549 57.7207C113.549 57.7207 113.506 57.7518 113.511 57.7725C113.539 58.3578 113.482 59.0312 112.997 59.2384C112.997 59.2384 112.997 59.2747 112.997 59.2695C113.597 59.1659 113.664 58.2698 113.549 57.7207Z" fill="#263238"/>
<path d="M113.054 57.1251C112.181 57.0733 112.152 58.9588 112.963 59.0054C113.774 59.052 113.784 57.1665 113.054 57.1251Z" fill="#263238"/>
<path d="M116.51 57.7002C116.51 57.7002 116.553 57.7002 116.553 57.752C116.524 58.3373 116.587 59.0107 117.076 59.2128C117.076 59.2128 117.076 59.249 117.076 59.2438C116.472 59.1454 116.4 58.2493 116.51 57.7002Z" fill="#263238"/>
<path d="M117.005 57.0999C117.874 57.0429 117.917 58.9284 117.11 58.9802C116.304 59.032 116.275 57.1465 117.005 57.0999Z" fill="#263238"/>
<path d="M112.507 55.6901C112.737 55.6196 112.962 55.5367 113.184 55.4414C113.436 55.3922 113.666 55.2537 113.837 55.0478C113.878 54.9724 113.896 54.8843 113.886 54.7972C113.876 54.7101 113.841 54.6289 113.784 54.566C113.654 54.4594 113.5 54.3922 113.338 54.3713C113.176 54.3503 113.012 54.3764 112.862 54.4469C112.538 54.5405 112.258 54.76 112.075 55.0633C112.039 55.1354 112.022 55.2174 112.027 55.2994C112.033 55.3814 112.06 55.4601 112.105 55.526C112.151 55.592 112.213 55.6425 112.284 55.6716C112.355 55.7007 112.433 55.7071 112.507 55.6901Z" fill="#263238"/>
<path d="M117.6 56.5244C117.367 56.4681 117.136 56.3989 116.909 56.3172C116.656 56.2811 116.421 56.1554 116.242 55.9598C116.196 55.8878 116.173 55.801 116.178 55.7135C116.184 55.626 116.216 55.5431 116.271 55.478C116.394 55.3638 116.544 55.2877 116.705 55.2576C116.865 55.2275 117.03 55.2446 117.183 55.3071C117.511 55.3805 117.802 55.5838 117.999 55.8769C118.04 55.9463 118.061 56.0271 118.061 56.1094C118.06 56.1918 118.037 56.2722 117.995 56.3408C117.953 56.4094 117.893 56.4633 117.823 56.4959C117.753 56.5285 117.675 56.5384 117.6 56.5244Z" fill="#263238"/>
<path d="M112.32 63.2582C112.449 63.3981 112.574 63.5846 112.771 63.6053C112.973 63.6052 113.172 63.5593 113.356 63.4706C113.356 63.4706 113.39 63.4706 113.356 63.5017C113.278 63.6155 113.172 63.7041 113.05 63.758C112.928 63.8118 112.795 63.8289 112.665 63.8073C112.556 63.775 112.457 63.7087 112.382 63.6167C112.307 63.5246 112.259 63.4108 112.243 63.2893C112.239 63.2783 112.239 63.2661 112.244 63.2554C112.248 63.2448 112.257 63.2364 112.267 63.2323C112.277 63.2282 112.288 63.2286 112.298 63.2335C112.308 63.2383 112.316 63.2472 112.32 63.2582Z" fill="#263238"/>
<path d="M115.459 60.7622C115.459 60.7622 115.483 61.6324 115.459 62.0416C114.721 61.9572 113.976 61.9851 113.246 62.1245C113.073 62.1659 113.092 62.0157 113.289 61.9173C113.877 61.6271 114.533 61.5333 115.171 61.6479C115.209 61.5392 115.108 60.3011 115.171 60.3063C115.461 60.3678 115.742 60.4724 116.006 60.6171C116.006 58.7938 115.737 56.9911 115.761 55.1678C115.761 55.1056 115.852 55.0952 115.862 55.1678C116.203 57.0966 116.364 59.0576 116.342 61.0212C116.347 61.2439 115.603 60.845 115.459 60.7622Z" fill="#263238"/>
<path d="M114.38 61.7303C114.188 62.2734 113.833 62.7314 113.372 63.0305C112.647 63.3464 112.412 62.6368 113.141 61.9945C113.524 61.7858 113.952 61.6944 114.38 61.7303Z" fill="#263238"/>
<path d="M113.625 62.8695C113.549 62.9369 113.463 62.991 113.371 63.0301C112.704 63.3202 112.44 62.7452 112.977 62.165C113.342 62.1961 113.76 62.3412 113.625 62.8695Z" fill="#FF99BA"/>
<path d="M106.407 58.1872C107.285 58.4773 108.293 55.6283 108.581 54.5612C108.831 53.5977 109.119 50.5364 109.162 50.324C109.205 50.1116 113.002 53.0331 115.2 52.339C117.399 51.6449 118.891 49.4952 118.925 48.4954C118.959 47.4957 116.208 44.9575 113.832 44.828C111.456 44.6985 108.235 47.936 108.235 47.936C108.624 47.4595 108.977 46.9503 109.291 46.4131C109.253 46.2991 107.717 46.9622 107.434 48.1432C107.434 48.1432 107.741 46.6565 107.626 46.6306C107.511 46.6047 106.315 47.8738 106.584 48.8373C106.584 48.8373 105.202 50.1271 105.077 51.5413C104.952 52.9554 105.375 57.8453 106.407 58.1872Z" fill="#263238"/>
<path d="M116.775 51.8004C116.121 52.183 115.417 52.4555 114.687 52.6085C113.867 52.6874 113.042 52.545 112.287 52.1941C111.525 51.8767 110.818 51.4251 110.194 50.8577C109.642 50.3708 109.148 49.7751 108.557 49.3399C108.408 49.226 108.24 49.4591 108.332 49.6041C109.317 51.1056 110.724 52.2245 112.344 52.795C113.097 53.0598 113.901 53.1093 114.676 52.9386C115.452 52.7679 116.173 52.3829 116.77 51.8212C116.77 51.8212 116.784 51.8004 116.775 51.8004Z" fill="#263238"/>
<path d="M107.323 57.9335C107.323 57.9335 105.96 54.9498 104.731 55.4315C103.502 55.9133 104.251 60.0417 105.513 60.798C105.668 60.906 105.841 60.9791 106.023 61.0131C106.204 61.0471 106.39 61.0411 106.569 60.9957C106.749 60.9502 106.918 60.8661 107.066 60.7485C107.215 60.6309 107.34 60.4821 107.433 60.3111L107.323 57.9335Z" fill="#EB9481"/>
<path d="M104.976 56.6074C104.976 56.6074 104.947 56.6074 104.976 56.6489C105.849 57.2083 106.204 58.2029 106.416 59.2389C106.376 59.1292 106.315 59.0301 106.236 58.9486C106.157 58.867 106.063 58.8049 105.96 58.7664C105.857 58.728 105.747 58.7142 105.638 58.726C105.53 58.7379 105.425 58.775 105.331 58.8348C105.302 58.8348 105.331 58.8918 105.331 58.8918C105.503 58.863 105.678 58.8923 105.834 58.9758C105.99 59.0593 106.117 59.1929 106.2 59.358C106.337 59.6346 106.447 59.9264 106.526 60.2282C106.555 60.3267 106.713 60.3008 106.699 60.192C106.905 58.9022 106.233 56.9493 104.976 56.6074Z" fill="#263238"/>
<path d="M98.3229 71.2565C97.3629 77.1254 103.257 96.8975 107.035 100.591C112.656 106.082 123.048 109.692 126.816 110.868C128.457 111.386 132.998 98.9177 131.337 98.0941C127.781 96.3484 116.731 92.6188 115.68 91.6864C114.629 90.754 108.293 80.8757 105.47 75.1881C101.693 67.5321 98.7981 68.2883 98.3229 71.2565Z" fill="#EB9481"/>
<path d="M128.539 96.9961C128.539 96.9961 133.444 98.3481 136.608 99.3893C138.374 99.9746 141.321 101.264 142.44 102.331C144.11 103.932 150.148 111.764 148.42 113.386C146.856 114.857 142.459 107.413 142.459 107.413C142.459 107.413 147.508 114.499 145.339 115.893C143.169 117.286 139.2 108.164 139.2 108.164C139.2 108.164 144.235 115.572 141.772 116.623C139.91 117.416 135.916 109.371 135.916 109.371C135.916 109.371 140.208 115.768 138.316 116.675C136.233 117.68 132.12 110.5 132.12 110.5C126.974 111.935 123.96 110.345 121.977 108.946C121.512 108.604 128.539 96.9961 128.539 96.9961Z" fill="#EB9481"/>
<path d="M140.856 104.839C141.48 105.647 142.114 106.465 142.666 107.33C143.218 108.195 143.741 109.086 144.216 110.003C144.86 111.189 145.375 112.451 145.752 113.764C144.926 111.485 142.992 108.351 142.44 107.486C141.888 106.621 141.374 105.724 140.827 104.859C140.813 104.839 140.842 104.818 140.856 104.839Z" fill="#263238"/>
<path d="M137.923 106.936C138.989 107.848 141.221 111.236 142.08 113.51C142.118 113.603 142.08 113.598 142.017 113.51C141.345 112.385 138.619 108.034 137.899 106.952C137.885 106.936 137.909 106.921 137.923 106.936Z" fill="#263238"/>
<path d="M135.105 108.262C136.429 109.761 137.475 111.519 138.187 113.442C138.221 113.536 138.153 113.52 138.101 113.442C137.107 111.697 136.339 110.334 135.053 108.309C135.033 108.262 135.077 108.216 135.105 108.262Z" fill="#263238"/>
<path d="M103.68 71.6862C99.2971 64.9988 96.6763 67.4748 97.5547 74.7372C98.3803 81.5282 100.584 89.6193 100.584 89.6193L111.624 83.8385C111.624 83.8385 106.468 75.97 103.68 71.6862Z" fill="#EAE7FF"/>
<path d="M106.344 74.3174C106.489 74.6951 106.594 75.0897 106.656 75.4932C106.723 75.8982 106.747 76.3101 106.728 76.7209C106.584 76.3412 106.481 75.9449 106.42 75.5399C106.349 75.1372 106.323 74.7267 106.344 74.3174Z" fill="white"/>
<path d="M99.8018 78.3838C100.506 78.0746 101.264 77.9332 102.024 77.9694C101.674 78.1248 101.308 78.236 100.935 78.3009C100.561 78.3778 100.181 78.4057 99.8018 78.3838Z" fill="white"/>
<path d="M100.085 67.9824C99.7877 68.7395 99.3443 69.4193 98.7842 69.9767C99.0814 69.2197 99.5249 68.5398 100.085 67.9824Z" fill="white"/>
<path d="M109.44 81.5078C109.295 81.8867 109.11 82.2464 108.888 82.5801C108.673 82.918 108.422 83.2275 108.14 83.5021C108.437 82.7451 108.88 82.0652 109.44 81.5078Z" fill="white"/>
<path d="M101.76 85.5639C101.408 85.4085 101.075 85.2086 100.767 84.9682C100.453 84.7361 100.166 84.4649 99.9121 84.1602C100.614 84.4809 101.244 84.9595 101.76 85.5639Z" fill="white"/>
<path d="M105.12 73.7012C105.71 74.5766 106.32 75.4313 106.924 76.2912C106.771 75.8561 106.636 75.4158 106.521 74.9703H106.55C106.67 75.3122 106.809 75.6489 106.924 76.0063L107.097 76.5243C107.112 76.5596 107.125 76.596 107.136 76.6331C107.616 77.3013 108.096 77.9695 108.537 78.6533C109.08 79.4717 109.603 80.3005 110.131 81.1293C110.659 81.9581 111.192 82.9889 111.763 83.8229C111.816 83.8954 110.803 84.3409 110.692 84.3979C110.582 84.4548 110.524 84.3564 110.63 84.3202C110.736 84.2839 111.542 83.7504 111.552 83.74C111.024 82.9009 110.414 82.129 109.862 81.3158C109.31 80.5025 108.763 79.6893 108.23 78.8656C107.15 77.1873 106.161 75.4468 105.086 73.7633L105.12 73.7012Z" fill="#263238"/>
<path d="M97.814 79.544C97.982 79.8963 98.1644 80.2433 98.294 80.6059L98.4764 81.0566C98.222 79.7668 97.9964 78.4666 97.7324 77.1768C98.2412 79.2488 98.7548 81.3674 99.2252 83.4705C99.6716 85.4803 100.214 87.5109 100.473 89.5621C100.808 89.4037 101.155 89.2772 101.51 89.184C101.154 89.4329 100.77 89.633 100.368 89.7797C99.789 87.6938 99.3084 85.5776 98.9276 83.4394C98.8076 82.8592 98.6972 82.2791 98.582 81.6989C98.4572 81.3467 98.3084 81.01 98.1596 80.6629C98.0108 80.3158 97.8764 79.9273 97.742 79.5596C97.7708 79.5388 97.8044 79.5181 97.814 79.544Z" fill="#263238"/>
<path d="M100.748 87.6196C102.284 86.6872 108.701 83.1026 110.136 82.4396C110.237 82.393 110.29 82.4396 110.189 82.5121C107.143 84.4224 104.002 86.1516 100.781 87.6921C100.743 87.7025 100.704 87.6455 100.748 87.6196Z" fill="#263238"/>
<path d="M276.634 223.802H130.388L151.532 94.3799H297.778L276.634 223.802Z" fill="#EAE7FF"/>
<path d="M201.586 80.9736H153.725L151.531 94.3795H202.752L201.586 80.9736Z" fill="#EAE7FF"/>
<g opacity="0.1">
<path d="M276.634 223.802H130.388L151.532 94.3799H297.778L276.634 223.802Z" fill="black"/>
<path d="M201.586 80.9736H153.725L151.531 94.3795H202.752L201.586 80.9736Z" fill="black"/>
</g>
<path d="M148.56 86.4441C148.24 84.9618 148.24 83.4198 148.56 81.9375C148.88 83.4198 148.88 84.9618 148.56 86.4441Z" fill="#263238"/>
<path d="M144.308 87.7694C143.819 87.2225 143.398 86.6096 143.055 85.946C142.695 85.2963 142.413 84.6001 142.215 83.874C142.705 84.4177 143.126 85.0291 143.468 85.6922C143.827 86.3442 144.109 87.042 144.308 87.7694Z" fill="#263238"/>
<path d="M141.235 91.2142C139.887 90.7717 138.65 90.0008 137.621 88.9609C138.294 89.172 138.939 89.4749 139.541 89.8623C140.156 90.2347 140.725 90.6889 141.235 91.2142Z" fill="#263238"/>
<path d="M140.16 95.8557C138.787 96.2011 137.358 96.2011 135.984 95.8557C137.358 95.5103 138.787 95.5103 140.16 95.8557Z" fill="#263238"/>
<path d="M141.408 100.445C140.899 100.97 140.332 101.424 139.719 101.797C139.117 102.185 138.472 102.488 137.799 102.699C138.306 102.171 138.874 101.717 139.488 101.347C140.089 100.957 140.735 100.654 141.408 100.445Z" fill="#263238"/>
<path d="M144.596 103.755C144.187 105.213 143.473 106.549 142.508 107.661C142.703 106.934 142.986 106.237 143.348 105.589C143.69 104.923 144.109 104.306 144.596 103.755Z" fill="#263238"/>
<path d="M148.897 104.9C149.064 105.638 149.145 106.395 149.137 107.154C149.147 107.913 149.066 108.67 148.897 109.407C148.725 108.671 148.644 107.913 148.657 107.154C148.649 106.395 148.729 105.638 148.897 104.9Z" fill="#263238"/>
<path d="M153.149 103.6C153.638 104.147 154.059 104.76 154.402 105.424C154.763 106.072 155.044 106.769 155.237 107.496C154.273 106.384 153.558 105.048 153.149 103.59V103.6Z" fill="#263238"/>
<path d="M156.217 100.129C156.89 100.338 157.536 100.641 158.137 101.03C158.752 101.4 159.32 101.855 159.826 102.382C159.153 102.173 158.507 101.87 157.906 101.481C157.292 101.111 156.724 100.656 156.217 100.129Z" fill="#263238"/>
<path d="M157.277 95.4884C158.653 95.1432 160.083 95.1432 161.458 95.4884C160.083 95.8337 158.653 95.8337 157.277 95.4884Z" fill="#263238"/>
<path d="M156.049 90.8988C156.557 90.3745 157.125 89.922 157.738 89.552C158.338 89.1591 158.984 88.8542 159.658 88.6455C158.628 89.6868 157.39 90.4578 156.039 90.8988H156.049Z" fill="#263238"/>
<path d="M152.856 87.5887C153.054 86.8633 153.335 86.1673 153.692 85.5167C154.035 84.8531 154.456 84.2403 154.944 83.6934C154.751 84.4203 154.47 85.1168 154.109 85.7654C153.766 86.4289 153.345 87.0418 152.856 87.5887Z" fill="#263238"/>
<path d="M276.418 223.802H129.86L109.047 99.0781H255.61L276.418 223.802Z" fill="#EAE7FF"/>
<path d="M159.835 175.323C163.199 175.323 165.927 172.38 165.927 168.749C165.927 165.119 163.199 162.176 159.835 162.176C156.471 162.176 153.744 165.119 153.744 168.749C153.744 172.38 156.471 175.323 159.835 175.323Z" fill="#263238"/>
<path d="M207.99 175.323C211.354 175.323 214.081 172.38 214.081 168.749C214.081 165.119 211.354 162.176 207.99 162.176C204.626 162.176 201.898 165.119 201.898 168.749C201.898 172.38 204.626 175.323 207.99 175.323Z" fill="#263238"/>
<path d="M266.74 168.247L266.64 167.729C266.952 167.656 267.259 167.578 267.566 167.49L267.686 168.008C267.36 168.096 267.057 168.174 266.74 168.247Z" fill="#263238"/>
<path d="M269.544 167.413L269.39 166.926C269.99 166.703 270.59 166.459 271.171 166.195L271.358 166.672C270.768 166.941 270.158 167.19 269.544 167.413ZM273.12 165.76L272.904 165.304C273.466 164.988 274.027 164.646 274.56 164.268L274.81 164.709C274.262 165.118 273.691 165.465 273.12 165.76ZM276.422 163.569L276.139 163.149C276.658 162.74 277.157 162.31 277.627 161.87L277.944 162.258C277.44 162.73 276.96 163.17 276.418 163.59L276.422 163.569ZM279.35 160.813L279 160.456C279.442 159.938 279.859 159.42 280.243 158.902L280.622 159.218C280.224 159.788 279.797 160.321 279.36 160.834L279.35 160.813ZM281.726 157.498L281.318 157.223C281.65 156.645 281.945 156.043 282.202 155.421L282.643 155.633C282.372 156.281 282.064 156.911 281.722 157.519L281.726 157.498ZM283.315 153.654L282.835 153.509C283.011 152.86 283.14 152.196 283.224 151.525L283.704 151.593C283.624 152.297 283.493 152.993 283.31 153.675L283.315 153.654ZM283.848 149.51H283.368V149.36C283.368 148.733 283.334 148.096 283.277 147.47L283.757 147.418C283.82 148.063 283.852 148.711 283.853 149.36L283.848 149.51ZM282.984 145.454C282.855 144.787 282.695 144.126 282.504 143.476L282.984 143.32C283.181 143.994 283.349 144.677 283.464 145.346L282.984 145.454ZM281.846 141.554C281.616 140.943 281.366 140.316 281.059 139.684L281.491 139.451C281.784 140.093 282.053 140.736 282.288 141.357L281.846 141.554ZM280.166 137.861C279.869 137.296 279.542 136.7 279.206 136.089L279.614 135.815C279.965 136.431 280.296 137.032 280.574 137.607L280.166 137.861ZM278.16 134.343C277.81 133.774 277.454 133.199 277.09 132.624L277.488 132.334C277.853 132.909 278.208 133.484 278.558 134.064L278.16 134.343ZM276 130.914C275.64 130.344 275.275 129.769 274.92 129.2L275.318 128.91C275.674 129.479 276.034 130.054 276.394 130.619L276 130.914ZM273.854 127.464C273.504 126.884 273.163 126.294 272.827 125.703L273.235 125.434C273.571 126.024 273.912 126.604 274.258 127.185L273.854 127.464ZM271.853 123.906C271.526 123.279 271.224 122.657 270.95 122.062L271.382 121.829C271.651 122.419 271.954 123.03 272.27 123.652L271.853 123.906ZM270.149 120.176C269.894 119.529 269.669 118.871 269.458 118.228L269.938 118.063C270.139 118.689 270.365 119.337 270.614 119.974L270.149 120.176ZM268.901 116.224C268.742 115.55 268.603 114.861 268.498 114.152L268.978 114.069C269.083 114.732 269.213 115.405 269.371 116.068L268.901 116.224ZM268.258 112.08C268.21 111.443 268.186 110.8 268.186 110.158V109.987H268.666V110.153C268.666 110.78 268.666 111.412 268.738 112.033L268.258 112.08ZM268.738 107.936L268.258 107.884C268.258 107.744 268.282 107.599 268.296 107.449C268.354 106.895 268.426 106.34 268.512 105.812L268.992 105.9C268.91 106.418 268.838 106.962 268.781 107.506C268.8 107.666 268.8 107.806 268.762 107.951L268.738 107.936ZM269.405 103.906L268.925 103.766C269.102 103.082 269.309 102.414 269.539 101.777L269.986 101.963C269.767 102.605 269.582 103.258 269.429 103.921L269.405 103.906ZM293.323 100.886C293.054 100.886 292.776 100.844 292.502 100.803C292.128 100.746 291.754 100.679 291.384 100.601L291.48 100.083C291.835 100.155 292.205 100.223 292.57 100.28C292.829 100.316 293.093 100.342 293.347 100.357L293.323 100.886ZM295.296 100.725L295.195 100.207C295.798 100.073 296.375 99.8314 296.904 99.4924L297.154 99.9327C296.588 100.31 295.969 100.583 295.32 100.741L295.296 100.725ZM270.787 100.109L270.36 99.8653C270.666 99.2475 271.004 98.6491 271.373 98.073L271.766 98.3683C271.416 98.9324 271.097 99.5188 270.811 100.124L270.787 100.109ZM289.507 100.078C288.888 99.8656 288.279 99.6183 287.683 99.337L287.88 98.8604C288.457 99.1371 289.048 99.3775 289.651 99.5804L289.507 100.078ZM298.627 98.4615L298.229 98.1715C298.571 97.6364 298.773 97.012 298.814 96.3636L299.294 96.3999C299.254 97.143 299.028 97.8605 298.642 98.4771L298.627 98.4615ZM285.955 98.3838C285.393 98.0315 284.85 97.6458 284.328 97.2287L284.611 96.8143C285.119 97.2188 285.648 97.5924 286.195 97.9332L285.955 98.3838ZM272.947 96.7677L272.592 96.4206C273.027 95.899 273.49 95.406 273.979 94.9443L274.296 95.3328C273.825 95.7875 273.379 96.2718 272.962 96.7832L272.947 96.7677ZM282.83 95.8923C282.352 95.417 281.899 94.9138 281.472 94.3849L281.832 94.043C282.247 94.5567 282.688 95.0461 283.152 95.5089L282.83 95.8923ZM298.454 94.4885C298.179 93.8965 297.799 93.3685 297.336 92.9345L297.653 92.546C298.163 93.0221 298.582 93.6009 298.886 94.2502L298.454 94.4885ZM275.789 94.0793L275.515 93.6545C276.052 93.2589 276.608 92.894 277.181 92.5615L277.406 93.0174C276.855 93.3462 276.32 93.7058 275.803 94.0948L275.789 94.0793ZM280.272 92.7325C280.09 92.4527 279.912 92.1678 279.744 91.8726L279.12 92.1368L278.938 91.6602L279.49 91.4219C279.403 91.2665 279.317 91.1111 279.235 90.9557L279.653 90.7019C279.749 90.8832 279.845 91.0645 279.946 91.2199C280.214 91.1163 280.488 91.0179 280.766 90.9246L280.906 91.4426C280.67 91.5203 280.426 91.6032 280.205 91.6913C280.354 91.9451 280.507 92.2093 280.685 92.432L280.272 92.7325ZM295.79 91.8415C295.326 91.5917 294.845 91.3805 294.35 91.2095L294.034 91.1008L294.173 90.5828L294.499 90.6967C295.013 90.8736 295.514 91.0936 295.997 91.3546L295.79 91.8415ZM282.744 90.9143L282.643 90.3963C283.262 90.2461 283.906 90.1217 284.563 90.0233L284.635 90.5413C284.002 90.6501 283.373 90.7796 282.758 90.9298L282.744 90.9143ZM292.2 90.6346C291.6 90.5206 290.966 90.4325 290.318 90.3704L290.357 89.8524C291.024 89.9145 291.672 90.0026 292.277 90.1217L292.2 90.6346ZM286.512 90.3341L286.478 89.8161C287.05 89.7799 287.621 89.7591 288.187 89.7591H288.422V90.2771H288.192C287.65 90.2927 287.083 90.3082 286.526 90.3497L286.512 90.3341ZM278.4 89.0961C278.141 88.4641 277.92 87.8063 277.704 87.1381L278.184 86.9775C278.386 87.6302 278.611 88.2725 278.861 88.8889L278.4 89.0961ZM277.186 85.1179C277.042 84.4496 276.922 83.7555 276.83 83.0459L277.31 82.9733C277.402 83.6571 277.517 84.3357 277.656 84.9935L277.186 85.1179ZM276.648 80.9739C276.624 80.5077 276.61 80.0311 276.61 79.5545C276.61 79.3318 276.61 79.1039 276.61 78.8811H277.09C277.09 79.1039 277.09 79.3214 277.09 79.5442C277.09 80.0104 277.09 80.4818 277.123 80.9324L276.648 80.9739ZM277.219 76.8299L276.739 76.7781C276.806 76.0943 276.898 75.395 277.008 74.7061L277.488 74.7941C277.358 75.4831 277.267 76.1461 277.205 76.8402L277.219 76.8299ZM277.877 72.7843L277.397 72.66C277.55 71.9917 277.728 71.3183 277.925 70.6449L278.405 70.8055C278.189 71.4841 278.011 72.142 277.862 72.7946L277.877 72.7843ZM279.029 68.863L278.582 68.6765C278.818 68.029 279.062 67.3815 279.355 66.7548L279.787 66.9827C279.499 67.6043 279.245 68.2362 279.014 68.8941L279.029 68.863ZM280.68 65.1697L280.262 64.9055C280.589 64.3098 280.939 63.7141 281.304 63.1443L281.698 63.4396C281.323 64.0094 280.982 64.5895 280.666 65.18L280.68 65.1697ZM282.845 61.7975L282.47 61.4712C282.874 60.9532 283.306 60.4041 283.752 59.9172L284.098 60.2746C283.646 60.7615 283.224 61.2795 282.83 61.8079L282.845 61.7975ZM285.456 58.8138L285.134 58.4305C285.614 57.9695 286.094 57.5136 286.608 57.0733L286.906 57.4826C286.392 57.9229 285.902 58.3735 285.442 58.8242L285.456 58.8138ZM288.437 56.2549L288.163 55.825C288.686 55.4365 289.234 55.0531 289.79 54.6905L290.035 55.1308C289.478 55.4986 288.96 55.8768 288.422 56.2653L288.437 56.2549ZM291.696 54.1156L291.47 53.6597C292.037 53.3334 292.622 53.0226 293.208 52.7325L293.41 53.2039C292.8 53.4991 292.238 53.8099 291.682 54.1259L291.696 54.1156ZM295.166 52.3958L294.989 51.9089C295.594 51.6551 296.203 51.3909 296.808 51.1992L296.962 51.7172C296.352 51.9141 295.747 52.1523 295.152 52.4062L295.166 52.3958Z" fill="#263238"/>
<path d="M298.867 51.0854L298.747 50.5674C299.342 50.4016 299.707 50.3291 299.707 50.3291L299.793 50.8471C299.793 50.8471 299.448 50.9248 298.867 51.0854Z" fill="#263238"/>
<path d="M150.868 49.3759C150.638 51.7551 149.8 54.0186 148.448 55.9138C147.095 57.8089 145.281 59.2611 143.208 60.1083C141.135 60.9556 138.884 61.1645 136.708 60.7118C134.531 60.2592 132.514 59.1627 130.881 57.5448L124.896 58.4927L127.891 52.9087C127.206 51.0917 126.914 49.1302 127.036 47.1731C127.159 45.216 127.693 43.3149 128.599 41.614C129.504 39.9132 130.757 38.4574 132.262 37.3572C133.767 36.257 135.484 35.5415 137.283 35.2648C139.083 34.9881 140.917 35.1577 142.647 35.7605C144.376 36.3634 145.956 37.3837 147.266 38.744C148.575 40.1043 149.58 41.7688 150.205 43.611C150.829 45.4533 151.056 47.4248 150.868 49.3759Z" fill="white"/>
<path d="M150.869 49.376C150.643 51.754 149.813 54.0184 148.469 55.9184C147.812 56.8793 147.02 57.7235 146.121 58.4203C145.242 59.1433 144.273 59.7276 143.241 60.1556C142.209 60.5942 141.125 60.8732 140.021 60.9844C139.468 61.0379 138.913 61.05 138.36 61.0207C137.804 61.0053 137.25 60.9429 136.704 60.8342C134.498 60.3962 132.448 59.3038 130.785 57.6796L130.925 57.7262L124.949 58.7156L124.512 58.7881L124.733 58.3737L127.709 52.7793V53.002C127.006 51.1515 126.708 49.1516 126.836 47.1567C126.964 45.1618 127.516 43.2254 128.448 41.4972C129.379 39.7745 130.659 38.3012 132.192 37.1875C133.722 36.0886 135.464 35.3779 137.285 35.1088C139.106 34.8397 140.961 35.019 142.709 35.6335C144.438 36.2684 146.014 37.3126 147.321 38.6897C148.626 40.0633 149.623 41.7395 150.238 43.5911C150.852 45.4427 151.068 47.421 150.869 49.376ZM150.869 49.376C151.062 47.4307 150.84 45.4632 150.217 43.6256C149.594 41.788 148.589 40.1293 147.278 38.7777C145.967 37.4261 144.386 36.4176 142.656 35.8302C140.927 35.2429 139.096 35.0922 137.304 35.39C135.53 35.6734 133.84 36.3929 132.365 37.4931C130.902 38.6019 129.68 40.0406 128.784 41.7096C127.901 43.3823 127.381 45.2488 127.262 47.1693C127.145 49.1028 127.434 51.0399 128.107 52.8363L128.15 52.9502L128.093 53.059L125.078 58.6327L124.867 58.2908L130.857 57.3843H130.939L130.997 57.4413C132.598 59.0497 134.582 60.1455 136.728 60.6063C137.262 60.7238 137.805 60.7948 138.35 60.8186C138.895 60.8601 139.442 60.8601 139.987 60.8186C141.08 60.7236 142.155 60.4674 143.184 60.0572C144.214 59.6522 145.185 59.0868 146.064 58.3789C146.958 57.6876 147.751 56.8546 148.416 55.908C149.777 54.0173 150.626 51.7562 150.869 49.376Z" fill="#263238"/>
<path d="M133.123 54.0533C133.114 53.8819 133.137 53.7101 133.192 53.5489C133.247 53.3876 133.332 53.2402 133.442 53.1159C133.552 52.9915 133.684 52.8929 133.831 52.826C133.977 52.7592 134.135 52.7256 134.294 52.7273C134.62 52.7273 134.933 52.867 135.163 53.1157C135.394 53.3644 135.523 53.7016 135.523 54.0533C135.523 54.405 135.394 54.7423 135.163 54.991C134.933 55.2397 134.62 55.3794 134.294 55.3794C134.135 55.3811 133.977 55.3475 133.831 55.2807C133.684 55.2138 133.552 55.1152 133.442 54.9908C133.332 54.8665 133.247 54.7191 133.192 54.5578C133.137 54.3965 133.114 54.2248 133.123 54.0533ZM133.603 50.992L133.325 40.7148H135.245L134.966 50.992H133.603Z" fill="#BEB5FF"/>
<path d="M137.687 54.0533C137.678 53.8823 137.702 53.711 137.756 53.5501C137.811 53.3892 137.895 53.2421 138.005 53.1178C138.114 52.9935 138.246 52.8947 138.392 52.8276C138.538 52.7604 138.695 52.7263 138.854 52.7273C139.18 52.7273 139.492 52.867 139.723 53.1157C139.953 53.3644 140.083 53.7016 140.083 54.0533C140.083 54.405 139.953 54.7423 139.723 54.991C139.492 55.2397 139.18 55.3794 138.854 55.3794C138.695 55.3804 138.538 55.3463 138.392 55.2791C138.246 55.2119 138.114 55.1132 138.005 54.9889C137.895 54.8646 137.811 54.7175 137.756 54.5566C137.702 54.3957 137.678 54.2244 137.687 54.0533ZM138.167 50.992L137.903 40.7148H139.823L139.545 50.992H138.167Z" fill="#BEB5FF"/>
<path d="M142.248 54.0533C142.239 53.8819 142.262 53.7101 142.317 53.5489C142.372 53.3876 142.457 53.2402 142.567 53.1159C142.677 52.9915 142.809 52.8929 142.956 52.826C143.102 52.7592 143.26 52.7256 143.419 52.7273C143.745 52.7273 144.058 52.867 144.288 53.1157C144.519 53.3644 144.648 53.7016 144.648 54.0533C144.648 54.405 144.519 54.7423 144.288 54.991C144.058 55.2397 143.745 55.3794 143.419 55.3794C143.26 55.3811 143.102 55.3475 142.956 55.2807C142.809 55.2138 142.677 55.1152 142.567 54.9908C142.457 54.8665 142.372 54.7191 142.317 54.5578C142.262 54.3965 142.239 54.2248 142.248 54.0533ZM142.728 50.992L142.45 40.7148H144.37L144.096 50.992H142.728Z" fill="#BEB5FF"/>
<circle cx="157.5" cy="166.5" r="2.5" fill="white"/>
<circle cx="157.5" cy="166.5" r="2.5" fill="white"/>
<circle cx="157.5" cy="166.5" r="2.5" fill="white"/>
<circle cx="157.5" cy="166.5" r="2.5" fill="white"/>
<circle cx="205.5" cy="166.5" r="2.5" fill="white"/>
<circle cx="205.5" cy="166.5" r="2.5" fill="white"/>
<circle cx="205.5" cy="166.5" r="2.5" fill="white"/>
<circle cx="205.5" cy="166.5" r="2.5" fill="white"/>
<rect x="225" y="108" width="19" height="4" rx="2" fill="white" fill-opacity="0.63"/>
<rect x="244.952" y="115.939" width="17.496" height="3.60048" rx="1.80024" transform="rotate(78.4841 244.952 115.939)" fill="white" fill-opacity="0.63"/>
</svg>
