<svg width="453" height="590" viewBox="0 0 453 590" fill="none" xmlns="http://www.w3.org/2000/svg">
<path d="M322.214 0H124.036C93.2133 0 68.2266 25.0865 68.2266 56.0322V510.698C68.2266 541.644 93.2133 566.731 124.036 566.731H322.214C353.037 566.731 378.023 541.644 378.023 510.698V56.0322C378.023 25.0865 353.037 0 322.214 0Z" fill="#3F3D56"/>
<path d="M372.797 56.0363V510.699C372.781 524.164 367.447 537.072 357.964 546.593C348.481 556.114 335.624 561.47 322.212 561.485H124.037C110.626 561.47 97.7691 556.114 88.2861 546.593C78.803 537.072 73.4686 524.164 73.4531 510.699V56.0363C73.4687 42.5717 78.803 29.6631 88.2861 20.1422C97.7691 10.6213 110.626 5.26559 124.037 5.25H149.952V14.2376C149.952 18.3064 151.562 22.2085 154.428 25.0856C157.294 27.9627 161.18 29.5791 165.233 29.5793H281.017C285.07 29.5791 288.956 27.9627 291.822 25.0856C294.688 22.2085 296.298 18.3064 296.298 14.2376V5.25H322.212C335.624 5.26559 348.481 10.6213 357.964 20.1422C367.447 29.6631 372.781 42.5717 372.797 56.0363Z" fill="white"/>
<path d="M66.8012 114.969C65.7934 114.967 64.8272 114.565 64.1146 113.85C63.402 113.134 63.0012 112.164 63 111.152V103.519C63 102.507 63.4005 101.537 64.1133 100.821C64.8262 100.105 65.7931 99.7031 66.8012 99.7031C67.8093 99.7031 68.7762 100.105 69.489 100.821C70.2019 101.537 70.6024 102.507 70.6024 103.519V111.152C70.6012 112.164 70.2004 113.134 69.4878 113.85C68.7752 114.565 67.809 114.967 66.8012 114.969Z" fill="#3F3D56"/>
<path d="M66.8012 154.104C65.7934 154.103 64.8272 153.701 64.1146 152.985C63.402 152.27 63.0012 151.3 63 150.288V129.277C63 128.265 63.4005 127.294 64.1133 126.579C64.8262 125.863 65.7931 125.461 66.8012 125.461C67.8093 125.461 68.7762 125.863 69.489 126.579C70.2019 127.294 70.6024 128.265 70.6024 129.277V150.288C70.6012 151.3 70.2004 152.27 69.4878 152.985C68.7752 153.701 67.809 154.103 66.8012 154.104Z" fill="#3F3D56"/>
<path d="M66.8012 185.573C65.7934 185.572 64.8272 185.169 64.1146 184.454C63.402 183.738 63.0012 182.768 63 181.757V160.746C63 159.734 63.4005 158.763 64.1133 158.047C64.8262 157.332 65.7931 156.93 66.8012 156.93C67.8093 156.93 68.7762 157.332 69.489 158.047C70.2019 158.763 70.6024 159.734 70.6024 160.746V181.757C70.6012 182.768 70.2004 183.738 69.4878 184.454C68.7752 185.169 67.809 185.572 66.8012 185.573Z" fill="#3F3D56"/>
<path d="M378.5 168.395C377.493 168.394 376.526 167.992 375.814 167.276C375.101 166.561 374.7 165.591 374.699 164.579V113.312C374.699 112.3 375.1 111.33 375.813 110.614C376.525 109.898 377.492 109.496 378.5 109.496C379.509 109.496 380.475 109.898 381.188 110.614C381.901 111.33 382.302 112.3 382.302 113.312V164.579C382.3 165.591 381.9 166.561 381.187 167.276C380.474 167.992 379.508 168.394 378.5 168.395Z" fill="#3F3D56"/>
<path d="M231.292 17.5009H201.833C201.203 17.5009 200.598 17.2496 200.153 16.8023C199.707 16.355 199.457 15.7483 199.457 15.1157C199.457 14.4831 199.707 13.8764 200.153 13.4291C200.598 12.9818 201.203 12.7305 201.833 12.7305H231.292C231.922 12.7305 232.526 12.9818 232.972 13.4291C233.417 13.8764 233.668 14.4831 233.668 15.1157C233.668 15.7483 233.417 16.355 232.972 16.8023C232.526 17.2496 231.922 17.5009 231.292 17.5009Z" fill="white"/>
<path d="M246.494 17.0273C247.544 17.0273 248.395 16.173 248.395 15.1191C248.395 14.0653 247.544 13.2109 246.494 13.2109C245.445 13.2109 244.594 14.0653 244.594 15.1191C244.594 16.173 245.445 17.0273 246.494 17.0273Z" fill="white"/>
<path d="M138.632 27.7401H112.974C111.714 27.7401 110.505 27.2375 109.614 26.3429C108.723 25.4483 108.223 24.2349 108.223 22.9697C108.223 21.7045 108.723 20.4911 109.614 19.5965C110.505 18.7018 111.714 18.1992 112.974 18.1992H138.632C139.892 18.1992 141.101 18.7018 141.992 19.5965C142.883 20.4911 143.384 21.7045 143.384 22.9697C143.384 24.2349 142.883 25.4483 141.992 26.3429C141.101 27.2375 139.892 27.7401 138.632 27.7401Z" fill="#E6E6E6"/>
<path d="M306.831 27.2626C309.193 27.2626 311.107 25.3404 311.107 22.9692C311.107 20.598 309.193 18.6758 306.831 18.6758C304.469 18.6758 302.555 20.598 302.555 22.9692C302.555 25.3404 304.469 27.2626 306.831 27.2626Z" fill="#E6E6E6"/>
<path d="M320.136 27.2626C322.497 27.2626 324.412 25.3404 324.412 22.9692C324.412 20.598 322.497 18.6758 320.136 18.6758C317.774 18.6758 315.859 20.598 315.859 22.9692C315.859 25.3404 317.774 27.2626 320.136 27.2626Z" fill="#E6E6E6"/>
<path d="M333.44 27.2626C335.802 27.2626 337.717 25.3404 337.717 22.9692C337.717 20.598 335.802 18.6758 333.44 18.6758C331.079 18.6758 329.164 20.598 329.164 22.9692C329.164 25.3404 331.079 27.2626 333.44 27.2626Z" fill="#E6E6E6"/>
<path d="M304.239 311.85H126.787C122.218 311.845 117.838 310.02 114.608 306.777C111.377 303.533 109.56 299.136 109.555 294.549V276.676C109.56 272.089 111.377 267.692 114.608 264.448C117.838 261.205 122.218 259.38 126.787 259.375H304.239C308.807 259.38 313.187 261.205 316.418 264.448C319.649 267.692 321.466 272.089 321.471 276.676V294.549C321.466 299.136 319.649 303.533 316.418 306.777C313.187 310.02 308.807 311.845 304.239 311.85ZM126.787 261.283C122.722 261.288 118.825 262.911 115.951 265.797C113.077 268.683 111.46 272.595 111.455 276.676V294.549C111.46 298.63 113.077 302.542 115.951 305.428C118.825 308.314 122.722 309.937 126.787 309.942H304.239C308.303 309.937 312.2 308.314 315.075 305.428C317.949 302.543 319.566 298.63 319.57 294.549V276.676C319.566 272.595 317.949 268.683 315.075 265.797C312.2 262.911 308.303 261.288 304.239 261.283H126.787Z" fill="#E6E6E6"/>
<path d="M235.956 360.357H210.298C209.038 360.357 207.83 359.855 206.939 358.96C206.047 358.065 205.547 356.852 205.547 355.587C205.547 354.322 206.047 353.108 206.939 352.214C207.83 351.319 209.038 350.816 210.298 350.816H235.956C237.217 350.816 238.425 351.319 239.316 352.214C240.207 353.108 240.708 354.322 240.708 355.587C240.708 356.852 240.207 358.065 239.316 358.96C238.425 359.855 237.217 360.357 235.956 360.357Z" fill="#E6E6E6"/>
<path d="M241.851 498.698H204.404C203.492 498.699 202.59 498.52 201.747 498.17C200.905 497.821 200.14 497.308 199.495 496.662C198.85 496.015 198.339 495.247 197.99 494.402C197.641 493.557 197.461 492.651 197.461 491.736C197.461 490.821 197.641 489.915 197.99 489.07C198.339 488.224 198.85 487.456 199.495 486.81C200.14 486.163 200.905 485.651 201.747 485.301C202.59 484.952 203.492 484.772 204.404 484.773H241.851C243.69 484.773 245.454 485.507 246.754 486.813C248.055 488.118 248.785 489.889 248.785 491.736C248.785 493.582 248.055 495.353 246.754 496.659C245.454 497.965 243.69 498.698 241.851 498.698Z" fill="#24BA0E"/>
<path d="M305.137 427.143H127.686C123.117 427.138 118.737 425.313 115.506 422.07C112.276 418.826 110.458 414.429 110.453 409.842V391.969C110.458 387.382 112.276 382.985 115.506 379.741C118.737 376.498 123.117 374.673 127.686 374.668H305.137C309.706 374.673 314.086 376.498 317.316 379.741C320.547 382.985 322.364 387.382 322.369 391.969V409.842C322.364 414.429 320.547 418.826 317.316 422.07C314.086 425.313 309.706 427.138 305.137 427.143ZM127.686 376.576C123.621 376.581 119.724 378.204 116.849 381.09C113.975 383.976 112.358 387.888 112.354 391.969V409.842C112.358 413.923 113.975 417.835 116.849 420.721C119.724 423.607 123.621 425.23 127.686 425.235H305.137C309.202 425.23 313.099 423.607 315.973 420.721C318.847 417.835 320.464 413.923 320.469 409.842V391.969C320.464 387.888 318.847 383.976 315.973 381.09C313.099 378.204 309.202 376.581 305.137 376.576H127.686Z" fill="#E6E6E6"/>
<path d="M377.828 268.183L244.211 315.613L244.437 316.254L378.054 268.824L377.828 268.183Z" fill="white"/>
<path d="M155.462 542.259C154.916 542.284 154.375 542.14 153.913 541.846C153.451 541.553 153.09 541.123 152.879 540.617C152.667 540.11 152.617 539.55 152.733 539.014C152.849 538.477 153.127 537.989 153.529 537.616L153.712 536.887C153.688 536.828 153.663 536.77 153.639 536.712C153.089 535.406 152.166 534.293 150.988 533.512C149.809 532.732 148.427 532.318 147.015 532.323C145.603 532.328 144.224 532.752 143.051 533.542C141.879 534.332 140.964 535.451 140.424 536.761C138.262 541.988 135.51 547.223 134.833 552.749C134.534 555.192 134.66 557.668 135.205 560.068C130.128 548.949 127.492 536.865 127.475 524.634C127.474 521.565 127.644 518.498 127.983 515.448C128.264 512.947 128.654 510.465 129.153 508C131.874 494.625 137.716 482.09 146.199 471.422C150.305 469.173 153.626 465.714 155.714 461.512C156.47 460.001 157.005 458.389 157.301 456.724C156.837 456.785 155.554 449.703 155.904 449.269C155.258 448.285 154.103 447.796 153.398 446.837C149.892 442.064 145.061 442.898 142.54 449.383C137.153 452.113 137.1 456.64 140.406 460.993C142.509 463.763 142.798 467.511 144.643 470.477C144.453 470.721 144.256 470.957 144.066 471.201C140.596 475.681 137.571 480.492 135.036 485.564C135.652 479.882 134.917 474.133 132.889 468.792C130.834 463.815 126.981 459.622 123.589 455.319C119.514 450.15 111.159 452.406 110.441 458.958C110.434 459.022 110.427 459.085 110.421 459.149C110.925 459.434 111.418 459.737 111.9 460.057C112.507 460.464 112.976 461.045 113.248 461.724C113.52 462.404 113.581 463.149 113.423 463.864C113.265 464.579 112.896 465.229 112.364 465.73C111.832 466.23 111.162 466.558 110.441 466.669L110.368 466.68C110.547 468.504 110.864 470.311 111.317 472.086C106.965 488.983 116.36 495.137 129.776 495.413C130.072 495.566 130.36 495.718 130.656 495.863C128.109 503.111 126.511 510.66 125.903 518.322C125.559 522.842 125.579 527.382 125.964 531.899L125.941 531.739C124.969 526.717 122.3 522.185 118.386 518.909C112.572 514.114 104.357 512.348 98.085 508.493C97.4184 508.064 96.6433 507.834 95.8511 507.833C95.0589 507.831 94.2828 508.056 93.6141 508.483C92.9454 508.909 92.4121 509.519 92.0771 510.239C91.7421 510.96 91.6194 511.762 91.7235 512.55C91.7319 512.606 91.7405 512.662 91.7491 512.719C92.6842 513.101 93.5946 513.541 94.475 514.037C94.9789 514.323 95.4721 514.626 95.9547 514.946C96.561 515.353 97.0307 515.934 97.3024 516.613C97.5742 517.292 97.6351 518.038 97.4774 518.753C97.3197 519.468 96.9507 520.118 96.4186 520.618C95.8865 521.119 95.2163 521.446 94.4957 521.558L94.4219 521.569C94.3687 521.577 94.3231 521.585 94.2701 521.592C95.8677 525.422 98.11 528.947 100.899 532.013C103.62 546.764 115.307 548.163 127.809 543.868H127.816C129.188 549.852 131.176 555.678 133.747 561.249H154.932C155.008 561.013 155.076 560.769 155.144 560.533C153.183 560.657 151.215 560.539 149.282 560.182C150.854 558.246 152.426 556.294 153.998 554.358C154.033 554.322 154.066 554.283 154.096 554.243C154.894 553.252 155.698 552.269 156.496 551.278L156.496 551.277C156.539 548.239 156.191 545.208 155.463 542.259L155.462 542.259Z" fill="#F2F2F2"/>
<path d="M218.5 176C241.972 176 261 156.972 261 133.5C261 110.028 241.972 91 218.5 91C195.028 91 176 110.028 176 133.5C176 156.972 195.028 176 218.5 176Z" fill="#24BA0E"/>
<path d="M214.289 149.714C213.333 149.716 212.402 149.406 211.637 148.833L211.589 148.797L201.601 141.156C201.139 140.802 200.751 140.36 200.459 139.855C200.167 139.35 199.978 138.793 199.902 138.215C199.825 137.637 199.863 137.05 200.014 136.487C200.165 135.924 200.425 135.396 200.779 134.933C201.134 134.471 201.576 134.083 202.081 133.791C202.586 133.499 203.143 133.31 203.721 133.234C204.299 133.157 204.886 133.195 205.449 133.346C206.012 133.497 206.54 133.757 207.002 134.111L213.472 139.072L228.76 119.128C229.114 118.666 229.556 118.278 230.061 117.986C230.565 117.694 231.122 117.505 231.7 117.429C232.277 117.353 232.864 117.391 233.427 117.541C233.99 117.692 234.518 117.952 234.98 118.306L234.981 118.307L234.887 118.439L234.984 118.307C235.917 119.024 236.527 120.082 236.681 121.248C236.835 122.415 236.52 123.595 235.805 124.529L217.823 147.978C217.407 148.518 216.872 148.955 216.26 149.255C215.648 149.556 214.974 149.711 214.293 149.709L214.289 149.714Z" fill="white"/>
<path d="M226.241 589.227C351.151 589.227 452.411 530.764 452.411 458.646C452.411 386.529 351.151 328.066 226.241 328.066C101.33 328.066 0.0703125 386.529 0.0703125 458.646C0.0703125 530.764 101.33 589.227 226.241 589.227Z" fill="#F5F5F5"/>
<path d="M390.152 423.472L341.339 395.251C340.533 394.84 339.649 394.606 338.745 394.565C337.842 394.524 336.94 394.676 336.1 395.012L281.493 420.231C280.012 420.91 279.964 422.143 281.369 422.946L342.228 458.079C343.002 458.475 343.866 458.659 344.734 458.613C345.602 458.568 346.442 458.295 347.171 457.821L390.315 426.656C390.611 426.499 390.855 426.261 391.02 425.97C391.186 425.679 391.264 425.346 391.247 425.012C391.23 424.678 391.118 424.355 390.924 424.083C390.73 423.81 390.462 423.598 390.152 423.472Z" fill="#E0E0E0"/>
<path d="M61.1077 423.472L109.921 395.251C110.727 394.84 111.611 394.606 112.515 394.565C113.418 394.524 114.32 394.676 115.16 395.012L169.767 420.231C171.248 420.91 171.296 422.143 169.891 422.946L109.042 458.079C108.266 458.474 107.4 458.659 106.531 458.613C105.662 458.568 104.82 458.295 104.089 457.821L60.9452 426.656C60.6528 426.496 60.4114 426.257 60.2487 425.967C60.086 425.676 60.0088 425.345 60.0257 425.013C60.0427 424.68 60.1533 424.359 60.3447 424.087C60.5361 423.814 60.8006 423.601 61.1077 423.472Z" fill="#E0E0E0"/>
<path d="M64.7681 485.499L219.306 574.483C220.062 574.87 220.899 575.072 221.748 575.072C222.597 575.072 223.435 574.87 224.191 574.483L382.428 483.061C383.785 482.287 383.785 481.025 382.428 480.193L227.91 391.256C227.15 390.875 226.312 390.676 225.462 390.676C224.612 390.676 223.774 390.875 223.015 391.256L64.7681 482.679C63.4106 483.453 63.4106 484.724 64.7681 485.499Z" fill="#E0E0E0"/>
<path d="M328.042 242.896C324.992 243.116 317.201 242.236 312.555 247.991C307.631 254.072 290.653 278.583 290.653 278.583L273.693 253.422L254.898 243.45C255.615 252.265 278.034 290.151 281.427 294.769C284.821 299.386 288.674 303.373 296.035 297.273C303.396 291.174 320.327 267.857 320.327 267.857C320.327 267.857 331.092 242.676 328.042 242.896Z" fill="#FFA8A7"/>
<path d="M329.935 242.439C329.935 242.439 320.662 241.234 315.423 244.676C310.184 248.117 295.672 269.943 295.672 269.943C295.672 269.943 296.924 280.564 309.381 283.652L327.048 260.373L329.935 242.439Z" fill="#455A64"/>
<path d="M262.077 247.15C268.091 243.679 277.851 243.679 283.874 247.15C286.876 248.89 288.377 251.155 288.377 253.431V256.299C288.377 258.583 286.886 260.859 283.874 262.599C277.851 266.078 268.091 266.078 262.077 262.599C259.066 260.868 257.575 258.593 257.575 256.327V253.392C257.546 251.165 259.066 248.89 262.077 247.15Z" fill="#FFBDA7"/>
<path d="M283.877 259.74C277.854 263.21 268.093 263.21 262.08 259.74C256.067 256.27 256.057 250.629 262.08 247.149C268.103 243.669 277.854 243.679 283.877 247.149C289.9 250.62 289.9 256.26 283.877 259.74Z" fill="#F0997A"/>
<path d="M262.077 243.489C268.091 240.019 277.851 240.019 283.874 243.489C286.876 245.229 288.377 247.495 288.377 249.77V252.686C288.377 254.971 286.886 257.246 283.874 258.986C277.851 262.466 268.091 262.466 262.077 258.986C259.066 257.256 257.575 254.981 257.575 252.715V249.78C257.546 247.505 259.066 245.229 262.077 243.489Z" fill="#B16668"/>
<path d="M283.877 256.08C277.854 259.559 268.093 259.559 262.08 256.08C256.067 252.6 256.057 246.969 262.08 243.489C268.103 240.009 277.854 240.019 283.877 243.489C289.9 246.959 289.9 252.6 283.877 256.08Z" fill="#9A4A4D"/>
<path d="M262.051 246.508H283.905C286.333 250.064 286.333 255.724 286.333 256.833C286.333 257.942 286.209 258.649 284.421 258.247C276.921 256.425 269.092 256.425 261.592 258.247C259.775 258.649 259.68 257.942 259.68 256.833C259.68 255.724 259.613 250.064 262.051 246.508Z" fill="#F0F0F0"/>
<path d="M285.798 254.445C285.327 255.251 284.558 255.842 283.657 256.089C282.787 256.309 281.869 256.232 280.98 256.366C279.154 256.643 277.921 257.886 276.276 258.546C275.583 258.827 274.834 258.944 274.087 258.89C273.255 258.813 272.441 258.6 271.678 258.259C270.445 257.771 269.25 257.15 267.978 256.768C266.984 256.441 265.927 256.349 264.89 256.5C264.037 256.684 263.147 256.593 262.347 256.242C260.827 255.525 260.311 253.555 258.935 252.599C257.845 251.835 256.248 251.701 255.608 250.544C255.41 250.109 255.345 249.626 255.422 249.155C255.498 248.684 255.713 248.246 256.038 247.896C256.695 247.206 257.523 246.701 258.437 246.433C260.118 245.871 261.862 245.514 263.628 245.372C267.596 244.971 271.573 244.732 275.559 244.626C279.546 244.521 283.303 244.397 287.117 245.582C287.996 245.822 288.82 246.227 289.546 246.777C289.903 247.062 290.189 247.426 290.38 247.841C290.571 248.257 290.662 248.711 290.645 249.167C290.541 249.588 290.351 249.982 290.086 250.324C289.821 250.667 289.487 250.95 289.106 251.156C288.647 251.471 288.15 251.682 287.662 252.026C286.913 252.725 286.283 253.542 285.798 254.445Z" fill="#DFDAFF"/>
<path d="M257.059 245.162C257.048 245.121 257.048 245.078 257.059 245.037C258.465 239.655 265.042 235.602 272.929 235.602C280.816 235.602 287.412 239.655 288.818 245.037C288.829 245.078 288.829 245.121 288.818 245.162C289.003 245.752 289.087 246.369 289.066 246.988C288.999 249.33 287.422 251.653 284.334 253.421C278.015 257.064 267.786 257.064 261.467 253.421C258.388 251.653 256.801 249.33 256.734 246.988C256.738 246.365 256.848 245.747 257.059 245.162Z" fill="#FFBDA7"/>
<path d="M260.464 239.815L270.129 238.133C270.129 238.133 276.553 240.36 276.62 240.475C276.687 240.59 280.071 242.683 280.071 242.683C280.655 243.18 279.851 244.462 278.685 244.595C277.998 244.642 277.308 244.642 276.62 244.595C276.62 244.595 274.584 246.67 270.005 247.052C265.425 247.435 262.242 245.465 260.502 244.892C259.058 244.414 258.16 244.07 257.328 244.318C257.968 242.572 259.048 241.021 260.464 239.815Z" fill="#F0997A"/>
<path d="M260.319 250.6C264.344 253.669 274.659 254.682 281.112 251.422C287.565 248.162 287.804 242.656 285.797 240.094C287.258 241.404 288.319 243.101 288.856 244.988C288.867 245.029 288.867 245.072 288.856 245.113C289.042 245.703 289.126 246.32 289.105 246.939C289.038 249.281 287.46 251.604 284.372 253.373C278.053 257.015 267.824 257.015 261.505 253.373C258.427 251.604 256.84 249.281 256.773 246.939C256.752 246.32 256.836 245.703 257.021 245.113C257.021 245.113 256.811 247.923 260.319 250.6Z" fill="#F0997A"/>
<path d="M256.849 246.119C254.937 246.692 254.755 242.505 254.841 242.017C255.009 240.951 255.48 239.955 256.199 239.149C258.369 236.683 260.587 236.492 263.197 234.761C264.047 234.088 265.022 233.588 266.065 233.289C267.136 233.3 268.192 233.541 269.162 233.997C272.986 235.813 279.678 241.224 279.296 240.908C279.636 241.18 279.956 241.477 280.252 241.797C280.634 242.314 280.099 242.945 279.726 243.193C279.228 243.51 278.67 243.717 278.087 243.803C277.504 243.889 276.909 243.85 276.342 243.69C274.631 244.797 272.694 245.503 270.672 245.755C268.294 246.191 265.842 246 263.56 245.201C259.038 243.337 257.594 242.601 256.849 246.119Z" fill="#FFA8A7"/>
<path d="M377.047 353.38V424.172C377.064 424.484 377.154 424.788 377.31 425.059C377.466 425.329 377.684 425.559 377.946 425.73L380.364 427.116C380.641 427.257 380.947 427.331 381.258 427.331C381.569 427.331 381.875 427.257 382.152 427.116L384.571 425.73C384.832 425.559 385.05 425.329 385.206 425.059C385.362 424.788 385.452 424.484 385.469 424.172V353.38C385.469 353.244 385.442 353.109 385.39 352.983C385.337 352.857 385.26 352.743 385.163 352.647C385.067 352.551 384.952 352.475 384.825 352.424C384.699 352.372 384.564 352.346 384.427 352.348H378.089C377.953 352.346 377.817 352.372 377.691 352.424C377.565 352.475 377.45 352.551 377.353 352.647C377.256 352.743 377.179 352.857 377.126 352.983C377.074 353.109 377.047 353.244 377.047 353.38Z" fill="#DFDAFF"/>
<path opacity="0.6" d="M377.047 353.38V424.172C377.064 424.484 377.154 424.788 377.31 425.059C377.466 425.329 377.684 425.559 377.946 425.73L380.364 427.116C380.641 427.257 380.947 427.331 381.258 427.331C381.569 427.331 381.875 427.257 382.152 427.116L384.571 425.73C384.832 425.559 385.05 425.329 385.206 425.059C385.362 424.788 385.452 424.484 385.469 424.172V353.38C385.469 353.244 385.442 353.109 385.39 352.983C385.337 352.857 385.26 352.743 385.163 352.647C385.067 352.551 384.952 352.475 384.825 352.424C384.699 352.372 384.564 352.346 384.427 352.348H378.089C377.953 352.346 377.817 352.372 377.691 352.424C377.565 352.475 377.45 352.551 377.353 352.647C377.256 352.743 377.179 352.857 377.126 352.983C377.074 353.109 377.047 353.244 377.047 353.38Z" fill="black"/>
<path d="M384.408 352.348H382.276C382.14 352.346 382.005 352.372 381.878 352.424C381.752 352.475 381.637 352.551 381.54 352.647C381.443 352.743 381.366 352.857 381.314 352.983C381.261 353.109 381.234 353.244 381.234 353.38V426.6C381.234 427.174 381.636 427.403 382.123 427.116L384.542 425.73C384.804 425.559 385.022 425.329 385.178 425.059C385.334 424.788 385.424 424.484 385.441 424.172V353.38C385.441 353.106 385.332 352.844 385.138 352.65C384.945 352.456 384.682 352.348 384.408 352.348Z" fill="#DFDAFF"/>
<path opacity="0.4" d="M384.408 352.348H382.276C382.14 352.346 382.005 352.372 381.878 352.424C381.752 352.475 381.637 352.551 381.54 352.647C381.443 352.743 381.366 352.857 381.314 352.983C381.261 353.109 381.234 353.244 381.234 353.38V426.6C381.234 427.174 381.636 427.403 382.123 427.116L384.542 425.73C384.804 425.559 385.022 425.329 385.178 425.059C385.334 424.788 385.424 424.484 385.441 424.172V353.38C385.441 353.106 385.332 352.844 385.138 352.65C384.945 352.456 384.682 352.348 384.408 352.348Z" fill="black"/>
<path d="M336.41 376.745V447.537C336.422 447.849 336.51 448.153 336.667 448.423C336.824 448.693 337.044 448.92 337.309 449.086L339.718 450.481C339.996 450.623 340.304 450.696 340.617 450.696C340.929 450.696 341.237 450.623 341.515 450.481L343.924 449.086C344.189 448.92 344.41 448.693 344.566 448.423C344.723 448.153 344.811 447.849 344.823 447.537V376.745C344.824 376.609 344.798 376.473 344.747 376.347C344.696 376.221 344.62 376.106 344.524 376.009C344.428 375.912 344.314 375.835 344.188 375.783C344.062 375.73 343.927 375.703 343.79 375.703H337.443C337.168 375.706 336.905 375.817 336.712 376.012C336.519 376.207 336.41 376.47 336.41 376.745Z" fill="#DFDAFF"/>
<path opacity="0.6" d="M336.41 376.745V447.537C336.422 447.849 336.51 448.153 336.667 448.423C336.824 448.693 337.044 448.92 337.309 449.086L339.718 450.481C339.996 450.623 340.304 450.696 340.617 450.696C340.929 450.696 341.237 450.623 341.515 450.481L343.924 449.086C344.189 448.92 344.41 448.693 344.566 448.423C344.723 448.153 344.811 447.849 344.823 447.537V376.745C344.824 376.609 344.798 376.473 344.747 376.347C344.696 376.221 344.62 376.106 344.524 376.009C344.428 375.912 344.314 375.835 344.188 375.783C344.062 375.73 343.927 375.703 343.79 375.703H337.443C337.168 375.706 336.905 375.817 336.712 376.012C336.519 376.207 336.41 376.47 336.41 376.745Z" fill="black"/>
<path d="M343.788 375.703H341.675C341.538 375.703 341.403 375.73 341.276 375.783C341.15 375.835 341.035 375.912 340.938 376.009C340.841 376.105 340.765 376.22 340.712 376.347C340.66 376.473 340.633 376.608 340.633 376.745V449.965C340.633 450.539 341.034 450.768 341.531 450.482L343.941 449.086C344.205 448.921 344.426 448.693 344.582 448.423C344.739 448.153 344.827 447.849 344.839 447.537V376.745C344.841 376.607 344.814 376.47 344.762 376.343C344.709 376.215 344.632 376.099 344.534 376.002C344.435 375.905 344.319 375.829 344.191 375.777C344.063 375.726 343.926 375.701 343.788 375.703Z" fill="#DFDAFF"/>
<path opacity="0.4" d="M343.788 375.703H341.675C341.538 375.703 341.403 375.73 341.276 375.783C341.15 375.835 341.035 375.912 340.938 376.009C340.841 376.105 340.765 376.22 340.712 376.347C340.66 376.473 340.633 376.608 340.633 376.745V449.965C340.633 450.539 341.034 450.768 341.531 450.482L343.941 449.086C344.205 448.921 344.426 448.693 344.582 448.423C344.739 448.153 344.827 447.849 344.839 447.537V376.745C344.841 376.607 344.814 376.47 344.762 376.343C344.709 376.215 344.632 376.099 344.534 376.002C344.435 375.905 344.319 375.829 344.191 375.777C344.063 375.726 343.926 375.701 343.788 375.703Z" fill="black"/>
<path d="M339.103 324.777C339.22 325.774 338.939 326.778 338.322 327.57C337.705 328.362 336.801 328.88 335.805 329.012H335.336C334.413 329.006 333.522 328.665 332.83 328.054C332.137 327.442 331.69 326.601 331.57 325.685C329.381 308.209 332.526 269.118 339.973 247.092C340.738 244.826 342.927 244.329 344.992 245.524C346.569 246.48 347.717 247.819 347.114 249.539C339.954 270.256 337 307.941 339.103 324.777Z" fill="#455A64"/>
<path d="M383.139 334.833C383.396 334.834 383.651 334.792 383.894 334.709C384.196 334.61 384.476 334.453 384.716 334.246C384.957 334.04 385.155 333.787 385.298 333.504C385.441 333.22 385.527 332.912 385.55 332.595C385.573 332.278 385.534 331.96 385.434 331.659C379.831 314.633 352.308 299.49 334.536 299.49C334.191 299.436 333.839 299.458 333.503 299.553C333.167 299.649 332.856 299.816 332.591 300.043C332.326 300.27 332.113 300.552 331.968 300.869C331.822 301.186 331.746 301.531 331.746 301.88C331.746 302.229 331.822 302.574 331.968 302.891C332.113 303.208 332.326 303.489 332.591 303.716C332.856 303.944 333.167 304.111 333.503 304.206C333.839 304.302 334.191 304.323 334.536 304.27C350.616 304.27 375.96 318.265 380.845 333.122C380.997 333.613 381.301 334.044 381.713 334.351C382.125 334.659 382.625 334.828 383.139 334.833Z" fill="#DFDAFF"/>
<path d="M385.739 312.761C385.996 312.761 386.251 312.719 386.495 312.636C387.103 312.435 387.606 312.001 387.895 311.43C388.183 310.858 388.233 310.195 388.034 309.587C382.212 291.901 353.857 277.589 336.161 279.406C335.582 279.534 335.069 279.871 334.722 280.353C334.375 280.834 334.217 281.427 334.279 282.017C334.34 282.608 334.616 283.155 335.055 283.555C335.494 283.955 336.065 284.179 336.658 284.186C352.337 282.589 378.34 295.572 383.445 311.069C383.596 311.559 383.901 311.988 384.314 312.292C384.727 312.597 385.226 312.761 385.739 312.761Z" fill="#DFDAFF"/>
<path d="M391.112 295.265C391.441 295.263 391.766 295.194 392.068 295.064C392.654 294.807 393.115 294.327 393.348 293.73C393.581 293.133 393.567 292.468 393.31 291.881C384.984 272.914 355.357 257.341 339.335 259.568C338.734 259.694 338.203 260.043 337.85 260.544C337.497 261.046 337.348 261.664 337.434 262.271C337.519 262.879 337.831 263.431 338.309 263.817C338.786 264.203 339.392 264.393 340.004 264.348C354.162 262.379 381.437 276.872 388.884 293.812C389.074 294.245 389.386 294.613 389.781 294.871C390.177 295.129 390.639 295.266 391.112 295.265Z" fill="#DFDAFF"/>
<g opacity="0.6">
<path d="M383.139 334.833C383.396 334.834 383.651 334.792 383.894 334.709C384.196 334.61 384.476 334.453 384.716 334.246C384.957 334.04 385.155 333.787 385.298 333.504C385.441 333.22 385.527 332.912 385.55 332.595C385.573 332.278 385.534 331.96 385.434 331.659C379.831 314.633 352.308 299.49 334.536 299.49C334.191 299.436 333.839 299.458 333.503 299.553C333.167 299.649 332.856 299.816 332.591 300.043C332.326 300.27 332.113 300.552 331.968 300.869C331.822 301.186 331.746 301.531 331.746 301.88C331.746 302.229 331.822 302.574 331.968 302.891C332.113 303.208 332.326 303.489 332.591 303.716C332.856 303.944 333.167 304.111 333.503 304.206C333.839 304.302 334.191 304.323 334.536 304.27C350.616 304.27 375.96 318.265 380.845 333.122C380.997 333.613 381.301 334.044 381.713 334.351C382.125 334.659 382.625 334.828 383.139 334.833Z" fill="black"/>
</g>
<g opacity="0.6">
<path d="M385.739 312.761C385.996 312.761 386.251 312.719 386.495 312.636C387.103 312.435 387.606 312.001 387.895 311.43C388.183 310.858 388.233 310.195 388.034 309.587C382.212 291.901 353.857 277.589 336.161 279.406C335.582 279.534 335.069 279.871 334.722 280.353C334.375 280.834 334.217 281.427 334.279 282.017C334.34 282.608 334.616 283.155 335.055 283.555C335.494 283.955 336.065 284.179 336.658 284.186C352.337 282.589 378.34 295.572 383.445 311.069C383.596 311.559 383.901 311.988 384.314 312.292C384.727 312.597 385.226 312.761 385.739 312.761Z" fill="black"/>
</g>
<g opacity="0.6">
<path d="M391.112 295.265C391.441 295.263 391.766 295.194 392.068 295.064C392.654 294.807 393.115 294.327 393.348 293.73C393.581 293.133 393.567 292.468 393.31 291.881C384.984 272.914 355.357 257.341 339.335 259.568C338.734 259.694 338.203 260.043 337.85 260.544C337.497 261.046 337.348 261.664 337.434 262.271C337.519 262.879 337.831 263.431 338.309 263.817C338.786 264.203 339.392 264.393 340.004 264.348C354.162 262.379 381.437 276.872 388.884 293.812C389.074 294.245 389.386 294.613 389.781 294.871C390.177 295.129 390.639 295.266 391.112 295.265Z" fill="black"/>
</g>
<path d="M397.259 274.97C398.052 275.444 398.647 276.19 398.934 277.068C399.22 277.947 399.179 278.9 398.817 279.75C390.089 300.142 385.49 325.065 385.49 352.349V356.058L385.204 356.355C385.055 356.508 384.877 356.629 384.679 356.709C384.482 356.79 384.27 356.829 384.056 356.823C383.509 356.792 382.971 356.663 382.469 356.441C382.218 356.338 381.959 356.255 381.695 356.192C380.681 356.192 379.708 355.789 378.991 355.072C378.274 354.355 377.871 353.382 377.871 352.368C377.871 324.071 382.651 298.125 391.829 276.768C392.042 276.276 392.356 275.834 392.752 275.471C393.147 275.109 393.614 274.833 394.122 274.663C394.631 274.493 395.169 274.431 395.703 274.482C396.237 274.534 396.754 274.697 397.221 274.961L397.259 274.97Z" fill="#DFDAFF"/>
<path opacity="0.4" d="M397.259 274.97C398.052 275.444 398.647 276.19 398.934 277.068C399.22 277.947 399.179 278.9 398.817 279.75C390.089 300.142 385.49 325.065 385.49 352.349V356.058L385.204 356.355C385.055 356.508 384.877 356.629 384.679 356.709C384.482 356.79 384.27 356.829 384.056 356.823C383.509 356.792 382.971 356.663 382.469 356.441C382.218 356.338 381.959 356.255 381.695 356.192C380.681 356.192 379.708 355.789 378.991 355.072C378.274 354.355 377.871 353.382 377.871 352.368C377.871 324.071 382.651 298.125 391.829 276.768C392.042 276.276 392.356 275.834 392.752 275.471C393.147 275.109 393.614 274.833 394.122 274.663C394.631 274.493 395.169 274.431 395.703 274.482C396.237 274.534 396.754 274.697 397.221 274.961L397.259 274.97Z" fill="black"/>
<path d="M385.451 355.102V356.058C385.404 356.906 385.18 357.735 384.793 358.491C384.406 359.247 383.865 359.913 383.204 360.446L342.851 389.614C342.17 390.059 341.383 390.315 340.57 390.357C339.757 390.399 338.948 390.225 338.224 389.853L281.304 357.014C280.608 356.559 280.029 355.946 279.613 355.225C279.198 354.505 278.959 353.696 278.914 352.865V351.909C278.956 351.094 279.209 350.303 279.648 349.614C280.087 348.926 280.697 348.363 281.419 347.98L332.498 324.396C333.284 324.083 334.128 323.941 334.974 323.979C335.819 324.017 336.647 324.234 337.402 324.616L383.051 351.001C383.744 351.45 384.322 352.054 384.739 352.766C385.155 353.479 385.399 354.279 385.451 355.102Z" fill="#DFDAFF"/>
<path opacity="0.4" d="M385.451 355.102V356.058C385.404 356.906 385.18 357.735 384.793 358.491C384.406 359.247 383.865 359.913 383.204 360.446L342.851 389.614C342.17 390.059 341.383 390.315 340.57 390.357C339.757 390.399 338.948 390.225 338.224 389.853L281.304 357.014C280.608 356.559 280.029 355.946 279.613 355.225C279.198 354.505 278.959 353.696 278.914 352.865V351.909C278.956 351.094 279.209 350.303 279.648 349.614C280.087 348.926 280.697 348.363 281.419 347.98L332.498 324.396C333.284 324.083 334.128 323.941 334.974 323.979C335.819 324.017 336.647 324.234 337.402 324.616L383.051 351.001C383.744 351.45 384.322 352.054 384.739 352.766C385.155 353.479 385.399 354.279 385.451 355.102Z" fill="black"/>
<path d="M383.052 350.989L337.403 324.604C336.648 324.222 335.82 324.005 334.974 323.967C334.129 323.929 333.285 324.071 332.499 324.384L281.448 347.968C280.072 348.609 280.014 349.747 281.334 350.511L338.254 383.369C338.977 383.741 339.786 383.915 340.598 383.875C341.41 383.835 342.198 383.581 342.881 383.14L383.234 353.991C383.513 353.842 383.744 353.616 383.899 353.34C384.053 353.063 384.125 352.748 384.106 352.432C384.087 352.116 383.978 351.812 383.791 351.556C383.604 351.3 383.347 351.104 383.052 350.989Z" fill="#DFDAFF"/>
<path d="M320.949 434.078H309.754V453.552H320.949V434.078Z" fill="#FFA8A7"/>
<path d="M276.876 439.698L265.203 440.319L265.48 437.967L265.576 436.218L266.656 419.105L279.381 419.545L277.574 436.629L277.449 437.939L276.876 439.698Z" fill="#FFA8A7"/>
<path d="M309.782 450.474V449.518C308.339 449.518 303.214 460.359 298.31 464.814C294.41 468.379 287.555 473.245 287.718 476.62C287.928 480.97 294.142 482.901 299.496 481.649C303.683 480.693 309.658 478.131 312.526 475.033C315.394 471.936 316.35 467.873 317.822 465.846C319.294 463.819 322.774 461.554 323.558 459.211C323.998 457.921 323.472 455.101 322.841 452.72C322.277 450.531 321.656 448.131 320.929 448.332V449.68C320.04 450.636 317.554 451.669 314.753 451.774C312.937 451.85 309.763 451.86 309.782 450.474Z" fill="#263238"/>
<path d="M265.587 436.219C264.995 436.219 264.44 436.964 263.016 438.255C261.285 439.804 257.624 441.266 254.976 442.299C250.54 444.029 239.173 445.865 235.282 447.203C232.854 448.044 233.112 451.716 236.238 454.058C238.561 455.798 246.276 457.987 253.446 457.06C257.337 456.562 263.369 454.45 266.247 454.258C269.392 454.058 275.157 453.981 277.614 452.595C280.071 451.209 279.468 447.719 279.076 444.737C278.656 441.467 278.694 436.515 277.623 436.63L277.499 437.949C275.941 439.861 268.388 439.766 265.53 437.949L265.587 436.219Z" fill="#263238"/>
<path d="M366.721 329.519C369.216 347.1 365.851 350.474 349.14 367.319C340.164 376.373 320.68 391.898 320.68 391.898C320.68 391.898 323.902 398.915 324.026 411.506C324.131 422.595 321.416 443.818 321.416 443.818C321.416 443.818 314.648 447.595 309.466 444.296C309.466 444.296 297.43 385.98 298.406 381.927C299.084 379.059 320.394 351.555 320.394 351.555L326.378 347.731L287.698 371.564C287.698 371.564 288.874 382.233 288.081 389.049C286.436 403.198 282.632 412.299 278.721 430.157C278.721 430.157 269.487 431.658 265.385 428.465C265.385 428.465 265.137 367.338 265.137 361.947C265.137 353.744 300.748 329.261 307.488 323.563C311.312 320.313 315.623 316.871 315.623 316.871L366.721 329.519Z" fill="#455A64"/>
<path d="M356.809 327.062C356.561 337.502 353.941 347.062 344.821 356.593C331.016 371.077 308.761 382.233 309.755 388.61C310.749 394.986 316.026 411.821 317.202 429.154C317.537 433.982 317.68 439.612 317.718 445.215C319.002 444.894 320.243 444.426 321.418 443.819C321.418 443.819 324.133 422.596 324.028 411.506C323.904 398.915 320.682 391.898 320.682 391.898C320.682 391.898 340.165 376.373 349.142 367.32C365.853 350.475 369.218 347.1 366.723 329.519L356.809 327.062Z" fill="#37474F"/>
<path d="M326.378 347.759C320.97 344.028 316.675 338.9 313.95 332.922C313.95 332.922 314.495 340.694 317.392 345.226C319.562 348.619 287.66 371.592 287.66 371.592L326.378 347.759Z" fill="#263238"/>
<path d="M350.541 242.946C351.067 243.08 363.313 245.212 363.313 245.212C368.514 246.397 365.847 246.923 368.81 247.927L367.854 284.991L367.635 332.906C359.575 341.682 319.022 337.686 314.051 319.034V262.955C314.051 253.988 319.032 243.223 332.779 242.43L350.541 242.946Z" fill="#F0F0F0"/>
<g filter="url(#filter0_f_1528_7972)">
<path d="M350.541 242.946C351.067 243.08 363.313 245.212 363.313 245.212C368.514 246.397 365.847 246.923 368.81 247.927L367.854 284.991L367.635 332.906C359.575 341.682 319.022 337.686 314.051 319.034V262.955C314.051 253.988 319.032 243.223 332.779 242.43L350.541 242.946Z" fill="black" fill-opacity="0.2"/>
</g>
<path opacity="0.1" d="M367.721 333.134L367.94 285.219L368.667 256.97L357.816 252.926C355.082 261.683 358.639 279.369 360.531 287.418C362.424 295.468 361.009 314.186 356.822 319.157C352.635 324.129 328.343 336.767 314.137 319.263C319.108 337.914 359.661 341.91 367.721 333.134Z" fill="black"/>
<path d="M337.837 322.816C347.397 319.786 372.779 304.308 372.779 304.308L361.039 267.856C361.039 267.856 359.299 251.68 363.4 245.438C372.205 246.116 375.216 250.667 376.67 257.187C378.123 263.707 391.688 305.943 390.656 310.187C389.7 314.203 356.154 331.334 343.152 333.409C343.152 333.409 330.332 325.197 337.837 322.816Z" fill="#FFA8A7"/>
<path d="M360.3 244.893C360.3 244.893 356.639 249.921 358.207 259.176C359.321 265.485 360.866 271.71 362.834 277.808C364.899 284.576 368.885 296.727 368.885 296.727C368.885 296.727 380.032 298.897 387.948 287.76C387.948 287.76 383.168 270.064 379.277 259.845C374.554 247.407 369.889 244.692 360.3 244.893Z" fill="#455A64"/>
<path d="M341.805 308.477H318.383L320.161 336.076C320.276 337.032 321.213 338.074 323.029 338.839C327.571 340.474 332.54 340.474 337.082 338.839C338.937 338.074 339.95 337.08 340.017 336.076L341.805 308.477Z" fill="#FAFAFA"/>
<path d="M318.352 308.505L318.715 314.107C319.314 314.523 319.955 314.876 320.627 315.159C325.694 317.253 334.011 317.253 339.288 315.159C339.517 315.063 339.709 314.968 339.909 314.872C340.419 314.634 340.911 314.359 341.382 314.05L341.735 308.477L318.352 308.505Z" fill="#E0E0E0"/>
<path d="M342.194 309.416V305.534H339.69C339.355 305.362 338.982 305.19 338.581 305.028C333.801 303.116 326.086 303.116 321.43 305.028C321.038 305.19 320.694 305.362 320.369 305.534H317.902V309.416C317.902 310.678 319.069 311.94 321.401 312.905C326.057 314.817 333.734 314.817 338.552 312.905C340.99 311.94 342.194 310.659 342.194 309.416Z" fill="#37474F"/>
<path d="M338.584 302.051C333.804 300.139 326.089 300.139 321.433 302.051C316.777 303.963 316.768 307.108 321.433 309.03C326.098 310.952 333.765 310.942 338.584 309.03C343.402 307.118 343.402 303.963 338.584 302.051Z" fill="#455A64"/>
<path d="M339.098 304.442L338.142 301.852H321.995L321.039 304.442C320.676 305.446 321.517 306.507 323.582 307.31C327.78 308.63 332.281 308.63 336.479 307.31C338.601 306.507 339.471 305.446 339.098 304.442Z" fill="#37474F"/>
<path d="M335.763 300.045C332.029 298.871 328.024 298.871 324.291 300.045C321.174 301.221 321.174 303.114 324.291 304.289C328.026 305.456 332.027 305.456 335.763 304.289C338.984 303.114 338.984 301.221 335.763 300.045Z" fill="#455A64"/>
<path d="M337.023 302.168C337.023 302.168 336.937 302.368 336.669 302.569C336.261 302.855 335.813 303.08 335.341 303.238C333.6 303.805 331.779 304.079 329.949 304.051C328.147 304.087 326.353 303.815 324.643 303.248C324.183 303.09 323.751 302.861 323.362 302.569C323.104 302.359 323.027 302.206 323.027 302.168C323.027 302.129 323.305 301.594 324.643 301.087C326.353 300.52 328.147 300.249 329.949 300.284C331.779 300.251 333.602 300.526 335.341 301.097C336.717 301.575 337.023 302.053 337.023 302.168Z" fill="#37474F"/>
<path d="M336.71 302.57C336.301 302.856 335.854 303.082 335.381 303.24C333.641 303.806 331.819 304.081 329.989 304.052C328.188 304.088 326.393 303.816 324.683 303.249C324.224 303.091 323.791 302.862 323.402 302.57C323.792 302.283 324.224 302.057 324.683 301.901C326.393 301.33 328.187 301.055 329.989 301.089C331.819 301.06 333.641 301.335 335.381 301.901C335.854 302.059 336.301 302.285 336.71 302.57Z" fill="#263238"/>
<path d="M333.477 302.647C333.661 302.523 333.869 302.437 334.087 302.394C334.306 302.351 334.531 302.353 334.748 302.399C334.987 302.533 334.796 302.858 334.328 303.135C334.144 303.261 333.936 303.347 333.717 303.388C333.498 303.429 333.273 303.424 333.056 303.374C332.817 303.24 333.008 302.915 333.477 302.647Z" fill="black"/>
<path d="M348.793 317.905C346.7 318.966 341.241 316.949 341.241 316.949L340.964 321.165C340.964 321.165 340.008 323.077 333.899 324.33C327.79 325.582 325.171 323.651 322.303 324.492C319.435 325.333 321.242 331.968 323.402 334.616C325.563 337.264 337.838 341.117 351.059 331.308L348.793 317.905Z" fill="#FFA8A7"/>
<path d="M327.598 219.8C336.072 219.8 342.942 212.391 342.942 203.251C342.942 194.112 336.072 186.703 327.598 186.703C319.124 186.703 312.254 194.112 312.254 203.251C312.254 212.391 319.124 219.8 327.598 219.8Z" fill="#263238"/>
<path d="M359.826 213.489C361.337 205.028 361.643 201.204 359.578 199.149C358.923 198.485 358.126 197.979 357.246 197.669C356.366 197.359 355.428 197.254 354.501 197.361L353.125 212.657L351.05 223.575L350.84 233.135C351.726 233.098 352.583 232.808 353.31 232.3C354.036 231.792 354.602 231.086 354.941 230.267C356.127 227.915 358.545 218.584 359.463 214.971H359.568C359.664 214.483 359.75 214.015 359.826 213.546V213.489Z" fill="#263238"/>
<path d="M351.364 215.707C352.32 216.299 353.783 214.378 355.016 213.087C356.249 211.797 360.274 210.038 362.282 214.263C364.289 218.489 360.513 224.272 357.349 225.267C351.881 226.987 351.068 223.479 351.068 223.479L350.647 243.173C350.647 243.173 347.072 251.92 337.388 253.239C327.703 254.558 329.74 246.547 332.885 242.656V236.662C332.885 236.662 327.942 237.408 325.533 237.035C321.518 236.414 318.985 233.211 317.77 228.899C315.811 221.921 314.902 215.764 316.078 202.829C317.436 187.725 336.049 187.352 345.504 193.269C354.959 199.187 351.364 215.707 351.364 215.707Z" fill="#FFA8A7"/>
<path d="M351.364 217.39C351.861 217.39 353.773 214.225 355.016 213.088C356.746 211.52 354.519 197.314 354.519 197.314C354.519 197.314 356.259 191.922 352.855 188.356C349.184 184.532 342.55 185.316 337.77 185.287C334.346 185.373 330.923 185.117 327.55 184.522C325.361 184.024 323.223 183.323 321.164 182.429C319.434 181.702 317.483 180.889 315.753 181.616C314.679 182.154 313.834 183.06 313.372 184.169C311.135 188.872 313.229 194.541 317.33 197.419C319.977 199.167 323.051 200.159 326.221 200.287C332.913 200.707 342.339 199.627 344.815 199.331C346.67 199.073 347.062 200.87 348.066 205.784C348.926 210.047 349.653 217.351 351.364 217.39Z" fill="#263238"/>
<path d="M354.49 198.421L360.531 195.17C360.339 194.764 360.065 194.401 359.728 194.103C359.391 193.805 358.997 193.579 358.57 193.438C358.143 193.296 357.691 193.243 357.243 193.282C356.795 193.32 356.359 193.449 355.962 193.66C355.15 194.111 354.545 194.858 354.27 195.745C353.996 196.632 354.075 197.59 354.49 198.421Z" fill="#263238"/>
<path d="M332.875 236.663C332.875 236.663 340.38 234.751 343.506 233.107C345.347 232.147 346.856 230.655 347.836 228.824C347.366 230.655 346.53 232.372 345.379 233.872C343.085 236.807 332.875 239.044 332.875 239.044V236.663Z" fill="#F28F8F"/>
<path d="M332.615 213.9C332.638 214.25 332.762 214.586 332.972 214.866C333.183 215.146 333.471 215.358 333.801 215.477C334.13 215.595 334.488 215.615 334.828 215.533C335.169 215.451 335.478 215.272 335.718 215.017C335.958 214.761 336.119 214.441 336.179 214.096C336.24 213.751 336.198 213.396 336.059 213.074C335.921 212.752 335.691 212.478 335.398 212.285C335.106 212.092 334.763 211.989 334.413 211.988C334.168 211.992 333.926 212.045 333.702 212.143C333.478 212.242 333.276 212.385 333.109 212.563C332.941 212.742 332.811 212.952 332.726 213.182C332.641 213.411 332.604 213.656 332.615 213.9Z" fill="#263238"/>
<path d="M334.316 206.455L338.58 207.506C338.709 206.926 338.609 206.319 338.3 205.812C337.992 205.304 337.5 204.935 336.926 204.782C336.645 204.714 336.353 204.705 336.067 204.753C335.782 204.801 335.509 204.907 335.265 205.063C335.022 205.219 334.812 205.423 334.649 205.662C334.486 205.901 334.373 206.171 334.316 206.455Z" fill="#263238"/>
<path d="M331.289 225.785L327.188 227.324C327.277 227.599 327.42 227.853 327.61 228.071C327.799 228.289 328.031 228.467 328.29 228.594C328.55 228.72 328.832 228.794 329.121 228.809C329.409 228.824 329.698 228.781 329.969 228.682C330.521 228.463 330.967 228.04 331.213 227.499C331.459 226.959 331.486 226.345 331.289 225.785Z" fill="#F28F8F"/>
<path d="M317.445 207.034L321.603 205.495C321.514 205.225 321.372 204.975 321.184 204.761C320.997 204.546 320.769 204.372 320.513 204.247C320.258 204.122 319.98 204.05 319.696 204.034C319.412 204.019 319.127 204.06 318.859 204.156C318.3 204.364 317.842 204.778 317.579 205.313C317.316 205.849 317.268 206.464 317.445 207.034Z" fill="#263238"/>
<path d="M318.861 213.029C318.884 213.379 319.008 213.714 319.218 213.995C319.429 214.275 319.717 214.487 320.047 214.606C320.376 214.724 320.734 214.744 321.074 214.662C321.415 214.58 321.725 214.401 321.965 214.145C322.205 213.89 322.365 213.57 322.425 213.225C322.486 212.88 322.444 212.525 322.305 212.203C322.167 211.881 321.937 211.607 321.644 211.414C321.352 211.221 321.009 211.118 320.659 211.117C320.414 211.121 320.172 211.174 319.948 211.272C319.724 211.371 319.523 211.514 319.355 211.692C319.187 211.871 319.057 212.081 318.972 212.311C318.888 212.54 318.85 212.785 318.861 213.029Z" fill="#263238"/>
<path d="M327.599 212.562L327.015 223.365L321.375 221.444L327.599 212.562Z" fill="#F28F8F"/>
<path d="M118.134 246.701C121.184 246.921 126.642 246.701 129.529 251.07C133.822 257.609 148.927 282.034 148.927 282.034L165.886 256.873L184.672 246.901C183.935 255.678 161.536 293.602 158.123 298.22C154.71 302.837 150.877 306.824 143.506 300.724C136.135 294.625 119.214 271.308 119.214 271.308C119.214 271.308 115.103 246.481 118.134 246.701Z" fill="#FFA8A7"/>
<path d="M177.503 250.571C171.48 247.101 161.719 247.101 155.696 250.571C152.694 252.311 151.203 254.577 151.203 256.852C151.203 257.349 151.203 259.29 151.203 259.72C151.203 262.005 152.685 264.281 155.696 266.02C161.719 269.5 171.48 269.5 177.503 266.02C180.505 264.29 182.005 262.015 182.005 259.749V256.814C182.025 254.587 180.514 252.311 177.503 250.571Z" fill="#FFBDA7"/>
<path d="M166.604 265.773C175.12 265.773 182.024 261.789 182.024 256.873C182.024 251.957 175.12 247.973 166.604 247.973C158.087 247.973 151.184 251.957 151.184 256.873C151.184 261.789 158.087 265.773 166.604 265.773Z" fill="#F0997A"/>
<path d="M177.503 246.911C171.48 243.441 161.719 243.441 155.696 246.911C152.694 248.651 151.203 250.917 151.203 253.192C151.203 253.689 151.203 255.63 151.203 256.06C151.203 258.345 152.685 260.63 155.696 262.37C161.719 265.84 171.48 265.84 177.503 262.37C180.505 260.63 182.005 258.355 182.005 256.089V253.154C182.025 250.898 180.514 248.651 177.503 246.911Z" fill="#B16668"/>
<path d="M155.697 259.502C161.72 262.981 171.481 262.981 177.503 259.502C183.526 256.022 183.526 250.391 177.503 246.911C171.481 243.431 161.72 243.441 155.697 246.911C149.674 250.381 149.684 256.022 155.697 259.502Z" fill="#9A4A4D"/>
<path d="M177.53 249.941H155.676C153.238 253.498 153.238 259.157 153.238 260.266C153.238 261.375 153.372 262.083 155.15 261.691C158.899 260.849 162.723 260.388 166.565 260.314C170.406 260.389 174.231 260.85 177.98 261.691C179.786 262.083 179.892 261.375 179.892 260.266C179.892 259.157 179.958 253.488 177.53 249.941Z" fill="#F0F0F0"/>
<path d="M153.783 257.874C154.257 258.675 155.026 259.258 155.924 259.499C156.794 259.719 157.712 259.642 158.592 259.776C160.427 260.054 161.66 261.296 163.295 261.956C163.99 262.234 164.738 262.355 165.484 262.31C166.32 262.226 167.136 262.01 167.903 261.669C169.136 261.182 170.322 260.56 171.593 260.178C172.588 259.851 173.645 259.759 174.681 259.91C175.538 260.098 176.432 260.007 177.234 259.652C178.754 258.935 179.27 256.966 180.647 256.01C181.727 255.245 183.333 255.111 183.974 253.954C184.169 253.519 184.232 253.036 184.155 252.566C184.079 252.095 183.866 251.657 183.543 251.306C182.88 250.619 182.05 250.115 181.134 249.843C179.453 249.283 177.71 248.93 175.943 248.792C171.985 248.381 167.999 248.142 164.022 248.037C160.045 247.931 156.269 247.807 152.464 248.993C151.583 249.229 150.757 249.639 150.036 250.197C149.676 250.478 149.389 250.84 149.198 251.254C149.007 251.668 148.917 252.122 148.936 252.578C149.038 252.998 149.226 253.392 149.49 253.734C149.753 254.077 150.086 254.36 150.466 254.566C150.934 254.882 151.422 255.092 151.919 255.436C152.666 256.144 153.295 256.967 153.783 257.874Z" fill="#DFDAFF"/>
<path d="M182.512 248.537C182.519 248.495 182.519 248.453 182.512 248.412C181.106 243.03 174.529 238.977 166.632 238.977C158.736 238.977 152.159 243.03 150.744 248.412C150.736 248.453 150.736 248.495 150.744 248.537C150.559 249.127 150.475 249.744 150.495 250.363C150.562 252.705 152.139 255.028 155.227 256.796C161.537 260.439 171.776 260.439 178.095 256.796C181.164 255.028 182.751 252.705 182.818 250.363C182.829 249.74 182.725 249.121 182.512 248.537Z" fill="#FFBDA7"/>
<path d="M179.155 243.249L169.489 241.566C169.489 241.566 163.056 243.794 162.989 243.909C162.922 244.023 159.537 246.117 159.537 246.117C158.954 246.624 159.767 247.895 160.924 248.029C161.611 248.081 162.301 248.081 162.989 248.029C162.989 248.029 165.034 250.103 169.604 250.486C174.174 250.868 177.367 248.899 179.116 248.325C180.56 247.847 181.449 247.503 182.281 247.752C181.648 246.004 180.571 244.452 179.155 243.249Z" fill="#F0997A"/>
<path d="M179.263 254.022C175.228 257.091 164.923 258.104 158.47 254.854C152.017 251.603 151.73 246.078 153.785 243.516C152.321 244.825 151.258 246.522 150.716 248.41C150.709 248.451 150.709 248.494 150.716 248.535C150.532 249.125 150.448 249.742 150.468 250.361C150.535 252.703 152.112 255.026 155.2 256.794C161.51 260.437 171.748 260.437 178.068 256.794C181.136 255.026 182.723 252.703 182.79 250.361C182.82 249.742 182.736 249.123 182.542 248.535C182.542 248.535 182.771 251.345 179.263 254.022Z" fill="#F0997A"/>
<path d="M182.73 249.54C184.642 250.114 184.814 245.927 184.738 245.439C184.568 244.371 184.094 243.375 183.371 242.571C181.21 240.105 178.992 239.914 176.373 238.183C175.508 237.505 174.517 237.004 173.457 236.711C172.389 236.723 171.336 236.964 170.369 237.418C166.545 239.235 159.853 244.646 160.226 244.33C159.89 244.608 159.571 244.905 159.27 245.219C158.878 245.736 159.413 246.367 159.786 246.615C160.285 246.931 160.846 247.139 161.43 247.224C162.015 247.31 162.611 247.272 163.18 247.112C164.885 248.222 166.821 248.928 168.84 249.177C171.222 249.613 173.676 249.422 175.962 248.623C180.531 246.758 182.023 246.022 182.73 249.54Z" fill="#FFA8A7"/>
<path d="M74.3287 354.95V425.694C74.3119 426.006 74.2217 426.31 74.0656 426.581C73.9095 426.851 73.6917 427.082 73.43 427.252L71.0113 428.715C70.7332 428.858 70.4252 428.932 70.1127 428.932C69.8002 428.932 69.4921 428.858 69.2141 428.715L66.7954 427.329C66.5365 427.156 66.3214 426.925 66.1671 426.655C66.0128 426.384 65.9235 426.082 65.9063 425.771V355.027C65.905 354.89 65.9308 354.755 65.9821 354.629C66.0334 354.502 66.1093 354.387 66.2053 354.29C66.3013 354.193 66.4155 354.117 66.5414 354.064C66.6673 354.012 66.8024 353.985 66.9388 353.985H73.2771C73.543 353.979 73.8007 354.076 73.9966 354.256C74.1925 354.436 74.3115 354.685 74.3287 354.95Z" fill="#DFDAFF"/>
<path opacity="0.6" d="M74.3287 354.95V425.694C74.3119 426.006 74.2217 426.31 74.0656 426.581C73.9095 426.851 73.6917 427.082 73.43 427.252L71.0113 428.715C70.7332 428.858 70.4252 428.932 70.1127 428.932C69.8002 428.932 69.4921 428.858 69.2141 428.715L66.7954 427.329C66.5365 427.156 66.3214 426.925 66.1671 426.655C66.0128 426.384 65.9235 426.082 65.9063 425.771V355.027C65.905 354.89 65.9308 354.755 65.9821 354.629C66.0334 354.502 66.1093 354.387 66.2053 354.29C66.3013 354.193 66.4155 354.117 66.5414 354.064C66.6673 354.012 66.8024 353.985 66.9388 353.985H73.2771C73.543 353.979 73.8007 354.076 73.9966 354.256C74.1925 354.436 74.3115 354.685 74.3287 354.95Z" fill="black"/>
<path d="M66.9512 353.907H69.0831C69.2239 353.901 69.3645 353.923 69.4965 353.973C69.6285 354.022 69.7491 354.098 69.851 354.195C69.9529 354.293 70.0339 354.41 70.0893 354.539C70.1446 354.669 70.173 354.808 70.1729 354.949V428.169C70.1729 428.743 69.7714 428.972 69.2743 428.686L66.8556 427.299C66.5967 427.126 66.3816 426.896 66.2273 426.625C66.073 426.355 65.9837 426.052 65.9665 425.741V354.997C65.9588 354.861 65.9782 354.724 66.0236 354.595C66.0691 354.467 66.1396 354.348 66.2312 354.247C66.3228 354.145 66.4336 354.063 66.5572 354.005C66.6808 353.947 66.8147 353.913 66.9512 353.907Z" fill="#DFDAFF"/>
<path opacity="0.4" d="M66.9512 353.907H69.0831C69.2239 353.901 69.3645 353.923 69.4965 353.973C69.6285 354.022 69.7491 354.098 69.851 354.195C69.9529 354.293 70.0339 354.41 70.0893 354.539C70.1446 354.669 70.173 354.808 70.1729 354.949V428.169C70.1729 428.743 69.7714 428.972 69.2743 428.686L66.8556 427.299C66.5967 427.126 66.3816 426.896 66.2273 426.625C66.073 426.355 65.9837 426.052 65.9665 425.741V354.997C65.9588 354.861 65.9782 354.724 66.0236 354.595C66.0691 354.467 66.1396 354.348 66.2312 354.247C66.3228 354.145 66.4336 354.063 66.5572 354.005C66.6808 353.947 66.8147 353.913 66.9512 353.907Z" fill="black"/>
<path d="M114.952 378.314V449.058C114.936 449.368 114.845 449.671 114.689 449.94C114.533 450.209 114.315 450.438 114.054 450.606L111.645 452.002C111.366 452.143 111.058 452.217 110.746 452.217C110.434 452.217 110.126 452.143 109.847 452.002L107.457 450.702C107.196 450.533 106.978 450.305 106.822 450.036C106.666 449.766 106.575 449.464 106.559 449.153V378.409C106.557 378.273 106.583 378.138 106.634 378.011C106.686 377.885 106.762 377.77 106.858 377.673C106.954 377.576 107.068 377.499 107.194 377.447C107.32 377.394 107.455 377.367 107.591 377.367H113.939C114.195 377.371 114.441 377.47 114.628 377.645C114.815 377.82 114.931 378.058 114.952 378.314Z" fill="#DFDAFF"/>
<path opacity="0.6" d="M114.952 378.314V449.058C114.936 449.368 114.845 449.671 114.689 449.94C114.533 450.209 114.315 450.438 114.054 450.606L111.645 452.002C111.366 452.143 111.058 452.217 110.746 452.217C110.434 452.217 110.126 452.143 109.847 452.002L107.457 450.702C107.196 450.533 106.978 450.305 106.822 450.036C106.666 449.766 106.575 449.464 106.559 449.153V378.409C106.557 378.273 106.583 378.138 106.634 378.011C106.686 377.885 106.762 377.77 106.858 377.673C106.954 377.576 107.068 377.499 107.194 377.447C107.32 377.394 107.455 377.367 107.591 377.367H113.939C114.195 377.371 114.441 377.47 114.628 377.645C114.815 377.82 114.931 378.058 114.952 378.314Z" fill="black"/>
<path d="M107.57 377.27H109.711C109.847 377.27 109.982 377.297 110.108 377.349C110.234 377.402 110.348 377.478 110.444 377.575C110.54 377.672 110.616 377.787 110.668 377.914C110.719 378.04 110.745 378.175 110.743 378.312V451.532C110.743 452.105 110.342 452.335 109.845 452.048L107.455 450.7C107.193 450.531 106.976 450.303 106.819 450.034C106.663 449.764 106.573 449.462 106.556 449.151V378.407C106.542 378.265 106.557 378.121 106.601 377.984C106.645 377.848 106.717 377.722 106.812 377.615C106.908 377.508 107.024 377.422 107.155 377.363C107.285 377.303 107.426 377.271 107.57 377.27Z" fill="#DFDAFF"/>
<path opacity="0.4" d="M107.57 377.27H109.711C109.847 377.27 109.982 377.297 110.108 377.349C110.234 377.402 110.348 377.478 110.444 377.575C110.54 377.672 110.616 377.787 110.668 377.914C110.719 378.04 110.745 378.175 110.743 378.312V451.532C110.743 452.105 110.342 452.335 109.845 452.048L107.455 450.7C107.193 450.531 106.976 450.303 106.819 450.034C106.663 449.764 106.573 449.462 106.556 449.151V378.407C106.542 378.265 106.557 378.121 106.601 377.984C106.645 377.848 106.717 377.722 106.812 377.615C106.908 377.508 107.024 377.422 107.155 377.363C107.285 377.303 107.426 377.271 107.57 377.27Z" fill="black"/>
<path d="M112.237 326.343C112.121 327.341 112.401 328.344 113.018 329.137C113.635 329.929 114.54 330.447 115.535 330.578H116.004C116.929 330.575 117.822 330.236 118.516 329.624C119.211 329.012 119.66 328.169 119.78 327.252C121.96 309.776 118.824 270.685 111.367 248.649C110.602 246.393 108.413 245.896 106.348 247.091C104.771 248.047 103.633 249.385 104.226 251.106C111.415 271.823 114.359 309.508 112.237 326.343Z" fill="#455A64"/>
<path d="M68.2584 336.403C68.0015 336.404 67.7463 336.362 67.5032 336.279C66.8952 336.077 66.3917 335.644 66.1032 335.072C65.8146 334.5 65.7646 333.837 65.964 333.229C71.5662 316.203 99.0894 301.059 116.861 301.059C117.191 301.039 117.522 301.086 117.833 301.198C118.144 301.31 118.428 301.484 118.669 301.71C118.91 301.936 119.102 302.21 119.233 302.513C119.364 302.816 119.432 303.143 119.432 303.473C119.432 303.804 119.364 304.131 119.233 304.434C119.102 304.737 118.91 305.01 118.669 305.237C118.428 305.463 118.144 305.637 117.833 305.749C117.522 305.861 117.191 305.908 116.861 305.887C100.791 305.887 75.4475 319.883 70.5528 334.739C70.3927 335.222 70.0851 335.642 69.6735 335.94C69.2618 336.239 68.7669 336.401 68.2584 336.403Z" fill="#DFDAFF"/>
<path d="M65.6311 314.328C65.3742 314.33 65.1188 314.288 64.8759 314.204C64.5707 314.106 64.2881 313.948 64.0446 313.739C63.801 313.53 63.6014 313.276 63.4573 312.989C63.3131 312.703 63.2274 312.39 63.2051 312.07C63.1828 311.751 63.2243 311.429 63.3272 311.126C69.1492 293.44 97.5042 279.128 115.2 280.945C115.541 280.941 115.878 281.01 116.191 281.146C116.504 281.282 116.784 281.482 117.013 281.734C117.243 281.986 117.417 282.284 117.523 282.608C117.63 282.932 117.667 283.275 117.631 283.614C117.596 283.953 117.49 284.28 117.319 284.575C117.148 284.87 116.917 285.126 116.64 285.325C116.363 285.525 116.048 285.663 115.714 285.732C115.38 285.801 115.035 285.799 114.703 285.725C99.0242 284.128 73.021 297.111 67.9255 312.608C67.778 313.102 67.4754 313.537 67.0623 313.847C66.6492 314.156 66.1475 314.325 65.6311 314.328Z" fill="#DFDAFF"/>
<path d="M60.2492 296.832C59.9203 296.829 59.5952 296.761 59.2932 296.631C58.7066 296.373 58.2463 295.893 58.0133 295.296C57.7803 294.699 57.7936 294.034 58.0503 293.447C66.3771 274.48 96.0035 258.907 112.026 261.135C112.34 261.179 112.642 261.284 112.915 261.445C113.188 261.605 113.427 261.818 113.618 262.071C113.809 262.324 113.948 262.612 114.028 262.919C114.107 263.226 114.125 263.545 114.082 263.859C114.038 264.173 113.932 264.475 113.772 264.748C113.611 265.021 113.398 265.26 113.145 265.451C112.892 265.642 112.604 265.781 112.297 265.861C111.99 265.94 111.671 265.959 111.357 265.915C97.1986 263.955 69.9239 278.438 62.4766 295.388C62.2875 295.82 61.9756 296.188 61.5796 296.444C61.1836 296.701 60.721 296.836 60.2492 296.832Z" fill="#DFDAFF"/>
<g opacity="0.6">
<path d="M68.2584 336.403C68.0015 336.404 67.7463 336.362 67.5032 336.279C66.8952 336.077 66.3917 335.644 66.1032 335.072C65.8146 334.5 65.7646 333.837 65.964 333.229C71.5662 316.203 99.0894 301.059 116.861 301.059C117.191 301.039 117.522 301.086 117.833 301.198C118.144 301.31 118.428 301.484 118.669 301.71C118.91 301.936 119.102 302.21 119.233 302.513C119.364 302.816 119.432 303.143 119.432 303.473C119.432 303.804 119.364 304.131 119.233 304.434C119.102 304.737 118.91 305.01 118.669 305.237C118.428 305.463 118.144 305.637 117.833 305.749C117.522 305.861 117.191 305.908 116.861 305.887C100.791 305.887 75.4475 319.883 70.5528 334.739C70.3927 335.222 70.0851 335.642 69.6735 335.94C69.2618 336.239 68.7669 336.401 68.2584 336.403Z" fill="black"/>
</g>
<g opacity="0.6">
<path d="M65.6311 314.328C65.3742 314.33 65.1188 314.288 64.8759 314.204C64.5707 314.106 64.2881 313.948 64.0446 313.739C63.801 313.53 63.6014 313.276 63.4573 312.989C63.3131 312.703 63.2274 312.39 63.2051 312.07C63.1828 311.751 63.2243 311.429 63.3272 311.126C69.1492 293.44 97.5042 279.128 115.2 280.945C115.541 280.941 115.878 281.01 116.191 281.146C116.504 281.282 116.784 281.482 117.013 281.734C117.243 281.986 117.417 282.284 117.523 282.608C117.63 282.932 117.667 283.275 117.631 283.614C117.596 283.953 117.49 284.28 117.319 284.575C117.148 284.87 116.917 285.126 116.64 285.325C116.363 285.525 116.048 285.663 115.714 285.732C115.38 285.801 115.035 285.799 114.703 285.725C99.0242 284.128 73.021 297.111 67.9255 312.608C67.778 313.102 67.4754 313.537 67.0623 313.847C66.6492 314.156 66.1475 314.325 65.6311 314.328Z" fill="black"/>
</g>
<g opacity="0.6">
<path d="M60.2492 296.832C59.9203 296.829 59.5952 296.761 59.2932 296.631C58.7066 296.373 58.2463 295.893 58.0133 295.296C57.7803 294.699 57.7936 294.034 58.0503 293.447C66.3771 274.48 96.0035 258.907 112.026 261.135C112.34 261.179 112.642 261.284 112.915 261.445C113.188 261.605 113.427 261.818 113.618 262.071C113.809 262.324 113.948 262.612 114.028 262.919C114.107 263.226 114.125 263.545 114.082 263.859C114.038 264.173 113.932 264.475 113.772 264.748C113.611 265.021 113.398 265.26 113.145 265.451C112.892 265.642 112.604 265.781 112.297 265.861C111.99 265.94 111.671 265.959 111.357 265.915C97.1986 263.955 69.9239 278.438 62.4766 295.388C62.2875 295.82 61.9756 296.188 61.5796 296.444C61.1836 296.701 60.721 296.836 60.2492 296.832Z" fill="black"/>
</g>
<path d="M54.1017 276.537C53.3081 277.011 52.7131 277.756 52.4266 278.635C52.1401 279.514 52.1816 280.467 52.5434 281.317C61.2717 301.709 65.8701 326.632 65.8701 353.916V357.568L66.1664 357.874C66.3122 358.028 66.4889 358.149 66.685 358.23C66.8811 358.311 67.0921 358.349 67.3041 358.342C67.8518 358.311 68.3894 358.182 68.891 357.96C69.1425 357.857 69.4013 357.774 69.6654 357.711C70.6796 357.711 71.6522 357.308 72.3694 356.591C73.0865 355.874 73.4894 354.901 73.4894 353.887C73.4894 325.59 68.7094 299.644 59.5222 278.287C59.3087 277.796 58.9946 277.356 58.6003 276.994C58.2059 276.632 57.74 276.357 57.2327 276.187C56.7254 276.017 56.188 275.955 55.6552 276.005C55.1225 276.056 54.6063 276.217 54.1399 276.48L54.1017 276.537Z" fill="#DFDAFF"/>
<path opacity="0.4" d="M54.1017 276.537C53.3081 277.011 52.7131 277.756 52.4266 278.635C52.1401 279.514 52.1816 280.467 52.5434 281.317C61.2717 301.709 65.8701 326.632 65.8701 353.916V357.568L66.1664 357.874C66.3122 358.028 66.4889 358.149 66.685 358.23C66.8811 358.311 67.0921 358.349 67.3041 358.342C67.8518 358.311 68.3894 358.182 68.891 357.96C69.1425 357.857 69.4013 357.774 69.6654 357.711C70.6796 357.711 71.6522 357.308 72.3694 356.591C73.0865 355.874 73.4894 354.901 73.4894 353.887C73.4894 325.59 68.7094 299.644 59.5222 278.287C59.3087 277.796 58.9946 277.356 58.6003 276.994C58.2059 276.632 57.74 276.357 57.2327 276.187C56.7254 276.017 56.188 275.955 55.6552 276.005C55.1225 276.056 54.6063 276.217 54.1399 276.48L54.1017 276.537Z" fill="black"/>
<path d="M65.918 356.698V357.654C65.9619 358.5 66.1839 359.327 66.5693 360.081C66.9548 360.836 67.4951 361.501 68.155 362.032L108.508 391.209C109.19 391.652 109.977 391.908 110.789 391.95C111.602 391.992 112.411 391.819 113.135 391.448L170.055 358.581C170.752 358.128 171.331 357.517 171.747 356.798C172.162 356.078 172.401 355.271 172.445 354.441V353.485C172.403 352.671 172.15 351.881 171.711 351.194C171.272 350.507 170.662 349.946 169.94 349.566L118.861 325.981C118.076 325.669 117.234 325.527 116.39 325.565C115.546 325.603 114.72 325.82 113.967 326.201L68.308 352.587C67.6168 353.038 67.0407 353.645 66.6257 354.359C66.2107 355.073 65.9684 355.874 65.918 356.698Z" fill="#DFDAFF"/>
<path opacity="0.4" d="M65.918 356.698V357.654C65.9619 358.5 66.1839 359.327 66.5693 360.081C66.9548 360.836 67.4951 361.501 68.155 362.032L108.508 391.209C109.19 391.652 109.977 391.908 110.789 391.95C111.602 391.992 112.411 391.819 113.135 391.448L170.055 358.581C170.752 358.128 171.331 357.517 171.747 356.798C172.162 356.078 172.401 355.271 172.445 354.441V353.485C172.403 352.671 172.15 351.881 171.711 351.194C171.272 350.507 170.662 349.946 169.94 349.566L118.861 325.981C118.076 325.669 117.234 325.527 116.39 325.565C115.546 325.603 114.72 325.82 113.967 326.201L68.308 352.587C67.6168 353.038 67.0407 353.645 66.6257 354.359C66.2107 355.073 65.9684 355.874 65.918 356.698Z" fill="black"/>
<path d="M68.3064 352.559L113.965 326.174C114.719 325.792 115.545 325.575 116.389 325.537C117.233 325.499 118.075 325.641 118.86 325.954L169.939 349.538C171.325 350.179 171.373 351.317 170.054 352.081L113.133 384.939C112.41 385.311 111.601 385.486 110.789 385.445C109.977 385.405 109.189 385.151 108.506 384.71L68.1535 355.561C67.873 355.415 67.6405 355.191 67.4835 354.916C67.3266 354.641 67.2517 354.327 67.2678 354.011C67.2839 353.695 67.3903 353.391 67.5744 353.133C67.7585 352.876 68.0126 352.677 68.3064 352.559Z" fill="#DFDAFF"/>
<path d="M151.019 452.289C150.063 452.662 149.748 454.765 149.509 456.295C149.27 457.824 147.769 459.593 149.509 462.394C151.249 465.195 154.901 466.218 157.233 470.042C159.566 473.866 162.463 480.873 170.617 483.024C178.772 485.175 185.225 482.757 186.869 480.367C188.514 477.977 187.261 475.587 182.089 472.308C176.631 468.828 175.082 467.805 175.082 467.805L151.019 452.289Z" fill="#263238"/>
<path d="M160.734 435.719C160.734 435.719 164.205 446.961 166.384 452.143C168.689 457.602 171.834 462.666 175.705 467.152C176.585 468.175 178.573 470.068 179.309 470.9C179.48 471.061 179.613 471.258 179.698 471.476C179.783 471.695 179.819 471.93 179.802 472.164C179.786 472.398 179.717 472.626 179.603 472.83C179.488 473.035 179.329 473.211 179.137 473.347C177.34 475.068 169.702 475.46 165.438 472.248C161.174 469.035 157.474 462.783 154.922 460.202C153.65 458.911 152.455 457.669 151.576 456.76C151.162 456.331 150.866 455.801 150.717 455.223C150.567 454.645 150.57 454.039 150.725 453.462C150.811 453.128 150.916 452.745 151.021 452.286C151.614 449.82 148.383 439.696 148.383 439.696L160.734 435.719Z" fill="#FFA8A7"/>
<path d="M78.2704 321.232C75.4693 331.203 73.9971 343.344 77.0945 350.055C80.8516 358.114 91.3007 366.307 100.88 371.986C110.459 377.664 125.181 384.576 128.059 385.848C130.936 387.119 131.233 388.878 130.812 394.366C130.392 399.853 132.313 408.83 138.336 420.111C142.384 427.697 145.953 435.53 149.024 443.561C151.003 444.862 158.909 445.779 162.685 441.85C162.685 441.85 151.022 382.291 148.594 375.121C146.166 367.951 119.245 344.692 119.245 344.692C119.245 344.692 128.317 328.822 130.468 320.562L78.2704 321.232Z" fill="#455A64"/>
<path d="M139.187 406.372C136.768 397.768 137.848 388.609 135.774 385.062C133.699 381.516 110.755 368.533 99.7135 360.321C89.5225 352.74 86.3295 336.765 89.3983 321.125L78.2704 321.268C75.4693 331.201 73.9971 343.342 77.0945 350.054C80.8516 358.113 91.3007 366.306 100.88 371.984C110.459 377.663 125.181 384.575 128.059 385.846C130.936 387.118 131.233 388.877 130.812 394.364C130.392 399.852 132.313 408.828 138.336 420.109C142.384 427.696 145.953 435.528 149.024 443.56C151.065 444.509 153.325 444.885 155.563 444.65C150.209 433.292 140.755 411.907 139.187 406.372Z" fill="#37474F"/>
<path d="M177.531 434.582C176.575 434.964 176.26 437.058 176.03 438.588C175.801 440.117 174.281 441.886 176.03 444.687C177.78 447.488 181.422 448.511 183.764 452.335C186.107 456.159 188.984 463.176 197.148 465.327C205.313 467.478 211.766 465.05 213.4 462.669C215.035 460.289 213.792 457.889 208.62 454.61C203.162 451.13 201.613 450.107 201.613 450.107L177.531 434.582Z" fill="#263238"/>
<path d="M187.244 418.016C187.244 418.016 190.714 429.258 192.894 434.449C195.201 439.909 198.349 444.974 202.224 449.458C203.104 450.472 205.092 452.374 205.829 453.196C205.999 453.359 206.131 453.558 206.215 453.777C206.3 453.997 206.334 454.233 206.317 454.468C206.3 454.703 206.231 454.931 206.115 455.136C205.999 455.341 205.839 455.517 205.647 455.653C203.85 457.374 196.211 457.766 191.947 454.554C187.684 451.342 183.984 445.09 181.431 442.499C180.15 441.208 178.955 439.975 178.076 439.057C177.662 438.629 177.366 438.102 177.216 437.525C177.067 436.949 177.07 436.343 177.225 435.769C177.311 435.434 177.416 435.042 177.521 434.583C178.114 432.117 174.883 422.002 174.883 422.002L187.244 418.016Z" fill="#FFA8A7"/>
<path d="M103.68 303.125C99.4256 312.312 101.204 322.417 103.967 330.849C106.729 339.281 117.809 348.583 127.389 354.261C136.968 359.94 149.377 367.942 152.245 369.223C155.113 370.504 155.332 372.272 156.069 377.731C156.805 383.563 158.851 391.115 164.921 402.367C171.336 414.25 174.969 421.984 174.969 421.984C177.18 422.684 179.54 422.767 181.795 422.222C184.049 421.678 186.112 420.528 187.76 418.897C187.76 418.897 177.521 364.567 175.093 357.388C172.665 350.208 131.949 321.863 131.949 321.863L103.68 303.125Z" fill="#455A64"/>
<path opacity="0.6" d="M144.387 364.663C143.106 363.286 141.787 361.986 140.477 360.733C136.309 356.776 125.63 347.177 121.921 343.841C123.052 341.312 123.948 338.685 124.598 335.992C124.598 335.992 122.476 339.816 120.611 342.684L119.436 344.395L119.254 344.654L119.33 344.73C120.153 345.437 127.351 351.69 134.426 358.525C137.915 360.686 141.395 362.856 144.387 364.663Z" fill="black"/>
<path d="M127.255 286.056C127.485 288.217 126.663 294.029 126.663 294.029C129.32 305.807 130.965 321.189 130.965 321.189C124.684 332.594 86.0804 342.135 75.832 327.996C78.5758 317.824 84.8089 300.521 84.8089 300.521L79.9428 280.664C79.9428 280.664 88.9675 268.103 81.2525 250.895L93.6805 248.983L110.975 246.449L118.135 246.746C118.135 246.746 127.102 257.003 130.047 264.326C131.873 268.829 135.181 276.707 127.255 286.056Z" fill="#F0F0F0"/>
<path d="M130.965 321.2C130.965 321.2 124.607 327.156 118.862 325.98C113.116 324.804 98.4032 307.156 96.539 301.889C94.6748 296.621 91.0802 273.801 89.5602 269.93L83.7095 271.278C83.0605 274.626 81.7824 277.822 79.9428 280.694L84.8089 300.55C84.8089 300.55 78.5758 317.854 75.832 328.026C86.0804 342.136 124.665 332.595 130.965 321.2Z" fill="#E0E0E0"/>
<path d="M130.514 213.871C130.61 198.575 120.161 185.602 104.463 185.478C100.559 185.442 96.6894 186.207 93.0931 187.726C89.4969 189.246 86.2507 191.487 83.5553 194.311C83.5834 193.892 83.5348 193.471 83.4119 193.068C83.2614 192.607 83.0198 192.181 82.7014 191.814C82.3829 191.448 81.9942 191.149 81.5581 190.936C81.1221 190.723 80.6477 190.6 80.1631 190.574C79.6785 190.547 79.1935 190.619 78.737 190.784L80.3814 196.051C79.9295 195.456 79.3103 195.01 78.6032 194.77C78.1453 194.611 77.6602 194.545 77.1764 194.577C76.6927 194.608 76.2202 194.737 75.7869 194.954C75.3537 195.172 74.9685 195.474 74.6542 195.843C74.3398 196.212 74.1028 196.64 73.957 197.103L79.8842 199.129C77.3726 203.291 76.0316 208.054 76.0029 212.915C75.8882 229.645 89.7406 243.287 106.872 243.306H130.552L130.514 213.871Z" fill="#37474F"/>
<path d="M121.689 203.469C124.653 205.113 127.186 207.293 127.253 222.646C127.253 235.686 123.162 239.022 121.068 240.007C118.974 240.992 114.873 240.542 110.877 240.007L110.973 246.422C110.973 246.422 116.709 249.949 114.596 252.665C112.407 255.533 108.468 255.934 103.391 254.682C99.6807 253.717 96.3153 251.729 93.6785 248.946L93.2961 230.877C93.2961 230.877 91.0208 233.21 86.9578 229.845C83.6023 227.072 82.369 222.273 84.8451 219.616C85.4926 218.987 86.2793 218.52 87.1412 218.253C88.0032 217.985 88.916 217.925 89.8056 218.077C90.6952 218.229 91.5364 218.588 92.2608 219.127C92.9853 219.665 93.5725 220.366 93.9749 221.174C102.512 221.174 104.108 211.375 104.653 205.448C109.366 200.563 116.737 212.312 121.689 203.469Z" fill="#FFA8A7"/>
<path d="M95.2768 225.458L93.1641 218.498C93.6135 218.336 94.0911 218.267 94.568 218.295C95.045 218.323 95.5112 218.448 95.9385 218.661C96.3658 218.875 96.7453 219.173 97.0539 219.538C97.3625 219.903 97.5938 220.326 97.7337 220.783C98.004 221.729 97.8994 222.742 97.4419 223.613C96.9843 224.483 96.2089 225.144 95.2768 225.458Z" fill="#37474F"/>
<path d="M110.937 218.748C110.947 219.068 110.863 219.384 110.695 219.657C110.528 219.929 110.283 220.147 109.993 220.282C109.703 220.417 109.379 220.464 109.062 220.417C108.746 220.37 108.45 220.231 108.211 220.017C107.973 219.804 107.803 219.524 107.721 219.215C107.64 218.905 107.652 218.578 107.755 218.275C107.858 217.972 108.047 217.705 108.3 217.509C108.553 217.313 108.858 217.195 109.178 217.17C109.62 217.147 110.053 217.3 110.383 217.595C110.713 217.891 110.912 218.306 110.937 218.748Z" fill="#263238"/>
<path d="M113.346 230.82L117.17 231.929C117.109 232.186 116.997 232.428 116.84 232.641C116.683 232.853 116.485 233.032 116.257 233.166C116.029 233.3 115.777 233.386 115.515 233.42C115.253 233.454 114.987 233.435 114.732 233.363C114.221 233.196 113.793 232.839 113.535 232.367C113.277 231.894 113.21 231.341 113.346 230.82Z" fill="#F28F8F"/>
<path d="M124.943 214.615L121.559 212.407C121.689 212.176 121.865 211.975 122.077 211.816C122.289 211.657 122.532 211.544 122.79 211.484C123.048 211.423 123.315 211.417 123.576 211.466C123.836 211.515 124.084 211.617 124.302 211.766C124.752 212.071 125.068 212.535 125.187 213.064C125.306 213.593 125.219 214.148 124.943 214.615Z" fill="#263238"/>
<path d="M107.53 214.615L110.915 212.407C110.785 212.176 110.608 211.975 110.396 211.816C110.184 211.657 109.941 211.544 109.684 211.484C109.426 211.423 109.158 211.417 108.897 211.466C108.637 211.515 108.39 211.617 108.171 211.766C107.722 212.071 107.405 212.535 107.286 213.064C107.167 213.593 107.255 214.148 107.53 214.615Z" fill="#263238"/>
<path d="M123.987 218.181C123.999 218.504 123.916 218.822 123.748 219.098C123.581 219.373 123.336 219.594 123.044 219.731C122.752 219.868 122.427 219.917 122.107 219.871C121.788 219.824 121.49 219.685 121.249 219.471C121.008 219.256 120.836 218.975 120.754 218.663C120.671 218.352 120.683 218.022 120.786 217.717C120.889 217.411 121.08 217.143 121.335 216.945C121.589 216.747 121.897 216.629 122.218 216.604C122.661 216.58 123.096 216.733 123.427 217.028C123.758 217.324 123.96 217.738 123.987 218.181Z" fill="#263238"/>
<path d="M115.992 217.484L116.183 228.163L121.327 226.413L115.992 217.484Z" fill="#F28F8F"/>
<path d="M110.879 239.989C106.673 239.549 97.9826 237.312 96.5391 233.938C97.1248 235.648 98.223 237.137 99.6843 238.201C102.323 240.343 110.946 242.599 110.946 242.599L110.879 239.989Z" fill="#F28F8F"/>
<path d="M124.664 202.474C124.664 202.474 122.456 215.227 104.703 215.61V201.184L124.664 202.474Z" fill="#37474F"/>
<path d="M147.274 350.492C138.918 346.448 133.842 344.966 127.781 339.88C121.72 334.794 92.9824 307.004 92.9824 307.004L89.5599 269.901C89.5599 269.901 89.9136 257.636 81.2522 250.867C74.2065 251.928 70.0384 258.458 70.2965 265.131C70.5546 271.804 74.4838 311.019 76.5583 314.766C78.5372 318.399 113.364 344.125 118.211 347.815C121.94 350.98 119.97 352.844 125.62 355.932C128.641 357.576 138.555 359.22 143.01 361.065C148.612 363.379 154.109 359.756 156.91 358.551C160.036 357.222 155.629 354.536 147.274 350.492Z" fill="#FFA8A7"/>
<path d="M235.32 553.28C235.33 553.566 235.421 553.843 235.582 554.08C235.742 554.317 235.967 554.504 236.229 554.618C236.925 554.97 237.695 555.153 238.475 555.153C239.255 555.153 240.025 554.97 240.722 554.618C240.986 554.503 241.214 554.319 241.382 554.085C241.55 553.851 241.652 553.577 241.678 553.29L241.764 455.156L235.416 455.242L235.32 553.28Z" fill="#455A64"/>
<path d="M238.82 555.125C239.489 555.093 240.142 554.913 240.732 554.599C240.996 554.483 241.224 554.299 241.392 554.065C241.56 553.832 241.663 553.557 241.688 553.27L241.774 455.137H238.906L238.82 555.125Z" fill="#37474F"/>
<path d="M236.316 456.491C237.012 456.847 237.782 457.033 238.563 457.033C239.344 457.033 240.114 456.847 240.809 456.491C242.062 455.774 242.081 454.579 240.809 453.901C240.114 453.545 239.344 453.359 238.563 453.359C237.782 453.359 237.012 453.545 236.316 453.901C235.102 454.627 235.083 455.784 236.316 456.491Z" fill="#263238"/>
<path d="M357.785 483.022C357.793 483.309 357.883 483.587 358.044 483.824C358.204 484.061 358.43 484.248 358.693 484.361C359.39 484.712 360.16 484.895 360.94 484.895C361.72 484.895 362.49 484.712 363.187 484.361C363.45 484.248 363.678 484.065 363.847 483.833C364.015 483.601 364.117 483.327 364.143 483.041L364.229 384.898L357.871 384.984L357.785 483.022Z" fill="#455A64"/>
<path d="M361.285 484.867C361.954 484.836 362.607 484.657 363.197 484.341C363.461 484.228 363.689 484.046 363.857 483.814C364.026 483.581 364.128 483.308 364.153 483.022L364.239 384.879H361.371L361.285 484.867Z" fill="#37474F"/>
<path d="M358.781 386.246C359.477 386.6 360.247 386.784 361.028 386.784C361.808 386.784 362.578 386.6 363.274 386.246C364.527 385.529 364.546 384.334 363.274 383.655C362.577 383.304 361.808 383.121 361.028 383.121C360.247 383.121 359.478 383.304 358.781 383.655C357.567 384.372 357.548 385.529 358.781 386.246Z" fill="#263238"/>
<path d="M90.7188 483.022C90.7305 483.314 90.8273 483.596 90.9971 483.834C91.1669 484.072 91.4024 484.255 91.6748 484.361C92.3715 484.712 93.141 484.895 93.9213 484.895C94.7017 484.895 95.4712 484.712 96.168 484.361C96.4293 484.244 96.6554 484.061 96.8232 483.829C96.9911 483.598 97.0948 483.326 97.124 483.041L97.21 384.898L90.8526 384.984L90.7188 483.022Z" fill="#455A64"/>
<path d="M94.207 484.867C94.8753 484.835 95.5282 484.655 96.119 484.341C96.3804 484.225 96.6064 484.042 96.7743 483.81C96.9422 483.578 97.0459 483.306 97.075 483.022L97.1611 384.879H94.2931L94.207 484.867Z" fill="#37474F"/>
<path d="M91.7116 386.246C92.4077 386.6 93.1775 386.784 93.9582 386.784C94.7389 386.784 95.5087 386.6 96.2048 386.246C97.4572 385.529 97.4667 384.334 96.2048 383.656C95.5063 383.304 94.7353 383.121 93.9534 383.121C93.1715 383.121 92.4005 383.304 91.702 383.656C90.4879 384.373 90.4784 385.529 91.7116 386.246Z" fill="#263238"/>
<path d="M62.3242 385.739V384.783C62.3687 383.934 62.6136 383.108 63.039 382.371C63.4644 381.635 64.0581 381.01 64.7716 380.548L222.999 289.135C223.758 288.753 224.597 288.555 225.447 288.555C226.296 288.555 227.135 288.753 227.894 289.135L382.393 378.12C383.106 378.582 383.7 379.207 384.126 379.943C384.551 380.679 384.796 381.506 384.84 382.355V383.311C384.796 384.16 384.551 384.986 384.126 385.722C383.7 386.459 383.106 387.083 382.393 387.546L224.156 478.959C223.398 479.34 222.562 479.539 221.713 479.539C220.865 479.539 220.028 479.34 219.271 478.959L64.7716 389.974C64.0587 389.511 63.4653 388.886 63.04 388.15C62.6147 387.414 62.3694 386.588 62.3242 385.739Z" fill="#DFDAFF"/>
<g opacity="0.65">
<path d="M62.3242 385.739V384.783C62.3687 383.934 62.6136 383.108 63.039 382.371C63.4644 381.635 64.0581 381.01 64.7716 380.548L222.999 289.135C223.758 288.753 224.597 288.555 225.447 288.555C226.296 288.555 227.135 288.753 227.894 289.135L382.393 378.12C383.106 378.582 383.7 379.207 384.126 379.943C384.551 380.679 384.796 381.506 384.84 382.355V383.311C384.796 384.16 384.551 384.986 384.126 385.722C383.7 386.459 383.106 387.083 382.393 387.546L224.156 478.959C223.398 479.34 222.562 479.539 221.713 479.539C220.865 479.539 220.028 479.34 219.271 478.959L64.7716 389.974C64.0587 389.511 63.4653 388.886 63.04 388.15C62.6147 387.414 62.3694 386.588 62.3242 385.739Z" fill="white"/>
</g>
<path d="M221.718 472.919V479.544C220.867 479.553 220.027 479.352 219.271 478.961L64.7716 389.986C64.0597 389.522 63.4672 388.896 63.042 388.16C62.6168 387.425 62.3709 386.599 62.3242 385.751V384.795C62.3648 384.038 62.5635 383.298 62.9077 382.623C63.2519 381.948 63.7337 381.352 64.3223 380.875C63.4332 381.63 63.5861 382.682 64.7716 383.38L219.309 472.336C220.048 472.735 220.878 472.936 221.718 472.919Z" fill="#DFDAFF"/>
<g opacity="0.5">
<path d="M221.718 472.919V479.544C220.867 479.553 220.027 479.352 219.271 478.961L64.7716 389.986C64.0597 389.522 63.4672 388.896 63.042 388.16C62.6168 387.425 62.3709 386.599 62.3242 385.751V384.795C62.3648 384.038 62.5635 383.298 62.9077 382.623C63.2519 381.948 63.7337 381.352 64.3223 380.875C63.4332 381.63 63.5861 382.682 64.7716 383.38L219.309 472.336C220.048 472.735 220.878 472.936 221.718 472.919Z" fill="white"/>
</g>
<path d="M64.772 383.349L219.309 472.333C220.067 472.715 220.904 472.914 221.752 472.914C222.6 472.914 223.437 472.715 224.195 472.333L382.394 380.911C383.751 380.137 383.751 378.865 382.394 378.091L227.913 289.135C227.154 288.753 226.316 288.555 225.466 288.555C224.616 288.555 223.778 288.753 223.019 289.135L64.772 380.529C63.4145 381.303 63.4145 382.575 64.772 383.349Z" fill="#DFDAFF"/>
<g opacity="0.8">
<path d="M64.772 383.349L219.309 472.333C220.067 472.715 220.904 472.914 221.752 472.914C222.6 472.914 223.437 472.715 224.195 472.333L382.394 380.911C383.751 380.137 383.751 378.865 382.394 378.091L227.913 289.135C227.154 288.753 226.316 288.555 225.466 288.555C224.616 288.555 223.778 288.753 223.019 289.135L64.772 380.529C63.4145 381.303 63.4145 382.575 64.772 383.349Z" fill="white"/>
</g>
<path opacity="0.1" d="M189.3 383.196L166.843 370.233L165.4 367.986V365.864L160.409 363.761L159.922 361.658L163.22 361.113L165.362 361.266L165.027 359.449L167.981 358.359L209.557 367.986L212.674 369.793C212.751 369.837 212.816 369.901 212.861 369.979C212.905 370.056 212.929 370.144 212.929 370.233C212.929 370.322 212.905 370.41 212.861 370.487C212.816 370.564 212.751 370.628 212.674 370.673L190.982 383.196C190.726 383.342 190.436 383.419 190.141 383.419C189.846 383.419 189.556 383.342 189.3 383.196Z" fill="black"/>
<path d="M193.591 357.157L181 346.363L178.859 348.027L181 350.895L177.358 348.514L175.446 350.101L173.696 351.057L171.048 349.518L169.136 350.876L169.413 352.099L172.855 354.011C172.286 354.359 171.684 354.651 171.058 354.881C170.119 354.354 169.224 353.753 168.381 353.084L167.234 355.503L168.821 360.149L166.526 360.627L166.889 363.112L170.264 365.608L166.02 366.803L166.889 368.982C166.889 368.982 178.696 373.141 178.868 373.141C179.222 373.131 193.591 357.157 193.591 357.157Z" fill="#B16668"/>
<path d="M161.262 362.244L176.128 371.594L177.724 369.51L162.964 359.605L161.004 360.141L161.262 362.244Z" fill="#FFBDA7"/>
<path d="M161.004 360.141L177.17 370.236L176.128 371.594L161.262 362.244L161.004 360.141Z" fill="#F0997A"/>
<path d="M163.611 356.776L176 367.387L177.97 366.212L163.219 353.258L163.611 356.776Z" fill="#F0997A"/>
<path d="M163.219 353.254L165.752 352.633L179.213 364.908L177.97 366.208L163.219 353.254Z" fill="#FFBDA7"/>
<path d="M169.797 355.014L184.252 363.102V361.267L169.797 352.863V355.014Z" fill="#F0997A"/>
<path d="M169.797 352.864L172.168 352.07L185.399 360.139L184.252 361.267L169.797 352.864Z" fill="#FFBDA7"/>
<path d="M189.777 362.164L171.852 350.578V348.465L190.14 361.266L189.777 362.164Z" fill="#F0997A"/>
<path d="M171.852 348.464L174.27 347.805L191.211 360.319L190.14 361.265L171.852 348.464Z" fill="#FFBDA7"/>
<path d="M197.309 357.977L181 347.805L181.535 350.051L196.258 359.602L197.309 357.977Z" fill="#F0997A"/>
<path d="M181 347.805H184.25L197.615 356.925L197.309 357.977L181 347.805Z" fill="#FFBDA7"/>
<path d="M161.262 342.348L161.95 343.906C161.95 343.906 165.229 346.411 168.833 345.98C172.437 345.55 176.405 342.348 176.405 342.348H161.262Z" fill="#F0997A"/>
<path d="M161.262 342.348C163.118 343.367 165.172 343.973 167.285 344.126C171.003 344.46 176.405 342.348 176.405 342.348H161.262Z" fill="#FFBDA7"/>
<path d="M173.66 364.268L190.142 376.954L209.558 365.75L193.077 353.054C191.008 351.615 188.587 350.766 186.073 350.597C183.558 350.429 181.046 350.948 178.804 352.098L174.291 354.698C170.18 357.098 169.894 361.371 173.66 364.268Z" fill="#DFDAFF"/>
<path d="M187.904 367.307C185.932 367.357 183.995 366.774 182.378 365.644C181.791 365.244 181.314 364.702 180.991 364.069C180.669 363.435 180.511 362.731 180.533 362.02C180.63 361.208 180.929 360.433 181.401 359.765C181.873 359.098 182.505 358.558 183.239 358.196C186.355 356.399 191.04 356.6 193.688 358.636C194.276 359.036 194.755 359.577 195.079 360.21C195.403 360.844 195.563 361.548 195.542 362.259C195.444 363.072 195.144 363.848 194.67 364.516C194.195 365.183 193.562 365.722 192.827 366.083C191.319 366.909 189.623 367.33 187.904 367.307ZM188.181 357.957C186.623 357.937 185.085 358.319 183.717 359.066C183.127 359.349 182.616 359.771 182.226 360.296C181.836 360.82 181.58 361.432 181.48 362.078C181.472 362.632 181.603 363.178 181.862 363.668C182.121 364.158 182.499 364.574 182.962 364.879C185.332 366.705 189.539 366.877 192.349 365.252C192.94 364.971 193.453 364.55 193.843 364.025C194.233 363.5 194.489 362.887 194.586 362.24C194.593 361.688 194.461 361.143 194.202 360.656C193.943 360.168 193.566 359.753 193.105 359.449C191.666 358.438 189.939 357.919 188.181 357.967V357.957Z" fill="#FAFAFA"/>
<path d="M190.142 376.956V381.439L173.66 371.927V364.27L190.142 376.956Z" fill="#DFDAFF"/>
<path opacity="0.15" d="M190.142 376.956V381.439L173.66 371.927V364.27L190.142 376.956Z" fill="black"/>
<path d="M209.557 365.75V370.234L190.141 381.438V376.954L209.557 365.75Z" fill="#DFDAFF"/>
<path opacity="0.3" d="M209.557 365.75V370.234L190.141 381.438V376.954L209.557 365.75Z" fill="black"/>
<path opacity="0.1" d="M265.301 383.196L287.758 370.233L289.201 367.986V365.864L294.191 363.761L294.669 361.658L291.381 361.113L289.23 361.266L289.564 359.449L286.62 358.359L245.043 367.986L241.927 369.793C241.849 369.837 241.785 369.901 241.74 369.979C241.695 370.056 241.672 370.144 241.672 370.233C241.672 370.322 241.695 370.41 241.74 370.487C241.785 370.564 241.849 370.628 241.927 370.673L263.619 383.196C263.875 383.342 264.165 383.419 264.46 383.419C264.755 383.419 265.045 383.342 265.301 383.196Z" fill="black"/>
<path d="M261.074 357.157L273.665 346.363L275.806 348.027L273.665 350.895L277.307 348.514L279.219 350.101L280.969 351.057L283.617 349.518L285.529 350.876L285.251 352.099L281.8 354.011C282.37 354.359 282.971 354.651 283.598 354.881C284.536 354.354 285.431 353.753 286.274 353.084L287.431 355.503L285.835 360.149L288.129 360.627L287.766 363.112L284.448 365.617L288.693 366.812L287.823 368.992C287.823 368.992 276.017 373.15 275.844 373.15C275.443 373.131 261.074 357.157 261.074 357.157Z" fill="#B16668"/>
<path d="M290.914 356.783L276.048 366.133L274.461 364.039L289.222 354.145L291.172 354.67L290.914 356.783Z" fill="#FFBDA7"/>
<path d="M291.17 354.672L275.004 364.767L276.046 366.134L290.912 356.785L291.17 354.672Z" fill="#F0997A"/>
<path d="M272.891 341.095L254.02 340.818L255.243 339.508L272.633 337.969L274.105 339.355L272.891 341.095Z" fill="#FFBDA7"/>
<path d="M274.105 339.355L254.02 340.818L255.367 342.348L272.891 341.095L274.105 339.355Z" fill="#F0997A"/>
<path d="M291.571 365.035L276.093 370.187L274.707 368.352L293.263 361.918L291.571 365.035Z" fill="#F0997A"/>
<path d="M293.262 361.916L291.15 360.387L274.047 366.687L274.707 368.35L293.262 361.916Z" fill="#FFBDA7"/>
<path d="M285.443 355.405L270.988 363.493V361.657L285.443 353.254V355.405Z" fill="#F0997A"/>
<path d="M285.446 353.254L283.084 352.461L269.844 360.53L270.991 361.658L285.446 353.254Z" fill="#FFBDA7"/>
<path d="M276.553 350.685L263.714 361.153L263.398 359.337L276.18 348.562L276.553 350.685Z" fill="#F0997A"/>
<path d="M276.181 348.563L273.714 348.199L262.07 358.428L263.399 359.337L276.181 348.563Z" fill="#FFBDA7"/>
<path d="M257.202 363.142L271.456 347.263L270.911 345.227L256.609 362.358L257.202 363.142Z" fill="#F0997A"/>
<path d="M270.913 345.227H268.408L255.34 361.737L256.611 362.358L270.913 345.227Z" fill="#FFBDA7"/>
<path d="M269.43 357.527L285.739 347.355L285.204 349.602L270.481 359.153L269.43 357.527Z" fill="#F0997A"/>
<path d="M285.74 347.355H282.49L269.125 356.476L269.431 357.527L285.74 347.355Z" fill="#FFBDA7"/>
<path d="M281.009 364.268L264.528 376.954L245.121 365.75L261.603 353.054C263.671 351.615 266.092 350.766 268.607 350.597C271.121 350.429 273.634 350.948 275.876 352.098L280.388 354.698C284.489 357.098 284.776 361.371 281.009 364.268Z" fill="#DFDAFF"/>
<path d="M261.841 366.083C261.107 365.722 260.473 365.183 259.999 364.516C259.525 363.848 259.225 363.072 259.126 362.259C259.108 361.549 259.268 360.845 259.592 360.212C259.916 359.579 260.394 359.037 260.981 358.636C263.629 356.6 268.314 356.399 271.43 358.196C272.164 358.559 272.796 359.098 273.27 359.766C273.744 360.433 274.045 361.208 274.145 362.02C274.163 362.731 274.003 363.435 273.679 364.068C273.355 364.701 272.878 365.243 272.291 365.644C270.674 366.774 268.737 367.357 266.765 367.307C265.046 367.33 263.35 366.909 261.841 366.083ZM261.564 359.449C261.103 359.753 260.726 360.168 260.467 360.656C260.208 361.143 260.076 361.688 260.082 362.24C260.18 362.887 260.436 363.5 260.826 364.025C261.216 364.55 261.729 364.971 262.319 365.252C265.13 366.877 269.336 366.705 271.707 364.879C272.17 364.574 272.548 364.158 272.807 363.668C273.066 363.178 273.197 362.632 273.189 362.078C273.089 361.432 272.833 360.82 272.443 360.296C272.053 359.771 271.541 359.349 270.952 359.066C269.587 358.321 268.053 357.939 266.497 357.957C264.735 357.91 263.005 358.433 261.564 359.449Z" fill="#FAFAFA"/>
<path d="M264.527 376.956V381.439L281.009 371.927V364.27L264.527 376.956Z" fill="#DFDAFF"/>
<path opacity="0.15" d="M264.527 376.956V381.439L281.009 371.927V364.27L264.527 376.956Z" fill="black"/>
<path d="M245.109 365.75V370.234L264.526 381.438V376.954L245.109 365.75Z" fill="#DFDAFF"/>
<path opacity="0.3" d="M245.109 365.75V370.234L264.526 381.438V376.954L245.109 365.75Z" fill="black"/>
<path opacity="0.1" d="M204.07 316.515C199.29 314.412 191.565 314.412 186.91 316.515C182.254 318.618 182.254 322.021 186.91 324.163C191.565 326.304 199.252 326.266 204.07 324.163C208.888 322.06 208.888 318.618 204.07 316.515Z" fill="black"/>
<path d="M207.262 291.621H183.84L185.608 319.221C185.714 320.225 186.66 321.219 188.476 321.984C193.018 323.619 197.988 323.619 202.53 321.984C204.375 321.219 205.398 320.225 205.465 319.221L207.262 291.621Z" fill="#FAFAFA"/>
<path d="M200.037 314.086C199.446 314.094 198.869 313.909 198.392 313.56C197.389 312.824 196.844 311.323 196.844 309.354C196.844 306.715 198.756 303.312 201.423 302.662C201.871 302.517 202.347 302.479 202.812 302.552C203.277 302.625 203.718 302.807 204.1 303.083C204.989 303.78 205.457 305.128 205.457 306.974C205.457 308.819 204.587 312.882 201.289 313.895C200.883 314.019 200.461 314.084 200.037 314.086ZM202.417 303.475C202.156 303.479 201.896 303.514 201.643 303.58C199.444 304.125 197.819 307.079 197.819 309.316C197.819 310.95 198.24 312.184 198.976 312.748C199.276 312.941 199.62 313.059 199.976 313.091C200.333 313.123 200.691 313.067 201.021 312.929C203.794 312.079 204.52 308.637 204.52 306.926C204.52 305.377 204.176 304.297 203.564 303.78C203.23 303.546 202.824 303.438 202.417 303.475Z" fill="#DFDAFF"/>
<path d="M185.608 319.249C185.714 320.253 186.66 321.247 188.476 322.012C193.018 323.647 197.988 323.647 202.53 322.012C203.667 321.651 204.637 320.895 205.264 319.88C202.9 321.387 200.1 322.06 197.31 321.792C192.769 321.285 189.968 320.473 189.155 316.888C188.457 313.828 186.803 296.812 186.364 291.688H183.84L185.608 319.249Z" fill="#F0F0F0"/>
<path d="M183.84 291.65L184.194 297.252C184.794 297.665 185.435 298.018 186.106 298.304C191.172 300.397 199.49 300.397 204.767 298.304C204.996 298.208 205.178 298.112 205.388 298.017C205.897 297.776 206.389 297.501 206.86 297.195L207.214 291.621L183.84 291.65Z" fill="#E0E0E0"/>
<path d="M207.685 292.556V288.675H205.171C204.836 288.503 204.473 288.331 204.071 288.168C199.291 286.256 191.567 286.256 186.911 288.168C186.529 288.331 186.185 288.503 185.86 288.675H183.422V292.556C183.422 293.818 184.588 295.08 186.911 296.046C191.567 297.958 199.253 297.958 204.071 296.046C206.481 295.08 207.685 293.818 207.685 292.556Z" fill="#37474F"/>
<path d="M204.07 285.188C199.29 283.276 191.565 283.276 186.91 285.188C182.254 287.1 182.254 290.245 186.91 292.167C191.565 294.088 199.252 294.079 204.07 292.167C208.888 290.255 208.888 287.109 204.07 285.188Z" fill="#455A64"/>
<path d="M204.577 287.587L203.621 284.996H187.483L186.527 287.587C186.164 288.591 187.005 289.652 189.061 290.455C193.262 291.774 197.766 291.774 201.967 290.455C204.089 289.652 204.969 288.591 204.577 287.587Z" fill="#37474F"/>
<path d="M201.251 283.189C197.517 282.015 193.513 282.015 189.779 283.189C186.662 284.365 186.662 286.258 189.779 287.434C193.514 288.6 197.516 288.6 201.251 287.434C204.473 286.268 204.473 284.356 201.251 283.189Z" fill="#455A64"/>
<path d="M202.551 285.312C202.471 285.478 202.344 285.618 202.187 285.714C201.783 286 201.338 286.225 200.868 286.383C199.128 286.949 197.306 287.223 195.476 287.196C193.672 287.231 191.874 286.96 190.161 286.393C189.703 286.237 189.273 286.008 188.889 285.714C188.622 285.503 188.555 285.35 188.555 285.312C188.555 285.274 188.832 284.739 190.161 284.232C191.874 283.665 193.672 283.393 195.476 283.429C197.306 283.396 199.129 283.671 200.868 284.242C202.206 284.72 202.541 285.217 202.551 285.312Z" fill="#37474F"/>
<path d="M202.189 285.715C201.784 286.001 201.339 286.227 200.869 286.384C199.129 286.95 197.307 287.224 195.477 287.197C193.673 287.233 191.876 286.961 190.162 286.394C189.704 286.239 189.274 286.009 188.891 285.715C189.275 285.425 189.705 285.199 190.162 285.046C191.875 284.475 193.672 284.2 195.477 284.233C197.307 284.205 199.129 284.48 200.869 285.046C201.339 285.203 201.784 285.429 202.189 285.715Z" fill="#263238"/>
<path d="M198.966 285.789C199.149 285.663 199.357 285.577 199.576 285.535C199.795 285.494 200.02 285.499 200.237 285.55C200.476 285.674 200.237 285.999 199.816 286.276C199.631 286.402 199.421 286.488 199.201 286.529C198.98 286.57 198.754 286.565 198.535 286.515C198.277 286.381 198.497 286.056 198.966 285.789Z" fill="black"/>
<defs>
<filter id="filter0_f_1528_7972" x="312.058" y="240.437" width="58.7428" height="98.9107" filterUnits="userSpaceOnUse" color-interpolation-filters="sRGB">
<feFlood flood-opacity="0" result="BackgroundImageFix"/>
<feBlend mode="normal" in="SourceGraphic" in2="BackgroundImageFix" result="shape"/>
<feGaussianBlur stdDeviation="0.996241" result="effect1_foregroundBlur_1528_7972"/>
</filter>
</defs>
</svg>
