<svg width="478" height="723" viewBox="0 0 478 723" fill="none" xmlns="http://www.w3.org/2000/svg">
<path d="M335.214 0H137.036C106.213 0 81.2266 25.0865 81.2266 56.0322V510.698C81.2266 541.644 106.213 566.731 137.036 566.731H335.214C366.037 566.731 391.023 541.644 391.023 510.698V56.0322C391.023 25.0865 366.037 0 335.214 0Z" fill="#3F3D56"/>
<path d="M385.797 56.0363V510.699C385.781 524.164 380.447 537.072 370.964 546.593C361.481 556.114 348.624 561.47 335.212 561.485H137.037C123.626 561.47 110.769 556.114 101.286 546.593C91.803 537.072 86.4686 524.164 86.4531 510.699V56.0363C86.4687 42.5717 91.803 29.6631 101.286 20.1422C110.769 10.6213 123.626 5.26559 137.037 5.25H162.952V14.2376C162.952 18.3064 164.562 22.2085 167.428 25.0856C170.294 27.9627 174.18 29.5791 178.233 29.5793H294.017C298.07 29.5791 301.956 27.9627 304.822 25.0856C307.688 22.2085 309.298 18.3064 309.298 14.2376V5.25H335.212C348.624 5.26559 361.481 10.6213 370.964 20.1422C380.447 29.6631 385.781 42.5717 385.797 56.0363Z" fill="white"/>
<path d="M79.8012 114.969C78.7934 114.967 77.8272 114.565 77.1146 113.85C76.402 113.134 76.0012 112.164 76 111.152V103.519C76 102.507 76.4005 101.537 77.1133 100.821C77.8262 100.105 78.7931 99.7031 79.8012 99.7031C80.8093 99.7031 81.7762 100.105 82.489 100.821C83.2019 101.537 83.6024 102.507 83.6024 103.519V111.152C83.6012 112.164 83.2004 113.134 82.4878 113.85C81.7752 114.565 80.809 114.967 79.8012 114.969V114.969Z" fill="#3F3D56"/>
<path d="M79.8012 154.104C78.7934 154.103 77.8272 153.701 77.1146 152.985C76.402 152.27 76.0012 151.3 76 150.288V129.277C76 128.265 76.4005 127.294 77.1133 126.579C77.8262 125.863 78.7931 125.461 79.8012 125.461C80.8093 125.461 81.7762 125.863 82.489 126.579C83.2019 127.294 83.6024 128.265 83.6024 129.277V150.288C83.6012 151.3 83.2004 152.27 82.4878 152.985C81.7752 153.701 80.809 154.103 79.8012 154.104V154.104Z" fill="#3F3D56"/>
<path d="M79.8012 185.573C78.7934 185.572 77.8272 185.169 77.1146 184.454C76.402 183.738 76.0012 182.768 76 181.757V160.746C76 159.734 76.4005 158.763 77.1133 158.047C77.8262 157.332 78.7931 156.93 79.8012 156.93C80.8093 156.93 81.7762 157.332 82.489 158.047C83.2019 158.763 83.6024 159.734 83.6024 160.746V181.757C83.6012 182.768 83.2004 183.738 82.4878 184.454C81.7752 185.169 80.809 185.572 79.8012 185.573V185.573Z" fill="#3F3D56"/>
<path d="M391.5 168.395C390.493 168.394 389.526 167.992 388.814 167.276C388.101 166.561 387.7 165.591 387.699 164.579V113.312C387.699 112.3 388.1 111.33 388.813 110.614C389.525 109.898 390.492 109.496 391.5 109.496C392.509 109.496 393.475 109.898 394.188 110.614C394.901 111.33 395.302 112.3 395.302 113.312V164.579C395.3 165.591 394.9 166.561 394.187 167.276C393.474 167.992 392.508 168.394 391.5 168.395V168.395Z" fill="#3F3D56"/>
<path d="M244.292 17.5009H214.833C214.203 17.5009 213.598 17.2496 213.153 16.8023C212.707 16.355 212.457 15.7483 212.457 15.1157C212.457 14.4831 212.707 13.8764 213.153 13.4291C213.598 12.9818 214.203 12.7305 214.833 12.7305H244.292C244.922 12.7305 245.526 12.9818 245.972 13.4291C246.417 13.8764 246.668 14.4831 246.668 15.1157C246.668 15.7483 246.417 16.355 245.972 16.8023C245.526 17.2496 244.922 17.5009 244.292 17.5009Z" fill="white"/>
<path d="M259.494 17.0273C260.544 17.0273 261.395 16.173 261.395 15.1191C261.395 14.0653 260.544 13.2109 259.494 13.2109C258.445 13.2109 257.594 14.0653 257.594 15.1191C257.594 16.173 258.445 17.0273 259.494 17.0273Z" fill="white"/>
<path d="M151.632 27.7401H125.974C124.714 27.7401 123.505 27.2375 122.614 26.3429C121.723 25.4483 121.223 24.2349 121.223 22.9697C121.223 21.7045 121.723 20.4911 122.614 19.5965C123.505 18.7018 124.714 18.1992 125.974 18.1992H151.632C152.892 18.1992 154.101 18.7018 154.992 19.5965C155.883 20.4911 156.384 21.7045 156.384 22.9697C156.384 24.2349 155.883 25.4483 154.992 26.3429C154.101 27.2375 152.892 27.7401 151.632 27.7401V27.7401Z" fill="#E6E6E6"/>
<path d="M319.831 27.2626C322.193 27.2626 324.107 25.3404 324.107 22.9692C324.107 20.598 322.193 18.6758 319.831 18.6758C317.469 18.6758 315.555 20.598 315.555 22.9692C315.555 25.3404 317.469 27.2626 319.831 27.2626Z" fill="#E6E6E6"/>
<path d="M333.136 27.2626C335.497 27.2626 337.412 25.3404 337.412 22.9692C337.412 20.598 335.497 18.6758 333.136 18.6758C330.774 18.6758 328.859 20.598 328.859 22.9692C328.859 25.3404 330.774 27.2626 333.136 27.2626Z" fill="#E6E6E6"/>
<path d="M346.44 27.2626C348.802 27.2626 350.717 25.3404 350.717 22.9692C350.717 20.598 348.802 18.6758 346.44 18.6758C344.079 18.6758 342.164 20.598 342.164 22.9692C342.164 25.3404 344.079 27.2626 346.44 27.2626Z" fill="#E6E6E6"/>
<path d="M317.239 311.85H139.787C135.218 311.845 130.838 310.02 127.608 306.777C124.377 303.533 122.56 299.136 122.555 294.549V276.676C122.56 272.089 124.377 267.692 127.608 264.448C130.838 261.205 135.218 259.38 139.787 259.375H317.239C321.807 259.38 326.187 261.205 329.418 264.448C332.649 267.692 334.466 272.089 334.471 276.676V294.549C334.466 299.136 332.649 303.533 329.418 306.777C326.187 310.02 321.807 311.845 317.239 311.85V311.85ZM139.787 261.283C135.722 261.288 131.825 262.911 128.951 265.797C126.077 268.683 124.46 272.595 124.455 276.676V294.549C124.46 298.63 126.077 302.542 128.951 305.428C131.825 308.314 135.722 309.937 139.787 309.942H317.239C321.303 309.937 325.2 308.314 328.075 305.428C330.949 302.543 332.566 298.63 332.57 294.549V276.676C332.566 272.595 330.949 268.683 328.075 265.797C325.2 262.911 321.303 261.288 317.239 261.283H139.787Z" fill="#E6E6E6"/>
<path d="M248.956 360.357H223.298C222.038 360.357 220.83 359.855 219.939 358.96C219.047 358.065 218.547 356.852 218.547 355.587C218.547 354.322 219.047 353.108 219.939 352.214C220.83 351.319 222.038 350.816 223.298 350.816H248.956C250.217 350.816 251.425 351.319 252.316 352.214C253.207 353.108 253.708 354.322 253.708 355.587C253.708 356.852 253.207 358.065 252.316 358.96C251.425 359.855 250.217 360.357 248.956 360.357V360.357Z" fill="#E6E6E6"/>
<path d="M254.851 498.698H217.404C216.492 498.699 215.59 498.52 214.747 498.17C213.905 497.821 213.14 497.308 212.495 496.662C211.85 496.015 211.339 495.247 210.99 494.402C210.641 493.557 210.461 492.651 210.461 491.736C210.461 490.821 210.641 489.915 210.99 489.07C211.339 488.224 211.85 487.456 212.495 486.81C213.14 486.163 213.905 485.651 214.747 485.301C215.59 484.952 216.492 484.772 217.404 484.773H254.851C256.69 484.773 258.454 485.507 259.754 486.813C261.055 488.118 261.785 489.889 261.785 491.736C261.785 493.582 261.055 495.353 259.754 496.659C258.454 497.965 256.69 498.698 254.851 498.698Z" fill="#24BA0E"/>
<path d="M318.137 427.143H140.686C136.117 427.138 131.737 425.313 128.506 422.07C125.276 418.826 123.458 414.429 123.453 409.842V391.969C123.458 387.382 125.276 382.985 128.506 379.741C131.737 376.498 136.117 374.673 140.686 374.668H318.137C322.706 374.673 327.086 376.498 330.316 379.741C333.547 382.985 335.364 387.382 335.369 391.969V409.842C335.364 414.429 333.547 418.826 330.316 422.07C327.086 425.313 322.706 427.138 318.137 427.143V427.143ZM140.686 376.576C136.621 376.581 132.724 378.204 129.849 381.09C126.975 383.976 125.358 387.888 125.354 391.969V409.842C125.358 413.923 126.975 417.835 129.849 420.721C132.724 423.607 136.621 425.23 140.686 425.235H318.137C322.202 425.23 326.099 423.607 328.973 420.721C331.847 417.835 333.464 413.923 333.469 409.842V391.969C333.464 387.888 331.847 383.976 328.973 381.09C326.099 378.204 322.202 376.581 318.137 376.576H140.686Z" fill="#E6E6E6"/>
<path d="M390.828 268.183L257.211 315.613L257.437 316.254L391.054 268.824L390.828 268.183Z" fill="white"/>
<path d="M168.462 542.259C167.916 542.284 167.375 542.14 166.913 541.846C166.451 541.553 166.09 541.123 165.879 540.617C165.667 540.11 165.617 539.55 165.733 539.014C165.849 538.477 166.127 537.989 166.529 537.616L166.712 536.887C166.688 536.828 166.663 536.77 166.639 536.712C166.089 535.406 165.166 534.293 163.988 533.512C162.809 532.732 161.427 532.318 160.015 532.323C158.603 532.328 157.224 532.752 156.051 533.542C154.879 534.332 153.964 535.451 153.423 536.761C151.262 541.988 148.51 547.223 147.833 552.749C147.534 555.192 147.66 557.668 148.205 560.068C143.128 548.949 140.492 536.865 140.475 524.634C140.474 521.565 140.644 518.498 140.983 515.448C141.264 512.947 141.654 510.465 142.153 508C144.874 494.625 150.716 482.09 159.199 471.422C163.305 469.173 166.626 465.714 168.714 461.512C169.47 460.001 170.005 458.389 170.301 456.724C169.837 456.785 168.554 449.703 168.904 449.269C168.258 448.285 167.103 447.796 166.398 446.837C162.892 442.064 158.061 442.898 155.54 449.383C150.153 452.113 150.1 456.64 153.406 460.993C155.509 463.763 155.798 467.511 157.643 470.477C157.453 470.721 157.256 470.957 157.066 471.201C153.596 475.681 150.571 480.492 148.036 485.564C148.652 479.882 147.917 474.133 145.889 468.792C143.834 463.815 139.981 459.622 136.589 455.319C132.514 450.15 124.159 452.406 123.441 458.958C123.434 459.022 123.427 459.085 123.421 459.149C123.925 459.434 124.418 459.737 124.9 460.057C125.507 460.464 125.976 461.045 126.248 461.724C126.52 462.404 126.581 463.149 126.423 463.864C126.265 464.579 125.896 465.229 125.364 465.73C124.832 466.23 124.162 466.558 123.441 466.669L123.368 466.68C123.547 468.504 123.864 470.311 124.317 472.086C119.965 488.983 129.36 495.137 142.776 495.413C143.072 495.566 143.36 495.718 143.656 495.863C141.109 503.111 139.511 510.66 138.903 518.322C138.559 522.842 138.579 527.382 138.964 531.899L138.941 531.739C137.969 526.717 135.3 522.185 131.386 518.909C125.572 514.114 117.357 512.348 111.085 508.493C110.418 508.064 109.643 507.834 108.851 507.833C108.059 507.831 107.283 508.056 106.614 508.483C105.945 508.909 105.412 509.519 105.077 510.239C104.742 510.96 104.619 511.762 104.723 512.55C104.732 512.606 104.74 512.662 104.749 512.719C105.684 513.101 106.595 513.541 107.475 514.037C107.979 514.323 108.472 514.626 108.955 514.946C109.561 515.353 110.031 515.934 110.302 516.613C110.574 517.292 110.635 518.038 110.477 518.753C110.32 519.468 109.951 520.118 109.419 520.618C108.887 521.119 108.216 521.446 107.496 521.558L107.422 521.569C107.369 521.577 107.323 521.585 107.27 521.592C108.868 525.422 111.11 528.947 113.899 532.013C116.62 546.764 128.307 548.163 140.809 543.868H140.816C142.188 549.852 144.176 555.678 146.747 561.249H167.932C168.008 561.013 168.076 560.769 168.144 560.533C166.183 560.657 164.215 560.539 162.282 560.182C163.854 558.246 165.426 556.294 166.998 554.358C167.033 554.322 167.066 554.283 167.096 554.243C167.894 553.252 168.698 552.269 169.496 551.278L169.496 551.277C169.539 548.239 169.191 545.208 168.463 542.259L168.462 542.259Z" fill="#F2F2F2"/>
<path d="M239.088 226.542C274.44 226.542 303.098 197.878 303.098 162.519C303.098 127.16 274.44 98.4961 239.088 98.4961C203.736 98.4961 175.078 127.16 175.078 162.519C175.078 197.878 203.736 226.542 239.088 226.542Z" fill="#24BA0E"/>
<path d="M232.746 186.943C231.306 186.945 229.904 186.479 228.752 185.615L228.68 185.561L213.637 174.051C212.941 173.517 212.356 172.851 211.917 172.091C211.477 171.33 211.192 170.491 211.077 169.621C210.962 168.75 211.02 167.865 211.247 167.017C211.473 166.169 211.865 165.374 212.399 164.677C212.933 163.98 213.599 163.395 214.36 162.956C215.12 162.516 215.959 162.231 216.829 162.116C217.7 162.001 218.584 162.059 219.432 162.286C220.28 162.513 221.075 162.904 221.772 163.439L231.516 170.912L254.541 140.867C255.075 140.171 255.74 139.586 256.5 139.147C257.26 138.708 258.099 138.422 258.969 138.308C259.839 138.193 260.723 138.25 261.571 138.477C262.418 138.704 263.213 139.095 263.91 139.629L263.912 139.631L263.769 139.829L263.915 139.631C265.32 140.711 266.24 142.304 266.471 144.062C266.703 145.819 266.228 147.596 265.151 149.004L238.069 184.327C237.442 185.141 236.637 185.8 235.715 186.252C234.793 186.704 233.779 186.938 232.752 186.935L232.746 186.943Z" fill="white"/>
<path d="M239.241 694.227C364.151 694.227 465.411 635.764 465.411 563.646C465.411 491.529 364.151 433.066 239.241 433.066C114.33 433.066 13.0703 491.529 13.0703 563.646C13.0703 635.764 114.33 694.227 239.241 694.227Z" fill="#F5F5F5"/>
<path d="M403.152 528.472L354.339 500.251C353.533 499.84 352.649 499.606 351.745 499.565C350.842 499.524 349.94 499.676 349.1 500.012L294.493 525.231C293.012 525.91 292.964 527.143 294.369 527.946L355.228 563.079C356.002 563.475 356.866 563.659 357.734 563.613C358.602 563.568 359.442 563.295 360.171 562.821L403.315 531.656C403.611 531.499 403.855 531.261 404.02 530.97C404.186 530.679 404.264 530.346 404.247 530.012C404.23 529.678 404.118 529.355 403.924 529.083C403.73 528.81 403.462 528.598 403.152 528.472V528.472Z" fill="#E0E0E0"/>
<path d="M74.1077 528.472L122.921 500.251C123.727 499.84 124.611 499.606 125.515 499.565C126.418 499.524 127.32 499.676 128.16 500.012L182.767 525.231C184.248 525.91 184.296 527.143 182.891 527.946L122.042 563.079C121.266 563.474 120.4 563.659 119.531 563.613C118.662 563.568 117.82 563.295 117.089 562.821L73.9452 531.656C73.6528 531.496 73.4114 531.257 73.2487 530.967C73.086 530.676 73.0088 530.345 73.0257 530.013C73.0427 529.68 73.1533 529.359 73.3447 529.087C73.5361 528.814 73.8006 528.601 74.1077 528.472Z" fill="#E0E0E0"/>
<path d="M77.7681 590.499L232.306 679.483C233.062 679.87 233.899 680.072 234.748 680.072C235.597 680.072 236.435 679.87 237.191 679.483L395.428 588.061C396.785 587.287 396.785 586.025 395.428 585.193L240.91 496.256C240.15 495.875 239.312 495.676 238.462 495.676C237.612 495.676 236.774 495.875 236.015 496.256L77.7681 587.679C76.4106 588.453 76.4106 589.724 77.7681 590.499Z" fill="#E0E0E0"/>
<path d="M341.042 347.896C337.992 348.116 330.201 347.236 325.555 352.991C320.631 359.072 303.653 383.583 303.653 383.583L286.693 358.422L267.898 348.45C268.615 357.265 291.034 395.151 294.427 399.769C297.821 404.386 301.674 408.373 309.035 402.273C316.396 396.174 333.327 372.857 333.327 372.857C333.327 372.857 344.092 347.676 341.042 347.896Z" fill="#FFA8A7"/>
<path d="M342.935 347.439C342.935 347.439 333.662 346.234 328.423 349.676C323.184 353.117 308.672 374.943 308.672 374.943C308.672 374.943 309.924 385.564 322.381 388.652L340.048 365.373L342.935 347.439Z" fill="#455A64"/>
<path d="M275.077 352.15C281.091 348.679 290.851 348.679 296.874 352.15C299.876 353.89 301.377 356.155 301.377 358.431V361.299C301.377 363.583 299.886 365.859 296.874 367.599C290.851 371.078 281.091 371.078 275.077 367.599C272.066 365.868 270.575 363.593 270.575 361.327V358.392C270.546 356.165 272.066 353.89 275.077 352.15Z" fill="#FFBDA7"/>
<path d="M296.877 364.74C290.854 368.21 281.093 368.21 275.08 364.74C269.067 361.27 269.057 355.629 275.08 352.149C281.103 348.669 290.854 348.679 296.877 352.149C302.9 355.62 302.9 361.26 296.877 364.74Z" fill="#F0997A"/>
<path d="M275.077 348.489C281.091 345.019 290.851 345.019 296.874 348.489C299.876 350.229 301.377 352.495 301.377 354.77V357.686C301.377 359.971 299.886 362.246 296.874 363.986C290.851 367.466 281.091 367.466 275.077 363.986C272.066 362.256 270.575 359.981 270.575 357.715V354.78C270.546 352.505 272.066 350.229 275.077 348.489Z" fill="#B16668"/>
<path d="M296.877 361.08C290.854 364.559 281.093 364.559 275.08 361.08C269.067 357.6 269.057 351.969 275.08 348.489C281.103 345.009 290.854 345.019 296.877 348.489C302.9 351.959 302.9 357.6 296.877 361.08Z" fill="#9A4A4D"/>
<path d="M275.051 351.508H296.905C299.333 355.064 299.333 360.724 299.333 361.833C299.333 362.942 299.209 363.649 297.421 363.247C289.921 361.425 282.092 361.425 274.592 363.247C272.775 363.649 272.68 362.942 272.68 361.833C272.68 360.724 272.613 355.064 275.051 351.508Z" fill="#F0F0F0"/>
<path d="M298.798 359.445C298.327 360.251 297.558 360.842 296.657 361.089C295.787 361.309 294.869 361.232 293.98 361.366C292.154 361.643 290.921 362.886 289.276 363.546C288.583 363.827 287.834 363.944 287.087 363.89C286.255 363.813 285.441 363.6 284.678 363.259C283.445 362.771 282.25 362.15 280.978 361.768C279.984 361.441 278.927 361.349 277.89 361.5C277.037 361.684 276.147 361.593 275.347 361.242C273.827 360.525 273.311 358.555 271.935 357.599C270.845 356.835 269.248 356.701 268.608 355.544C268.41 355.109 268.345 354.626 268.422 354.155C268.498 353.684 268.713 353.246 269.038 352.896C269.695 352.206 270.523 351.701 271.437 351.433C273.118 350.871 274.862 350.514 276.628 350.372C280.596 349.971 284.573 349.732 288.559 349.626C292.546 349.521 296.303 349.397 300.117 350.582C300.996 350.822 301.82 351.227 302.546 351.777C302.903 352.062 303.189 352.426 303.38 352.841C303.571 353.257 303.662 353.711 303.645 354.167C303.541 354.588 303.351 354.982 303.086 355.324C302.821 355.667 302.487 355.95 302.106 356.156C301.647 356.471 301.15 356.682 300.662 357.026C299.913 357.725 299.283 358.542 298.798 359.445V359.445Z" fill="#DFDAFF"/>
<path d="M270.059 350.162C270.048 350.121 270.048 350.078 270.059 350.037C271.465 344.655 278.042 340.602 285.929 340.602C293.816 340.602 300.412 344.655 301.818 350.037C301.829 350.078 301.829 350.121 301.818 350.162C302.003 350.752 302.087 351.369 302.066 351.988C301.999 354.33 300.422 356.653 297.334 358.421C291.015 362.064 280.786 362.064 274.467 358.421C271.388 356.653 269.801 354.33 269.734 351.988C269.738 351.365 269.848 350.747 270.059 350.162V350.162Z" fill="#FFBDA7"/>
<path d="M273.464 344.815L283.129 343.133C283.129 343.133 289.553 345.36 289.62 345.475C289.687 345.59 293.071 347.683 293.071 347.683C293.655 348.18 292.851 349.462 291.685 349.595C290.998 349.642 290.308 349.642 289.62 349.595C289.62 349.595 287.584 351.67 283.005 352.052C278.425 352.435 275.242 350.465 273.502 349.892C272.058 349.414 271.16 349.07 270.328 349.318C270.968 347.572 272.048 346.021 273.464 344.815V344.815Z" fill="#F0997A"/>
<path d="M273.319 355.6C277.344 358.669 287.659 359.682 294.112 356.422C300.565 353.162 300.804 347.656 298.797 345.094C300.258 346.404 301.319 348.101 301.856 349.988C301.867 350.029 301.867 350.072 301.856 350.113C302.042 350.703 302.126 351.32 302.105 351.939C302.038 354.281 300.46 356.604 297.372 358.373C291.053 362.015 280.824 362.015 274.505 358.373C271.427 356.604 269.84 354.281 269.773 351.939C269.752 351.32 269.836 350.703 270.021 350.113C270.021 350.113 269.811 352.923 273.319 355.6Z" fill="#F0997A"/>
<path d="M269.849 351.119C267.937 351.692 267.755 347.505 267.841 347.017C268.009 345.951 268.48 344.955 269.199 344.149C271.369 341.683 273.587 341.492 276.197 339.761C277.047 339.088 278.022 338.588 279.065 338.289C280.136 338.3 281.192 338.541 282.162 338.997C285.986 340.813 292.678 346.224 292.296 345.908C292.636 346.18 292.956 346.477 293.252 346.797C293.634 347.314 293.099 347.945 292.726 348.193C292.228 348.51 291.67 348.717 291.087 348.803C290.504 348.889 289.909 348.85 289.342 348.69C287.631 349.797 285.694 350.503 283.672 350.755C281.294 351.191 278.842 351 276.56 350.201C272.038 348.337 270.594 347.601 269.849 351.119Z" fill="#FFA8A7"/>
<path d="M390.047 458.38V529.172C390.064 529.484 390.154 529.788 390.31 530.059C390.466 530.329 390.684 530.559 390.946 530.73L393.364 532.116C393.641 532.257 393.947 532.331 394.258 532.331C394.569 532.331 394.875 532.257 395.152 532.116L397.571 530.73C397.832 530.559 398.05 530.329 398.206 530.059C398.362 529.788 398.452 529.484 398.469 529.172V458.38C398.469 458.244 398.442 458.109 398.39 457.983C398.337 457.857 398.26 457.743 398.163 457.647C398.067 457.551 397.952 457.475 397.825 457.424C397.699 457.372 397.564 457.346 397.427 457.348H391.089C390.953 457.346 390.817 457.372 390.691 457.424C390.565 457.475 390.45 457.551 390.353 457.647C390.256 457.743 390.179 457.857 390.126 457.983C390.074 458.109 390.047 458.244 390.047 458.38V458.38Z" fill="#DFDAFF"/>
<path opacity="0.6" d="M390.047 458.38V529.172C390.064 529.484 390.154 529.788 390.31 530.059C390.466 530.329 390.684 530.559 390.946 530.73L393.364 532.116C393.641 532.257 393.947 532.331 394.258 532.331C394.569 532.331 394.875 532.257 395.152 532.116L397.571 530.73C397.832 530.559 398.05 530.329 398.206 530.059C398.362 529.788 398.452 529.484 398.469 529.172V458.38C398.469 458.244 398.442 458.109 398.39 457.983C398.337 457.857 398.26 457.743 398.163 457.647C398.067 457.551 397.952 457.475 397.825 457.424C397.699 457.372 397.564 457.346 397.427 457.348H391.089C390.953 457.346 390.817 457.372 390.691 457.424C390.565 457.475 390.45 457.551 390.353 457.647C390.256 457.743 390.179 457.857 390.126 457.983C390.074 458.109 390.047 458.244 390.047 458.38V458.38Z" fill="black"/>
<path d="M397.408 457.348H395.276C395.14 457.346 395.005 457.372 394.878 457.424C394.752 457.475 394.637 457.551 394.54 457.647C394.443 457.743 394.366 457.857 394.314 457.983C394.261 458.109 394.234 458.244 394.234 458.38V531.6C394.234 532.174 394.636 532.403 395.123 532.116L397.542 530.73C397.804 530.559 398.022 530.329 398.178 530.059C398.334 529.788 398.424 529.484 398.441 529.172V458.38C398.441 458.106 398.332 457.844 398.138 457.65C397.945 457.456 397.682 457.348 397.408 457.348V457.348Z" fill="#DFDAFF"/>
<path opacity="0.4" d="M397.408 457.348H395.276C395.14 457.346 395.005 457.372 394.878 457.424C394.752 457.475 394.637 457.551 394.54 457.647C394.443 457.743 394.366 457.857 394.314 457.983C394.261 458.109 394.234 458.244 394.234 458.38V531.6C394.234 532.174 394.636 532.403 395.123 532.116L397.542 530.73C397.804 530.559 398.022 530.329 398.178 530.059C398.334 529.788 398.424 529.484 398.441 529.172V458.38C398.441 458.106 398.332 457.844 398.138 457.65C397.945 457.456 397.682 457.348 397.408 457.348V457.348Z" fill="black"/>
<path d="M349.41 481.745V552.537C349.422 552.849 349.51 553.153 349.667 553.423C349.824 553.693 350.044 553.92 350.309 554.086L352.718 555.481C352.996 555.623 353.304 555.696 353.617 555.696C353.929 555.696 354.237 555.623 354.515 555.481L356.924 554.086C357.189 553.92 357.41 553.693 357.566 553.423C357.723 553.153 357.811 552.849 357.823 552.537V481.745C357.824 481.609 357.798 481.473 357.747 481.347C357.696 481.221 357.62 481.106 357.524 481.009C357.428 480.912 357.314 480.835 357.188 480.783C357.062 480.73 356.927 480.703 356.79 480.703H350.443C350.168 480.706 349.905 480.817 349.712 481.012C349.519 481.207 349.41 481.47 349.41 481.745V481.745Z" fill="#DFDAFF"/>
<path opacity="0.6" d="M349.41 481.745V552.537C349.422 552.849 349.51 553.153 349.667 553.423C349.824 553.693 350.044 553.92 350.309 554.086L352.718 555.481C352.996 555.623 353.304 555.696 353.617 555.696C353.929 555.696 354.237 555.623 354.515 555.481L356.924 554.086C357.189 553.92 357.41 553.693 357.566 553.423C357.723 553.153 357.811 552.849 357.823 552.537V481.745C357.824 481.609 357.798 481.473 357.747 481.347C357.696 481.221 357.62 481.106 357.524 481.009C357.428 480.912 357.314 480.835 357.188 480.783C357.062 480.73 356.927 480.703 356.79 480.703H350.443C350.168 480.706 349.905 480.817 349.712 481.012C349.519 481.207 349.41 481.47 349.41 481.745V481.745Z" fill="black"/>
<path d="M356.788 480.703H354.675C354.538 480.703 354.403 480.73 354.276 480.783C354.15 480.835 354.035 480.912 353.938 481.009C353.841 481.105 353.765 481.22 353.712 481.347C353.66 481.473 353.633 481.608 353.633 481.745V554.965C353.633 555.539 354.034 555.768 354.531 555.482L356.941 554.086C357.205 553.921 357.426 553.693 357.582 553.423C357.739 553.153 357.827 552.849 357.839 552.537V481.745C357.841 481.607 357.814 481.47 357.762 481.343C357.709 481.215 357.632 481.099 357.534 481.002C357.435 480.905 357.319 480.829 357.191 480.777C357.063 480.726 356.926 480.701 356.788 480.703V480.703Z" fill="#DFDAFF"/>
<path opacity="0.4" d="M356.788 480.703H354.675C354.538 480.703 354.403 480.73 354.276 480.783C354.15 480.835 354.035 480.912 353.938 481.009C353.841 481.105 353.765 481.22 353.712 481.347C353.66 481.473 353.633 481.608 353.633 481.745V554.965C353.633 555.539 354.034 555.768 354.531 555.482L356.941 554.086C357.205 553.921 357.426 553.693 357.582 553.423C357.739 553.153 357.827 552.849 357.839 552.537V481.745C357.841 481.607 357.814 481.47 357.762 481.343C357.709 481.215 357.632 481.099 357.534 481.002C357.435 480.905 357.319 480.829 357.191 480.777C357.063 480.726 356.926 480.701 356.788 480.703V480.703Z" fill="black"/>
<path d="M352.103 429.777C352.22 430.774 351.939 431.778 351.322 432.57C350.705 433.362 349.801 433.88 348.805 434.012H348.336C347.413 434.006 346.522 433.665 345.83 433.054C345.137 432.442 344.69 431.601 344.57 430.685C342.381 413.209 345.526 374.118 352.973 352.092C353.738 349.826 355.927 349.329 357.992 350.524C359.569 351.48 360.717 352.819 360.114 354.539C352.954 375.256 350 412.941 352.103 429.777Z" fill="#455A64"/>
<path d="M396.139 439.833C396.396 439.834 396.651 439.792 396.894 439.709C397.196 439.61 397.476 439.453 397.716 439.246C397.957 439.04 398.155 438.787 398.298 438.504C398.441 438.22 398.527 437.912 398.55 437.595C398.573 437.278 398.534 436.96 398.434 436.659C392.831 419.633 365.308 404.49 347.536 404.49C347.191 404.436 346.839 404.458 346.503 404.553C346.167 404.649 345.856 404.816 345.591 405.043C345.326 405.27 345.113 405.552 344.968 405.869C344.822 406.186 344.746 406.531 344.746 406.88C344.746 407.229 344.822 407.574 344.968 407.891C345.113 408.208 345.326 408.489 345.591 408.716C345.856 408.944 346.167 409.111 346.503 409.206C346.839 409.302 347.191 409.323 347.536 409.27C363.616 409.27 388.96 423.265 393.845 438.122C393.997 438.613 394.301 439.044 394.713 439.351C395.125 439.659 395.625 439.828 396.139 439.833V439.833Z" fill="#DFDAFF"/>
<path d="M398.739 417.761C398.996 417.761 399.251 417.719 399.495 417.636C400.103 417.435 400.606 417.001 400.895 416.43C401.183 415.858 401.233 415.195 401.034 414.587C395.212 396.901 366.857 382.589 349.161 384.406C348.582 384.534 348.069 384.871 347.722 385.353C347.375 385.834 347.217 386.427 347.279 387.017C347.34 387.608 347.616 388.155 348.055 388.555C348.494 388.955 349.065 389.179 349.658 389.186C365.337 387.589 391.34 400.572 396.445 416.069C396.596 416.559 396.901 416.988 397.314 417.292C397.727 417.597 398.226 417.761 398.739 417.761V417.761Z" fill="#DFDAFF"/>
<path d="M404.112 400.265C404.441 400.263 404.766 400.194 405.068 400.064C405.654 399.807 406.115 399.327 406.348 398.73C406.581 398.133 406.567 397.468 406.31 396.881C397.984 377.914 368.357 362.341 352.335 364.568C351.734 364.694 351.203 365.043 350.85 365.544C350.497 366.046 350.348 366.664 350.434 367.271C350.519 367.879 350.831 368.431 351.309 368.817C351.786 369.203 352.392 369.393 353.004 369.348C367.162 367.379 394.437 381.872 401.884 398.812C402.074 399.245 402.386 399.613 402.781 399.871C403.177 400.129 403.639 400.266 404.112 400.265V400.265Z" fill="#DFDAFF"/>
<g opacity="0.6">
<path d="M396.139 439.833C396.396 439.834 396.651 439.792 396.894 439.709C397.196 439.61 397.476 439.453 397.716 439.246C397.957 439.04 398.155 438.787 398.298 438.504C398.441 438.22 398.527 437.912 398.55 437.595C398.573 437.278 398.534 436.96 398.434 436.659C392.831 419.633 365.308 404.49 347.536 404.49C347.191 404.436 346.839 404.458 346.503 404.553C346.167 404.649 345.856 404.816 345.591 405.043C345.326 405.27 345.113 405.552 344.968 405.869C344.822 406.186 344.746 406.531 344.746 406.88C344.746 407.229 344.822 407.574 344.968 407.891C345.113 408.208 345.326 408.489 345.591 408.716C345.856 408.944 346.167 409.111 346.503 409.206C346.839 409.302 347.191 409.323 347.536 409.27C363.616 409.27 388.96 423.265 393.845 438.122C393.997 438.613 394.301 439.044 394.713 439.351C395.125 439.659 395.625 439.828 396.139 439.833V439.833Z" fill="black"/>
</g>
<g opacity="0.6">
<path d="M398.739 417.761C398.996 417.761 399.251 417.719 399.495 417.636C400.103 417.435 400.606 417.001 400.895 416.43C401.183 415.858 401.233 415.195 401.034 414.587C395.212 396.901 366.857 382.589 349.161 384.406C348.582 384.534 348.069 384.871 347.722 385.353C347.375 385.834 347.217 386.427 347.279 387.017C347.34 387.608 347.616 388.155 348.055 388.555C348.494 388.955 349.065 389.179 349.658 389.186C365.337 387.589 391.34 400.572 396.445 416.069C396.596 416.559 396.901 416.988 397.314 417.292C397.727 417.597 398.226 417.761 398.739 417.761V417.761Z" fill="black"/>
</g>
<g opacity="0.6">
<path d="M404.112 400.265C404.441 400.263 404.766 400.194 405.068 400.064C405.654 399.807 406.115 399.327 406.348 398.73C406.581 398.133 406.567 397.468 406.31 396.881C397.984 377.914 368.357 362.341 352.335 364.568C351.734 364.694 351.203 365.043 350.85 365.544C350.497 366.046 350.348 366.664 350.434 367.271C350.519 367.879 350.831 368.431 351.309 368.817C351.786 369.203 352.392 369.393 353.004 369.348C367.162 367.379 394.437 381.872 401.884 398.812C402.074 399.245 402.386 399.613 402.781 399.871C403.177 400.129 403.639 400.266 404.112 400.265V400.265Z" fill="black"/>
</g>
<path d="M410.259 379.97C411.052 380.444 411.647 381.19 411.934 382.068C412.22 382.947 412.179 383.9 411.817 384.75C403.089 405.142 398.49 430.065 398.49 457.349V461.058L398.204 461.355C398.055 461.508 397.877 461.629 397.679 461.709C397.482 461.79 397.27 461.829 397.056 461.823C396.509 461.792 395.971 461.663 395.469 461.441C395.218 461.338 394.959 461.255 394.695 461.192C393.681 461.192 392.708 460.789 391.991 460.072C391.274 459.355 390.871 458.382 390.871 457.368C390.871 429.071 395.651 403.125 404.829 381.768C405.042 381.276 405.356 380.834 405.752 380.471C406.147 380.109 406.614 379.833 407.122 379.663C407.631 379.493 408.169 379.431 408.703 379.482C409.237 379.534 409.754 379.697 410.221 379.961L410.259 379.97Z" fill="#DFDAFF"/>
<path opacity="0.4" d="M410.259 379.97C411.052 380.444 411.647 381.19 411.934 382.068C412.22 382.947 412.179 383.9 411.817 384.75C403.089 405.142 398.49 430.065 398.49 457.349V461.058L398.204 461.355C398.055 461.508 397.877 461.629 397.679 461.709C397.482 461.79 397.27 461.829 397.056 461.823C396.509 461.792 395.971 461.663 395.469 461.441C395.218 461.338 394.959 461.255 394.695 461.192C393.681 461.192 392.708 460.789 391.991 460.072C391.274 459.355 390.871 458.382 390.871 457.368C390.871 429.071 395.651 403.125 404.829 381.768C405.042 381.276 405.356 380.834 405.752 380.471C406.147 380.109 406.614 379.833 407.122 379.663C407.631 379.493 408.169 379.431 408.703 379.482C409.237 379.534 409.754 379.697 410.221 379.961L410.259 379.97Z" fill="black"/>
<path d="M398.451 460.102V461.058C398.404 461.906 398.18 462.735 397.793 463.491C397.406 464.247 396.865 464.913 396.204 465.446L355.851 494.614C355.17 495.059 354.383 495.315 353.57 495.357C352.757 495.399 351.948 495.225 351.224 494.853L294.304 462.014C293.608 461.559 293.029 460.946 292.613 460.225C292.198 459.505 291.959 458.696 291.914 457.865V456.909C291.956 456.094 292.209 455.303 292.648 454.614C293.087 453.926 293.697 453.363 294.419 452.98L345.498 429.396C346.284 429.083 347.128 428.941 347.974 428.979C348.819 429.017 349.647 429.234 350.402 429.616L396.051 456.001C396.744 456.45 397.322 457.054 397.739 457.766C398.155 458.479 398.399 459.279 398.451 460.102V460.102Z" fill="#DFDAFF"/>
<path opacity="0.4" d="M398.451 460.102V461.058C398.404 461.906 398.18 462.735 397.793 463.491C397.406 464.247 396.865 464.913 396.204 465.446L355.851 494.614C355.17 495.059 354.383 495.315 353.57 495.357C352.757 495.399 351.948 495.225 351.224 494.853L294.304 462.014C293.608 461.559 293.029 460.946 292.613 460.225C292.198 459.505 291.959 458.696 291.914 457.865V456.909C291.956 456.094 292.209 455.303 292.648 454.614C293.087 453.926 293.697 453.363 294.419 452.98L345.498 429.396C346.284 429.083 347.128 428.941 347.974 428.979C348.819 429.017 349.647 429.234 350.402 429.616L396.051 456.001C396.744 456.45 397.322 457.054 397.739 457.766C398.155 458.479 398.399 459.279 398.451 460.102V460.102Z" fill="black"/>
<path d="M396.052 455.989L350.403 429.604C349.648 429.222 348.82 429.005 347.974 428.967C347.129 428.929 346.285 429.071 345.499 429.384L294.448 452.968C293.072 453.609 293.014 454.747 294.334 455.511L351.254 488.369C351.977 488.741 352.786 488.915 353.598 488.875C354.41 488.835 355.198 488.581 355.881 488.14L396.234 458.991C396.513 458.842 396.744 458.616 396.899 458.34C397.053 458.063 397.125 457.748 397.106 457.432C397.087 457.116 396.978 456.812 396.791 456.556C396.604 456.3 396.347 456.104 396.052 455.989V455.989Z" fill="#DFDAFF"/>
<path d="M333.949 539.078H322.754V558.552H333.949V539.078Z" fill="#FFA8A7"/>
<path d="M289.876 544.698L278.203 545.319L278.48 542.967L278.576 541.218L279.656 524.105L292.381 524.545L290.574 541.629L290.449 542.939L289.876 544.698Z" fill="#FFA8A7"/>
<path d="M322.782 555.474V554.518C321.339 554.518 316.214 565.359 311.31 569.814C307.41 573.379 300.555 578.245 300.718 581.62C300.928 585.97 307.142 587.901 312.496 586.649C316.683 585.693 322.658 583.131 325.526 580.033C328.394 576.936 329.35 572.873 330.822 570.846C332.294 568.819 335.774 566.554 336.558 564.211C336.998 562.921 336.472 560.101 335.841 557.72C335.277 555.531 334.656 553.131 333.929 553.332V554.68C333.04 555.636 330.554 556.669 327.753 556.774C325.937 556.85 322.763 556.86 322.782 555.474Z" fill="#263238"/>
<path d="M278.587 541.219C277.995 541.219 277.44 541.964 276.016 543.255C274.285 544.804 270.624 546.266 267.976 547.299C263.54 549.029 252.173 550.865 248.282 552.203C245.854 553.044 246.112 556.716 249.238 559.058C251.561 560.798 259.276 562.987 266.446 562.06C270.337 561.562 276.369 559.45 279.247 559.258C282.392 559.058 288.157 558.981 290.614 557.595C293.071 556.209 292.468 552.719 292.076 549.737C291.656 546.467 291.694 541.515 290.623 541.63L290.499 542.949C288.941 544.861 281.388 544.766 278.53 542.949L278.587 541.219Z" fill="#263238"/>
<path d="M379.721 434.519C382.216 452.1 378.851 455.474 362.14 472.319C353.164 481.373 333.68 496.898 333.68 496.898C333.68 496.898 336.902 503.915 337.026 516.506C337.131 527.595 334.416 548.818 334.416 548.818C334.416 548.818 327.648 552.595 322.466 549.296C322.466 549.296 310.43 490.98 311.406 486.927C312.084 484.059 333.394 456.555 333.394 456.555L339.378 452.731L300.698 476.564C300.698 476.564 301.874 487.233 301.081 494.049C299.436 508.198 295.632 517.299 291.721 535.157C291.721 535.157 282.487 536.658 278.385 533.465C278.385 533.465 278.137 472.338 278.137 466.947C278.137 458.744 313.748 434.261 320.488 428.563C324.312 425.313 328.623 421.871 328.623 421.871L379.721 434.519Z" fill="#455A64"/>
<path d="M369.809 432.062C369.561 442.502 366.941 452.062 357.821 461.593C344.016 476.077 321.761 487.233 322.755 493.61C323.749 499.986 329.026 516.821 330.202 534.154C330.537 538.982 330.68 544.612 330.718 550.215C332.002 549.894 333.243 549.426 334.418 548.819C334.418 548.819 337.133 527.596 337.028 516.506C336.904 503.915 333.682 496.898 333.682 496.898C333.682 496.898 353.165 481.373 362.142 472.32C378.853 455.475 382.218 452.1 379.723 434.519L369.809 432.062Z" fill="#37474F"/>
<path d="M339.378 452.759C333.97 449.028 329.675 443.9 326.95 437.922C326.95 437.922 327.495 445.694 330.392 450.226C332.562 453.619 300.66 476.592 300.66 476.592L339.378 452.759Z" fill="#263238"/>
<path d="M363.541 347.946C364.067 348.08 376.313 350.212 376.313 350.212C381.514 351.397 378.847 351.923 381.81 352.927L380.854 389.991L380.635 437.906C372.575 446.682 332.022 442.686 327.051 424.034V367.955C327.051 358.988 332.032 348.223 345.779 347.43L363.541 347.946Z" fill="#F0F0F0"/>
<g filter="url(#filter0_f_1508_7882)">
<path d="M363.541 347.946C364.067 348.08 376.313 350.212 376.313 350.212C381.514 351.397 378.847 351.923 381.81 352.927L380.854 389.991L380.635 437.906C372.575 446.682 332.022 442.686 327.051 424.034V367.955C327.051 358.988 332.032 348.223 345.779 347.43L363.541 347.946Z" fill="black" fill-opacity="0.2"/>
</g>
<path opacity="0.1" d="M380.721 438.134L380.94 390.219L381.667 361.97L370.816 357.926C368.082 366.683 371.639 384.369 373.531 392.418C375.424 400.468 374.009 419.186 369.822 424.157C365.635 429.129 341.343 441.767 327.137 424.263C332.108 442.914 372.661 446.91 380.721 438.134Z" fill="black"/>
<path d="M350.837 427.816C360.397 424.786 385.779 409.308 385.779 409.308L374.039 372.856C374.039 372.856 372.299 356.68 376.4 350.438C385.205 351.116 388.216 355.667 389.67 362.187C391.123 368.707 404.688 410.943 403.656 415.187C402.7 419.203 369.154 436.334 356.152 438.409C356.152 438.409 343.332 430.197 350.837 427.816Z" fill="#FFA8A7"/>
<path d="M373.3 349.893C373.3 349.893 369.639 354.921 371.207 364.176C372.321 370.485 373.866 376.71 375.834 382.808C377.899 389.576 381.885 401.727 381.885 401.727C381.885 401.727 393.032 403.897 400.948 392.76C400.948 392.76 396.168 375.064 392.277 364.845C387.554 352.407 382.889 349.692 373.3 349.893Z" fill="#455A64"/>
<path d="M354.805 413.477H331.383L333.161 441.076C333.276 442.032 334.213 443.074 336.029 443.839C340.571 445.474 345.54 445.474 350.082 443.839C351.937 443.074 352.95 442.08 353.017 441.076L354.805 413.477Z" fill="#FAFAFA"/>
<path d="M331.352 413.505L331.715 419.107C332.314 419.523 332.955 419.876 333.627 420.159C338.694 422.253 347.011 422.253 352.288 420.159C352.517 420.063 352.709 419.968 352.909 419.872C353.419 419.634 353.911 419.359 354.382 419.05L354.735 413.477L331.352 413.505Z" fill="#E0E0E0"/>
<path d="M355.194 414.416V410.534H352.69C352.355 410.362 351.982 410.19 351.581 410.028C346.801 408.116 339.086 408.116 334.43 410.028C334.038 410.19 333.694 410.362 333.369 410.534H330.902V414.416C330.902 415.678 332.069 416.94 334.401 417.905C339.057 419.817 346.734 419.817 351.552 417.905C353.99 416.94 355.194 415.659 355.194 414.416Z" fill="#37474F"/>
<path d="M351.584 407.051C346.804 405.139 339.089 405.139 334.433 407.051C329.777 408.963 329.768 412.108 334.433 414.03C339.098 415.952 346.765 415.942 351.584 414.03C356.402 412.118 356.402 408.963 351.584 407.051Z" fill="#455A64"/>
<path d="M352.098 409.442L351.142 406.852H334.995L334.039 409.442C333.676 410.446 334.517 411.507 336.582 412.31C340.78 413.63 345.281 413.63 349.479 412.31C351.601 411.507 352.471 410.446 352.098 409.442Z" fill="#37474F"/>
<path d="M348.763 405.045C345.029 403.871 341.024 403.871 337.291 405.045C334.174 406.221 334.174 408.114 337.291 409.289C341.026 410.456 345.027 410.456 348.763 409.289C351.984 408.114 351.984 406.221 348.763 405.045Z" fill="#455A64"/>
<path d="M350.023 407.168C350.023 407.168 349.937 407.368 349.669 407.569C349.261 407.855 348.813 408.08 348.341 408.238C346.6 408.805 344.779 409.079 342.949 409.051C341.147 409.087 339.353 408.815 337.643 408.248C337.183 408.09 336.751 407.861 336.362 407.569C336.104 407.359 336.027 407.206 336.027 407.168C336.027 407.129 336.305 406.594 337.643 406.087C339.353 405.52 341.147 405.249 342.949 405.284C344.779 405.251 346.602 405.526 348.341 406.097C349.717 406.575 350.023 407.053 350.023 407.168Z" fill="#37474F"/>
<path d="M349.71 407.57C349.301 407.856 348.854 408.082 348.381 408.24C346.641 408.806 344.819 409.081 342.989 409.052C341.188 409.088 339.393 408.816 337.683 408.249C337.224 408.091 336.791 407.862 336.402 407.57C336.792 407.283 337.224 407.057 337.683 406.901C339.393 406.33 341.187 406.055 342.989 406.089C344.819 406.06 346.641 406.335 348.381 406.901C348.854 407.059 349.301 407.285 349.71 407.57V407.57Z" fill="#263238"/>
<path d="M346.477 407.647C346.661 407.523 346.869 407.437 347.087 407.394C347.306 407.351 347.531 407.353 347.748 407.399C347.987 407.533 347.796 407.858 347.328 408.135C347.144 408.261 346.936 408.347 346.717 408.388C346.498 408.429 346.273 408.424 346.056 408.374C345.817 408.24 346.008 407.915 346.477 407.647Z" fill="black"/>
<path d="M361.793 422.905C359.7 423.966 354.241 421.949 354.241 421.949L353.964 426.165C353.964 426.165 353.008 428.077 346.899 429.33C340.79 430.582 338.171 428.651 335.303 429.492C332.435 430.333 334.242 436.968 336.402 439.616C338.563 442.264 350.838 446.117 364.059 436.308L361.793 422.905Z" fill="#FFA8A7"/>
<path d="M340.598 324.8C349.072 324.8 355.942 317.391 355.942 308.251C355.942 299.112 349.072 291.703 340.598 291.703C332.124 291.703 325.254 299.112 325.254 308.251C325.254 317.391 332.124 324.8 340.598 324.8Z" fill="#263238"/>
<path d="M372.826 318.489C374.337 310.028 374.643 306.204 372.578 304.149C371.923 303.485 371.126 302.979 370.246 302.669C369.366 302.359 368.428 302.254 367.501 302.361L366.125 317.657L364.05 328.575L363.84 338.135C364.726 338.098 365.583 337.808 366.31 337.3C367.036 336.792 367.602 336.086 367.941 335.267C369.127 332.915 371.545 323.584 372.463 319.971H372.568C372.664 319.483 372.75 319.015 372.826 318.546V318.489Z" fill="#263238"/>
<path d="M364.364 320.707C365.32 321.299 366.783 319.378 368.016 318.087C369.249 316.797 373.274 315.038 375.282 319.263C377.289 323.489 373.513 329.272 370.349 330.267C364.881 331.987 364.068 328.479 364.068 328.479L363.647 348.173C363.647 348.173 360.072 356.92 350.388 358.239C340.703 359.558 342.74 351.547 345.885 347.656V341.662C345.885 341.662 340.942 342.408 338.533 342.035C334.518 341.414 331.985 338.211 330.77 333.899C328.811 326.921 327.902 320.764 329.078 307.829C330.436 292.725 349.049 292.352 358.504 298.269C367.959 304.187 364.364 320.707 364.364 320.707Z" fill="#FFA8A7"/>
<path d="M364.364 322.39C364.861 322.39 366.773 319.225 368.016 318.088C369.746 316.52 367.519 302.314 367.519 302.314C367.519 302.314 369.259 296.922 365.855 293.356C362.184 289.532 355.55 290.316 350.77 290.287C347.346 290.373 343.923 290.117 340.55 289.522C338.361 289.024 336.223 288.323 334.164 287.429C332.434 286.702 330.483 285.889 328.753 286.616C327.679 287.154 326.834 288.06 326.372 289.169C324.135 293.872 326.229 299.541 330.33 302.419C332.977 304.167 336.051 305.159 339.221 305.287C345.913 305.707 355.339 304.627 357.815 304.331C359.67 304.073 360.062 305.87 361.066 310.784C361.926 315.047 362.653 322.351 364.364 322.39Z" fill="#263238"/>
<path d="M367.49 303.421L373.531 300.17C373.339 299.764 373.065 299.401 372.728 299.103C372.391 298.805 371.997 298.579 371.57 298.438C371.143 298.296 370.691 298.243 370.243 298.282C369.795 298.32 369.359 298.449 368.962 298.66C368.15 299.111 367.545 299.858 367.27 300.745C366.996 301.632 367.075 302.59 367.49 303.421V303.421Z" fill="#263238"/>
<path d="M345.875 341.663C345.875 341.663 353.38 339.751 356.506 338.107C358.347 337.147 359.856 335.655 360.836 333.824C360.366 335.655 359.53 337.372 358.379 338.872C356.085 341.807 345.875 344.044 345.875 344.044V341.663Z" fill="#F28F8F"/>
<path d="M345.615 318.9C345.638 319.25 345.762 319.586 345.972 319.866C346.183 320.146 346.471 320.358 346.801 320.477C347.13 320.595 347.488 320.615 347.828 320.533C348.169 320.451 348.478 320.272 348.718 320.017C348.958 319.761 349.119 319.441 349.179 319.096C349.24 318.751 349.198 318.396 349.059 318.074C348.921 317.752 348.691 317.478 348.398 317.285C348.106 317.092 347.763 316.989 347.413 316.988C347.168 316.992 346.926 317.045 346.702 317.143C346.478 317.242 346.276 317.385 346.109 317.563C345.941 317.742 345.811 317.952 345.726 318.182C345.641 318.411 345.604 318.656 345.615 318.9V318.9Z" fill="#263238"/>
<path d="M347.316 311.455L351.58 312.506C351.709 311.926 351.609 311.319 351.3 310.812C350.992 310.304 350.5 309.935 349.926 309.782C349.645 309.714 349.353 309.705 349.067 309.753C348.782 309.801 348.509 309.907 348.265 310.063C348.022 310.219 347.812 310.423 347.649 310.662C347.486 310.901 347.373 311.171 347.316 311.455V311.455Z" fill="#263238"/>
<path d="M344.289 330.785L340.188 332.324C340.277 332.599 340.42 332.853 340.61 333.071C340.799 333.289 341.031 333.467 341.29 333.594C341.55 333.72 341.832 333.794 342.121 333.809C342.409 333.824 342.698 333.781 342.969 333.682C343.521 333.463 343.967 333.04 344.213 332.499C344.459 331.959 344.486 331.345 344.289 330.785V330.785Z" fill="#F28F8F"/>
<path d="M330.445 312.034L334.603 310.495C334.514 310.225 334.372 309.975 334.184 309.761C333.997 309.546 333.769 309.372 333.513 309.247C333.258 309.122 332.98 309.05 332.696 309.034C332.412 309.019 332.127 309.06 331.859 309.156C331.3 309.364 330.842 309.778 330.579 310.313C330.316 310.849 330.268 311.464 330.445 312.034Z" fill="#263238"/>
<path d="M331.861 318.029C331.884 318.379 332.008 318.714 332.218 318.995C332.429 319.275 332.717 319.487 333.047 319.606C333.376 319.724 333.734 319.744 334.074 319.662C334.415 319.58 334.725 319.401 334.965 319.145C335.205 318.89 335.365 318.57 335.425 318.225C335.486 317.88 335.444 317.525 335.305 317.203C335.167 316.881 334.937 316.607 334.644 316.414C334.352 316.221 334.009 316.118 333.659 316.117C333.414 316.121 333.172 316.174 332.948 316.272C332.724 316.371 332.523 316.514 332.355 316.692C332.187 316.871 332.057 317.081 331.972 317.311C331.888 317.54 331.85 317.785 331.861 318.029V318.029Z" fill="#263238"/>
<path d="M340.599 317.562L340.015 328.365L334.375 326.444L340.599 317.562Z" fill="#F28F8F"/>
<path d="M131.134 351.701C134.184 351.921 139.642 351.701 142.529 356.07C146.822 362.609 161.927 387.034 161.927 387.034L178.886 361.873L197.672 351.901C196.935 360.678 174.536 398.602 171.123 403.22C167.71 407.837 163.877 411.824 156.506 405.724C149.135 399.625 132.214 376.308 132.214 376.308C132.214 376.308 128.103 351.481 131.134 351.701Z" fill="#FFA8A7"/>
<path d="M190.503 355.571C184.48 352.101 174.719 352.101 168.696 355.571C165.694 357.311 164.203 359.577 164.203 361.852C164.203 362.349 164.203 364.29 164.203 364.72C164.203 367.005 165.685 369.281 168.696 371.02C174.719 374.5 184.48 374.5 190.503 371.02C193.505 369.29 195.005 367.015 195.005 364.749V361.814C195.025 359.587 193.514 357.311 190.503 355.571Z" fill="#FFBDA7"/>
<path d="M179.604 370.773C188.12 370.773 195.024 366.789 195.024 361.873C195.024 356.957 188.12 352.973 179.604 352.973C171.087 352.973 164.184 356.957 164.184 361.873C164.184 366.789 171.087 370.773 179.604 370.773Z" fill="#F0997A"/>
<path d="M190.503 351.911C184.48 348.441 174.719 348.441 168.696 351.911C165.694 353.651 164.203 355.917 164.203 358.192C164.203 358.689 164.203 360.63 164.203 361.06C164.203 363.345 165.685 365.63 168.696 367.37C174.719 370.84 184.48 370.84 190.503 367.37C193.505 365.63 195.005 363.355 195.005 361.089V358.154C195.025 355.898 193.514 353.651 190.503 351.911Z" fill="#B16668"/>
<path d="M168.697 364.502C174.72 367.981 184.481 367.981 190.503 364.502C196.526 361.022 196.526 355.391 190.503 351.911C184.481 348.431 174.72 348.441 168.697 351.911C162.674 355.381 162.684 361.022 168.697 364.502Z" fill="#9A4A4D"/>
<path d="M190.53 354.941H168.676C166.238 358.498 166.238 364.157 166.238 365.266C166.238 366.375 166.372 367.083 168.15 366.691C171.899 365.849 175.723 365.388 179.565 365.314C183.406 365.389 187.231 365.85 190.98 366.691C192.786 367.083 192.892 366.375 192.892 365.266C192.892 364.157 192.958 358.488 190.53 354.941Z" fill="#F0F0F0"/>
<path d="M166.783 362.874C167.257 363.675 168.026 364.258 168.924 364.499C169.794 364.719 170.712 364.642 171.592 364.776C173.427 365.054 174.66 366.296 176.295 366.956C176.99 367.234 177.738 367.355 178.484 367.31C179.32 367.226 180.136 367.01 180.903 366.669C182.136 366.182 183.322 365.56 184.593 365.178C185.588 364.851 186.645 364.759 187.681 364.91C188.538 365.098 189.432 365.007 190.234 364.652C191.754 363.935 192.27 361.966 193.647 361.01C194.727 360.245 196.333 360.111 196.974 358.954C197.169 358.519 197.232 358.036 197.155 357.566C197.079 357.095 196.866 356.657 196.543 356.306C195.88 355.619 195.05 355.115 194.134 354.843C192.453 354.283 190.71 353.93 188.943 353.792C184.985 353.381 180.999 353.142 177.022 353.037C173.045 352.931 169.269 352.807 165.464 353.993C164.583 354.229 163.757 354.639 163.036 355.197C162.676 355.478 162.389 355.84 162.198 356.254C162.007 356.668 161.917 357.122 161.936 357.578C162.038 357.998 162.226 358.392 162.49 358.734C162.753 359.077 163.086 359.36 163.466 359.566C163.934 359.882 164.422 360.092 164.919 360.436C165.666 361.144 166.295 361.967 166.783 362.874V362.874Z" fill="#DFDAFF"/>
<path d="M195.512 353.537C195.519 353.495 195.519 353.453 195.512 353.412C194.106 348.03 187.529 343.977 179.632 343.977C171.736 343.977 165.159 348.03 163.744 353.412C163.736 353.453 163.736 353.495 163.744 353.537C163.559 354.127 163.475 354.744 163.495 355.363C163.562 357.705 165.139 360.028 168.227 361.796C174.537 365.439 184.776 365.439 191.095 361.796C194.164 360.028 195.751 357.705 195.818 355.363C195.829 354.74 195.725 354.121 195.512 353.537V353.537Z" fill="#FFBDA7"/>
<path d="M192.155 348.249L182.489 346.566C182.489 346.566 176.056 348.794 175.989 348.909C175.922 349.023 172.537 351.117 172.537 351.117C171.954 351.624 172.767 352.895 173.924 353.029C174.611 353.081 175.301 353.081 175.989 353.029C175.989 353.029 178.034 355.103 182.604 355.486C187.174 355.868 190.367 353.899 192.116 353.325C193.56 352.847 194.449 352.503 195.281 352.752C194.648 351.004 193.571 349.452 192.155 348.249V348.249Z" fill="#F0997A"/>
<path d="M192.263 359.022C188.228 362.091 177.923 363.104 171.47 359.854C165.017 356.603 164.73 351.078 166.785 348.516C165.321 349.825 164.258 351.522 163.716 353.41C163.709 353.451 163.709 353.494 163.716 353.535C163.532 354.125 163.448 354.742 163.468 355.361C163.535 357.703 165.112 360.026 168.2 361.794C174.51 365.437 184.748 365.437 191.068 361.794C194.136 360.026 195.723 357.703 195.79 355.361C195.82 354.742 195.736 354.123 195.542 353.535C195.542 353.535 195.771 356.345 192.263 359.022Z" fill="#F0997A"/>
<path d="M195.73 354.54C197.642 355.114 197.814 350.927 197.738 350.439C197.568 349.371 197.094 348.375 196.371 347.571C194.21 345.105 191.992 344.914 189.373 343.183C188.508 342.505 187.517 342.004 186.457 341.711C185.389 341.723 184.336 341.964 183.369 342.418C179.545 344.235 172.853 349.646 173.226 349.33C172.89 349.608 172.571 349.905 172.27 350.219C171.878 350.736 172.413 351.367 172.786 351.615C173.285 351.931 173.846 352.139 174.43 352.224C175.015 352.31 175.611 352.272 176.18 352.112C177.885 353.222 179.821 353.928 181.84 354.177C184.222 354.613 186.676 354.422 188.962 353.623C193.531 351.758 195.023 351.022 195.73 354.54Z" fill="#FFA8A7"/>
<path d="M87.3287 459.95V530.694C87.3119 531.006 87.2217 531.31 87.0656 531.581C86.9095 531.851 86.6917 532.082 86.43 532.252L84.0113 533.715C83.7332 533.858 83.4252 533.932 83.1127 533.932C82.8002 533.932 82.4921 533.858 82.2141 533.715L79.7954 532.329C79.5365 532.156 79.3214 531.925 79.1671 531.655C79.0128 531.384 78.9235 531.082 78.9063 530.771V460.027C78.905 459.89 78.9308 459.755 78.9821 459.629C79.0334 459.502 79.1093 459.387 79.2053 459.29C79.3013 459.193 79.4155 459.117 79.5414 459.064C79.6673 459.012 79.8024 458.985 79.9388 458.985H86.2771C86.543 458.979 86.8007 459.076 86.9966 459.256C87.1925 459.436 87.3115 459.685 87.3287 459.95V459.95Z" fill="#DFDAFF"/>
<path opacity="0.6" d="M87.3287 459.95V530.694C87.3119 531.006 87.2217 531.31 87.0656 531.581C86.9095 531.851 86.6917 532.082 86.43 532.252L84.0113 533.715C83.7332 533.858 83.4252 533.932 83.1127 533.932C82.8002 533.932 82.4921 533.858 82.2141 533.715L79.7954 532.329C79.5365 532.156 79.3214 531.925 79.1671 531.655C79.0128 531.384 78.9235 531.082 78.9063 530.771V460.027C78.905 459.89 78.9308 459.755 78.9821 459.629C79.0334 459.502 79.1093 459.387 79.2053 459.29C79.3013 459.193 79.4155 459.117 79.5414 459.064C79.6673 459.012 79.8024 458.985 79.9388 458.985H86.2771C86.543 458.979 86.8007 459.076 86.9966 459.256C87.1925 459.436 87.3115 459.685 87.3287 459.95V459.95Z" fill="black"/>
<path d="M79.9512 458.907H82.0831C82.2239 458.901 82.3645 458.923 82.4965 458.973C82.6285 459.022 82.7491 459.098 82.851 459.195C82.9529 459.293 83.0339 459.41 83.0893 459.539C83.1446 459.669 83.173 459.808 83.1729 459.949V533.169C83.1729 533.743 82.7714 533.972 82.2743 533.686L79.8556 532.299C79.5967 532.126 79.3816 531.896 79.2273 531.625C79.073 531.355 78.9837 531.052 78.9665 530.741V459.997C78.9588 459.861 78.9782 459.724 79.0236 459.595C79.0691 459.467 79.1396 459.348 79.2312 459.247C79.3228 459.145 79.4336 459.063 79.5572 459.005C79.6808 458.947 79.8147 458.913 79.9512 458.907Z" fill="#DFDAFF"/>
<path opacity="0.4" d="M79.9512 458.907H82.0831C82.2239 458.901 82.3645 458.923 82.4965 458.973C82.6285 459.022 82.7491 459.098 82.851 459.195C82.9529 459.293 83.0339 459.41 83.0893 459.539C83.1446 459.669 83.173 459.808 83.1729 459.949V533.169C83.1729 533.743 82.7714 533.972 82.2743 533.686L79.8556 532.299C79.5967 532.126 79.3816 531.896 79.2273 531.625C79.073 531.355 78.9837 531.052 78.9665 530.741V459.997C78.9588 459.861 78.9782 459.724 79.0236 459.595C79.0691 459.467 79.1396 459.348 79.2312 459.247C79.3228 459.145 79.4336 459.063 79.5572 459.005C79.6808 458.947 79.8147 458.913 79.9512 458.907Z" fill="black"/>
<path d="M127.952 483.314V554.058C127.936 554.368 127.845 554.671 127.689 554.94C127.533 555.209 127.315 555.438 127.054 555.606L124.645 557.002C124.366 557.143 124.058 557.217 123.746 557.217C123.434 557.217 123.126 557.143 122.847 557.002L120.457 555.702C120.196 555.533 119.978 555.305 119.822 555.036C119.666 554.766 119.575 554.464 119.559 554.153V483.409C119.557 483.273 119.583 483.138 119.634 483.011C119.686 482.885 119.762 482.77 119.858 482.673C119.954 482.576 120.068 482.499 120.194 482.447C120.32 482.394 120.455 482.367 120.591 482.367H126.939C127.195 482.371 127.441 482.47 127.628 482.645C127.815 482.82 127.931 483.058 127.952 483.314V483.314Z" fill="#DFDAFF"/>
<path opacity="0.6" d="M127.952 483.314V554.058C127.936 554.368 127.845 554.671 127.689 554.94C127.533 555.209 127.315 555.438 127.054 555.606L124.645 557.002C124.366 557.143 124.058 557.217 123.746 557.217C123.434 557.217 123.126 557.143 122.847 557.002L120.457 555.702C120.196 555.533 119.978 555.305 119.822 555.036C119.666 554.766 119.575 554.464 119.559 554.153V483.409C119.557 483.273 119.583 483.138 119.634 483.011C119.686 482.885 119.762 482.77 119.858 482.673C119.954 482.576 120.068 482.499 120.194 482.447C120.32 482.394 120.455 482.367 120.591 482.367H126.939C127.195 482.371 127.441 482.47 127.628 482.645C127.815 482.82 127.931 483.058 127.952 483.314V483.314Z" fill="black"/>
<path d="M120.57 482.27H122.711C122.847 482.27 122.982 482.297 123.108 482.349C123.234 482.402 123.348 482.478 123.444 482.575C123.54 482.672 123.616 482.787 123.668 482.914C123.719 483.04 123.745 483.175 123.743 483.312V556.532C123.743 557.105 123.342 557.335 122.845 557.048L120.455 555.7C120.193 555.531 119.976 555.303 119.819 555.034C119.663 554.764 119.573 554.462 119.556 554.151V483.407C119.542 483.265 119.557 483.121 119.601 482.984C119.645 482.848 119.717 482.722 119.812 482.615C119.908 482.508 120.024 482.422 120.155 482.363C120.285 482.303 120.426 482.271 120.57 482.27Z" fill="#DFDAFF"/>
<path opacity="0.4" d="M120.57 482.27H122.711C122.847 482.27 122.982 482.297 123.108 482.349C123.234 482.402 123.348 482.478 123.444 482.575C123.54 482.672 123.616 482.787 123.668 482.914C123.719 483.04 123.745 483.175 123.743 483.312V556.532C123.743 557.105 123.342 557.335 122.845 557.048L120.455 555.7C120.193 555.531 119.976 555.303 119.819 555.034C119.663 554.764 119.573 554.462 119.556 554.151V483.407C119.542 483.265 119.557 483.121 119.601 482.984C119.645 482.848 119.717 482.722 119.812 482.615C119.908 482.508 120.024 482.422 120.155 482.363C120.285 482.303 120.426 482.271 120.57 482.27Z" fill="black"/>
<path d="M125.237 431.343C125.121 432.341 125.401 433.344 126.018 434.137C126.635 434.929 127.54 435.447 128.535 435.578H129.004C129.929 435.575 130.822 435.236 131.516 434.624C132.211 434.012 132.66 433.169 132.78 432.252C134.96 414.776 131.824 375.685 124.367 353.649C123.602 351.393 121.413 350.896 119.348 352.091C117.771 353.047 116.633 354.385 117.226 356.106C124.415 376.823 127.359 414.508 125.237 431.343Z" fill="#455A64"/>
<path d="M81.2584 441.403C81.0015 441.404 80.7463 441.362 80.5032 441.279C79.8952 441.077 79.3917 440.644 79.1032 440.072C78.8146 439.5 78.7646 438.837 78.964 438.229C84.5662 421.203 112.089 406.059 129.861 406.059C130.191 406.039 130.522 406.086 130.833 406.198C131.144 406.31 131.428 406.484 131.669 406.71C131.91 406.936 132.102 407.21 132.233 407.513C132.364 407.816 132.432 408.143 132.432 408.473C132.432 408.804 132.364 409.131 132.233 409.434C132.102 409.737 131.91 410.01 131.669 410.237C131.428 410.463 131.144 410.637 130.833 410.749C130.522 410.861 130.191 410.908 129.861 410.887C113.791 410.887 88.4475 424.883 83.5528 439.739C83.3927 440.222 83.0851 440.642 82.6735 440.94C82.2618 441.239 81.7669 441.401 81.2584 441.403V441.403Z" fill="#DFDAFF"/>
<path d="M78.6311 419.328C78.3742 419.33 78.1188 419.288 77.8759 419.204C77.5707 419.106 77.2881 418.948 77.0446 418.739C76.801 418.53 76.6014 418.276 76.4573 417.989C76.3131 417.703 76.2274 417.39 76.2051 417.07C76.1828 416.751 76.2243 416.429 76.3272 416.126C82.1492 398.44 110.504 384.128 128.2 385.945C128.541 385.941 128.878 386.01 129.191 386.146C129.504 386.282 129.784 386.482 130.013 386.734C130.243 386.986 130.417 387.284 130.523 387.608C130.63 387.932 130.667 388.275 130.631 388.614C130.596 388.953 130.49 389.28 130.319 389.575C130.148 389.87 129.917 390.126 129.64 390.325C129.363 390.525 129.048 390.663 128.714 390.732C128.38 390.801 128.035 390.799 127.703 390.725C112.024 389.128 86.021 402.111 80.9255 417.608C80.778 418.102 80.4754 418.537 80.0623 418.847C79.6492 419.156 79.1475 419.325 78.6311 419.328V419.328Z" fill="#DFDAFF"/>
<path d="M73.2492 401.832C72.9203 401.829 72.5952 401.761 72.2932 401.631C71.7066 401.373 71.2463 400.893 71.0133 400.296C70.7803 399.699 70.7936 399.034 71.0503 398.447C79.3771 379.48 109.004 363.907 125.026 366.135C125.34 366.179 125.642 366.284 125.915 366.445C126.188 366.605 126.427 366.818 126.618 367.071C126.809 367.324 126.948 367.612 127.028 367.919C127.107 368.226 127.125 368.545 127.082 368.859C127.038 369.173 126.932 369.475 126.772 369.748C126.611 370.021 126.398 370.26 126.145 370.451C125.892 370.642 125.604 370.781 125.297 370.861C124.99 370.94 124.671 370.959 124.357 370.915C110.199 368.955 82.9239 383.438 75.4766 400.388C75.2875 400.82 74.9756 401.188 74.5796 401.444C74.1836 401.701 73.721 401.836 73.2492 401.832Z" fill="#DFDAFF"/>
<g opacity="0.6">
<path d="M81.2584 441.403C81.0015 441.404 80.7463 441.362 80.5032 441.279C79.8952 441.077 79.3917 440.644 79.1032 440.072C78.8146 439.5 78.7646 438.837 78.964 438.229C84.5662 421.203 112.089 406.059 129.861 406.059C130.191 406.039 130.522 406.086 130.833 406.198C131.144 406.31 131.428 406.484 131.669 406.71C131.91 406.936 132.102 407.21 132.233 407.513C132.364 407.816 132.432 408.143 132.432 408.473C132.432 408.804 132.364 409.131 132.233 409.434C132.102 409.737 131.91 410.01 131.669 410.237C131.428 410.463 131.144 410.637 130.833 410.749C130.522 410.861 130.191 410.908 129.861 410.887C113.791 410.887 88.4475 424.883 83.5528 439.739C83.3927 440.222 83.0851 440.642 82.6735 440.94C82.2618 441.239 81.7669 441.401 81.2584 441.403V441.403Z" fill="black"/>
</g>
<g opacity="0.6">
<path d="M78.6311 419.328C78.3742 419.33 78.1188 419.288 77.8759 419.204C77.5707 419.106 77.2881 418.948 77.0446 418.739C76.801 418.53 76.6014 418.276 76.4573 417.989C76.3131 417.703 76.2274 417.39 76.2051 417.07C76.1828 416.751 76.2243 416.429 76.3272 416.126C82.1492 398.44 110.504 384.128 128.2 385.945C128.541 385.941 128.878 386.01 129.191 386.146C129.504 386.282 129.784 386.482 130.013 386.734C130.243 386.986 130.417 387.284 130.523 387.608C130.63 387.932 130.667 388.275 130.631 388.614C130.596 388.953 130.49 389.28 130.319 389.575C130.148 389.87 129.917 390.126 129.64 390.325C129.363 390.525 129.048 390.663 128.714 390.732C128.38 390.801 128.035 390.799 127.703 390.725C112.024 389.128 86.021 402.111 80.9255 417.608C80.778 418.102 80.4754 418.537 80.0623 418.847C79.6492 419.156 79.1475 419.325 78.6311 419.328V419.328Z" fill="black"/>
</g>
<g opacity="0.6">
<path d="M73.2492 401.832C72.9203 401.829 72.5952 401.761 72.2932 401.631C71.7066 401.373 71.2463 400.893 71.0133 400.296C70.7803 399.699 70.7936 399.034 71.0503 398.447C79.3771 379.48 109.004 363.907 125.026 366.135C125.34 366.179 125.642 366.284 125.915 366.445C126.188 366.605 126.427 366.818 126.618 367.071C126.809 367.324 126.948 367.612 127.028 367.919C127.107 368.226 127.125 368.545 127.082 368.859C127.038 369.173 126.932 369.475 126.772 369.748C126.611 370.021 126.398 370.26 126.145 370.451C125.892 370.642 125.604 370.781 125.297 370.861C124.99 370.94 124.671 370.959 124.357 370.915C110.199 368.955 82.9239 383.438 75.4766 400.388C75.2875 400.82 74.9756 401.188 74.5796 401.444C74.1836 401.701 73.721 401.836 73.2492 401.832Z" fill="black"/>
</g>
<path d="M67.1017 381.537C66.3081 382.011 65.7131 382.756 65.4266 383.635C65.1401 384.514 65.1816 385.467 65.5434 386.317C74.2717 406.709 78.8701 431.632 78.8701 458.916V462.568L79.1664 462.874C79.3122 463.028 79.4889 463.149 79.685 463.23C79.8811 463.311 80.0921 463.349 80.3041 463.342C80.8518 463.311 81.3894 463.182 81.891 462.96C82.1425 462.857 82.4013 462.774 82.6654 462.711C83.6796 462.711 84.6522 462.308 85.3694 461.591C86.0865 460.874 86.4894 459.901 86.4894 458.887C86.4894 430.59 81.7094 404.644 72.5222 383.287C72.3087 382.796 71.9946 382.356 71.6003 381.994C71.2059 381.632 70.74 381.357 70.2327 381.187C69.7254 381.017 69.188 380.955 68.6552 381.005C68.1225 381.056 67.6063 381.217 67.1399 381.48L67.1017 381.537Z" fill="#DFDAFF"/>
<path opacity="0.4" d="M67.1017 381.537C66.3081 382.011 65.7131 382.756 65.4266 383.635C65.1401 384.514 65.1816 385.467 65.5434 386.317C74.2717 406.709 78.8701 431.632 78.8701 458.916V462.568L79.1664 462.874C79.3122 463.028 79.4889 463.149 79.685 463.23C79.8811 463.311 80.0921 463.349 80.3041 463.342C80.8518 463.311 81.3894 463.182 81.891 462.96C82.1425 462.857 82.4013 462.774 82.6654 462.711C83.6796 462.711 84.6522 462.308 85.3694 461.591C86.0865 460.874 86.4894 459.901 86.4894 458.887C86.4894 430.59 81.7094 404.644 72.5222 383.287C72.3087 382.796 71.9946 382.356 71.6003 381.994C71.2059 381.632 70.74 381.357 70.2327 381.187C69.7254 381.017 69.188 380.955 68.6552 381.005C68.1225 381.056 67.6063 381.217 67.1399 381.48L67.1017 381.537Z" fill="black"/>
<path d="M78.918 461.698V462.654C78.9619 463.5 79.1839 464.327 79.5693 465.081C79.9548 465.836 80.4951 466.501 81.155 467.032L121.508 496.209C122.19 496.652 122.977 496.908 123.789 496.95C124.602 496.992 125.411 496.819 126.135 496.448L183.055 463.581C183.752 463.128 184.331 462.517 184.747 461.798C185.162 461.078 185.401 460.271 185.445 459.441V458.485C185.403 457.671 185.15 456.881 184.711 456.194C184.272 455.507 183.662 454.946 182.94 454.566L131.861 430.981C131.076 430.669 130.234 430.527 129.39 430.565C128.546 430.603 127.72 430.82 126.967 431.201L81.308 457.587C80.6168 458.038 80.0407 458.645 79.6257 459.359C79.2107 460.073 78.9684 460.874 78.918 461.698V461.698Z" fill="#DFDAFF"/>
<path opacity="0.4" d="M78.918 461.698V462.654C78.9619 463.5 79.1839 464.327 79.5693 465.081C79.9548 465.836 80.4951 466.501 81.155 467.032L121.508 496.209C122.19 496.652 122.977 496.908 123.789 496.95C124.602 496.992 125.411 496.819 126.135 496.448L183.055 463.581C183.752 463.128 184.331 462.517 184.747 461.798C185.162 461.078 185.401 460.271 185.445 459.441V458.485C185.403 457.671 185.15 456.881 184.711 456.194C184.272 455.507 183.662 454.946 182.94 454.566L131.861 430.981C131.076 430.669 130.234 430.527 129.39 430.565C128.546 430.603 127.72 430.82 126.967 431.201L81.308 457.587C80.6168 458.038 80.0407 458.645 79.6257 459.359C79.2107 460.073 78.9684 460.874 78.918 461.698V461.698Z" fill="black"/>
<path d="M81.3064 457.559L126.965 431.174C127.719 430.792 128.545 430.575 129.389 430.537C130.233 430.499 131.075 430.641 131.86 430.954L182.939 454.538C184.325 455.179 184.373 456.317 183.054 457.081L126.133 489.939C125.41 490.311 124.601 490.486 123.789 490.445C122.977 490.405 122.189 490.151 121.506 489.71L81.1535 460.561C80.873 460.415 80.6405 460.191 80.4835 459.916C80.3266 459.641 80.2517 459.327 80.2678 459.011C80.2839 458.695 80.3903 458.391 80.5744 458.133C80.7585 457.876 81.0126 457.677 81.3064 457.559V457.559Z" fill="#DFDAFF"/>
<path d="M164.019 557.289C163.063 557.662 162.748 559.765 162.509 561.295C162.27 562.824 160.769 564.593 162.509 567.394C164.249 570.195 167.901 571.218 170.233 575.042C172.566 578.866 175.463 585.873 183.617 588.024C191.772 590.175 198.225 587.757 199.869 585.367C201.514 582.977 200.261 580.587 195.089 577.308C189.631 573.828 188.082 572.805 188.082 572.805L164.019 557.289Z" fill="#263238"/>
<path d="M173.734 540.719C173.734 540.719 177.205 551.961 179.384 557.143C181.689 562.602 184.834 567.666 188.705 572.152C189.585 573.175 191.573 575.068 192.309 575.9C192.48 576.061 192.613 576.258 192.698 576.476C192.783 576.695 192.819 576.93 192.802 577.164C192.786 577.398 192.717 577.626 192.603 577.83C192.488 578.035 192.329 578.211 192.137 578.347C190.34 580.068 182.702 580.46 178.438 577.248C174.174 574.035 170.474 567.783 167.922 565.202C166.65 563.911 165.455 562.669 164.576 561.76C164.162 561.331 163.866 560.801 163.717 560.223C163.567 559.645 163.57 559.039 163.725 558.462C163.811 558.128 163.916 557.745 164.021 557.286C164.614 554.82 161.383 544.696 161.383 544.696L173.734 540.719Z" fill="#FFA8A7"/>
<path d="M91.2704 426.232C88.4693 436.203 86.9971 448.344 90.0945 455.055C93.8516 463.114 104.301 471.307 113.88 476.986C123.459 482.664 138.181 489.576 141.059 490.848C143.936 492.119 144.233 493.878 143.812 499.366C143.392 504.853 145.313 513.83 151.336 525.111C155.384 532.697 158.953 540.53 162.024 548.561C164.003 549.862 171.909 550.779 175.685 546.85C175.685 546.85 164.022 487.291 161.594 480.121C159.166 472.951 132.245 449.692 132.245 449.692C132.245 449.692 141.317 433.822 143.468 425.562L91.2704 426.232Z" fill="#455A64"/>
<path d="M152.187 511.372C149.768 502.768 150.848 493.609 148.774 490.062C146.699 486.516 123.755 473.533 112.714 465.321C102.523 457.74 99.3295 441.765 102.398 426.125L91.2704 426.268C88.4693 436.201 86.9971 448.342 90.0945 455.054C93.8516 463.113 104.301 471.306 113.88 476.984C123.459 482.663 138.181 489.575 141.059 490.846C143.936 492.118 144.233 493.877 143.812 499.364C143.392 504.852 145.313 513.828 151.336 525.109C155.384 532.696 158.953 540.528 162.024 548.56C164.065 549.509 166.325 549.885 168.563 549.65C163.209 538.292 153.755 516.907 152.187 511.372Z" fill="#37474F"/>
<path d="M190.531 539.582C189.575 539.964 189.26 542.058 189.03 543.588C188.801 545.117 187.281 546.886 189.03 549.687C190.78 552.488 194.422 553.511 196.764 557.335C199.107 561.159 201.984 568.176 210.148 570.327C218.313 572.478 224.766 570.05 226.4 567.669C228.035 565.289 226.792 562.889 221.62 559.61C216.162 556.13 214.613 555.107 214.613 555.107L190.531 539.582Z" fill="#263238"/>
<path d="M200.244 523.016C200.244 523.016 203.714 534.258 205.894 539.449C208.201 544.909 211.349 549.974 215.224 554.458C216.104 555.472 218.092 557.374 218.829 558.196C218.999 558.359 219.131 558.558 219.215 558.777C219.3 558.997 219.334 559.233 219.317 559.468C219.3 559.703 219.231 559.931 219.115 560.136C218.999 560.341 218.839 560.517 218.647 560.653C216.85 562.374 209.211 562.766 204.947 559.554C200.684 556.342 196.984 550.09 194.431 547.499C193.15 546.208 191.955 544.975 191.076 544.057C190.662 543.629 190.366 543.102 190.216 542.525C190.067 541.949 190.07 541.343 190.225 540.769C190.311 540.434 190.416 540.042 190.521 539.583C191.114 537.117 187.883 527.002 187.883 527.002L200.244 523.016Z" fill="#FFA8A7"/>
<path d="M116.68 408.125C112.426 417.312 114.204 427.417 116.967 435.849C119.729 444.281 130.809 453.583 140.389 459.261C149.968 464.94 162.377 472.942 165.245 474.223C168.113 475.504 168.332 477.272 169.069 482.731C169.805 488.563 171.851 496.115 177.921 507.367C184.336 519.25 187.969 526.984 187.969 526.984C190.18 527.684 192.54 527.767 194.795 527.222C197.049 526.678 199.112 525.528 200.76 523.897C200.76 523.897 190.521 469.567 188.093 462.388C185.665 455.208 144.949 426.863 144.949 426.863L116.68 408.125Z" fill="#455A64"/>
<path opacity="0.6" d="M157.387 469.663C156.106 468.286 154.787 466.986 153.477 465.733C149.309 461.776 138.63 452.177 134.921 448.841C136.052 446.312 136.948 443.685 137.598 440.992C137.598 440.992 135.476 444.816 133.611 447.684L132.436 449.395L132.254 449.654L132.33 449.73C133.153 450.437 140.351 456.69 147.426 463.525C150.915 465.686 154.395 467.856 157.387 469.663Z" fill="black"/>
<path d="M140.255 391.056C140.485 393.217 139.663 399.029 139.663 399.029C142.32 410.807 143.965 426.189 143.965 426.189C137.684 437.594 99.0804 447.135 88.832 432.996C91.5758 422.824 97.8089 405.521 97.8089 405.521L92.9428 385.664C92.9428 385.664 101.967 373.103 94.2525 355.895L106.681 353.983L123.975 351.449L131.135 351.746C131.135 351.746 140.102 362.003 143.047 369.326C144.873 373.829 148.181 381.707 140.255 391.056Z" fill="#F0F0F0"/>
<path d="M143.965 426.2C143.965 426.2 137.607 432.156 131.862 430.98C126.116 429.804 111.403 412.156 109.539 406.889C107.675 401.621 104.08 378.801 102.56 374.93L96.7095 376.278C96.0605 379.626 94.7824 382.822 92.9428 385.694L97.8089 405.55C97.8089 405.55 91.5758 422.854 88.832 433.026C99.0804 447.136 137.665 437.595 143.965 426.2Z" fill="#E0E0E0"/>
<path d="M143.514 318.871C143.61 303.575 133.161 290.602 117.463 290.478C113.559 290.442 109.689 291.207 106.093 292.726C102.497 294.246 99.2507 296.487 96.5553 299.311C96.5834 298.892 96.5348 298.471 96.4119 298.068C96.2614 297.607 96.0198 297.181 95.7014 296.814C95.3829 296.448 94.9942 296.149 94.5581 295.936C94.1221 295.723 93.6477 295.6 93.1631 295.574C92.6785 295.547 92.1935 295.619 91.737 295.784L93.3814 301.051C92.9295 300.456 92.3103 300.01 91.6032 299.77C91.1453 299.611 90.6602 299.545 90.1764 299.577C89.6927 299.608 89.2202 299.737 88.7869 299.954C88.3537 300.172 87.9685 300.474 87.6542 300.843C87.3398 301.212 87.1028 301.64 86.957 302.103L92.8842 304.129C90.3726 308.291 89.0316 313.054 89.0029 317.915V317.915C88.8882 334.645 102.741 348.287 119.872 348.306H143.552L143.514 318.871Z" fill="#37474F"/>
<path d="M134.689 308.469C137.653 310.113 140.186 312.293 140.253 327.646C140.253 340.686 136.162 344.022 134.068 345.007C131.974 345.992 127.873 345.542 123.877 345.007L123.973 351.422C123.973 351.422 129.709 354.949 127.596 357.665C125.407 360.533 121.468 360.934 116.391 359.682C112.681 358.717 109.315 356.729 106.679 353.946L106.296 335.877C106.296 335.877 104.021 338.21 99.9578 334.845C96.6023 332.072 95.369 327.273 97.8451 324.616C98.4926 323.987 99.2793 323.52 100.141 323.253C101.003 322.985 101.916 322.925 102.806 323.077C103.695 323.229 104.536 323.588 105.261 324.127C105.985 324.665 106.573 325.366 106.975 326.174C115.512 326.174 117.108 316.375 117.653 310.448C122.366 305.563 129.737 317.312 134.689 308.469Z" fill="#FFA8A7"/>
<path d="M108.277 330.458L106.164 323.498C106.613 323.336 107.091 323.267 107.568 323.295C108.045 323.323 108.511 323.448 108.939 323.661C109.366 323.875 109.745 324.173 110.054 324.538C110.362 324.903 110.594 325.326 110.734 325.783C111.004 326.729 110.899 327.742 110.442 328.613C109.984 329.483 109.209 330.144 108.277 330.458Z" fill="#37474F"/>
<path d="M123.937 323.748C123.947 324.068 123.863 324.384 123.695 324.657C123.528 324.929 123.283 325.147 122.993 325.282C122.703 325.417 122.379 325.464 122.062 325.417C121.746 325.37 121.45 325.231 121.211 325.017C120.973 324.804 120.803 324.524 120.721 324.215C120.64 323.905 120.652 323.578 120.755 323.275C120.858 322.972 121.047 322.705 121.3 322.509C121.553 322.313 121.858 322.195 122.178 322.17C122.62 322.147 123.053 322.3 123.383 322.595C123.713 322.891 123.912 323.306 123.937 323.748V323.748Z" fill="#263238"/>
<path d="M126.346 335.82L130.17 336.929C130.109 337.186 129.997 337.428 129.84 337.641C129.683 337.853 129.485 338.032 129.257 338.166C129.029 338.3 128.777 338.386 128.515 338.42C128.253 338.454 127.987 338.435 127.732 338.363C127.221 338.196 126.793 337.839 126.535 337.367C126.277 336.894 126.21 336.341 126.346 335.82Z" fill="#F28F8F"/>
<path d="M137.943 319.615L134.559 317.407C134.689 317.176 134.865 316.975 135.077 316.816C135.289 316.657 135.532 316.544 135.79 316.484C136.048 316.423 136.315 316.417 136.576 316.466C136.836 316.515 137.084 316.617 137.302 316.766C137.752 317.071 138.068 317.535 138.187 318.064C138.306 318.593 138.219 319.148 137.943 319.615V319.615Z" fill="#263238"/>
<path d="M120.53 319.615L123.915 317.407C123.785 317.176 123.608 316.975 123.396 316.816C123.184 316.657 122.941 316.544 122.684 316.484C122.426 316.423 122.158 316.417 121.897 316.466C121.637 316.515 121.39 316.617 121.171 316.766C120.722 317.071 120.405 317.535 120.286 318.064C120.167 318.593 120.255 319.148 120.53 319.615V319.615Z" fill="#263238"/>
<path d="M136.987 323.181C136.999 323.504 136.916 323.822 136.748 324.098C136.581 324.373 136.336 324.594 136.044 324.731C135.752 324.868 135.427 324.917 135.107 324.871C134.788 324.824 134.49 324.685 134.249 324.471C134.008 324.256 133.836 323.975 133.754 323.663C133.671 323.352 133.683 323.022 133.786 322.717C133.889 322.411 134.08 322.143 134.335 321.945C134.589 321.747 134.897 321.629 135.218 321.604C135.661 321.58 136.096 321.733 136.427 322.028C136.758 322.324 136.96 322.738 136.987 323.181V323.181Z" fill="#263238"/>
<path d="M128.992 322.484L129.183 333.163L134.327 331.413L128.992 322.484Z" fill="#F28F8F"/>
<path d="M123.879 344.989C119.673 344.549 110.983 342.312 109.539 338.938C110.125 340.648 111.223 342.137 112.684 343.201C115.323 345.343 123.946 347.599 123.946 347.599L123.879 344.989Z" fill="#F28F8F"/>
<path d="M137.664 307.474C137.664 307.474 135.456 320.227 117.703 320.61V306.184L137.664 307.474Z" fill="#37474F"/>
<path d="M160.274 455.492C151.918 451.448 146.842 449.966 140.781 444.88C134.72 439.794 105.982 412.004 105.982 412.004L102.56 374.901C102.56 374.901 102.914 362.636 94.2522 355.867C87.2065 356.928 83.0384 363.458 83.2965 370.131C83.5546 376.804 87.4838 416.019 89.5583 419.766C91.5372 423.399 126.364 449.125 131.211 452.815C134.94 455.98 132.97 457.844 138.62 460.932C141.641 462.576 151.555 464.22 156.01 466.065C161.612 468.379 167.109 464.756 169.91 463.551C173.036 462.222 168.629 459.536 160.274 455.492Z" fill="#FFA8A7"/>
<path d="M248.32 658.28C248.33 658.566 248.421 658.843 248.582 659.08C248.742 659.317 248.967 659.503 249.229 659.618C249.925 659.97 250.695 660.153 251.475 660.153C252.255 660.153 253.025 659.97 253.722 659.618C253.986 659.503 254.214 659.319 254.382 659.085C254.55 658.851 254.652 658.577 254.678 658.29V658.29L254.764 560.156L248.416 560.242L248.32 658.28Z" fill="#455A64"/>
<path d="M251.82 660.125C252.489 660.093 253.142 659.913 253.732 659.599C253.996 659.483 254.224 659.299 254.392 659.065C254.56 658.832 254.663 658.557 254.688 658.27L254.774 560.137H251.906L251.82 660.125Z" fill="#37474F"/>
<path d="M249.316 561.491C250.012 561.847 250.782 562.033 251.563 562.033C252.344 562.033 253.114 561.847 253.809 561.491C255.062 560.774 255.081 559.579 253.809 558.901C253.114 558.545 252.344 558.359 251.563 558.359C250.782 558.359 250.012 558.545 249.316 558.901C248.102 559.627 248.083 560.784 249.316 561.491Z" fill="#263238"/>
<path d="M370.785 588.022C370.793 588.309 370.883 588.587 371.044 588.824C371.204 589.061 371.43 589.248 371.693 589.361C372.39 589.712 373.16 589.895 373.94 589.895C374.72 589.895 375.49 589.712 376.187 589.361C376.45 589.248 376.678 589.065 376.847 588.833C377.015 588.601 377.117 588.327 377.143 588.041V588.041L377.229 489.898L370.871 489.984L370.785 588.022Z" fill="#455A64"/>
<path d="M374.285 589.867C374.954 589.836 375.607 589.657 376.197 589.341C376.461 589.228 376.689 589.046 376.857 588.814C377.026 588.581 377.128 588.308 377.153 588.022V588.022L377.239 489.879H374.371L374.285 589.867Z" fill="#37474F"/>
<path d="M371.781 491.246C372.477 491.6 373.247 491.784 374.028 491.784C374.808 491.784 375.578 491.6 376.274 491.246C377.527 490.529 377.546 489.334 376.274 488.655C375.577 488.304 374.808 488.121 374.028 488.121C373.247 488.121 372.478 488.304 371.781 488.655C370.567 489.372 370.548 490.529 371.781 491.246Z" fill="#263238"/>
<path d="M103.719 588.022C103.731 588.314 103.827 588.596 103.997 588.834C104.167 589.072 104.402 589.255 104.675 589.361C105.372 589.712 106.141 589.895 106.921 589.895C107.702 589.895 108.471 589.712 109.168 589.361C109.429 589.244 109.655 589.061 109.823 588.829C109.991 588.598 110.095 588.326 110.124 588.041V588.041L110.21 489.898L103.853 489.984L103.719 588.022Z" fill="#455A64"/>
<path d="M107.207 589.867C107.875 589.835 108.528 589.655 109.119 589.341C109.38 589.225 109.606 589.042 109.774 588.81C109.942 588.578 110.046 588.306 110.075 588.022V588.022L110.161 489.879H107.293L107.207 589.867Z" fill="#37474F"/>
<path d="M104.712 491.246C105.408 491.6 106.177 491.784 106.958 491.784C107.739 491.784 108.509 491.6 109.205 491.246C110.457 490.529 110.467 489.334 109.205 488.656C108.506 488.304 107.735 488.121 106.953 488.121C106.172 488.121 105.401 488.304 104.702 488.656C103.488 489.373 103.478 490.529 104.712 491.246Z" fill="#263238"/>
<path d="M75.3242 490.739V489.783C75.3687 488.934 75.6136 488.108 76.039 487.371C76.4644 486.635 77.0581 486.01 77.7716 485.548L235.999 394.135C236.758 393.753 237.597 393.555 238.446 393.555C239.296 393.555 240.135 393.753 240.894 394.135L395.393 483.12C396.106 483.582 396.7 484.207 397.126 484.943C397.551 485.679 397.796 486.506 397.84 487.355V488.311C397.796 489.16 397.551 489.986 397.126 490.722C396.7 491.459 396.106 492.083 395.393 492.546L237.156 583.959C236.398 584.34 235.562 584.539 234.713 584.539C233.865 584.539 233.028 584.34 232.271 583.959L77.7716 494.974C77.0587 494.511 76.4653 493.886 76.04 493.15C75.6147 492.414 75.3694 491.588 75.3242 490.739V490.739Z" fill="#DFDAFF"/>
<g opacity="0.65">
<path d="M75.3242 490.739V489.783C75.3687 488.934 75.6136 488.108 76.039 487.371C76.4644 486.635 77.0581 486.01 77.7716 485.548L235.999 394.135C236.758 393.753 237.597 393.555 238.446 393.555C239.296 393.555 240.135 393.753 240.894 394.135L395.393 483.12C396.106 483.582 396.7 484.207 397.126 484.943C397.551 485.679 397.796 486.506 397.84 487.355V488.311C397.796 489.16 397.551 489.986 397.126 490.722C396.7 491.459 396.106 492.083 395.393 492.546L237.156 583.959C236.398 584.34 235.562 584.539 234.713 584.539C233.865 584.539 233.028 584.34 232.271 583.959L77.7716 494.974C77.0587 494.511 76.4653 493.886 76.04 493.15C75.6147 492.414 75.3694 491.588 75.3242 490.739V490.739Z" fill="white"/>
</g>
<path d="M234.718 577.919V584.544C233.867 584.553 233.027 584.352 232.271 583.961L77.7716 494.986C77.0597 494.522 76.4672 493.896 76.042 493.16C75.6168 492.425 75.3709 491.599 75.3242 490.751V489.795C75.3648 489.038 75.5635 488.298 75.9077 487.623C76.2519 486.948 76.7337 486.352 77.3223 485.875C76.4332 486.63 76.5861 487.682 77.7716 488.38L232.309 577.336C233.048 577.735 233.878 577.936 234.718 577.919V577.919Z" fill="#DFDAFF"/>
<g opacity="0.5">
<path d="M234.718 577.919V584.544C233.867 584.553 233.027 584.352 232.271 583.961L77.7716 494.986C77.0597 494.522 76.4672 493.896 76.042 493.16C75.6168 492.425 75.3709 491.599 75.3242 490.751V489.795C75.3648 489.038 75.5635 488.298 75.9077 487.623C76.2519 486.948 76.7337 486.352 77.3223 485.875C76.4332 486.63 76.5861 487.682 77.7716 488.38L232.309 577.336C233.048 577.735 233.878 577.936 234.718 577.919V577.919Z" fill="white"/>
</g>
<path d="M77.772 488.349L232.309 577.333C233.067 577.715 233.904 577.914 234.752 577.914C235.6 577.914 236.437 577.715 237.195 577.333L395.394 485.911C396.751 485.137 396.751 483.865 395.394 483.091L240.913 394.135C240.154 393.753 239.316 393.555 238.466 393.555C237.616 393.555 236.778 393.753 236.019 394.135L77.772 485.529C76.4145 486.303 76.4145 487.575 77.772 488.349Z" fill="#DFDAFF"/>
<g opacity="0.8">
<path d="M77.772 488.349L232.309 577.333C233.067 577.715 233.904 577.914 234.752 577.914C235.6 577.914 236.437 577.715 237.195 577.333L395.394 485.911C396.751 485.137 396.751 483.865 395.394 483.091L240.913 394.135C240.154 393.753 239.316 393.555 238.466 393.555C237.616 393.555 236.778 393.753 236.019 394.135L77.772 485.529C76.4145 486.303 76.4145 487.575 77.772 488.349Z" fill="white"/>
</g>
<path opacity="0.1" d="M202.3 488.196L179.843 475.233L178.4 472.986V470.864L173.409 468.761L172.922 466.658L176.22 466.113L178.362 466.266L178.027 464.449L180.981 463.359L222.557 472.986L225.674 474.793C225.751 474.837 225.816 474.901 225.861 474.979C225.905 475.056 225.929 475.144 225.929 475.233C225.929 475.322 225.905 475.41 225.861 475.487C225.816 475.564 225.751 475.628 225.674 475.673L203.982 488.196C203.726 488.342 203.436 488.419 203.141 488.419C202.846 488.419 202.556 488.342 202.3 488.196V488.196Z" fill="black"/>
<path d="M206.591 462.157L194 451.363L191.859 453.027L194 455.895L190.358 453.514L188.446 455.101L186.696 456.057L184.048 454.518L182.136 455.876L182.413 457.099L185.855 459.011C185.286 459.359 184.684 459.651 184.058 459.881C183.119 459.354 182.224 458.753 181.381 458.084L180.234 460.503L181.821 465.149L179.526 465.627L179.889 468.112L183.264 470.608L179.02 471.803L179.889 473.982C179.889 473.982 191.696 478.141 191.868 478.141C192.222 478.131 206.591 462.157 206.591 462.157Z" fill="#B16668"/>
<path d="M174.262 467.244L189.128 476.594L190.724 474.51L175.964 464.605L174.004 465.141L174.262 467.244Z" fill="#FFBDA7"/>
<path d="M174.004 465.141L190.17 475.236L189.128 476.594L174.262 467.244L174.004 465.141Z" fill="#F0997A"/>
<path d="M176.611 461.776L189 472.387L190.97 471.212L176.219 458.258L176.611 461.776Z" fill="#F0997A"/>
<path d="M176.219 458.254L178.752 457.633L192.213 469.908L190.97 471.208L176.219 458.254Z" fill="#FFBDA7"/>
<path d="M182.797 460.014L197.252 468.102V466.267L182.797 457.863V460.014Z" fill="#F0997A"/>
<path d="M182.797 457.864L185.168 457.07L198.399 465.139L197.252 466.267L182.797 457.864Z" fill="#FFBDA7"/>
<path d="M202.777 467.164L184.852 455.578V453.465L203.14 466.266L202.777 467.164Z" fill="#F0997A"/>
<path d="M184.852 453.464L187.27 452.805L204.211 465.319L203.14 466.265L184.852 453.464Z" fill="#FFBDA7"/>
<path d="M210.309 462.977L194 452.805L194.535 455.051L209.258 464.602L210.309 462.977Z" fill="#F0997A"/>
<path d="M194 452.805H197.25L210.615 461.925L210.309 462.977L194 452.805Z" fill="#FFBDA7"/>
<path d="M174.262 447.348L174.95 448.906C174.95 448.906 178.229 451.411 181.833 450.98C185.437 450.55 189.405 447.348 189.405 447.348H174.262Z" fill="#F0997A"/>
<path d="M174.262 447.348C176.118 448.367 178.172 448.973 180.285 449.126C184.003 449.46 189.405 447.348 189.405 447.348H174.262Z" fill="#FFBDA7"/>
<path d="M186.66 469.268L203.142 481.954L222.558 470.75L206.077 458.054C204.008 456.615 201.587 455.766 199.073 455.597C196.558 455.429 194.046 455.948 191.804 457.098L187.291 459.698C183.18 462.098 182.894 466.371 186.66 469.268Z" fill="#DFDAFF"/>
<path d="M200.904 472.307C198.932 472.357 196.995 471.774 195.378 470.644C194.791 470.244 194.314 469.702 193.991 469.069C193.669 468.435 193.511 467.731 193.533 467.02C193.63 466.208 193.929 465.433 194.401 464.765C194.873 464.098 195.505 463.558 196.239 463.196C199.355 461.399 204.04 461.6 206.688 463.636C207.276 464.036 207.755 464.577 208.079 465.21C208.403 465.844 208.563 466.548 208.542 467.259C208.444 468.072 208.144 468.848 207.67 469.516C207.195 470.183 206.562 470.722 205.827 471.083C204.319 471.909 202.623 472.33 200.904 472.307ZM201.181 462.957C199.623 462.937 198.085 463.319 196.717 464.066C196.127 464.349 195.616 464.771 195.226 465.296C194.836 465.82 194.58 466.432 194.48 467.078C194.472 467.632 194.603 468.178 194.862 468.668C195.121 469.158 195.499 469.574 195.962 469.879C198.332 471.705 202.539 471.877 205.349 470.252C205.94 469.971 206.453 469.55 206.843 469.025C207.233 468.5 207.489 467.887 207.586 467.24C207.593 466.688 207.461 466.143 207.202 465.656C206.943 465.168 206.566 464.753 206.105 464.449C204.666 463.438 202.939 462.919 201.181 462.967V462.957Z" fill="#FAFAFA"/>
<path d="M203.142 481.956V486.439L186.66 476.927V469.27L203.142 481.956Z" fill="#DFDAFF"/>
<path opacity="0.15" d="M203.142 481.956V486.439L186.66 476.927V469.27L203.142 481.956Z" fill="black"/>
<path d="M222.557 470.75V475.234L203.141 486.438V481.954L222.557 470.75Z" fill="#DFDAFF"/>
<path opacity="0.3" d="M222.557 470.75V475.234L203.141 486.438V481.954L222.557 470.75Z" fill="black"/>
<path opacity="0.1" d="M278.301 488.196L300.758 475.233L302.201 472.986V470.864L307.191 468.761L307.669 466.658L304.381 466.113L302.23 466.266L302.564 464.449L299.62 463.359L258.043 472.986L254.927 474.793C254.849 474.837 254.785 474.901 254.74 474.979C254.695 475.056 254.672 475.144 254.672 475.233C254.672 475.322 254.695 475.41 254.74 475.487C254.785 475.564 254.849 475.628 254.927 475.673L276.619 488.196C276.875 488.342 277.165 488.419 277.46 488.419C277.755 488.419 278.045 488.342 278.301 488.196V488.196Z" fill="black"/>
<path d="M274.074 462.157L286.665 451.363L288.806 453.027L286.665 455.895L290.307 453.514L292.219 455.101L293.969 456.057L296.617 454.518L298.529 455.876L298.251 457.099L294.8 459.011C295.37 459.359 295.971 459.651 296.598 459.881C297.536 459.354 298.431 458.753 299.274 458.084L300.431 460.503L298.835 465.149L301.129 465.627L300.766 468.112L297.448 470.617L301.693 471.812L300.823 473.992C300.823 473.992 289.017 478.15 288.844 478.15C288.443 478.131 274.074 462.157 274.074 462.157Z" fill="#B16668"/>
<path d="M303.914 461.783L289.048 471.133L287.461 469.039L302.222 459.145L304.172 459.67L303.914 461.783Z" fill="#FFBDA7"/>
<path d="M304.17 459.672L288.004 469.767L289.046 471.134L303.912 461.785L304.17 459.672Z" fill="#F0997A"/>
<path d="M285.891 446.095L267.02 445.818L268.243 444.508L285.633 442.969L287.105 444.355L285.891 446.095Z" fill="#FFBDA7"/>
<path d="M287.105 444.355L267.02 445.818L268.367 447.348L285.891 446.095L287.105 444.355Z" fill="#F0997A"/>
<path d="M304.571 470.035L289.093 475.187L287.707 473.352L306.263 466.918L304.571 470.035Z" fill="#F0997A"/>
<path d="M306.262 466.916L304.15 465.387L287.047 471.687L287.707 473.35L306.262 466.916Z" fill="#FFBDA7"/>
<path d="M298.443 460.405L283.988 468.493V466.657L298.443 458.254V460.405Z" fill="#F0997A"/>
<path d="M298.446 458.254L296.084 457.461L282.844 465.53L283.991 466.658L298.446 458.254Z" fill="#FFBDA7"/>
<path d="M289.553 455.685L276.714 466.153L276.398 464.337L289.18 453.562L289.553 455.685Z" fill="#F0997A"/>
<path d="M289.181 453.563L286.714 453.199L275.07 463.428L276.399 464.337L289.181 453.563Z" fill="#FFBDA7"/>
<path d="M270.202 468.142L284.456 452.263L283.911 450.227L269.609 467.358L270.202 468.142Z" fill="#F0997A"/>
<path d="M283.913 450.227H281.408L268.34 466.737L269.611 467.358L283.913 450.227Z" fill="#FFBDA7"/>
<path d="M282.43 462.527L298.739 452.355L298.204 454.602L283.481 464.153L282.43 462.527Z" fill="#F0997A"/>
<path d="M298.74 452.355H295.49L282.125 461.476L282.431 462.527L298.74 452.355Z" fill="#FFBDA7"/>
<path d="M294.009 469.268L277.528 481.954L258.121 470.75L274.603 458.054C276.671 456.615 279.092 455.766 281.607 455.597C284.121 455.429 286.634 455.948 288.876 457.098L293.388 459.698C297.489 462.098 297.776 466.371 294.009 469.268Z" fill="#DFDAFF"/>
<path d="M274.841 471.083C274.107 470.722 273.473 470.183 272.999 469.516C272.525 468.848 272.225 468.072 272.126 467.259C272.108 466.549 272.268 465.845 272.592 465.212C272.916 464.579 273.394 464.037 273.981 463.636C276.629 461.6 281.314 461.399 284.43 463.196C285.164 463.559 285.796 464.098 286.27 464.766C286.744 465.433 287.045 466.208 287.145 467.02C287.163 467.731 287.003 468.435 286.679 469.068C286.355 469.701 285.878 470.243 285.291 470.644C283.674 471.774 281.737 472.357 279.765 472.307C278.046 472.33 276.35 471.909 274.841 471.083V471.083ZM274.564 464.449C274.103 464.753 273.726 465.168 273.467 465.656C273.208 466.143 273.076 466.688 273.082 467.24C273.18 467.887 273.436 468.5 273.826 469.025C274.216 469.55 274.729 469.971 275.319 470.252C278.13 471.877 282.336 471.705 284.707 469.879C285.17 469.574 285.548 469.158 285.807 468.668C286.066 468.178 286.197 467.632 286.189 467.078C286.089 466.432 285.833 465.82 285.443 465.296C285.053 464.771 284.541 464.349 283.952 464.066C282.587 463.321 281.053 462.939 279.497 462.957C277.735 462.91 276.005 463.433 274.564 464.449V464.449Z" fill="#FAFAFA"/>
<path d="M277.527 481.956V486.439L294.009 476.927V469.27L277.527 481.956Z" fill="#DFDAFF"/>
<path opacity="0.15" d="M277.527 481.956V486.439L294.009 476.927V469.27L277.527 481.956Z" fill="black"/>
<path d="M258.109 470.75V475.234L277.526 486.438V481.954L258.109 470.75Z" fill="#DFDAFF"/>
<path opacity="0.3" d="M258.109 470.75V475.234L277.526 486.438V481.954L258.109 470.75Z" fill="black"/>
<path opacity="0.1" d="M217.07 421.515C212.29 419.412 204.565 419.412 199.91 421.515C195.254 423.618 195.254 427.021 199.91 429.163C204.565 431.304 212.252 431.266 217.07 429.163C221.888 427.06 221.888 423.618 217.07 421.515Z" fill="black"/>
<path d="M220.262 396.621H196.84L198.608 424.221C198.714 425.225 199.66 426.219 201.476 426.984C206.018 428.619 210.988 428.619 215.53 426.984C217.375 426.219 218.398 425.225 218.465 424.221L220.262 396.621Z" fill="#FAFAFA"/>
<path d="M213.037 419.086C212.446 419.094 211.869 418.909 211.392 418.56C210.389 417.824 209.844 416.323 209.844 414.354C209.844 411.715 211.756 408.312 214.423 407.662C214.871 407.517 215.347 407.479 215.812 407.552C216.277 407.625 216.718 407.807 217.1 408.083C217.989 408.78 218.457 410.128 218.457 411.974C218.457 413.819 217.587 417.882 214.289 418.895C213.883 419.019 213.461 419.084 213.037 419.086ZM215.417 408.475C215.156 408.479 214.896 408.514 214.643 408.58C212.444 409.125 210.819 412.079 210.819 414.316C210.819 415.95 211.24 417.184 211.976 417.748C212.276 417.941 212.62 418.059 212.976 418.091C213.333 418.123 213.691 418.067 214.021 417.929C216.794 417.079 217.52 413.637 217.52 411.926C217.52 410.377 217.176 409.297 216.564 408.78C216.23 408.546 215.824 408.438 215.417 408.475Z" fill="#DFDAFF"/>
<path d="M198.608 424.249C198.714 425.253 199.66 426.247 201.476 427.012C206.018 428.647 210.988 428.647 215.53 427.012C216.667 426.651 217.637 425.895 218.264 424.88C215.9 426.387 213.1 427.06 210.31 426.792C205.769 426.285 202.968 425.473 202.155 421.888C201.457 418.828 199.803 401.812 199.364 396.688H196.84L198.608 424.249Z" fill="#F0F0F0"/>
<path d="M196.84 396.65L197.194 402.252C197.794 402.665 198.435 403.018 199.106 403.304C204.172 405.397 212.49 405.397 217.767 403.304C217.996 403.208 218.178 403.112 218.388 403.017C218.897 402.776 219.389 402.501 219.86 402.195L220.214 396.621L196.84 396.65Z" fill="#E0E0E0"/>
<path d="M220.685 397.556V393.675H218.171C217.836 393.503 217.473 393.331 217.071 393.168C212.291 391.256 204.567 391.256 199.911 393.168C199.529 393.331 199.185 393.503 198.86 393.675H196.422V397.556C196.422 398.818 197.588 400.08 199.911 401.046C204.567 402.958 212.253 402.958 217.071 401.046C219.481 400.08 220.685 398.818 220.685 397.556Z" fill="#37474F"/>
<path d="M217.07 390.188C212.29 388.276 204.565 388.276 199.91 390.188C195.254 392.1 195.254 395.245 199.91 397.167C204.565 399.088 212.252 399.079 217.07 397.167C221.888 395.255 221.888 392.109 217.07 390.188Z" fill="#455A64"/>
<path d="M217.577 392.587L216.621 389.996H200.483L199.527 392.587C199.164 393.591 200.005 394.652 202.061 395.455C206.262 396.774 210.766 396.774 214.967 395.455C217.089 394.652 217.969 393.591 217.577 392.587Z" fill="#37474F"/>
<path d="M214.251 388.189C210.517 387.015 206.513 387.015 202.779 388.189C199.662 389.365 199.662 391.258 202.779 392.434C206.514 393.6 210.516 393.6 214.251 392.434C217.473 391.268 217.473 389.356 214.251 388.189Z" fill="#455A64"/>
<path d="M215.551 390.312C215.471 390.478 215.344 390.618 215.187 390.714C214.783 391 214.338 391.225 213.868 391.383C212.128 391.949 210.306 392.223 208.476 392.196C206.672 392.231 204.874 391.96 203.161 391.393C202.703 391.237 202.273 391.008 201.889 390.714C201.622 390.503 201.555 390.35 201.555 390.312C201.555 390.274 201.832 389.739 203.161 389.232C204.874 388.665 206.672 388.393 208.476 388.429C210.306 388.396 212.129 388.671 213.868 389.242C215.206 389.72 215.541 390.217 215.551 390.312Z" fill="#37474F"/>
<path d="M215.189 390.715C214.784 391.001 214.339 391.227 213.869 391.384C212.129 391.95 210.307 392.224 208.477 392.197C206.673 392.233 204.876 391.961 203.162 391.394C202.704 391.239 202.274 391.009 201.891 390.715C202.275 390.425 202.705 390.199 203.162 390.046C204.875 389.475 206.672 389.2 208.477 389.233C210.307 389.205 212.129 389.48 213.869 390.046C214.339 390.203 214.784 390.429 215.189 390.715V390.715Z" fill="#263238"/>
<path d="M211.966 390.789C212.149 390.663 212.357 390.577 212.576 390.535C212.795 390.494 213.02 390.499 213.237 390.55C213.476 390.674 213.237 390.999 212.816 391.276C212.631 391.402 212.421 391.488 212.201 391.529C211.98 391.57 211.754 391.565 211.535 391.515C211.277 391.381 211.497 391.056 211.966 390.789Z" fill="black"/>
<defs>
<filter id="filter0_f_1508_7882" x="325.058" y="345.437" width="58.7428" height="98.9107" filterUnits="userSpaceOnUse" color-interpolation-filters="sRGB">
<feFlood flood-opacity="0" result="BackgroundImageFix"/>
<feBlend mode="normal" in="SourceGraphic" in2="BackgroundImageFix" result="shape"/>
<feGaussianBlur stdDeviation="0.996241" result="effect1_foregroundBlur_1508_7882"/>
</filter>
</defs>
</svg>
