<svg width="12" height="12" viewBox="0 0 12 12" fill="none" xmlns="http://www.w3.org/2000/svg">
<path d="M11.9461 2.39051C11.9245 2.36453 11.8974 2.34363 11.8668 2.32928C11.8362 2.31492 11.8028 2.30747 11.769 2.30744H2.26957L1.95343 0.568207C1.92438 0.40871 1.84026 0.264467 1.71575 0.160629C1.59124 0.0567905 1.43423 -5.63627e-05 1.27209 4.19341e-08H0.230765C0.169562 4.19341e-08 0.110866 0.0243105 0.0675895 0.0675834C0.0243127 0.110856 0 0.169547 0 0.230744C0 0.291941 0.0243127 0.350631 0.0675895 0.393904C0.110866 0.437177 0.169562 0.461488 0.230765 0.461488H1.26921C1.32385 0.460596 1.37704 0.479125 1.41929 0.513774C1.46155 0.548423 1.49014 0.596944 1.49997 0.650697L2.9711 8.74403C3.02258 9.02545 3.17678 9.27771 3.40378 9.45184C3.16575 9.60525 2.98048 9.82795 2.87296 10.0899C2.76544 10.3519 2.74085 10.6405 2.8025 10.9169C2.86415 11.1933 3.00907 11.4441 3.21773 11.6356C3.42638 11.827 3.68874 11.9499 3.96941 11.9877C4.25008 12.0254 4.53558 11.9761 4.78739 11.8466C5.03921 11.717 5.24524 11.5134 5.37769 11.2631C5.51015 11.0128 5.56267 10.7279 5.52816 10.4468C5.49365 10.1658 5.37378 9.90206 5.18471 9.69124H8.66119C8.44981 9.92755 8.32595 10.2292 8.3103 10.5459C8.29465 10.8625 8.38817 11.175 8.57523 11.431C8.76228 11.687 9.03154 11.871 9.338 11.9523C9.64446 12.0337 9.96955 12.0074 10.2589 11.8778C10.5483 11.7483 10.7845 11.5233 10.928 11.2406C11.0714 10.9579 11.1135 10.6345 11.0471 10.3245C10.9808 10.0144 10.81 9.73658 10.5634 9.53733C10.3168 9.33808 10.0092 9.2295 9.69213 9.22975H4.10589C3.94385 9.22967 3.78698 9.17276 3.66258 9.06894C3.53819 8.96511 3.45416 8.82094 3.42513 8.66154L3.19437 7.3838H10.1594C10.4297 7.38384 10.6913 7.28905 10.8988 7.11595C11.1063 6.94285 11.2464 6.70243 11.2948 6.4366L11.9963 2.57972C12.0023 2.54643 12.001 2.51222 11.9923 2.47952C11.9836 2.44683 11.9679 2.41644 11.9461 2.39051ZM5.07683 10.6142C5.07683 10.7968 5.02269 10.9752 4.92127 11.127C4.81984 11.2788 4.67568 11.3971 4.50701 11.4669C4.33834 11.5368 4.15275 11.5551 3.97369 11.5195C3.79463 11.4838 3.63016 11.3959 3.50107 11.2669C3.37198 11.1378 3.28406 10.9733 3.24845 10.7943C3.21283 10.6152 3.23111 10.4297 3.30097 10.261C3.37084 10.0924 3.48915 9.9482 3.64095 9.84679C3.79274 9.74537 3.97121 9.69124 4.15377 9.69124C4.39858 9.69124 4.63337 9.78848 4.80647 9.96157C4.97958 10.1347 5.07683 10.3694 5.07683 10.6142ZM10.6152 10.6142C10.6152 10.7968 10.5611 10.9752 10.4596 11.127C10.3582 11.2788 10.214 11.3971 10.0454 11.4669C9.87671 11.5368 9.69111 11.5551 9.51205 11.5195C9.333 11.4838 9.16852 11.3959 9.03943 11.2669C8.91034 11.1378 8.82242 10.9733 8.78681 10.7943C8.75119 10.6152 8.76947 10.4297 8.83934 10.261C8.9092 10.0924 9.02751 9.9482 9.17931 9.84679C9.3311 9.74537 9.50957 9.69124 9.69213 9.69124C9.93694 9.69124 10.1717 9.78848 10.3448 9.96157C10.5179 10.1347 10.6152 10.3694 10.6152 10.6142ZM10.8408 6.35411C10.8117 6.5136 10.7276 6.65784 10.6031 6.76168C10.4786 6.86552 10.3216 6.92237 10.1594 6.92231H3.10841L2.35323 2.76892H11.4927L10.8408 6.35411Z" fill="black"/>
<line x1="5.1" y1="5" x2="5.1" y2="7.24998" stroke="#0F0D0C" stroke-width="0.2"/>
<line x1="9.01797" y1="5" x2="9.01797" y2="7.24998" stroke="#0F0D0C" stroke-width="0.2"/>
<path d="M5.05078 6.30469H5.90184C6.15716 6.30469 6.27063 6.4581 6.27063 6.76491C6.27063 7.07173 6.27063 7.174 6.27063 7.19957" stroke="#0F0D0C" stroke-width="0.2"/>
<path d="M9 6.33008H8.14894C7.92199 6.33008 7.78015 6.48349 7.78015 6.7903C7.78015 7.09712 7.78015 7.19939 7.78015 7.22496" stroke="#0F0D0C" stroke-width="0.2"/>
<path d="M6.10547 5.62891C6.53667 5.62891 7.80703 5.62891 7.8354 5.62891" stroke="#0F0D0C" stroke-width="0.2"/>
<path d="M7 5.75L7 7.25" stroke="#0F0D0C" stroke-width="0.2"/>
</svg>
