<svg width="328" height="245" viewBox="0 0 328 245" fill="none" xmlns="http://www.w3.org/2000/svg">
<path d="M328 214.773H0V214.937H328V214.773Z" fill="#E6E6E6"/>
<path d="M81.883 224.699H60.1562V224.863H81.883V224.699Z" fill="#E6E6E6"/>
<path d="M53.28 224.699H40.6914V224.863H53.28V224.699Z" fill="#E6E6E6"/>
<path d="M138.12 227.117H125.531V227.281H138.12V227.117Z" fill="#E6E6E6"/>
<path d="M203.758 230.773H175.426V230.937H203.758V230.773Z" fill="#E6E6E6"/>
<path d="M169.59 230.773H165.438V230.937H169.59V230.773Z" fill="#E6E6E6"/>
<path d="M297.395 227.117H235.941V227.281H297.395V227.117Z" fill="#E6E6E6"/>
<path d="M155.473 185.517H28.8056C27.8133 185.515 26.8622 185.12 26.1612 184.417C25.4601 183.715 25.0664 182.763 25.0664 181.771V3.71296C25.075 2.72635 25.4726 1.78299 26.1727 1.08779C26.8728 0.392588 27.819 0.00169011 28.8056 0H155.473C156.466 0 157.419 0.394642 158.121 1.09711C158.824 1.79957 159.218 2.75232 159.218 3.74576V181.771C159.218 182.764 158.824 183.717 158.121 184.42C157.419 185.122 156.466 185.517 155.473 185.517ZM28.8056 0.1312C27.8568 0.132938 26.9475 0.511067 26.2772 1.18259C25.6069 1.85411 25.2304 2.76415 25.2304 3.71296V181.771C25.2304 182.72 25.6069 183.63 26.2772 184.301C26.9475 184.973 27.8568 185.351 28.8056 185.353H155.473C156.422 185.351 157.332 184.973 158.003 184.302C158.675 183.63 159.053 182.72 159.054 181.771V3.71296C159.053 2.76355 158.675 1.85352 158.003 1.18219C157.332 0.510854 156.422 0.132935 155.473 0.1312H28.8056Z" fill="#E6E6E6"/>
<path d="M297.369 185.517H170.695C169.702 185.515 168.75 185.12 168.048 184.418C167.346 183.716 166.951 182.764 166.949 181.771V3.71296C166.96 2.72575 167.359 1.7824 168.06 1.08738C168.761 0.392359 169.708 0.00167168 170.695 0H297.369C298.354 0.00341415 299.299 0.395075 299.997 1.09009C300.696 1.78511 301.093 2.72748 301.101 3.71296V181.771C301.101 182.762 300.708 183.713 300.009 184.415C299.309 185.117 298.36 185.513 297.369 185.517ZM170.695 0.1312C169.746 0.132935 168.836 0.510854 168.164 1.18219C167.493 1.85352 167.115 2.76355 167.113 3.71296V181.771C167.115 182.72 167.493 183.63 168.164 184.302C168.836 184.973 169.746 185.351 170.695 185.353H297.369C298.318 185.351 299.228 184.973 299.899 184.302C300.571 183.63 300.949 182.72 300.95 181.771V3.71296C300.949 2.76355 300.571 1.85352 299.899 1.18219C299.228 0.510854 298.318 0.132935 297.369 0.1312H170.695Z" fill="#E6E6E6"/>
<path d="M175.414 158.738H160.988V215.961H175.414V158.738Z" fill="#E0E0E0"/>
<path d="M172.674 215.961H175.416V208.168H169.801L172.674 215.961Z" fill="#FAFAFA"/>
<path d="M112.203 158.738H97.7773V215.961H112.203V158.738Z" fill="#E0E0E0"/>
<path d="M175.412 158.738H109.812V211.179H175.412V158.738Z" fill="#FAFAFA"/>
<path d="M173.035 161.318V175.193H112.178V161.318H173.015M173.271 161.062H111.941V175.442H173.291V161.062H173.271Z" fill="#E0E0E0"/>
<path d="M112.548 215.961H109.812V208.168H115.421L112.548 215.961Z" fill="#FAFAFA"/>
<path d="M141.164 168.251C141.164 168.537 141.249 168.818 141.408 169.056C141.568 169.294 141.794 169.48 142.059 169.59C142.324 169.7 142.615 169.728 142.897 169.672C143.178 169.617 143.436 169.478 143.639 169.276C143.842 169.073 143.98 168.815 144.036 168.533C144.092 168.252 144.063 167.961 143.953 167.696C143.843 167.431 143.658 167.204 143.419 167.045C143.181 166.886 142.901 166.801 142.614 166.801C142.229 166.801 141.861 166.954 141.589 167.225C141.317 167.497 141.164 167.866 141.164 168.251Z" fill="#E6E6E6"/>
<path d="M173.035 178.019V191.893H112.178V178.019H173.015M173.271 177.77H111.941V192.149H173.291V177.776L173.271 177.77Z" fill="#E0E0E0"/>
<path d="M141.164 184.993C141.164 185.279 141.249 185.56 141.408 185.798C141.568 186.037 141.794 186.222 142.059 186.332C142.324 186.442 142.615 186.471 142.897 186.415C143.178 186.359 143.436 186.221 143.639 186.018C143.842 185.815 143.98 185.557 144.036 185.276C144.092 184.994 144.063 184.703 143.953 184.438C143.843 184.173 143.658 183.947 143.419 183.787C143.181 183.628 142.901 183.543 142.614 183.543C142.229 183.543 141.861 183.696 141.589 183.968C141.317 184.239 141.164 184.608 141.164 184.993Z" fill="#E6E6E6"/>
<path d="M173.035 194.728V208.609H112.178V194.728H173.015M173.271 194.473H111.941V208.859H173.291V194.473H173.271Z" fill="#E0E0E0"/>
<path d="M141.164 201.667C141.165 201.954 141.252 202.233 141.412 202.471C141.572 202.708 141.799 202.893 142.064 203.002C142.329 203.111 142.62 203.138 142.901 203.082C143.181 203.025 143.439 202.887 143.641 202.684C143.843 202.48 143.981 202.222 144.036 201.941C144.092 201.66 144.063 201.369 143.953 201.104C143.843 200.84 143.657 200.614 143.419 200.455C143.18 200.296 142.9 200.211 142.614 200.211C142.423 200.211 142.234 200.249 142.058 200.322C141.881 200.395 141.721 200.503 141.586 200.638C141.452 200.773 141.345 200.934 141.273 201.11C141.2 201.287 141.163 201.476 141.164 201.667Z" fill="#E6E6E6"/>
<path d="M103.394 125.504H88.9688V215.966H103.394V125.504Z" fill="#E0E0E0"/>
<path d="M100.648 215.961H103.39V208.168H97.7812L100.648 215.961Z" fill="#FAFAFA"/>
<path d="M49.4801 125.504H35.0547V215.966H49.4801V125.504Z" fill="#E0E0E0"/>
<path d="M103.394 125.504H47.0898V211.184H103.394V125.504Z" fill="#FAFAFA"/>
<path d="M100.964 127.92V147.318H49.5141V127.92H100.964ZM101.266 127.625H49.1992V147.6H101.253V127.632L101.266 127.625Z" fill="#E0E0E0"/>
<path d="M100.964 149.685V201.135H76.4554V149.685H100.964ZM101.265 149.383H76.1602V201.436H101.265V149.383Z" fill="#E0E0E0"/>
<path d="M74.0223 149.685V201.135H49.5141V149.685H74.0223ZM74.3175 149.383H49.1992V201.436H74.3043V149.383H74.3175Z" fill="#E0E0E0"/>
<path d="M49.8319 215.961H47.0898V208.168H52.7052L49.8319 215.961Z" fill="#FAFAFA"/>
<path d="M73.7852 137.629C73.7839 137.918 73.8682 138.2 74.0274 138.44C74.1866 138.681 74.4136 138.868 74.6796 138.98C74.9456 139.091 75.2386 139.121 75.5216 139.065C75.8045 139.01 76.0646 138.872 76.2689 138.668C76.4732 138.465 76.6126 138.205 76.6693 137.923C76.7261 137.64 76.6976 137.347 76.5876 137.08C76.4775 136.814 76.2909 136.586 76.0513 136.426C75.8116 136.265 75.5298 136.18 75.2415 136.18C74.8564 136.18 74.487 136.332 74.214 136.604C73.9411 136.876 73.7869 137.244 73.7852 137.629Z" fill="#E6E6E6"/>
<path d="M78.9844 174.187C78.9844 174.475 79.07 174.757 79.2303 174.997C79.3906 175.236 79.6184 175.423 79.8849 175.533C80.1514 175.643 80.4446 175.671 80.7272 175.615C81.0099 175.558 81.2694 175.419 81.4728 175.214C81.6762 175.01 81.8144 174.75 81.8698 174.467C81.9253 174.184 81.8955 173.891 81.7843 173.625C81.673 173.359 81.4854 173.132 81.245 172.973C81.0047 172.813 80.7225 172.729 80.4341 172.73C80.2432 172.73 80.0542 172.768 79.8778 172.841C79.7015 172.915 79.5414 173.022 79.4067 173.157C79.272 173.293 79.1653 173.453 79.0929 173.63C79.0204 173.807 78.9835 173.996 78.9844 174.187Z" fill="#E6E6E6"/>
<path d="M68.5977 174.187C68.599 174.473 68.6851 174.753 68.8452 174.99C69.0053 175.228 69.2321 175.413 69.4972 175.522C69.7622 175.63 70.0535 175.658 70.3343 175.601C70.6151 175.545 70.8728 175.406 71.0749 175.203C71.277 175 71.4144 174.742 71.4698 174.461C71.5252 174.18 71.4961 173.888 71.3862 173.624C71.2763 173.359 71.0905 173.133 70.8522 172.974C70.6139 172.815 70.3339 172.73 70.0474 172.73C69.8565 172.73 69.6674 172.768 69.4911 172.841C69.3148 172.915 69.1547 173.022 69.02 173.157C68.8853 173.293 68.7786 173.453 68.7061 173.63C68.6337 173.807 68.5968 173.996 68.5977 174.187Z" fill="#E6E6E6"/>
<path d="M66.9597 100.281H60.8786C61.439 103.231 61.7919 106.217 61.9348 109.216C61.9348 112.496 57.3034 125.504 63.9028 125.504C70.5021 125.504 65.8708 112.529 65.8708 109.216C66.0244 106.216 66.3883 103.23 66.9597 100.281Z" fill="#E0E0E0"/>
<path d="M43.8203 113.586V117.522C43.8272 119.632 44.6685 121.654 46.1605 123.146C47.6525 124.638 49.6741 125.479 51.7842 125.486H55.7202C57.8302 125.479 59.8518 124.638 61.3438 123.146C62.8358 121.654 63.6771 119.632 63.684 117.522V113.586H43.8203Z" fill="#F5F5F5"/>
<path d="M128.359 150.395C128.359 154.987 133.496 158.739 139.774 158.739H145.442C151.72 158.739 156.856 154.987 156.856 150.395H128.359Z" fill="#E0E0E0"/>
<path d="M278.544 143.667C275.106 146.474 270.357 151.611 266.014 158.84C263.115 163.655 261.37 168.68 260.602 175.358C260.602 167.814 260.648 159.712 260.674 152.063C261.547 150.095 263.541 145.556 264.971 141.974C269.74 130.015 271.531 127.07 275.815 116.758C281.542 102.982 287.406 86.6734 285.727 87.9788C282.303 90.6356 269.183 115.203 267.766 118.719C263.903 128.103 261.516 138.027 260.687 148.141C260.687 140.925 260.74 134.365 260.766 129.274C260.858 112.671 261.14 107.311 261.278 105.658C261.809 104.818 262.432 103.841 262.8 103.316C265.883 98.8553 267.07 95.0636 269.97 88.4118C274.089 78.9982 277.632 62.2767 276.595 63.1164C272.279 66.6326 268.881 74.1766 264.407 83.8001C259.933 93.4236 261.212 98.9537 260.327 107.167C260.143 108.781 259.999 114.868 259.894 123.298C258.739 114.311 256.561 108.394 252.592 103.014C247.712 96.3953 242.988 91.9279 239.525 89.5926C236.061 87.2572 245.508 103.513 250.021 110.585C254.042 116.908 257.748 122.478 259.861 127.969C259.749 139.403 259.697 153.874 259.697 167.329C258.66 161.202 256.968 154.596 254.711 149.485C251.995 143.345 247.823 133.925 244.497 130.73C243.704 129.963 247.974 148.285 250.716 153.152C253.458 158.02 255.472 162.618 257.197 165.38C257.598 166.036 258.936 168.509 259.697 169.939C259.697 186.385 259.789 200.896 259.933 205.836H260.641C260.596 204.563 260.582 196.193 260.602 185.119C262.314 179.11 266.224 172.249 269.452 165.99C272.968 159.214 281.981 140.879 278.544 143.667Z" fill="#E0E0E0"/>
<path d="M270.563 215.961H250.004L248.449 195.809H272.118L270.563 215.961Z" fill="#F0F0F0"/>
<path d="M273.645 198.158H246.913L246.152 191.355H274.413L273.645 198.158Z" fill="#F5F5F5"/>
<path d="M81.5149 13.4492H44.7461V53.826H81.5149V13.4492Z" fill="#E0E0E0"/>
<path d="M85.498 13.4492H47.5156V53.826H85.498V13.4492Z" fill="#F5F5F5"/>
<path d="M82.3164 50.6425V16.6289L50.6972 16.6289V50.6425H82.3164Z" fill="white"/>
<path d="M74.6445 42.389V24.8672H58.3561V42.389H74.6445Z" fill="#F5F5F5"/>
<path d="M268.994 18.1523H234.836V55.6624H268.994V18.1523Z" fill="#E0E0E0"/>
<path d="M272.694 18.1523H237.414V55.6624H272.694V18.1523Z" fill="#F5F5F5"/>
<path d="M269.742 52.7023V21.1094L240.373 21.1094V52.7023H269.742Z" fill="white"/>
<path d="M255.051 46.0708C260.112 46.0708 264.215 41.9678 264.215 36.9065C264.215 31.8452 260.112 27.7422 255.051 27.7422C249.99 27.7422 245.887 31.8452 245.887 36.9065C245.887 41.9678 249.99 46.0708 255.051 46.0708Z" fill="#F5F5F5"/>
<path d="M119.714 37.5234H92.4375V67.4764H119.714V37.5234Z" fill="#E0E0E0"/>
<path d="M122.667 37.5234H94.4922V67.4764H122.667V37.5234Z" fill="#F5F5F5"/>
<path d="M120.305 65.1126V39.8828H96.8527V65.1126H120.305Z" fill="white"/>
<path d="M108.58 46.1172L102.164 57.2298H114.995L108.58 46.1172Z" fill="#F5F5F5"/>
<path d="M164 244.399C234.247 244.399 291.192 241.074 291.192 236.973C291.192 232.872 234.247 229.547 164 229.547C93.7543 229.547 36.8086 232.872 36.8086 236.973C36.8086 241.074 93.7543 244.399 164 244.399Z" fill="#F5F5F5"/>
<path d="M229.109 71.1318L222.601 68.5078C222.601 68.5078 214.014 84.1665 211.554 84.9603C208.209 86.0361 201.281 89.0275 197.175 89.5523C196.617 90.2083 195.705 92.2485 195.791 92.9897C201.308 94.8331 213.431 92.3862 216.028 90.4576C221.939 86.0821 229.109 71.1318 229.109 71.1318Z" fill="#F5BBB1"/>
<path d="M231.11 67.5695C232.323 72.05 225.75 81.0634 225.75 81.0634L217.137 76.2353C217.137 76.2353 218.75 72.5289 220.718 68.7569C223.874 62.6626 229.725 62.4593 231.11 67.5695Z" fill="#E6E6E6"/>
<path opacity="0.2" d="M231.11 67.5695C232.323 72.05 225.75 81.0634 225.75 81.0634L217.137 76.2353C217.137 76.2353 218.75 72.5289 220.718 68.7569C223.874 62.6626 229.725 62.4593 231.11 67.5695Z" fill="black"/>
<path opacity="0.2" d="M220.555 78.1646L223.946 80.067L224.543 69.6562C222.569 71.1716 221.178 75.7374 220.555 78.1646Z" fill="black"/>
<path d="M225.441 64.1976C225.441 64.1976 218.736 79.115 222.646 106.89H249.063C249.483 102.836 248.092 83.051 253.124 63.9483C250.226 63.3819 247.294 63.0072 244.347 62.8265C240.608 62.6099 236.861 62.6099 233.123 62.8265C230.531 63.0897 227.963 63.548 225.441 64.1976Z" fill="#E6E6E6"/>
<path opacity="0.2" d="M225.441 64.1976C225.441 64.1976 218.736 79.115 222.646 106.89H249.063C249.483 102.836 248.092 83.051 253.124 63.9483C250.226 63.3819 247.294 63.0072 244.347 62.8265C240.608 62.6099 236.861 62.6099 233.123 62.8265C230.531 63.0897 227.963 63.548 225.441 64.1976Z" fill="#E2E2E2"/>
<g style="mix-blend-mode:multiply">
<path d="M219.313 237.566C219.273 238.274 229.29 238.845 241.682 238.845C254.074 238.845 264.163 238.274 264.203 237.566C264.242 236.857 254.231 236.293 241.833 236.293C229.435 236.293 219.359 236.864 219.313 237.566Z" fill="#E8ECF1"/>
</g>
<path d="M236.947 218.952L232.262 220.766L236.298 231.192L240.983 229.378L236.947 218.952Z" fill="#F5BBB1"/>
<path d="M257.84 232.52H252.9L251.09 221.086H256.03L257.84 232.52Z" fill="#F5BBB1"/>
<path d="M252.557 231.949H258.106C258.203 231.95 258.296 231.984 258.369 232.046C258.442 232.109 258.491 232.195 258.506 232.29L259.221 236.679C259.237 236.789 259.228 236.901 259.196 237.008C259.164 237.114 259.109 237.212 259.035 237.296C258.962 237.379 258.872 237.446 258.77 237.491C258.669 237.536 258.559 237.559 258.447 237.558C256.512 237.525 255.581 237.407 253.14 237.407C251.638 237.407 248.548 237.565 246.462 237.565C244.376 237.565 244.238 235.518 245.098 235.328C248.955 234.495 250.451 233.36 251.737 232.258C251.963 232.058 252.255 231.949 252.557 231.949Z" fill="#263238"/>
<path d="M236.16 230.258L241.408 228.723C241.502 228.697 241.601 228.703 241.691 228.741C241.78 228.779 241.854 228.847 241.9 228.933L243.868 232.869C243.914 232.969 243.937 233.077 243.936 233.187C243.936 233.297 243.911 233.405 243.864 233.505C243.817 233.604 243.749 233.692 243.665 233.762C243.581 233.833 243.482 233.884 243.376 233.912C241.467 234.437 240.188 234.758 237.8 235.454C236.153 235.932 234.474 236.713 232.847 237.231C231.719 237.592 229.069 237.605 227.698 237.605C225.67 237.605 225.218 235.467 226.09 235.368C228.288 235.126 228.583 235.237 229.797 234.627C231.782 233.759 233.582 232.516 235.097 230.967C235.383 230.641 235.749 230.397 236.16 230.258Z" fill="#263238"/>
<path d="M198.001 89.5263L192.569 87.25L190.332 93.2721C192.558 93.6112 194.823 93.6112 197.049 93.2721L198.001 89.5263Z" fill="#F5BBB1"/>
<path d="M188.527 87.0938L188.383 91.0954L190.331 93.2602L192.568 87.2381L188.527 87.0938Z" fill="#F5BBB1"/>
<path d="M237.591 219.834L232.891 221.648L234.972 227.04L239.672 225.225L237.591 219.834Z" fill="#DA9386"/>
<path d="M256.03 221.086H251.09L252.028 226.983H256.968L256.03 221.086Z" fill="#DA9386"/>
<path opacity="0.2" d="M221.809 99.3764C221.907 100.564 222.019 101.777 222.163 103.024L241.803 96.6475C244.871 95.7384 247.536 93.8109 249.361 91.183C249.439 89.4315 249.538 87.5881 249.689 85.666C249.754 84.7345 249.833 83.7767 249.918 82.8059C250.003 81.835 250.122 80.7591 250.246 79.7227L221.809 99.3764Z" fill="black"/>
<path d="M228.222 77.8634L227.566 77.7846C227.953 74.5046 230.4 71.92 232.978 71.9856V72.6416C230.722 72.5957 228.57 74.9245 228.222 77.8634Z" fill="white"/>
<path d="M231.717 83.9167H231.605V83.2607C233.862 83.3459 235.981 80.9909 236.329 78.0586L236.985 78.1373C236.637 81.3452 234.269 83.9167 231.717 83.9167Z" fill="white"/>
<path d="M243.978 50.1875C243.054 53.8021 241.965 60.4211 244.346 62.8286C244.346 62.8286 242.68 66.4957 235.969 66.4957C229.835 66.4957 233.122 62.8286 233.122 62.8286C237.202 61.8709 237.274 58.8926 236.736 56.0718L243.978 50.1875Z" fill="#F5BBB1"/>
<path d="M241.026 52.5859L236.742 56.0693C236.875 56.7175 236.952 57.3759 236.972 58.0373C238.225 59.2837 240.737 56.1283 240.993 54.5146C241.123 53.8792 241.134 53.2253 241.026 52.5859Z" fill="#DA9386"/>
<path d="M229.375 50.1396C229.673 50.6562 230.074 51.1058 230.554 51.4602C231.034 51.8146 231.581 52.0663 232.163 52.1994C233.737 52.5471 234.524 51.0973 234.091 49.641C233.704 48.329 232.412 46.5644 230.811 46.8661C230.469 46.9368 230.148 47.0885 229.876 47.3087C229.603 47.5289 229.388 47.811 229.247 48.1316C229.107 48.4521 229.045 48.8017 229.067 49.1511C229.089 49.5005 229.195 49.8394 229.375 50.1396Z" fill="#DA9386"/>
<path d="M231.98 38.5722C229.527 39.694 228.661 49.4421 231.744 50.8853C234.827 52.3285 236.625 36.4402 231.98 38.5722Z" fill="#263238"/>
<path d="M244.727 44.7479C244.137 49.6416 244.071 52.5215 241.447 55.0274C240.634 55.859 239.607 56.4497 238.479 56.7343C237.352 57.0189 236.167 56.9863 235.057 56.6402C233.947 56.2941 232.954 55.6478 232.187 54.7728C231.421 53.8978 230.912 52.8281 230.715 51.6818C229.921 47.2866 231.017 40.0247 235.924 38.0764C236.955 37.6216 238.089 37.4509 239.208 37.5819C240.327 37.7129 241.391 38.1409 242.289 38.8215C243.187 39.5021 243.887 40.4105 244.315 41.4525C244.744 42.4946 244.886 43.6323 244.727 44.7479Z" fill="#F5BBB1"/>
<path d="M236.663 41.1062C240.297 40.1812 242.967 39.5515 242.009 42.5756C240.743 46.6166 239.221 50.5263 241.261 50.7035C242.508 50.815 248.018 48.4796 247.316 46.1115C246.706 44.0516 249.284 43.4875 249.743 42.4444C251.442 38.6659 246.581 39.1644 247.447 36.8684C248.313 34.5724 243.511 30.8726 240.887 32.7159C236.617 35.6942 229.289 35.6483 233.14 30.7479C235.902 27.2515 230.975 27.9665 230.975 27.9665C230.975 27.9665 233.953 29.7311 228.942 32.4601C223.641 35.3727 228.502 43.1988 236.663 41.1062Z" fill="#263238"/>
<path d="M246.653 50.1396C245.936 51.1777 244.858 51.9119 243.629 52.1994C242.009 52.5471 241.386 51.0973 241.996 49.641C242.54 48.329 244.036 46.5644 245.584 46.8661C247.132 47.1679 247.486 48.8538 246.653 50.1396Z" fill="#F5BBB1"/>
<path d="M222.648 106.891C222.648 106.891 218.213 146.579 217.865 161.64C217.511 177.306 232.894 226.184 232.894 226.184L240.766 222.904C240.766 222.904 231.582 178.244 232.894 162.861C234.285 146.087 240.032 106.917 240.032 106.917L222.648 106.891Z" fill="#B8B6B6"/>
<path opacity="0.2" d="M233.666 117.788C230.13 125.122 232.511 139.627 234.427 148.22C235.155 142.152 236.021 135.566 236.841 129.472C236.762 120.104 236.034 112.868 233.666 117.788Z" fill="black"/>
<path d="M240.417 220.305C240.457 220.305 241.349 222.811 241.349 222.811L232.27 226.629L230.84 223.965L240.417 220.305Z" fill="#E6E6E6"/>
<path d="M232.02 106.891C232.02 106.891 235.411 144.637 237.655 158.774C240.121 174.262 249.791 225.843 249.791 225.843H258.837C258.837 225.843 253.418 175.515 252.395 160.178C251.28 143.541 249.062 106.891 249.062 106.891H232.02Z" fill="#B8B6B6"/>
<path d="M258.977 223.487C259.016 223.487 259.278 226.013 259.278 226.013H249.333L248.625 223.113L258.977 223.487Z" fill="#E6E6E6"/>
<path opacity="0.2" d="M255.511 220.498C255.49 220.498 255.47 220.491 255.455 220.478C255.439 220.465 255.429 220.446 255.425 220.426C255.373 219.967 250.486 174.506 249.567 160.73C248.57 145.786 246.563 112.639 246.543 112.304C246.542 112.293 246.544 112.282 246.547 112.272C246.551 112.262 246.556 112.252 246.564 112.244C246.571 112.236 246.58 112.23 246.59 112.225C246.6 112.221 246.611 112.219 246.622 112.219C246.644 112.219 246.664 112.227 246.68 112.241C246.696 112.256 246.706 112.276 246.707 112.297C246.707 112.632 248.734 145.753 249.731 160.723C250.65 174.499 255.537 219.927 255.583 220.419C255.585 220.43 255.584 220.441 255.582 220.452C255.579 220.463 255.574 220.473 255.567 220.481C255.56 220.49 255.552 220.497 255.542 220.502C255.532 220.507 255.522 220.51 255.511 220.511V220.498Z" fill="black"/>
<path d="M237.222 46.1122C237.222 46.5124 236.972 46.8338 236.71 46.8338C236.448 46.8338 236.257 46.5124 236.284 46.1122C236.31 45.7121 236.533 45.3906 236.795 45.3906C237.058 45.3906 237.248 45.7186 237.222 46.1122Z" fill="#263238"/>
<path d="M232.723 46.1122C232.723 46.5124 232.468 46.8338 232.212 46.8338C231.956 46.8338 231.759 46.5124 231.779 46.1122C231.798 45.7121 232.035 45.3906 232.297 45.3906C232.559 45.3906 232.75 45.7186 232.723 46.1122Z" fill="#263238"/>
<path d="M234.138 46.3125C233.591 47.5344 232.885 48.6791 232.039 49.7171C232.695 50.3731 233.922 50.0714 233.922 50.0714L234.138 46.3125Z" fill="#EFA294"/>
<path d="M234.256 51.7463C234.241 51.7463 234.226 51.7432 234.212 51.7372C234.198 51.7312 234.185 51.7224 234.175 51.7114C234.165 51.7003 234.156 51.6872 234.151 51.6729C234.146 51.6586 234.144 51.6434 234.145 51.6282C234.146 51.5963 234.16 51.5663 234.183 51.5443C234.207 51.5223 234.237 51.5101 234.269 51.5101C234.771 51.5136 235.267 51.4046 235.721 51.1912C236.175 50.9778 236.576 50.6654 236.893 50.2769C236.916 50.257 236.945 50.2461 236.975 50.2461C237.006 50.2461 237.035 50.257 237.057 50.2769C237.079 50.2989 237.09 50.3283 237.09 50.3589C237.09 50.3895 237.079 50.4189 237.057 50.4409C236.718 50.8538 236.29 51.1853 235.805 51.4112C235.32 51.6371 234.791 51.7516 234.256 51.7463Z" fill="#263238"/>
<path d="M238.025 44.9046C237.993 44.9207 237.958 44.9291 237.923 44.9291C237.888 44.9291 237.853 44.9207 237.821 44.9046C237.576 44.746 237.297 44.6473 237.006 44.6165C236.716 44.5857 236.422 44.6238 236.149 44.7275C236.122 44.7408 236.093 44.7487 236.063 44.7506C236.034 44.7525 236.004 44.7484 235.976 44.7387C235.947 44.7289 235.922 44.7136 235.899 44.6936C235.877 44.6737 235.859 44.6495 235.847 44.6225C235.822 44.5641 235.822 44.4986 235.845 44.4398C235.868 44.3809 235.914 44.3335 235.971 44.3076C236.314 44.1676 236.686 44.1123 237.055 44.1466C237.424 44.1808 237.779 44.3036 238.09 44.5044C238.115 44.5215 238.137 44.5435 238.154 44.5689C238.17 44.5944 238.182 44.6229 238.187 44.6528C238.193 44.6827 238.192 44.7134 238.186 44.7431C238.179 44.7728 238.167 44.801 238.149 44.8259C238.116 44.8635 238.073 44.8908 238.025 44.9046Z" fill="#263238"/>
<path d="M230.985 43.5918C230.95 43.5834 230.918 43.5652 230.893 43.5394C230.871 43.518 230.854 43.4925 230.842 43.4643C230.83 43.4362 230.824 43.4059 230.824 43.3754C230.824 43.3448 230.83 43.3146 230.842 43.2864C230.854 43.2583 230.871 43.2328 230.893 43.2114C231.145 42.9294 231.458 42.7092 231.808 42.5682C232.159 42.4271 232.537 42.3688 232.914 42.3979C232.944 42.4026 232.973 42.4134 232.999 42.4297C233.024 42.446 233.047 42.4674 233.064 42.4926C233.081 42.5178 233.093 42.5463 233.099 42.5763C233.104 42.6062 233.104 42.6371 233.097 42.6669C233.083 42.7276 233.047 42.7812 232.997 42.8174C232.946 42.8536 232.884 42.8701 232.822 42.8637C232.524 42.8449 232.225 42.8942 231.949 43.0079C231.673 43.1215 231.426 43.2966 231.228 43.5197C231.198 43.5529 231.159 43.5772 231.116 43.5899C231.074 43.6027 231.028 43.6033 230.985 43.5918Z" fill="#263238"/>
<path d="M255.665 70.4031L248.842 68.5859C248.842 68.5859 242.151 85.0581 239.783 86.1274C236.568 87.5968 228.427 92.6874 224.964 95.0949C224.773 95.9149 224.924 98.0863 225.357 98.6832C231.261 97.6074 242.564 93.2581 244.926 91.0474C250.312 86.0027 255.665 70.4031 255.665 70.4031Z" fill="#F5BBB1"/>
<path d="M250.901 232.818C250.568 232.844 250.236 232.754 249.962 232.562C249.878 232.486 249.815 232.389 249.779 232.281C249.743 232.172 249.737 232.057 249.759 231.945C249.763 231.876 249.786 231.808 249.825 231.751C249.865 231.693 249.919 231.647 249.982 231.617C250.533 231.335 252.075 232.313 252.252 232.424C252.271 232.436 252.286 232.454 252.295 232.475C252.303 232.497 252.304 232.52 252.298 232.542C252.292 232.565 252.281 232.586 252.265 232.603C252.249 232.621 252.228 232.633 252.206 232.641C251.778 232.746 251.341 232.805 250.901 232.818ZM250.245 231.794C250.195 231.783 250.143 231.783 250.094 231.794C250.068 231.807 250.048 231.827 250.034 231.852C250.02 231.876 250.013 231.904 250.015 231.932C249.997 232.009 250 232.088 250.023 232.163C250.046 232.238 250.089 232.305 250.146 232.359C250.402 232.588 251.045 232.614 251.891 232.45C251.387 232.119 250.82 231.895 250.225 231.794H250.245Z" fill="#E6E6E6"/>
<path d="M252.174 232.641C252.157 232.646 252.138 232.646 252.121 232.641C251.629 232.365 250.704 231.283 250.842 230.732C250.863 230.644 250.912 230.566 250.982 230.511C251.052 230.455 251.139 230.424 251.229 230.423C251.317 230.412 251.407 230.419 251.491 230.445C251.576 230.471 251.655 230.515 251.721 230.574C252.265 231.04 252.298 232.47 252.298 232.542C252.301 232.564 252.297 232.586 252.287 232.605C252.276 232.624 252.259 232.639 252.239 232.647C252.217 232.652 252.194 232.649 252.174 232.641ZM251.295 230.64H251.249C251.098 230.64 251.078 230.725 251.072 230.758C250.993 231.079 251.577 231.899 252.062 232.286C252.06 231.732 251.888 231.192 251.57 230.738C251.494 230.672 251.396 230.637 251.295 230.64Z" fill="#E6E6E6"/>
<path d="M233.482 231.998C233.081 232.138 232.644 232.138 232.243 231.998C232.151 231.949 232.074 231.877 232.018 231.79C231.962 231.703 231.928 231.603 231.921 231.5C231.913 231.435 231.921 231.369 231.945 231.308C231.969 231.247 232.008 231.194 232.059 231.152C232.584 230.68 234.729 231.152 234.971 231.244C234.995 231.25 235.015 231.263 235.029 231.282C235.044 231.302 235.051 231.325 235.05 231.349C235.051 231.373 235.045 231.398 235.032 231.419C235.019 231.44 235 231.457 234.978 231.467C234.495 231.685 233.995 231.863 233.482 231.998ZM232.413 231.218C232.338 231.233 232.268 231.267 232.21 231.316C232.189 231.332 232.173 231.353 232.164 231.377C232.154 231.402 232.152 231.428 232.157 231.454C232.162 231.523 232.183 231.589 232.22 231.648C232.256 231.706 232.307 231.754 232.367 231.788C232.715 231.972 233.522 231.828 234.565 231.388C233.862 231.211 233.135 231.153 232.413 231.218Z" fill="#E6E6E6"/>
<path d="M234.958 231.464H234.906C234.25 231.346 232.938 230.591 232.898 230.027C232.898 229.896 232.957 229.712 233.272 229.607C233.379 229.569 233.492 229.553 233.604 229.56C233.717 229.567 233.827 229.596 233.928 229.647C234.637 229.994 235.011 231.254 235.03 231.313C235.035 231.333 235.034 231.353 235.029 231.373C235.023 231.392 235.012 231.41 234.998 231.424C234.988 231.44 234.974 231.454 234.958 231.464ZM233.404 229.804H233.338C233.135 229.876 233.135 229.961 233.135 229.988C233.135 230.329 234.086 230.952 234.748 231.162C234.596 230.635 234.273 230.174 233.83 229.85C233.698 229.783 233.547 229.767 233.404 229.804Z" fill="#E6E6E6"/>
<path d="M225.519 94.707L218.677 97.8558L217.883 99.8238L220.408 101.523C220.408 101.523 225.132 101.011 226.476 97.9739L225.519 94.707Z" fill="#F5BBB1"/>
<path d="M225.808 98.792C225.655 97.4774 225.221 96.2111 224.535 95.0791L225.618 94.2656C226.432 95.5699 226.951 97.0364 227.139 98.5624L225.808 98.792Z" fill="#263238"/>
<path d="M226.974 95.6379C227.118 95.8654 227.19 96.132 227.177 96.4013C227.165 96.6706 227.07 96.9296 226.906 97.1431C226.741 97.3566 226.515 97.5142 226.257 97.5944C226 97.6747 225.724 97.6737 225.467 97.5916C225.21 97.5095 224.985 97.3503 224.822 97.1356C224.659 96.921 224.566 96.6613 224.556 96.3919C224.545 96.1225 224.618 95.8564 224.765 95.63C224.911 95.4035 225.123 95.2276 225.373 95.1262C225.654 94.9834 225.979 94.957 226.279 95.0528C226.579 95.1486 226.828 95.3589 226.974 95.6379Z" fill="#263238"/>
<path d="M214.051 100.405L214.963 101.323L221.103 98.6991L218.676 97.8594L214.051 100.405Z" fill="#F5BBB1"/>
<path opacity="0.2" d="M240.417 220.305C240.457 220.305 241.349 222.811 241.349 222.811L232.27 226.629L230.84 223.965L240.417 220.305Z" fill="black"/>
<path opacity="0.2" d="M258.977 223.487C259.016 223.487 259.278 226.013 259.278 226.013H249.333L248.625 223.113L258.977 223.487Z" fill="black"/>
<path d="M257.439 68.5105C259.243 74.3292 252.191 82.2865 252.191 82.2865L242.449 78.3112C243.604 74.948 244.935 71.6481 246.438 68.4252C249.429 61.9768 255.615 62.6393 257.439 68.5105Z" fill="#E6E6E6"/>
<path opacity="0.2" d="M257.439 68.5105C259.243 74.3292 252.191 82.2865 252.191 82.2865L242.449 78.3112C243.604 74.948 244.935 71.6481 246.438 68.4252C249.429 61.9768 255.615 62.6393 257.439 68.5105Z" fill="black"/>
<path d="M160.641 10.2148H156.449V10.8905H160.641V10.2148Z" fill="#8F7EF3"/>
<path d="M214.902 36.9562L214.395 48.2148L215.07 48.2453L215.577 36.9866L214.902 36.9562Z" fill="#8F7EF3"/>
<path d="M213.599 13.2461H136.191L128.988 174.438H206.396L213.599 13.2461Z" fill="#8F7EF3"/>
<path opacity="0.56" d="M211.291 15.4609H133.883L126.68 176.653H204.088L211.291 15.4609Z" fill="#FAFAFA"/>
<path opacity="0.07" d="M208.981 17.6758H131.573L124.363 178.868H201.771L208.981 17.6758Z" fill="#8F7EF3"/>
<path opacity="0.47" d="M186.566 150.25H142.135L141.473 165.03H185.904L186.566 150.25Z" fill="#8F7EF3"/>
<path d="M183.592 167.326H139.162C139.142 167.331 139.122 167.331 139.103 167.326C139.096 167.307 139.096 167.286 139.103 167.267L139.759 152.481C139.758 152.471 139.761 152.461 139.765 152.451C139.769 152.442 139.775 152.434 139.782 152.427C139.789 152.42 139.798 152.415 139.808 152.412C139.817 152.409 139.827 152.408 139.837 152.408H184.268C184.276 152.404 184.285 152.402 184.294 152.402C184.303 152.402 184.312 152.404 184.321 152.408C184.325 152.416 184.328 152.426 184.328 152.435C184.328 152.444 184.325 152.453 184.321 152.461L183.678 167.28C183.67 167.295 183.657 167.308 183.642 167.316C183.627 167.324 183.61 167.328 183.592 167.326ZM139.24 167.168H183.514L184.17 152.54H139.896L139.24 167.168Z" fill="white"/>
<path d="M185.72 48.1355C185.55 51.7248 184.274 55.1735 182.066 58.0083C180.432 60.1496 178.328 61.8879 175.917 63.0899C173.507 64.2919 170.853 64.9256 168.159 64.9423C165.982 64.9589 163.825 64.5296 161.82 63.681C159.816 62.8323 158.006 61.5822 156.503 60.0077C154.999 58.4332 153.834 56.5676 153.08 54.5258C152.325 52.484 151.996 50.3093 152.113 48.1355C152.344 43.6249 154.289 39.3728 157.551 36.2487C160.813 33.1247 165.145 31.3647 169.661 31.3288C171.84 31.3085 173.999 31.7351 176.006 32.5823C178.013 33.4295 179.825 34.6793 181.33 36.2544C182.835 37.8295 184.001 39.6965 184.756 41.7401C185.511 43.7836 185.839 45.9603 185.72 48.1355Z" fill="white"/>
<path d="M187.299 34.8477C187.256 35.8021 186.917 36.7193 186.328 37.4717C185.892 38.0404 185.333 38.5021 184.691 38.8216C184.05 39.1411 183.344 39.3098 182.628 39.3151C181.934 39.3193 181.249 39.1535 180.634 38.8321C180.019 38.5108 179.492 38.0437 179.099 37.4717C178.578 36.6987 178.321 35.7786 178.364 34.8477C178.428 33.6501 178.945 32.5218 179.812 31.6929C180.679 30.864 181.829 30.3969 183.028 30.3869C183.607 30.3816 184.18 30.4949 184.713 30.7196C185.247 30.9444 185.728 31.276 186.128 31.6939C186.528 32.1118 186.838 32.6073 187.04 33.1497C187.241 33.6921 187.329 34.2699 187.299 34.8477Z" fill="#8F7EF3"/>
<path d="M203.725 88.375H137.653L137.102 100.708H203.174L203.725 88.375Z" fill="white"/>
<path d="M173.987 79.375H138.051L137.809 84.892H173.744L173.987 79.375Z" fill="#8F7EF3"/>
<path d="M144.771 94.5384C144.739 95.067 144.509 95.564 144.125 95.9292C143.742 96.2944 143.234 96.5007 142.704 96.5064C142.449 96.5094 142.195 96.46 141.959 96.3611C141.723 96.2623 141.51 96.1161 141.333 95.9317C141.156 95.7472 141.019 95.5284 140.93 95.2887C140.841 95.0491 140.802 94.7937 140.815 94.5384C140.844 94.0087 141.073 93.5099 141.457 93.144C141.842 92.7782 142.351 92.573 142.881 92.5704C143.137 92.5683 143.39 92.6184 143.625 92.7175C143.861 92.8167 144.073 92.9629 144.25 93.1472C144.427 93.3314 144.565 93.5499 144.654 93.7891C144.744 94.0283 144.783 94.2833 144.771 94.5384Z" fill="#263238"/>
<path d="M153.612 94.5384C153.582 95.0676 153.352 95.5655 152.968 95.931C152.584 96.2966 152.075 96.5023 151.545 96.5064C151.29 96.5086 151.037 96.4585 150.802 96.3592C150.567 96.26 150.355 96.1137 150.179 95.9293C150.002 95.745 149.866 95.5265 149.777 95.2873C149.688 95.0481 149.649 94.7932 149.663 94.5384C149.691 94.0099 149.92 93.512 150.303 93.1463C150.685 92.7806 151.193 92.5747 151.723 92.5704C151.978 92.5674 152.232 92.6168 152.468 92.7157C152.703 92.8145 152.917 92.9607 153.094 93.1452C153.271 93.3296 153.408 93.5484 153.497 93.7881C153.586 94.0277 153.625 94.2831 153.612 94.5384Z" fill="#263238"/>
<path d="M162.462 94.5384C162.432 95.0676 162.202 95.5655 161.818 95.931C161.434 96.2966 160.925 96.5023 160.395 96.5064C160.14 96.5085 159.887 96.4585 159.652 96.3593C159.416 96.2601 159.204 96.1139 159.027 95.9297C158.85 95.7454 158.712 95.527 158.623 95.2878C158.533 95.0485 158.494 94.7936 158.506 94.5384C158.536 94.0093 158.766 93.5114 159.15 93.1459C159.534 92.7803 160.043 92.5746 160.573 92.5704C160.828 92.5674 161.082 92.6168 161.318 92.7157C161.553 92.8145 161.766 92.9607 161.944 93.1452C162.121 93.3296 162.258 93.5484 162.347 93.7881C162.436 94.0277 162.475 94.2831 162.462 94.5384Z" fill="#263238"/>
<path d="M199.791 121.18H133.719L133.168 133.512H199.24L199.791 121.18Z" fill="white"/>
<path d="M163.782 112.18H134.118L133.875 117.703H163.533L163.782 112.18Z" fill="#8F7EF3"/>
<path d="M140.837 127.343C140.805 127.872 140.575 128.369 140.191 128.734C139.808 129.099 139.3 129.305 138.77 129.311C138.515 129.313 138.262 129.263 138.027 129.164C137.791 129.065 137.579 128.919 137.402 128.734C137.225 128.55 137.087 128.332 136.998 128.092C136.908 127.853 136.869 127.598 136.881 127.343C136.911 126.814 137.141 126.316 137.525 125.95C137.909 125.585 138.418 125.379 138.948 125.375C139.203 125.373 139.456 125.423 139.691 125.522C139.927 125.621 140.139 125.768 140.316 125.952C140.493 126.136 140.631 126.355 140.72 126.594C140.81 126.833 140.849 127.088 140.837 127.343Z" fill="#263238"/>
<path d="M149.678 127.343C149.648 127.871 149.419 128.368 149.037 128.733C148.654 129.099 148.147 129.305 147.618 129.311C147.363 129.314 147.109 129.265 146.873 129.166C146.638 129.067 146.425 128.921 146.247 128.736C146.07 128.552 145.933 128.333 145.844 128.093C145.755 127.854 145.716 127.598 145.729 127.343C145.759 126.814 145.989 126.316 146.373 125.95C146.757 125.585 147.266 125.379 147.796 125.375C148.051 125.373 148.304 125.423 148.539 125.522C148.774 125.622 148.986 125.768 149.162 125.952C149.339 126.137 149.475 126.355 149.564 126.594C149.653 126.833 149.692 127.088 149.678 127.343Z" fill="#263238"/>
<path d="M158.547 127.343C158.517 127.872 158.287 128.37 157.903 128.736C157.52 129.101 157.011 129.307 156.481 129.311C156.226 129.312 155.973 129.262 155.738 129.162C155.503 129.063 155.291 128.916 155.114 128.732C154.938 128.548 154.8 128.33 154.71 128.091C154.621 127.853 154.58 127.598 154.592 127.343C154.623 126.815 154.854 126.318 155.238 125.952C155.621 125.587 156.129 125.381 156.658 125.375C156.914 125.372 157.167 125.422 157.403 125.52C157.639 125.619 157.852 125.765 158.029 125.95C158.206 126.134 158.344 126.353 158.433 126.593C158.522 126.832 158.561 127.088 158.547 127.343Z" fill="#263238"/>
<path d="M167.379 127.343C167.348 127.872 167.117 128.369 166.734 128.734C166.35 129.099 165.843 129.305 165.313 129.311C165.058 129.312 164.805 129.261 164.57 129.162C164.335 129.062 164.123 128.916 163.946 128.732C163.77 128.548 163.632 128.33 163.542 128.091C163.453 127.853 163.412 127.598 163.424 127.343C163.455 126.814 163.686 126.317 164.07 125.952C164.453 125.587 164.961 125.381 165.49 125.375C165.746 125.373 165.999 125.423 166.234 125.522C166.469 125.621 166.682 125.768 166.859 125.952C167.036 126.136 167.173 126.355 167.263 126.594C167.352 126.833 167.392 127.088 167.379 127.343Z" fill="#263238"/>
<path d="M176.259 127.343C176.228 127.872 175.997 128.369 175.613 128.734C175.23 129.099 174.722 129.305 174.193 129.311C173.937 129.314 173.683 129.265 173.448 129.166C173.212 129.067 172.999 128.921 172.822 128.736C172.645 128.552 172.507 128.333 172.418 128.093C172.329 127.854 172.29 127.598 172.303 127.343C172.333 126.814 172.564 126.316 172.947 125.95C173.331 125.585 173.84 125.379 174.37 125.375C174.625 125.373 174.878 125.423 175.114 125.522C175.349 125.621 175.562 125.768 175.739 125.952C175.915 126.136 176.053 126.355 176.142 126.594C176.232 126.833 176.272 127.088 176.259 127.343Z" fill="#263238"/>
<path d="M173.807 47.2616C176.553 44.5766 176.698 40.2728 174.132 37.6488C171.566 35.0248 167.26 35.0743 164.515 37.7594C161.769 40.4444 161.623 44.7482 164.189 47.3722C166.755 49.9962 171.061 49.9467 173.807 47.2616Z" fill="#8F7EF3"/>
<path d="M182.067 58.0097C180.433 60.151 178.33 61.8893 175.919 63.0913C173.508 64.2933 170.854 64.9269 168.16 64.9436C165.548 64.9658 162.971 64.3449 160.655 63.1357C158.34 61.9264 156.357 60.166 154.883 58.0097C158.071 54.8347 163.116 52.7617 168.705 52.7617C174.294 52.7617 179.161 54.8347 182.067 58.0097Z" fill="#8F7EF3"/>
<path opacity="0.1" d="M173.807 47.2616C176.553 44.5766 176.698 40.2728 174.132 37.6488C171.566 35.0248 167.26 35.0743 164.515 37.7594C161.769 40.4444 161.623 44.7482 164.189 47.3722C166.755 49.9962 171.061 49.9467 173.807 47.2616Z" fill="white"/>
<path opacity="0.1" d="M182.067 58.0097C180.433 60.151 178.33 61.8893 175.919 63.0913C173.508 64.2933 170.854 64.9269 168.16 64.9436C165.548 64.9658 162.971 64.3449 160.655 63.1357C158.34 61.9264 156.357 60.166 154.883 58.0097C158.071 54.8347 163.116 52.7617 168.705 52.7617C174.294 52.7617 179.161 54.8347 182.067 58.0097Z" fill="white"/>
<path d="M85.5508 103.281C84.9276 104.645 84.2716 106.148 83.7009 107.604C83.1301 109.06 82.5463 110.562 82.0412 112.058C81.0098 115.006 80.2243 118.034 79.6927 121.111L79.5484 122.075C79.5346 122.241 79.5502 122.407 79.5943 122.567C79.7491 123.111 79.9929 123.625 80.3159 124.089C81.1583 125.29 82.1356 126.391 83.2285 127.369C84.3809 128.441 85.5896 129.45 86.8497 130.393C88.1092 131.364 89.4343 132.309 90.7397 133.201L89.513 135.504C86.3958 134.145 83.4371 132.449 80.6898 130.446C79.2241 129.377 77.9014 128.125 76.7538 126.72C76.0736 125.883 75.5432 124.936 75.186 123.919C74.9783 123.283 74.872 122.619 74.8711 121.951C74.8711 121.793 74.8711 121.564 74.8711 121.452V121.131L74.9367 120.475C75.3128 117.057 76.0314 113.686 77.0818 110.412C77.5935 108.798 78.138 107.191 78.7612 105.623C79.3844 104.055 80.0273 102.52 80.821 100.926L85.5508 103.281Z" fill="#F5BBB1"/>
<path d="M89.8139 132.798L94.4518 130.449L93.2513 135.54C93.2513 135.54 90.0697 136.432 88.5938 134.884L89.8139 132.798Z" fill="#F5BBB1"/>
<path d="M98.6948 131.282L97.4615 135.494L93.25 135.54L94.4505 130.449L98.6948 131.282Z" fill="#F5BBB1"/>
<path d="M105.244 78.7188C105.492 79.6279 105.837 80.5076 106.274 81.3427C106.146 81.4874 105.982 81.5948 105.798 81.6537C105.614 81.7126 105.418 81.7208 105.23 81.6773L105.244 78.7188Z" fill="#EFA294"/>
<path d="M105.105 78.7588C105.377 78.7588 105.597 78.421 105.597 78.0044C105.597 77.5878 105.377 77.25 105.105 77.25C104.834 77.25 104.613 77.5878 104.613 78.0044C104.613 78.421 104.834 78.7588 105.105 78.7588Z" fill="#263238"/>
<path d="M104.961 77.2782L105.958 76.9961C105.958 76.9961 105.473 77.7702 104.961 77.2782Z" fill="#263238"/>
<path d="M92.4329 83.5352C93.0299 86.5856 93.6268 92.1812 91.4883 94.2214C91.4883 94.2214 92.328 97.3177 98.0024 97.3177C104.241 97.3177 100.981 94.2214 100.981 94.2214C97.576 93.408 97.6612 90.8824 98.2582 88.5076L92.4329 83.5352Z" fill="#F5BBB1"/>
<path d="M90.7743 76.5827C91.0892 81.6798 91.1154 83.8446 93.687 86.4621C97.5639 90.3981 103.757 88.9024 104.97 83.8381C106.066 79.2461 105.37 71.6889 100.378 69.6619C99.2824 69.2105 98.0895 69.0461 96.9124 69.1842C95.7354 69.3224 94.613 69.7585 93.6515 70.4514C92.69 71.1443 91.9212 72.071 91.4177 73.1439C90.9142 74.2168 90.6928 75.4004 90.7743 76.5827Z" fill="#F5BBB1"/>
<path d="M91.279 70.8491C88.7206 71.7807 85.3094 71.0853 86.6477 78.977C88.0646 87.3344 85.8867 90.0831 85.8867 90.0831C85.8867 90.0831 95.589 92.1495 105.495 89.9584C105.495 89.9584 102.47 84.6711 103.317 80.7744C104.399 75.8544 103.546 74.0373 103.546 74.0373C103.546 74.0373 94.8739 69.5371 91.279 70.8491Z" fill="#263238"/>
<path d="M102.102 79.2397C102.104 80.2088 102.382 81.1574 102.902 81.9752C103.597 83.0379 104.417 82.6312 104.621 81.5029C104.804 80.5123 104.667 78.7608 103.781 78.0786C102.895 77.3963 102.115 78.0654 102.102 79.2397Z" fill="#F5BBB1"/>
<path d="M89.0528 71.7085C88.3181 69.6421 91.8211 66.4605 99.2339 67.7725C106.647 69.0845 106.968 75.2575 106.968 75.2575L105.472 73.4732L105.538 75.3493L97.9219 76.8122L89.0528 71.7085Z" fill="#263238"/>
<path d="M89.6841 94.5706C89.6403 94.2711 89.7153 93.9663 89.8929 93.7212C90.0706 93.4762 90.337 93.3102 90.6353 93.2586C92.9444 92.8781 98.1924 92.1041 100.83 92.4714C102.798 92.7469 103.309 93.8884 103.394 94.8264C103.408 94.9907 103.386 95.1559 103.33 95.311C103.274 95.466 103.186 95.6074 103.071 95.7254C102.956 95.8435 102.817 95.9356 102.664 95.9955C102.51 96.0555 102.345 96.0818 102.181 96.0728L90.7796 95.5612C90.5108 95.5476 90.255 95.4416 90.0553 95.2611C89.8557 95.0806 89.7246 94.8367 89.6841 94.5706Z" fill="#407BFF"/>
<path opacity="0.6" d="M89.6841 94.5706C89.6403 94.2711 89.7153 93.9663 89.8929 93.7212C90.0706 93.4762 90.337 93.3102 90.6353 93.2586C92.9444 92.8781 98.1924 92.1041 100.83 92.4714C102.798 92.7469 103.309 93.8884 103.394 94.8264C103.408 94.9907 103.386 95.1559 103.33 95.311C103.274 95.466 103.186 95.6074 103.071 95.7254C102.956 95.8435 102.817 95.9356 102.664 95.9955C102.51 96.0555 102.345 96.0818 102.181 96.0728L90.7796 95.5612C90.5108 95.5476 90.255 95.4416 90.0553 95.2611C89.8557 95.0806 89.7246 94.8367 89.6841 94.5706Z" fill="black"/>
<path d="M96.2773 209.177L100.509 212.116L107.587 202.518L103.356 199.586L96.2773 209.177Z" fill="#F5BBB1"/>
<path d="M86.4102 208.98L90.8775 211.526L97.1423 201.377L92.675 198.832L86.4102 208.98Z" fill="#F5BBB1"/>
<path d="M107.578 202.518L103.93 207.465L99.6992 204.532L103.347 199.586L107.578 202.518Z" fill="#DA9386"/>
<path d="M92.6689 198.832L97.1428 201.384L93.9153 206.612L89.4414 204.06L92.6689 198.832Z" fill="#DA9386"/>
<path d="M99.8414 126.609C99.8414 126.609 116.359 147.424 113.257 167.334C110.757 183.412 96.2597 205.185 96.2597 205.185L89.4438 201.8C94.248 192.173 98.3478 182.211 101.711 171.991C102.748 168.819 103.051 165.452 102.596 162.145C102.142 158.838 100.942 155.677 99.087 152.902C90.7165 140.681 77.3078 147.956 86.3278 126.609H99.8414Z" fill="#8F8F8F"/>
<path opacity="0.4" d="M107.948 139.978L105.547 137.59C105.547 137.78 110.198 166.493 111.503 174.562C112.274 172.205 112.864 169.793 113.268 167.346C114.803 157.578 111.595 147.6 107.948 139.978Z" fill="black"/>
<path d="M107.219 126.609C107.219 126.609 127.109 152.771 127.673 168.456C128.139 181.576 106.025 206.996 106.025 206.996L99.5962 202.837C99.5962 202.837 112.539 184.783 115.799 170.037C114.54 155.421 87.9062 126.609 87.9062 126.609H107.219Z" fill="#8F8F8F"/>
<path d="M82.6109 95.391C80.4855 95.8962 78.4453 103.624 78.4453 103.624L86.7568 109.174C86.7568 109.174 89.5252 103.06 88.5543 100.383C87.5506 97.5952 85.2808 94.7547 82.6109 95.391Z" fill="#E6E6E6"/>
<path opacity="0.2" d="M84.2374 100.371L83.6602 107.108L86.7499 109.181C87.6031 107.26 88.2347 105.249 88.6326 103.185L84.2374 100.371Z" fill="black"/>
<path d="M109.676 95.5432C109.676 95.5432 112.129 96.4025 107.216 126.605H86.3158C86.67 118.077 86.6766 112.829 82.6094 95.3923C85.5358 94.7892 88.5022 94.399 91.4851 94.2246C94.6451 93.998 97.8173 93.998 100.977 94.2246C105.058 94.5985 109.676 95.5432 109.676 95.5432Z" fill="#E5E5E5"/>
<path d="M111.801 100.369C112.273 101.681 112.771 103.091 113.296 104.449C113.821 105.807 114.32 107.204 114.851 108.582L116.458 112.702L116.865 113.732L117.075 114.243L117.173 114.499C117.173 114.545 117.173 114.545 117.173 114.538C117.053 114.37 116.896 114.23 116.714 114.132C116.455 113.979 116.162 113.891 115.861 113.876C115.611 113.868 115.363 113.915 115.133 114.014C114.831 114.151 114.831 114.21 114.838 114.204C114.892 114.16 114.941 114.109 114.982 114.053C115.345 113.576 115.66 113.064 115.92 112.525C116.229 111.921 116.524 111.278 116.819 110.629C117.396 109.317 117.928 107.959 118.459 106.588C118.99 105.217 119.495 103.833 119.987 102.435L121.483 98.25L124.009 98.906C123.51 101.897 122.867 104.81 122.093 107.775C121.719 109.251 121.28 110.714 120.781 112.19C120.532 112.931 120.256 113.666 119.942 114.42C119.613 115.239 119.209 116.025 118.735 116.769C118.56 117.019 118.367 117.256 118.157 117.477C117.822 117.839 117.416 118.127 116.963 118.324C116.562 118.496 116.127 118.577 115.691 118.56C115.202 118.542 114.725 118.399 114.307 118.146C113.812 117.838 113.402 117.412 113.113 116.907C113.014 116.736 112.929 116.566 112.87 116.441L112.745 116.192L112.496 115.68L111.997 114.663C111.341 113.299 110.685 111.921 110.115 110.537C109.544 109.153 108.94 107.749 108.376 106.338C107.812 104.928 107.307 103.518 106.828 101.996L111.801 100.369Z" fill="#F5BBB1"/>
<path d="M109.678 95.5442C112.191 96.1412 115.018 103.567 115.018 103.567L107.546 109.924C107.546 109.924 102.712 101.829 103.689 99.1588C104.706 96.3773 106.398 94.7636 109.678 95.5442Z" fill="#E6E6E6"/>
<path d="M122.675 95.902L125.299 93.7109L127.123 96.5514L125.778 98.9196C125.778 98.9196 123.639 100.888 121.75 99.8839C121.45 99.2099 121.378 98.4565 121.545 97.7379C121.712 97.0193 122.109 96.3748 122.675 95.902Z" fill="#F5BBB1"/>
<path d="M130.033 93.7175L129.837 94.4325L125.684 95.1279L125.277 93.7109L130.033 93.7175Z" fill="#F5BBB1"/>
<path d="M106.534 207.329L99.043 202.488L100.388 200.152L108.804 205.328L106.534 207.329Z" fill="#E6E6E6"/>
<path d="M93.8081 211.188C93.1508 211.108 92.5192 210.884 91.9582 210.532C91.935 210.524 91.915 210.509 91.9007 210.489C91.8865 210.469 91.8789 210.445 91.8789 210.42C91.8789 210.396 91.8865 210.372 91.9007 210.352C91.915 210.332 91.935 210.317 91.9582 210.309C92.1615 210.243 93.9262 209.699 94.4379 210.119C94.4954 210.166 94.5391 210.229 94.5644 210.299C94.5898 210.369 94.5959 210.445 94.5822 210.519C94.5731 210.637 94.5339 210.751 94.4685 210.849C94.4031 210.948 94.3135 211.028 94.2083 211.083C94.0854 211.15 93.948 211.186 93.8081 211.188ZM92.3321 210.466C93.1521 210.886 93.8081 211.037 94.123 210.88C94.1915 210.842 94.2492 210.787 94.2906 210.72C94.3319 210.653 94.3555 210.577 94.3591 210.499C94.3591 210.394 94.3591 210.348 94.3001 210.322C94.0246 210.099 93.0406 210.269 92.319 210.466H92.3321Z" fill="#263238"/>
<path d="M92.0052 210.575C91.9705 210.575 91.9375 210.561 91.9133 210.536C91.9036 210.518 91.8984 210.497 91.8984 210.477C91.8984 210.456 91.9036 210.436 91.9133 210.418C91.9133 210.359 92.3397 208.935 93.0088 208.614C93.0943 208.575 93.1871 208.555 93.2811 208.555C93.375 208.555 93.4678 208.575 93.5533 208.614C93.6454 208.643 93.7252 208.702 93.7799 208.782C93.8345 208.861 93.861 208.957 93.8551 209.053C93.8092 209.644 92.6087 210.457 92.0576 210.595L92.0052 210.575ZM93.2778 208.784C93.214 208.786 93.1513 208.802 93.0941 208.83C92.6874 209.027 92.3528 209.795 92.1888 210.26C92.7661 210.018 93.5599 209.375 93.5861 209.014C93.5861 208.955 93.5861 208.883 93.4352 208.817C93.3861 208.791 93.3329 208.773 93.2778 208.765V208.784Z" fill="#263238"/>
<path d="M103.17 214.02C102.429 214.02 101.399 213.069 100.835 212.485C100.82 212.465 100.812 212.441 100.812 212.416C100.813 212.391 100.82 212.367 100.835 212.347C100.848 212.326 100.866 212.309 100.888 212.297C100.91 212.286 100.935 212.28 100.959 212.281C101.222 212.281 103.498 212.623 103.819 213.265C103.854 213.323 103.871 213.389 103.871 213.456C103.871 213.523 103.854 213.588 103.819 213.646C103.771 213.746 103.698 213.832 103.608 213.897C103.517 213.961 103.412 214.001 103.301 214.013L103.17 214.02ZM101.268 212.577C102.094 213.377 102.822 213.823 103.236 213.771C103.308 213.761 103.377 213.734 103.436 213.692C103.496 213.649 103.544 213.593 103.577 213.528C103.591 213.505 103.599 213.479 103.599 213.452C103.599 213.426 103.591 213.399 103.577 213.377C103.406 213.023 102.193 212.721 101.268 212.577Z" fill="#263238"/>
<path d="M101.339 212.545C101.192 212.549 101.045 212.538 100.9 212.512C100.879 212.509 100.86 212.501 100.844 212.488C100.828 212.475 100.816 212.459 100.808 212.44C100.798 212.42 100.793 212.399 100.793 212.377C100.793 212.356 100.798 212.334 100.808 212.315C100.847 212.269 101.733 211.2 102.573 211.128C102.81 211.109 103.046 211.185 103.229 211.338C103.484 211.561 103.471 211.758 103.406 211.882C103.242 212.328 102.107 212.545 101.339 212.545ZM101.169 212.302C101.903 212.341 103.078 212.099 103.229 211.777C103.229 211.777 103.281 211.672 103.11 211.528C103.043 211.469 102.963 211.424 102.878 211.397C102.792 211.37 102.701 211.361 102.612 211.37C102.046 211.528 101.543 211.856 101.169 212.309V212.302Z" fill="#263238"/>
<path d="M92.1836 209.869L86.6208 208.295C86.5249 208.266 86.4216 208.273 86.3308 208.316C86.2401 208.358 86.1681 208.432 86.1288 208.524L84.2526 212.742C84.2085 212.851 84.1879 212.967 84.1919 213.083C84.1959 213.2 84.2246 213.314 84.2761 213.419C84.3275 213.524 84.4005 213.616 84.4903 213.691C84.5801 213.765 84.6847 213.82 84.7971 213.851C86.7651 214.363 87.7097 214.507 90.1566 215.209C91.6654 215.629 93.8171 216.41 95.8966 217C97.9761 217.59 98.6715 215.563 97.8646 215.13C94.2172 213.202 93.9286 211.85 92.9315 210.407C92.7529 210.146 92.4882 209.955 92.1836 209.869Z" fill="#E6E6E6"/>
<path d="M100.987 211.717L96.2379 208.437C96.1574 208.379 96.0581 208.352 95.959 208.361C95.8598 208.371 95.7676 208.417 95.7 208.49L92.5512 211.875C92.4744 211.962 92.4172 212.065 92.3833 212.176C92.3493 212.288 92.3395 212.405 92.3544 212.52C92.3693 212.636 92.4086 212.747 92.4697 212.846C92.5307 212.945 92.6122 213.03 92.7086 213.095C94.3814 214.217 95.2473 214.669 97.34 216.119C98.652 217.011 101.191 218.992 102.962 220.226C104.733 221.459 106.052 219.766 105.422 219.097C102.601 216.086 101.984 214.197 101.519 212.485C101.438 212.174 101.25 211.902 100.987 211.717Z" fill="#E6E6E6"/>
<path d="M97.135 205.619L88.5742 201.361L89.4598 199.039L98.6045 203.526L97.135 205.619Z" fill="#E6E6E6"/>
<path d="M86.0039 125.378L85.2823 127.267C85.2102 127.411 85.3807 127.562 85.6234 127.562H107.324C107.514 127.562 107.672 127.47 107.685 127.352L107.868 125.476C107.868 125.352 107.718 125.24 107.514 125.24H86.345C86.2813 125.234 86.2171 125.243 86.1577 125.267C86.0984 125.291 86.0456 125.329 86.0039 125.378Z" fill="#C7BEF7"/>
<path opacity="0.4" d="M86.0039 125.378L85.2823 127.267C85.2102 127.411 85.3807 127.562 85.6234 127.562H107.324C107.514 127.562 107.672 127.47 107.685 127.352L107.868 125.476C107.868 125.352 107.718 125.24 107.514 125.24H86.345C86.2813 125.234 86.2171 125.243 86.1577 125.267C86.0984 125.291 86.0456 125.329 86.0039 125.378Z" fill="white"/>
<path d="M89.4215 127.744H88.8508C88.7392 127.744 88.654 127.685 88.6605 127.613L88.9295 125.179C88.9295 125.114 89.0344 125.055 89.146 125.055H89.7167C89.8282 125.055 89.9135 125.114 89.9069 125.179L89.638 127.613C89.6314 127.685 89.533 127.744 89.4215 127.744Z" fill="#8F7EF3"/>
<path d="M102.802 127.744H102.237C102.126 127.744 102.041 127.685 102.047 127.613L102.31 125.179C102.31 125.114 102.421 125.055 102.533 125.055H103.097C103.208 125.055 103.3 125.114 103.287 125.179L103.025 127.613C102.992 127.685 102.92 127.744 102.802 127.744Z" fill="#8F7EF3"/>
<g style="mix-blend-mode:multiply">
<path d="M88.9219 238.838C98.6279 238.838 106.496 238.268 106.496 237.566C106.496 236.863 98.6279 236.293 88.9219 236.293C79.2159 236.293 71.3477 236.863 71.3477 237.566C71.3477 238.268 79.2159 238.838 88.9219 238.838Z" fill="#F5F5F5"/>
</g>
<path d="M99.6282 235.768C96.5187 234.862 93.0682 233.701 90.9821 232.488C90.9231 232.448 90.8575 232.429 90.7984 232.396V218.318H97.0895C97.567 218.29 98.0157 218.08 98.3439 217.732C98.672 217.384 98.8547 216.924 98.8547 216.445C98.8547 215.967 98.672 215.506 98.3439 215.158C98.0157 214.81 97.567 214.601 97.0895 214.572H90.8312V150.402H87.0527V214.572H80.801C80.5457 214.557 80.29 214.594 80.0497 214.682C79.8093 214.769 79.5893 214.904 79.4033 215.08C79.2172 215.255 79.0689 215.467 78.9676 215.702C78.8662 215.936 78.8139 216.189 78.8139 216.445C78.8139 216.701 78.8662 216.954 78.9676 217.189C79.0689 217.423 79.2172 217.635 79.4033 217.81C79.5893 217.986 79.8093 218.121 80.0497 218.209C80.29 218.296 80.5457 218.333 80.801 218.318H87.0527V232.376C86.9936 232.376 86.9346 232.429 86.8755 232.468C84.7567 233.701 81.3323 234.862 78.2229 235.748C78.0129 235.811 77.8325 235.948 77.7145 236.133C77.5964 236.318 77.5486 236.539 77.5795 236.756C77.6104 236.974 77.7181 237.173 77.883 237.317C78.048 237.462 78.2593 237.543 78.4787 237.545H99.3723C99.582 237.531 99.7805 237.445 99.9345 237.302C100.089 237.159 100.189 236.968 100.219 236.76C100.249 236.552 100.207 236.34 100.099 236.159C99.9915 235.979 99.8253 235.84 99.6282 235.768Z" fill="#E0E0E0"/>
<path d="M100.593 143.867H77.2653C75.3886 143.867 73.8672 145.389 73.8672 147.265V154.199C73.8672 156.076 75.3886 157.597 77.2653 157.597H100.593C102.469 157.597 103.991 156.076 103.991 154.199V147.265C103.991 145.389 102.469 143.867 100.593 143.867Z" fill="#B8B6B6"/>
<path d="M77.0469 157.605V158.799C77.0469 159.783 78.1162 160.584 79.4282 160.584H98.4522C99.7642 160.584 100.833 159.783 100.833 158.799V157.605H77.0469Z" fill="#E6E6E6"/>
</svg>
