<svg width="15" height="15" viewBox="0 0 15 15" fill="none" xmlns="http://www.w3.org/2000/svg">
<path d="M1.95834 13.0416H3.06667L9.89479 6.21346L8.78646 5.10513L1.95834 11.9333V13.0416ZM13.2792 5.06554L9.91459 1.74054L11.0229 0.63221C11.3264 0.328738 11.6993 0.177002 12.1415 0.177002C12.5838 0.177002 12.9564 0.328738 13.2594 0.63221L14.3677 1.74054C14.6712 2.04402 14.8295 2.41029 14.8427 2.83938C14.8559 3.26846 14.7108 3.63447 14.4073 3.93742L13.2792 5.06554ZM1.16667 14.6249C0.942364 14.6249 0.754211 14.5489 0.602211 14.3969C0.450211 14.2449 0.374475 14.057 0.375003 13.8333V11.5968C0.375003 11.4912 0.394794 11.3889 0.434378 11.2896C0.473961 11.1904 0.533336 11.1015 0.612503 11.0228L8.76667 2.86867L12.1313 6.23325L3.97709 14.3874C3.89792 14.4666 3.80899 14.526 3.71029 14.5655C3.6116 14.6051 3.50921 14.6249 3.40313 14.6249H1.16667ZM9.34063 5.65929L8.78646 5.10513L9.89479 6.21346L9.34063 5.65929Z" fill="black"/>
</svg>
