<svg width="84" height="77" viewBox="0 0 84 77" fill="none" xmlns="http://www.w3.org/2000/svg">
<path d="M43.5719 68.7141C60.3613 68.7141 73.9719 55.1035 73.9719 38.3141C73.9719 21.5246 60.3613 7.91406 43.5719 7.91406C26.7824 7.91406 13.1719 21.5246 13.1719 38.3141C13.1719 55.1035 26.7824 68.7141 43.5719 68.7141Z" fill="#F9E2DD"/>
<path d="M43.4333 17.7251C31.5497 17.7251 21.7388 26.8451 21.3242 38.3142V37.6233C21.3242 25.8778 31.2733 16.2051 43.4333 16.2051C55.5933 16.2051 65.5424 25.7396 65.5424 37.6233V38.3142C65.1279 26.8451 55.4551 17.7251 43.4333 17.7251Z" fill="#EED1CA"/>
<path d="M43.4333 58.9026C55.3169 58.9026 65.1279 49.7826 65.5424 38.3135V39.0044C65.5424 50.7498 55.5933 60.4226 43.4333 60.4226C31.2733 60.4226 21.3242 50.888 21.3242 39.0044V38.3135C21.8769 49.7826 31.5497 58.9026 43.4333 58.9026Z" fill="white"/>
<path d="M3.08499 4.32124C3.36136 3.0776 4.05226 4.32124 4.05226 4.32124C4.05226 4.32124 4.32863 17.7249 5.71045 17.8631C7.23045 18.1394 6.12499 4.04487 7.92136 3.76851C9.57954 3.49215 8.61227 18.1394 10.1323 18.0012C11.6523 17.8631 11.9286 4.32124 11.9286 4.32124C11.9286 4.32124 12.6195 3.0776 12.8959 4.32124C16.9032 20.2121 13.725 26.7067 13.725 26.7067C13.725 26.7067 13.1723 28.0885 11.7904 28.0885C11.6523 28.0885 11.7904 65.8121 11.7904 70.9249C11.7904 73.4121 4.19045 73.274 4.19045 70.9249C4.19045 65.8121 4.32863 28.0885 4.19045 28.0885C2.80863 28.0885 2.2559 26.7067 2.2559 26.7067C2.2559 26.7067 -1.06046 20.2121 3.08499 4.32124ZM75.0777 3.76851C76.7359 3.76851 83.9214 8.88124 83.9214 27.9503C83.9214 34.0303 80.605 34.0303 80.605 37.8994V71.8921C80.605 71.8921 77.0123 74.2412 74.2486 71.6158V4.32124C74.2486 4.32124 74.2486 3.76851 75.0777 3.76851Z" fill="#EED1CA"/>
<line x1="1.03071" y1="76.2936" x2="83.2027" y2="0.969283" stroke="#9D0000" stroke-linecap="round"/>
</svg>
