<svg width="10" height="19" viewBox="0 0 10 19" fill="none" xmlns="http://www.w3.org/2000/svg">
<path d="M2.41127 0.398468C2.60548 0.397808 2.79737 0.440672 2.97284 0.523909C3.14832 0.607147 3.30291 0.728643 3.42527 0.879471L9.70427 8.67947C9.89547 8.91208 10 9.20386 10 9.50497C10 9.80608 9.89547 10.0979 9.70427 10.3305L3.20427 18.1305C2.9836 18.396 2.66652 18.5629 2.32277 18.5946C1.97901 18.6263 1.63675 18.5201 1.37127 18.2995C1.10578 18.0788 0.938832 17.7617 0.907139 17.418C0.875445 17.0742 0.981605 16.732 1.20226 16.4665L7.01327 9.49847L1.39727 2.53047C1.2383 2.33965 1.13732 2.10729 1.10627 1.86087C1.07523 1.61446 1.11542 1.36431 1.2221 1.14002C1.32877 0.915735 1.49746 0.7267 1.7082 0.595284C1.91894 0.463865 2.16292 0.395567 2.41127 0.398468Z" fill="black"/>
</svg>
