<svg width="39" height="39" viewBox="0 0 39 39" fill="none" xmlns="http://www.w3.org/2000/svg">
<path d="M20.5887 28.6015C20.3945 28.6022 20.2026 28.5593 20.0272 28.4761C19.8517 28.3929 19.6971 28.2714 19.5747 28.1205L13.2957 20.3205C13.1045 20.0879 13 19.7961 13 19.495C13 19.1939 13.1045 18.9021 13.2957 18.6695L19.7957 10.8695C20.0164 10.604 20.3335 10.4371 20.6772 10.4054C21.021 10.3737 21.3633 10.4799 21.6287 10.7005C21.8942 10.9212 22.0612 11.2383 22.0929 11.582C22.1246 11.9258 22.0184 12.268 21.7977 12.5335L15.9867 19.5015L21.6027 26.4695C21.7617 26.6604 21.8627 26.8927 21.8937 27.1391C21.9248 27.3855 21.8846 27.6357 21.7779 27.86C21.6712 28.0843 21.5025 28.2733 21.2918 28.4047C21.0811 28.5361 20.8371 28.6044 20.5887 28.6015Z" fill="black"/>
</svg>
