<svg width="22" height="25" viewBox="0 0 22 25" fill="none" xmlns="http://www.w3.org/2000/svg">
<path d="M17.9164 10H16.6664V9.70106C17.0866 9.22587 17.3624 8.64053 17.4611 8.01394C17.5599 7.38735 17.4777 6.74558 17.2241 6.16415C16.9704 5.58273 16.556 5.08585 16.0296 4.73198C15.5031 4.37812 14.8865 4.18199 14.2524 4.16669C13.9866 3.23858 13.4925 2.39182 12.8154 1.70368C12.2862 1.16208 11.6537 0.732217 10.9554 0.439577C10.257 0.146936 9.50699 -0.00253185 8.74979 3.24438e-05C7.19198 3.24438e-05 5.74042 0.639615 4.63521 1.80628C4.09277 1.63345 3.51161 1.62314 2.96338 1.77664C2.41516 1.93013 1.92384 2.24071 1.55001 2.67008C1.17617 3.09946 0.936173 3.62885 0.859598 4.19298C0.783022 4.75712 0.87322 5.33133 1.11907 5.84482C0.72454 6.19498 0.418884 6.6339 0.227297 7.12539C0.0357096 7.61688 -0.0363222 8.14687 0.0171391 8.67167C0.0706005 9.19646 0.248024 9.70104 0.534784 10.1438C0.821545 10.5866 1.20943 10.9548 1.66646 11.2182V22.0833C1.66729 22.8566 1.97485 23.598 2.52165 24.1448C3.06845 24.6916 3.80983 24.9992 4.58313 25H13.7498C14.5231 24.9992 15.2645 24.6916 15.8113 24.1448C16.3581 23.598 16.6656 22.8566 16.6664 22.0833V21.6667H17.9164C18.9107 21.6656 19.8639 21.2701 20.5669 20.5671C21.2699 19.8641 21.6653 18.9109 21.6664 17.9167V13.75C21.6653 12.7558 21.2699 11.8026 20.5669 11.0996C19.8639 10.3966 18.9107 10.0011 17.9164 10ZM6.66646 20.8333C6.66646 21.0544 6.57866 21.2663 6.42238 21.4226C6.2661 21.5789 6.05414 21.6667 5.83313 21.6667C5.61211 21.6667 5.40015 21.5789 5.24387 21.4226C5.08759 21.2663 4.99979 21.0544 4.99979 20.8333V12.5C4.99979 12.279 5.08759 12.067 5.24387 11.9108C5.40015 11.7545 5.61211 11.6667 5.83313 11.6667C6.05414 11.6667 6.2661 11.7545 6.42238 11.9108C6.57866 12.067 6.66646 12.279 6.66646 12.5V20.8333ZM9.99979 20.8333C9.99979 21.0544 9.91199 21.2663 9.75571 21.4226C9.59943 21.5789 9.38747 21.6667 9.16646 21.6667C8.94544 21.6667 8.73348 21.5789 8.5772 21.4226C8.42092 21.2663 8.33312 21.0544 8.33312 20.8333V12.5C8.33312 12.279 8.42092 12.067 8.5772 11.9108C8.73348 11.7545 8.94544 11.6667 9.16646 11.6667C9.38747 11.6667 9.59943 11.7545 9.75571 11.9108C9.91199 12.067 9.99979 12.279 9.99979 12.5V20.8333ZM13.3331 20.8333C13.3331 21.0544 13.2453 21.2663 13.089 21.4226C12.9328 21.5789 12.7208 21.6667 12.4998 21.6667C12.2788 21.6667 12.0668 21.5789 11.9105 21.4226C11.7542 21.2663 11.6665 21.0544 11.6665 20.8333V12.5C11.6665 12.279 11.7542 12.067 11.9105 11.9108C12.0668 11.7545 12.2788 11.6667 12.4998 11.6667C12.7208 11.6667 12.9328 11.7545 13.089 11.9108C13.2453 12.067 13.3331 12.279 13.3331 12.5V20.8333ZM14.1664 9.16669C13.7326 9.16669 13.0961 8.8969 12.7763 8.57763C12.6201 8.42132 12.4083 8.33346 12.1873 8.33336H5.83313C5.66241 8.33374 5.49593 8.38655 5.3562 8.48464C5.21647 8.58272 5.11024 8.72136 5.05188 8.88179C4.69615 9.85471 3.82271 10 3.33313 10C2.8911 10 2.46718 9.82443 2.15462 9.51187C1.84206 9.1993 1.66646 8.77538 1.66646 8.33336C1.66646 7.89133 1.84206 7.46741 2.15462 7.15485C2.46718 6.84229 2.8911 6.66669 3.33313 6.66669C3.33782 6.66669 3.80813 6.6844 4.18729 6.96877C4.27484 7.03443 4.37447 7.08221 4.48048 7.10937C4.58649 7.13653 4.69681 7.14254 4.80514 7.12706C4.91348 7.11159 5.01771 7.07493 5.11187 7.01917C5.20604 6.96341 5.2883 6.88966 5.35396 6.80211C5.41962 6.71456 5.46739 6.61494 5.49455 6.50893C5.52171 6.40291 5.52773 6.29259 5.51225 6.18426C5.49677 6.07592 5.46011 5.9717 5.40436 5.87753C5.3486 5.78336 5.27484 5.7011 5.18729 5.63544C4.64735 5.24171 4.00108 5.02023 3.33313 5.00003C3.08779 5.00018 2.84324 5.0276 2.60396 5.0818C2.52128 4.89163 2.4872 4.68388 2.5048 4.47726C2.5224 4.27064 2.59113 4.07164 2.7048 3.8982C2.81846 3.72476 2.97349 3.58232 3.15591 3.48372C3.33834 3.38511 3.54243 3.33344 3.7498 3.33336C3.94666 3.33242 4.14092 3.37842 4.31646 3.46754C4.492 3.55667 4.64376 3.68636 4.75917 3.84586C4.85308 3.9754 4.93518 4.1131 5.00448 4.25732C5.02709 4.46969 5.13038 4.66527 5.29302 4.8037C5.45567 4.94212 5.66525 5.01281 5.8785 5.00118C6.09176 4.98956 6.29241 4.89649 6.43904 4.74121C6.58566 4.58592 6.66707 4.38027 6.66646 4.16669C6.66646 3.81409 6.47844 3.37659 6.10604 2.86461C6.08208 2.8318 6.05396 2.79951 6.03052 2.76774C6.79094 2.0542 7.74146 1.6667 8.74979 1.6667C9.28566 1.66515 9.81639 1.77122 10.3105 1.9786C10.8046 2.18598 11.2521 2.49046 11.6263 2.87399C12.0944 3.35426 12.44 3.94017 12.6338 4.5822C12.8276 5.22422 12.864 5.90347 12.7399 6.56252C12.7194 6.67005 12.7203 6.78054 12.7426 6.88771C12.7648 6.99488 12.808 7.09661 12.8695 7.1871C12.9311 7.27759 13.0099 7.35507 13.1014 7.41511C13.1929 7.47514 13.2954 7.51656 13.4029 7.537C13.4544 7.54668 13.5067 7.55156 13.5592 7.55159C13.7529 7.55139 13.9405 7.48368 14.0898 7.36011C14.239 7.23654 14.3405 7.06482 14.3769 6.8745C14.4403 6.54097 14.4745 6.20253 14.4789 5.86305C14.8863 5.94098 15.25 6.16799 15.4989 6.49972C15.7478 6.83146 15.8641 7.24408 15.825 7.65698C15.786 8.06987 15.5944 8.45337 15.2877 8.73255C14.981 9.01173 14.5812 9.16652 14.1664 9.16669V9.16669ZM19.9998 17.9167C19.9998 18.4692 19.7803 18.9991 19.3896 19.3898C18.9989 19.7805 18.469 20 17.9164 20H16.6664V11.6667H17.9164C18.469 11.6667 18.9989 11.8862 19.3896 12.2769C19.7803 12.6676 19.9998 13.1975 19.9998 13.75V17.9167Z" fill="black"/>
</svg>
