<svg width="22" height="26" viewBox="0 0 22 26" fill="none" xmlns="http://www.w3.org/2000/svg">
<path d="M18.125 7.25013C19.1625 7.25013 20 6.41263 20 5.37513C20 4.33763 19.1625 1.90043 18.125 1.90043C17.0875 1.90043 16.25 4.33763 16.25 5.37513C16.25 6.41263 17.0875 7.25013 18.125 7.25013ZM18.125 5.06263C18.475 5.06263 18.75 5.33763 18.75 5.68763C18.75 6.03763 18.475 6.31263 18.125 6.31263C17.775 6.31263 17.5 6.03763 17.5 5.68763C17.5 5.33763 17.775 5.06263 18.125 5.06263ZM10.625 6.00013C11.6625 6.00013 12.5 5.16263 12.5 4.12513C12.5 3.08763 11.6625 0.730469 10.625 0.730469C9.5875 0.730469 8.75 3.08763 8.75 4.12513C8.75 5.16263 9.5875 6.00013 10.625 6.00013ZM10.625 3.81263C10.975 3.81263 11.25 4.08763 11.25 4.43763C11.25 4.78763 10.975 5.06263 10.625 5.06263C10.275 5.06263 10 4.78763 10 4.43763C10 4.08763 10.275 3.81263 10.625 3.81263ZM3.125 7.25013C4.1625 7.25013 5 6.41263 5 5.37513C5 4.33763 4.1625 2.00013 3.125 2.00013C2.0875 2.00013 1.25 4.33763 1.25 5.37513C1.25 6.41263 2.0875 7.25013 3.125 7.25013ZM3.125 5.06263C3.475 5.06263 3.75 5.33763 3.75 5.68763C3.75 6.03763 3.475 6.31263 3.125 6.31263C2.775 6.31263 2.5 6.03763 2.5 5.68763C2.5 5.33763 2.775 5.06263 3.125 5.06263ZM21.25 12.2501C21.25 12.9376 20.6875 13.5001 20 13.5001H19.375V16.0001C19.375 17.3876 18.2625 18.5001 16.875 18.5001H11.875V23.5001H13.125C13.788 23.5001 14.4239 23.7635 14.8928 24.2324C15.3616 24.7012 15.625 25.3371 15.625 26.0001H5.625C5.625 24.6251 6.75 23.5001 8.125 23.5001H9.375V18.5001H4.375C3.71196 18.5001 3.07607 18.2367 2.60723 17.7679C2.13839 17.2991 1.875 16.6632 1.875 16.0001V13.5001H1.25C0.5625 13.5001 0 12.9376 0 12.2501C0 11.5626 0.5625 11.0001 1.25 11.0001V9.75014C1.25 9.06264 1.8125 8.50013 2.5 8.50013H3.75C4.4375 8.50013 5 9.06264 5 9.75014V11.0001C5.6875 11.0001 6.25 11.5626 6.25 12.2501C6.25 12.9376 5.6875 13.5001 5 13.5001H4.375V16.0001H9.375V13.5001H8.75C8.0625 13.5001 7.5 12.9376 7.5 12.2501C7.5 11.5626 8.0625 11.0001 8.75 11.0001V8.50013C8.75 7.81263 9.3125 7.25013 10 7.25013H11.25C11.9375 7.25013 12.5 7.81263 12.5 8.50013V11.0001C13.1875 11.0001 13.75 11.5626 13.75 12.2501C13.75 12.9376 13.1875 13.5001 12.5 13.5001H11.875V16.0001H16.875V13.5001H16.25C15.5625 13.5001 15 12.9376 15 12.2501C15 11.5626 15.5625 11.0001 16.25 11.0001V9.75014C16.25 9.06264 16.8125 8.50013 17.5 8.50013H18.75C19.4375 8.50013 20 9.06264 20 9.75014V11.0001C20.6875 11.0001 21.25 11.5626 21.25 12.2501Z" fill="black"/>
</svg>
