<svg width="20" height="25" viewBox="0 0 20 25" fill="none" xmlns="http://www.w3.org/2000/svg">
<path d="M10.7556 6.25365C11.5333 5.97455 12.1111 5.20702 12.2 4.34646C12.2556 3.79988 12.1444 3.28819 11.8889 2.86954L10.4667 0.287849C10.4169 0.200126 10.3461 0.127465 10.2614 0.0770002C10.1766 0.026535 10.0808 0 9.98333 0C9.88584 0 9.79002 0.026535 9.70528 0.0770002C9.62055 0.127465 9.5498 0.200126 9.5 0.287849L8.07778 2.86954C7.88889 3.21842 7.77778 3.62544 7.77778 4.06735C7.77778 5.60242 9.22222 6.80023 10.7556 6.25365ZM15.0333 17.9294L13.9222 16.7665L12.7222 18.0108C11.2778 19.5226 8.74445 19.5343 7.28889 18.0108L6.1 16.7665L4.88889 18.0108C4.16667 18.7667 3.2 19.1854 2.17778 19.1854C1.36667 19.1854 0.622222 18.9179 0 18.476V22.6742C0 23.9534 1 25 2.22222 25H17.7778C19 25 20 23.9534 20 22.6742V18.476C19.1667 19.0691 18.1 19.3482 16.9556 19.0807C16.2222 18.9179 15.5667 18.4876 15.0333 17.9294ZM16.6667 9.88198H11.1111V8.71905C11.1111 8.07945 10.6111 7.55613 10 7.55613C9.38889 7.55613 8.88889 8.07945 8.88889 8.71905V9.88198H3.33333C1.48889 9.88198 0 11.4403 0 13.3708V15.0686C0 16.0571 0.555556 17.0107 1.45556 17.3247C2.26667 17.6038 3.14445 17.3945 3.71111 16.7898L6.08889 14.3127L8.45556 16.7898C9.3 17.6736 10.6889 17.6736 11.5333 16.7898L13.9111 14.3127L16.2778 16.7898C16.7556 17.2898 17.4222 17.5224 18.1111 17.4294C19.2111 17.2782 19.9889 16.1967 19.9889 15.0337V13.3824C19.9929 12.9235 19.9098 12.4684 19.7445 12.0433C19.5793 11.6183 19.335 11.2318 19.026 10.9062C18.7171 10.5806 18.3494 10.3225 17.9444 10.1467C17.5394 9.97085 17.1051 9.88088 16.6667 9.88198Z" fill="black"/>
</svg>
