<svg width="26" height="25" viewBox="0 0 26 25" fill="none" xmlns="http://www.w3.org/2000/svg">
<path d="M23.6155 0C17.2732 4.14816 9.38234 6.03133 0 5.78302V6.7407C10.0927 7.00241 18.5897 4.82583 25.308 0H23.6155ZM24.9913 1.8853L20.5163 4.34507L25.2136 7.59018L24.9913 1.8853H24.9913ZM19.1663 4.9428L14.2706 6.39484L18.1704 10.5645L19.1663 4.94285V4.9428ZM12.3312 6.83065L7.27965 7.57837L10.5531 12.256L12.3312 6.83065V6.83065ZM5.23839 7.70119L0.134258 7.85641L2.84148 12.8829L5.23833 7.70119H5.23839ZM0 13.695V14.6876C12.3152 18.0534 19.6214 19.013 25.3196 19.2051V18.2477C19.658 18.0563 12.3962 17.0979 0 13.6949V13.695ZM2.30743 16.4208L3.58687 21.9848L7.27044 17.6229L2.30743 16.4208V16.4208ZM10.3421 18.4149L11.9349 23.8974L15.3652 19.3337L10.3422 18.4149H10.3421ZM18.4852 19.7153L20.6456 25L23.5771 20.1009L18.4852 19.7153Z" fill="black"/>
</svg>
