<svg width="22" height="25" viewBox="0 0 22 25" fill="none" xmlns="http://www.w3.org/2000/svg">
<path d="M5.09186 0.000938287C4.67712 0.0078355 4.25093 0.0568588 3.81853 0.153473C-1.52278 1.34733 -1.60056 9.3508 5.7568 11.9352L4.43705 13.3213L7.09152 14.573L7.18596 12.2617C8.7625 12.9305 9.77762 13.625 10.3992 14.3309C11.1576 15.1924 11.3827 16.0719 11.3674 17.1296C11.3651 17.2864 11.3563 17.4466 11.3425 17.6104C9.12355 17.1957 7.26209 18.1399 6.40005 19.5386C5.89634 20.3559 5.73049 21.343 6.05519 22.2544C6.37989 23.1658 7.18766 23.9569 8.46094 24.4264L8.80415 23.4962C7.73524 23.102 7.20209 22.5202 6.98859 21.9211C6.77531 21.3221 6.87484 20.6609 7.24565 20.0593C7.88629 19.0197 9.32521 18.2068 11.2115 18.5886C10.9033 20.3697 10.2433 22.5034 10.2019 25H11.1933C11.2379 22.7325 11.8658 20.7341 12.1815 18.8787C14.3835 19.7159 16.362 19.3288 17.6412 18.2619C18.5522 17.5021 19.1026 16.402 19.155 15.2229L20.1017 16.8642L21.5011 14.9774L19.3672 14.2346C24.3095 8.77786 20.657 2.00782 15.6583 3.34497C10.5803 4.70341 9.59049 11.8716 18.1503 14.6807C18.279 15.7741 17.8403 16.8053 17.0063 17.5009C16.0103 18.3315 14.44 18.693 12.4932 17.9386C12.4345 17.9158 12.376 17.8948 12.3176 17.8739C12.3408 17.6284 12.3555 17.3841 12.359 17.1427C12.3766 15.9216 12.0684 14.7262 11.1437 13.6759C10.3689 12.796 9.19209 12.0185 7.46296 11.3001C12.9859 5.30198 9.75639 -0.0768942 5.09191 0.000832133L5.09186 0.000938287Z" fill="black"/>
</svg>
