<svg width="16" height="26" viewBox="0 0 16 26" fill="none" xmlns="http://www.w3.org/2000/svg">
<path d="M15.9789 1.61436C15.9634 1.38358 15.7851 1.21057 15.5806 1.22805C15.3761 1.24548 15.2227 1.44668 15.2382 1.67746C15.3174 2.86103 15.2052 4.58733 14.2205 6.09013C13.2344 7.59507 11.8358 8.11863 11.0844 8.39996C9.97174 8.81644 8.95032 8.92496 8.00291 8.89692C8.08594 8.69478 8.13263 8.46983 8.13263 8.23272C8.13263 7.49452 7.68305 6.87256 7.07665 6.69706V6.15069H9.05965C9.81055 6.15069 10.4214 5.46139 10.4214 4.61418V4.16721C10.4214 3.93574 10.2551 3.74819 10.05 3.74819H8.24267L8.9858 1.04354C9.05364 0.796628 9.01463 0.53562 8.87868 0.327552C8.74274 0.119483 8.5334 0.00015948 8.30428 0.00015948H6.33386C6.12876 0.00015948 5.96249 0.18771 5.96249 0.419186C5.96249 0.650661 6.12876 0.838212 6.33386 0.838212H8.2646L7.46506 3.74824H5.93385L4.83969 0.278597C4.77097 0.0605682 4.55845 -0.0530779 4.3653 0.0242632C4.17202 0.101853 4.07117 0.341546 4.13989 0.559575L5.14547 3.74814H3.38987C3.18476 3.74814 3.0185 3.93569 3.0185 4.16716V4.61413C3.0185 5.46134 3.62936 6.15064 4.38026 6.15064H6.33395V6.7114C5.75055 6.90403 5.32299 7.51295 5.32299 8.23272C5.32299 8.34941 5.33451 8.46305 5.35587 8.57262C3.88103 8.3378 2.59853 8.22386 1.5407 9.32825C1.25279 9.6289 0.573254 10.4587 0.482022 11.6676C0.475843 11.7495 0.346918 13.6838 1.73472 14.7331C2.2875 15.151 2.86071 15.2669 3.32636 15.2669C3.51226 15.2669 3.68087 15.2484 3.82427 15.2233C3.93201 15.5731 4.14872 15.8656 4.42837 16.0491C3.05469 16.9097 2.12278 18.5635 2.12278 20.4584C2.12278 21.3963 2.35432 22.3074 2.7836 23.0957H1.73883C0.780037 23.0957 0 23.9759 0 25.0577V25.0792C0 25.3107 0.166265 25.4982 0.37137 25.4982H13.0686C13.2737 25.4982 13.44 25.3107 13.44 25.0792V25.0577C13.44 23.9758 12.66 23.0957 11.7011 23.0957H3.6904C3.1574 22.3504 2.86552 21.4212 2.86552 20.4584C2.86552 18.1416 4.53602 16.2568 6.58933 16.2568C8.64264 16.2568 10.3132 18.1416 10.3132 20.4584C10.3132 20.8996 10.253 21.334 10.1342 21.7494C10.0712 21.9696 10.1784 22.2058 10.3737 22.2768C10.5689 22.3479 10.7781 22.2269 10.8411 22.0066C10.9836 21.5079 11.0559 20.987 11.0559 20.4584C11.0559 18.6202 10.1791 17.0091 8.87277 16.1286C9.35382 15.8913 9.69103 15.3495 9.69103 14.7202C9.69103 14.0287 9.28399 13.4426 8.7261 13.2505C8.63112 12.5592 8.26103 11.9695 7.74661 11.6277C7.97237 11.3463 8.11008 10.9735 8.11008 10.565C8.11008 10.2587 8.03248 9.97257 7.89857 9.72989C8.9358 9.76799 10.0796 9.65907 11.3182 9.19543C12.0886 8.90703 13.6917 8.30688 14.8177 6.58844C15.9972 4.78828 16.0515 2.69928 15.9789 1.61436ZM3.5135 23.9337C3.51509 23.9337 3.51663 23.934 3.51822 23.934C3.52007 23.934 3.52188 23.9338 3.52374 23.9337H11.7012C12.1264 23.9337 12.4903 24.2358 12.6329 24.66H0.807137C0.949744 24.2359 1.31361 23.9337 1.73883 23.9337H3.5135ZM4.38022 5.31259C4.03895 5.31259 3.76124 4.99924 3.76124 4.61418V4.58624H5.67181H7.73875H9.67867V4.61418C9.67867 4.99929 9.401 5.31259 9.05969 5.31259H4.38022ZM6.63541 7.49372C6.6581 7.49861 6.6814 7.50139 6.70532 7.50139C6.73543 7.50139 6.76456 7.49691 6.79263 7.48929C7.12736 7.52615 7.38994 7.84537 7.38994 8.23267C7.38994 8.47939 7.28286 8.69791 7.11898 8.83402C6.81191 8.8007 6.51289 8.75802 6.22109 8.71246C6.12435 8.58258 6.06578 8.41524 6.06578 8.23267C6.06573 7.85618 6.31405 7.54472 6.63541 7.49372ZM6.70532 9.81774C7.07043 9.81774 7.36743 10.1529 7.36743 10.5648C7.36743 10.9767 7.07043 11.3118 6.70532 11.3118C6.34027 11.3119 6.04327 10.9767 6.04327 10.5648C6.04327 10.1529 6.34027 9.81774 6.70532 9.81774ZM3.78287 14.3803C3.42681 14.4535 2.75972 14.4991 2.1482 14.0367C1.12007 13.2594 1.22097 11.7536 1.22211 11.7385C1.29123 10.8216 1.82075 10.1775 2.04514 9.94324C2.92912 9.02028 4.0555 9.20529 5.61447 9.46117C5.63884 9.4652 5.66355 9.46923 5.68809 9.47322C5.44816 9.75773 5.30048 10.142 5.30048 10.5648C5.30048 10.9795 5.44247 11.3572 5.67419 11.6399C5.16966 11.9835 4.8076 12.5675 4.71376 13.2503C4.25015 13.41 3.89105 13.8419 3.78287 14.3803ZM8.32931 14.0217C8.67062 14.0217 8.94829 14.335 8.94829 14.7202C8.94829 15.1053 8.67062 15.4186 8.32931 15.4186H5.1106C4.76929 15.4186 4.49162 15.1053 4.49162 14.7202C4.49162 14.335 4.76929 14.0217 5.1106 14.0217H8.32931ZM7.95264 13.1836H5.48736C5.64713 12.5862 6.13918 12.15 6.71998 12.15C7.30078 12.15 7.79278 12.5863 7.95264 13.1836Z" fill="black"/>
<path d="M11 22C10.6875 24.5 9.5 23.5 5 23.5C2.79086 23.5 2.5 22.1779 2.5 19.9688C2.5 17.7596 4.29086 15.9688 6.5 15.9688C8.70914 15.9688 11.5 18 11 22Z" fill="black"/>
<path d="M7.92354 13.5789C7.92354 14.1573 6.72092 13.9716 5.91361 13.9716C5.10629 13.9716 5 13.6255 5 13.0472C5 12.4688 5.65446 12 6.46177 12C7.26908 12 8.28898 12.6627 7.92354 13.5789Z" fill="black"/>
</svg>
