<svg width="28" height="25" viewBox="0 0 28 25" fill="none" xmlns="http://www.w3.org/2000/svg">
<path d="M22.2222 11.1111C22.2222 9.77917 21.2778 8.66528 20.0264 8.39722C20.5264 7.5625 20.8333 6.59722 20.8333 5.55556C20.8333 2.49167 18.3417 0 15.2778 0C13.1708 0 11.3597 1.19028 10.4167 2.92222C9.47361 1.19028 7.6625 0 5.55556 0C2.49167 0 0 2.49167 0 5.55556C0 6.80833 0.433333 7.95417 1.13472 8.88333C0.78415 9.13969 0.498783 9.4749 0.301667 9.86189C0.104552 10.2489 0.00121383 10.6768 0 11.1111V22.2222C0 23.7542 1.24583 25 2.77778 25H19.4444C20.9764 25 22.2222 23.7542 22.2222 22.2222V18.5583L27.7778 21.3361V11.6139L22.2222 14.3917V11.1111ZM15.2778 2.77778C16.8097 2.77778 18.0556 4.02361 18.0556 5.55556C18.0556 7.0875 16.8097 8.33333 15.2778 8.33333C13.7458 8.33333 12.5 7.0875 12.5 5.55556C12.5 4.02361 13.7458 2.77778 15.2778 2.77778ZM5.55556 2.77778C7.0875 2.77778 8.33333 4.02361 8.33333 5.55556C8.33333 7.0875 7.0875 8.33333 5.55556 8.33333C4.02361 8.33333 2.77778 7.0875 2.77778 5.55556C2.77778 4.02361 4.02361 2.77778 5.55556 2.77778ZM1.5 22.2222V11.1111H11.1111H20.5V22.2222H1.5Z" fill="black"/>
<rect x="1" y="16" width="20" height="7" fill="black"/>
<rect x="1" y="11" width="20" height="2" fill="black"/>
</svg>
