<svg width="33" height="25" viewBox="0 0 33 25" fill="none" xmlns="http://www.w3.org/2000/svg">
<path d="M32.4432 21.6538H28.1028C29.0317 20.4259 29.067 18.7986 28.1467 17.127C28.487 16.3419 28.5173 15.4794 28.1895 14.7455C28.1358 14.6254 28.0398 14.5293 27.9196 14.4757C27.2507 14.1769 26.4752 14.1758 25.7487 14.4355C25.4279 14.1911 25.0901 13.9612 24.7397 13.752C20.9421 11.4848 13.1081 9.58696 8.47654 10.4413L7.28473 9.425C7.57077 9.10121 7.74427 8.69686 7.80247 8.21609C7.88309 7.54992 7.68836 6.90262 7.2682 6.44015C6.83131 5.95938 6.21221 5.68965 5.56684 5.69948C4.92211 5.70966 4.31249 5.9967 3.8944 6.48702C3.46548 6.98994 3.28449 7.65761 3.38684 8.30013C3.38449 8.30013 3.38214 8.30013 3.37979 8.30013C2.5909 8.30013 1.85578 8.71474 1.44189 9.41731C0.975718 10.2086 1.05891 11.2557 1.64424 11.9635C2.07323 12.4824 2.70051 12.7827 3.36526 12.7878C3.37103 12.7878 3.37673 12.7878 3.3825 12.7878C4.04119 12.7878 4.66285 12.5013 5.09034 12C5.09804 11.991 5.10566 11.9819 5.11321 11.9727L5.43536 12.2475C3.33022 14.5465 3.34005 16.9997 3.7419 18.6879C4.07317 20.0798 4.70779 21.1604 5.03486 21.6536H0.534191C0.239175 21.6536 0 21.8928 0 22.1878C0 22.4828 0.239175 22.722 0.534191 22.722H4.82553L5.86186 24.1038C6.2833 24.6658 6.95431 25.0012 7.65674 25.0012H25.3207C26.0231 25.0012 26.6941 24.6658 27.1155 24.1038L28.1519 22.722H32.4432C32.7382 22.722 32.9774 22.4828 32.9774 22.1878C32.9774 21.8928 32.7382 21.6538 32.4432 21.6538ZM25.1628 16.0473C25.7667 15.4433 26.6101 15.1859 27.2859 15.3792C27.4794 16.055 27.2218 16.8983 26.6178 17.5023C26.23 17.8901 25.7435 18.1342 25.266 18.2087L25.7875 17.6871C25.9962 17.4785 25.9961 17.1402 25.7875 16.9316C25.5788 16.723 25.2407 16.723 25.0321 16.9316L24.4407 17.5231C24.4892 17.0067 24.7413 16.4688 25.1628 16.0473ZM24.1919 14.6693C24.3729 14.7774 24.5499 14.8916 24.7226 15.0105C24.6137 15.0974 24.5082 15.191 24.4073 15.2918C23.512 16.1872 23.1593 17.4331 23.4746 18.4892L22.8125 19.1514C22.4784 18.94 22.085 18.8147 21.6633 18.806C21.4774 17.6035 20.8757 16.522 19.9365 15.721C18.4634 14.4648 15.9191 13.5694 13.4586 12.7036C12.1518 12.2437 10.8919 11.8002 9.9237 11.3436C14.086 11.0724 20.6137 12.533 24.1919 14.6693ZM22.792 21.0484C22.792 21.263 22.7325 21.4717 22.6221 21.6538H20.6115C20.501 21.4717 20.4416 21.263 20.4416 21.0484C20.4416 20.4003 20.9688 19.8731 21.6168 19.8731C22.2648 19.8731 22.792 20.4003 22.792 21.0484ZM8.84321 11.9898C9.94707 12.6004 11.4916 13.144 13.104 13.7114C15.4723 14.5448 17.9213 15.4066 19.2432 16.5339C20.0032 17.182 20.4827 18.0629 20.6169 19.0407C20.5155 19.0914 20.4185 19.1496 20.3265 19.2145C19.7962 18.601 19.0193 18.2349 18.198 18.2349C16.6467 18.2349 15.3846 19.4971 15.3846 21.0484C15.3846 21.2527 15.4083 21.4556 15.4522 21.6538H14.109C13.8687 20.6738 12.9832 19.9444 11.9301 19.9444C11.9218 19.9444 11.9133 19.9444 11.9049 19.9446C11.3425 19.0283 10.795 18.0203 10.2642 17.0417C9.44927 15.5391 8.66843 14.0998 7.89121 13.1062L8.84321 11.9898ZM19.4568 21.6538H16.5633C16.4913 21.4607 16.4529 21.2557 16.4529 21.0484C16.4529 20.0862 17.2358 19.3033 18.198 19.3033C18.7597 19.3033 19.2882 19.5808 19.6155 20.0362C19.4609 20.3405 19.3732 20.6843 19.3732 21.0484C19.3732 21.2548 19.4017 21.4583 19.4568 21.6538ZM12.9756 21.6537H6.32625C6.52119 21.2738 6.91614 21.0127 7.37169 21.0127C7.42875 21.0127 7.49235 21.0194 7.57796 21.0347C7.80168 21.0744 8.02583 20.9684 8.13716 20.7704C8.4482 20.2169 9.02826 19.8731 9.65091 19.8731C10.2029 19.8731 10.721 20.1437 11.0483 20.5907C11.0839 20.6481 11.1192 20.7065 11.155 20.7633C11.1694 20.7862 11.1857 20.8073 11.2028 20.8273C11.3224 20.9878 11.5229 21.0706 11.7239 21.0347C11.8095 21.0195 11.8731 21.0127 11.9302 21.0127C12.3858 21.0127 12.7808 21.2738 12.9756 21.6537ZM5.3204 10.7455C5.18842 10.6328 5.00986 10.5915 4.84162 10.6344C4.67346 10.6774 4.53664 10.7994 4.47474 10.9616C4.42196 11.1002 4.35736 11.213 4.27737 11.3068C4.05337 11.5695 3.72766 11.7195 3.38236 11.7195C3.37936 11.7195 3.37637 11.7195 3.37331 11.7195C3.01989 11.7168 2.69816 11.5618 2.46754 11.2828C2.16817 10.9208 2.12394 10.3644 2.36234 9.95969C2.61405 9.53241 3.08855 9.30627 3.57125 9.38404C3.86384 9.43105 4.16227 9.32072 4.35045 9.09615C4.5308 8.88098 4.58357 8.59487 4.49169 8.33069C4.35487 7.93745 4.43742 7.49664 4.70715 7.1804C4.92624 6.92356 5.24569 6.77313 5.58358 6.76786C5.9256 6.76451 6.24348 6.90134 6.47739 7.15875C6.68558 7.38788 6.78444 7.73517 6.74171 8.08781C6.69185 8.49971 6.52561 8.75911 6.18586 8.95505C6.0355 9.04173 5.93664 9.19615 5.92076 9.36902C5.90488 9.54188 5.97404 9.71168 6.10616 9.82429L7.92006 11.371C7.92896 11.3786 7.93851 11.3861 7.94755 11.3937L7.16101 12.316C7.15211 12.3082 7.1432 12.3 7.1343 12.2924L5.3204 10.7455ZM5.69761 20.6964C5.40231 20.1912 5.00893 19.3971 4.7813 18.4406C4.28884 16.3721 4.78279 14.5237 6.24818 12.9407L6.44113 13.1052C7.32063 13.8552 8.29428 15.6504 9.32512 17.551C9.55511 17.975 9.7883 18.4046 10.0249 18.8311C9.90177 18.8142 9.77705 18.8047 9.65098 18.8047C8.76244 18.8047 7.92939 19.2339 7.40182 19.9445C7.39178 19.9444 7.38174 19.9443 7.37177 19.9443C6.7068 19.9443 6.1088 20.2353 5.69761 20.6964ZM26.2608 23.4629C26.04 23.7573 25.6886 23.933 25.3207 23.933H7.65674C7.28879 23.933 6.93729 23.7573 6.71656 23.4629L6.161 22.7222H26.7444C26.7447 22.7222 26.7452 22.7222 26.7455 22.7222C26.7459 22.7222 26.7462 22.7222 26.7465 22.7222H26.8164L26.2608 23.4629ZM26.5788 21.6538H23.7768C23.8318 21.4583 23.8604 21.2548 23.8604 21.0484C23.8604 20.6372 23.7487 20.2518 23.5548 19.9201L24.2605 19.2143C24.4895 19.2744 24.7266 19.3039 24.9665 19.3039C25.8132 19.3039 26.6942 18.9369 27.3733 18.2577C27.4029 18.2282 27.4318 18.1982 27.4601 18.1679C27.8555 19.1425 28.0645 20.5899 26.5788 21.6538Z" fill="black"/>
<path d="M15.3828 6.23472C15.3828 7.13394 15.7637 7.60973 16.0699 7.992C16.3326 8.3202 16.5224 8.55731 16.5224 9.08153C16.5224 9.37655 16.7616 9.61572 17.0566 9.61572C17.3516 9.61572 17.5908 9.37655 17.5908 9.08153C17.5908 8.18231 17.2099 7.7066 16.9038 7.32426C16.6411 6.99605 16.4512 6.75887 16.4512 6.23472C16.4512 5.70979 16.6412 5.47232 16.904 5.14376C17.21 4.76121 17.5908 4.28514 17.5908 3.38542C17.5908 2.48534 17.21 2.00899 16.904 1.62622C16.6412 1.29737 16.4512 1.05976 16.4512 0.534191C16.4512 0.239175 16.212 0 15.917 0C15.622 0 15.3828 0.239175 15.3828 0.534191C15.3828 1.43427 15.7636 1.91062 16.0696 2.29339C16.3325 2.62231 16.5224 2.85992 16.5224 3.38549C16.5224 3.91042 16.3325 4.14789 16.0696 4.47645C15.7637 4.85893 15.3828 5.33507 15.3828 6.23472Z" fill="black"/>
<path d="M18.2686 6.76619C18.4382 6.76619 18.5894 6.68706 18.6873 6.56377C19.0728 6.08186 19.8722 5.08064 19.8722 3.38327C19.8722 2.6938 19.7397 2.04387 19.4782 1.45142C19.3591 1.18154 19.0438 1.05932 18.7738 1.17841C18.5038 1.2975 18.3817 1.61289 18.5008 1.88283C18.7019 2.33846 18.8039 2.84331 18.8039 3.38327C18.8039 4.70193 18.2131 5.44624 17.8564 5.89225C17.7802 5.98456 17.7344 6.10294 17.7344 6.23207C17.7344 6.52702 17.9736 6.76619 18.2686 6.76619Z" fill="black"/>
<path d="M13.9833 8.47134C14.0548 8.47134 14.1276 8.45688 14.1973 8.42632C14.4675 8.30802 14.5907 7.99299 14.4724 7.72276C14.2743 7.27033 14.1739 6.76933 14.1739 6.23365C14.1739 4.90957 14.7699 4.16448 15.1261 3.7191C15.1357 3.70707 15.1448 3.6946 15.1533 3.68178C15.273 3.50236 15.2724 3.26497 15.1528 3.08555C14.9892 2.84011 14.6575 2.7738 14.412 2.9374C14.3488 2.97957 14.2975 3.03285 14.2589 3.09296C13.863 3.58905 13.1055 4.58172 13.1055 6.23365C13.1055 6.9177 13.2361 7.56293 13.4937 8.15132C13.5815 8.35182 13.7776 8.47134 13.9833 8.47134Z" fill="black"/>
<path d="M11.6806 21.448C12.2706 21.9057 12.9559 22.2248 13.6858 22.3817C14.4156 22.5387 15.1715 22.5296 15.8973 22.3549C16.6232 22.1803 17.3005 21.8447 17.8791 21.3729C18.4578 20.9012 18.923 20.3053 19.2404 19.6294C20.0869 17.9118 19.8251 15.7905 18.5893 14.3217C17.5224 13.0477 16.0383 12.4596 14.5871 12.508C13.5339 12.5379 12.5146 12.267 11.6974 11.6341L11.6707 11.6135C10.6404 10.8154 9.24565 10.9928 8.50391 11.9602L7.82306 12.8398C7.46302 13.3052 7.30249 13.8946 7.37676 14.4785C7.45102 15.0623 7.754 15.5927 8.2191 15.9532C9.0807 16.6206 9.62667 17.5763 9.88423 18.6569C10.1398 19.7217 10.7469 20.7178 11.6806 21.448Z" fill="black"/>
</svg>
