<svg width="35" height="25" viewBox="0 0 35 25" fill="none" xmlns="http://www.w3.org/2000/svg">
<path d="M1.19922 17.6866C0.646936 17.6866 0.199219 18.1344 0.199219 18.6866V24C0.199219 24.5523 0.646934 25 1.19922 25H24.3878C24.9401 25 25.3878 24.5523 25.3878 24V18.6866C25.3878 18.1344 24.9401 17.6866 24.3878 17.6866H1.19922ZM24.1768 23C24.1768 23.5523 23.7291 24 23.1768 24H12.6818H2.18912C1.63596 24 1.18788 23.5509 1.18912 22.9978L1.19698 19.4978C1.19822 18.9463 1.64557 18.5 2.19698 18.5H9.519H23.1768C23.7291 18.5 24.1768 18.9477 24.1768 19.5V23ZM27.7921 18.3902C27.7921 18.0016 28.1071 17.6866 28.4957 17.6866V17.6866C28.8842 17.6866 29.1992 18.0016 29.1992 18.3902V24.2964C29.1992 24.685 28.8842 25 28.4957 25V25C28.1071 25 27.7921 24.685 27.7921 24.2964V18.3902ZM31.5187 18.3534C31.5187 17.9852 31.2202 17.6866 30.852 17.6866V17.6866C30.4837 17.6866 30.1852 17.9852 30.1852 18.3534V24.3332C30.1852 24.7015 30.4837 25 30.852 25V25C31.2202 25 31.5187 24.7015 31.5187 24.3332V18.3534ZM27.7302 11.5424C27.3768 11.0092 27.2065 10.3756 27.2451 9.73714C27.2836 9.09869 27.5289 8.49013 27.9439 8.00339C28.8017 7.00572 29.2996 5.74888 29.3577 4.43443C29.4158 3.11998 29.0308 1.8241 28.2644 0.75463L27.8689 0.226569C27.7621 0.0839538 27.5943 0 27.4162 0V0C26.9957 0 26.7222 0.442487 26.9103 0.818564L27.001 1L27.8667 2.46784C28.2492 3.00148 28.4413 3.64811 28.4123 4.304C28.3833 4.95989 28.1349 5.58704 27.7068 6.08485C26.8753 7.06036 26.3838 8.27996 26.3065 9.55944C26.2293 10.8389 26.5704 12.1088 27.2786 13.1773L27.8283 14.0019H27.892C28.5238 14.0019 28.9006 13.2978 28.5501 12.7722V12.7722L27.7302 11.5424Z" fill="black"/>
<path d="M30.0228 11.5424C29.6695 11.0092 29.4992 10.3756 29.5377 9.73714C29.5763 9.09869 29.8216 8.49013 30.2365 8.00339C31.0943 7.00573 31.5922 5.74888 31.6503 4.43443C31.7084 3.11998 31.3234 1.8241 30.557 0.754631L30.1616 0.226568C30.0548 0.0839535 29.8871 0 29.709 0C29.2885 0 29.015 0.442486 29.2031 0.818563L29.2936 1L30.1594 2.46784C30.5418 3.00149 30.734 3.64811 30.705 4.304C30.676 4.95989 30.4275 5.58704 29.9995 6.08485C29.1679 7.06036 28.6764 8.27996 28.5992 9.55944C28.5219 10.8389 28.8631 12.1088 29.5712 13.1773L29.9306 13.7163C30.0495 13.8948 30.2498 14.0019 30.4642 14.0019C30.9765 14.0019 31.282 13.431 30.9979 13.0048L30.8428 12.7722L30.0228 11.5424Z" fill="black"/>
<rect x="1" y="18" width="24" height="6" fill="black"/>
<rect x="3" y="18" width="1" height="7" fill="white"/>
</svg>
