<svg width="25" height="25" viewBox="0 0 25 25" fill="none" xmlns="http://www.w3.org/2000/svg">
<g clip-path="url(#clip0_1536_8468)">
<path d="M24.7642 10.4167H23.2121H21.4904H14.2975C14.4779 10.0467 14.5833 9.51708 14.5833 8.75C14.5833 7.96583 14.4775 7.70125 14.2904 7.30042C14.2421 7.19708 14.1871 7.08042 14.1267 6.92875L14.0221 6.66667H12.9167V5.58917L13.6279 4.87792C13.7908 4.715 13.7908 4.45167 13.6279 4.28875C13.465 4.12583 13.2017 4.12583 13.0387 4.28875L12.9167 4.41083V4.16667V3.75V3.69083C13.6333 3.50458 14.1667 2.85792 14.1667 2.08333V0.833333H12.9167V0H10.8333V2.5C10.8333 3.27458 11.3667 3.92125 12.0833 4.1075V5.24417L11.9613 5.12208C11.7983 4.95917 11.535 4.95917 11.3721 5.12208C11.2092 5.285 11.2092 5.54833 11.3721 5.71125L12.0833 6.4225V6.66667H10.9779L10.8733 6.92917C10.8129 7.08042 10.7583 7.1975 10.7096 7.30083C10.5225 7.70125 10.4167 7.96583 10.4167 8.75C10.4167 9.51708 10.5221 10.0467 10.7025 10.4167H4.54375H2.5H1.66667H0V12.0833V12.9167V15H0.416667V25H2.5V15H2.91667V12.9167H5.40875C6.20667 13.3017 7.07417 13.7196 7.94458 14.1387C10.9654 15.5925 13.9867 17.0425 13.9867 17.0425L14.1954 17.1425L20.8354 12.9167H22.0833V15H22.5V25H24.5833V15H25V12.9167V12.0833V10.4167H24.7642ZM13.3333 1.66667V2.08333C13.3333 2.39125 13.1654 2.66083 12.9167 2.80458V1.66667H13.3333ZM11.6667 2.5V0.833333H12.0833V3.22125C11.8346 3.0775 11.6667 2.80792 11.6667 2.5ZM11.25 8.75C11.25 8.11292 11.3175 7.96917 11.4646 7.65333C11.4871 7.60542 11.5108 7.555 11.5354 7.5H13.4646C13.4892 7.555 13.5129 7.60542 13.5354 7.65333C13.6825 7.96917 13.75 8.11292 13.75 8.75C13.75 10.4167 13.3583 10.4167 12.5 10.4167C11.6417 10.4167 11.25 10.4167 11.25 8.75ZM18.6287 11.25L14.1383 14.1075C13.395 13.7504 10.7804 12.495 8.19333 11.25H18.6287V11.25ZM1.66667 24.1667H1.25V15H1.66667V24.1667ZM2.08333 14.1667H0.833333V12.9167H2.08333V14.1667ZM0.833333 12.0833V11.25H2.01625C2.29292 11.4083 2.79167 11.6512 3.68417 12.0833H2.91667H0.833333ZM14.1383 16.1908C11.6246 14.9846 6.48083 12.5125 3.87542 11.25H6.27292C9.73292 12.9179 13.9863 14.9588 13.9863 14.9588L14.195 15.0587L20.1808 11.25H21.9025L19.8787 12.5379L19.2833 12.9167L14.1383 16.1908ZM23.75 24.1667H23.3333V15H23.75V24.1667ZM24.1667 14.1667H22.9167V12.9167H24.1667V14.1667ZM22.145 12.0833L22.7796 11.6796L23.4546 11.25H24.1667V12.0833H22.145Z" fill="black"/>
<path d="M13.9985 14.5001L6.99854 11L19.9269 11.2748L13.9985 14.5001Z" fill="black"/>
<rect y="11" width="3" height="5" fill="black"/>
<rect x="22" y="11" width="3" height="5" fill="black"/>
</g>
<defs>
<clipPath id="clip0_1536_8468">
<rect width="25" height="25" fill="white"/>
</clipPath>
</defs>
</svg>
