<svg width="12" height="10" viewBox="0 0 12 10" fill="none" xmlns="http://www.w3.org/2000/svg">
<path d="M12 3.0232C12.0009 3.41985 11.9209 3.81273 11.7646 4.17912C11.6083 4.54552 11.3788 4.87815 11.0894 5.15779L6.30581 9.87574C6.26594 9.9151 6.21841 9.94635 6.16599 9.96768C6.11357 9.98901 6.05731 10 6.00048 10C5.94365 10 5.88739 9.98901 5.83497 9.96768C5.78255 9.94635 5.73502 9.9151 5.69515 9.87574L0.911611 5.15779C0.328419 4.59166 0.00050286 3.82356 5.7787e-07 3.02244C-0.000501705 2.22133 0.326451 1.45283 0.908932 0.886016C1.49141 0.319198 2.28171 0.000488754 3.10597 5.61673e-07C3.93022 -0.00048763 4.72092 0.317285 5.30411 0.883413L6.00048 1.51598L6.70167 0.88133C7.13688 0.460446 7.69062 0.174316 8.29301 0.0590621C8.89539 -0.0561918 9.5194 0.00459768 10.0863 0.233756C10.6531 0.462914 11.1374 0.850168 11.478 1.34663C11.8186 1.84309 12.0003 2.4265 12 3.0232Z" fill="#58AA06"/>
</svg>
