<svg width="17" height="14" viewBox="0 0 17 14" fill="none" xmlns="http://www.w3.org/2000/svg">
<path d="M16.9676 5.00518L15.7519 0.637658C15.7024 0.454297 15.5958 0.29265 15.4484 0.17748C15.301 0.0623096 15.1209 -3.38179e-05 14.9357 1.37622e-08H2.0643C1.68173 1.37622e-08 1.35017 0.262051 1.24815 0.637658L0.0324217 5.00518C-0.120607 5.55548 0.287469 6.11453 0.848574 6.11453H2.71892L1.82626 12.9977C1.80824 13.1118 1.81268 13.2284 1.83932 13.3407C1.86595 13.453 1.91424 13.5586 1.98131 13.6513C2.04839 13.7441 2.1329 13.8221 2.22983 13.8807C2.32676 13.9393 2.43415 13.9773 2.54564 13.9925C2.65713 14.0077 2.77046 13.9998 2.87891 13.9691C2.98736 13.9385 3.08873 13.8859 3.17702 13.8143C3.26531 13.7427 3.33873 13.6537 3.39293 13.5524C3.44713 13.4512 3.48101 13.3398 3.49257 13.2248L3.96866 9.60854H13.0398L13.5074 13.2248C13.5359 13.4318 13.6356 13.6213 13.7885 13.7592C13.9413 13.897 14.1372 13.9739 14.3406 13.9761C14.8507 13.9761 15.2418 13.5131 15.1737 12.9977L14.2811 6.11453H16.1514C16.7125 6.11453 17.1206 5.55548 16.9676 5.00518ZM4.1897 7.86153L4.41924 6.11453H12.5808L12.8103 7.86153H4.1897Z" fill="black"/>
</svg>
